<svg width="256" height="34" viewBox="0 0 256 34" fill="none" xmlns="http://www.w3.org/2000/svg">
<path d="M78.0685 33.5934C76.8632 33.6108 75.667 33.3827 74.5527 32.9229C73.5473 32.5106 72.6876 31.8081 72.0835 30.9049C71.4639 29.9471 71.1492 28.8239 71.1811 27.6836C71.1364 26.5692 71.453 25.4701 72.0835 24.5501C72.7236 23.669 73.6052 22.9921 74.6217 22.6011C75.7877 22.1385 77.0336 21.9106 78.2879 21.9305H83.6775V20.7837C83.6957 20.345 83.6258 19.9071 83.4719 19.4959C83.318 19.0847 83.0831 18.7085 82.7813 18.3897C82.1546 17.763 81.2835 17.4872 79.9361 17.4872C78.9073 17.4147 77.8897 17.7374 77.0909 18.3897C76.4769 19.0097 76.0436 19.7854 75.8375 20.6333L71.8767 19.2858C72.161 18.2608 72.671 17.3123 73.3693 16.5098C74.0676 15.7074 74.9367 15.0713 75.9127 14.6483C77.1889 14.1051 78.5687 13.8484 79.9549 13.8962C82.3489 13.8962 84.2979 14.5229 85.6453 15.6949C86.9927 16.8668 87.7385 18.6842 87.7385 20.9341V28.1913C87.7385 28.937 88.1145 29.3131 88.7851 29.3131H90.3581V33.0733H87.3625C86.5602 33.103 85.7709 32.8648 85.1189 32.3964C84.8233 32.1839 84.5862 31.9001 84.4295 31.5714C84.2728 31.2427 84.2017 30.8798 84.2227 30.5163V30.4411H83.596C83.3965 30.8863 83.1463 31.3069 82.8502 31.6945C82.3833 32.243 81.7925 32.6727 81.1268 32.9479C80.1838 33.4337 79.1274 33.6566 78.0685 33.5934V33.5934ZM78.8143 30.0776C79.4385 30.1164 80.0642 30.0305 80.6549 29.825C81.2456 29.6195 81.7895 29.2985 82.2549 28.8806C82.7089 28.4661 83.0653 27.9559 83.2983 27.387C83.5313 26.818 83.6351 26.2044 83.6023 25.5905V25.2144H78.5135C77.7212 25.2055 76.9428 25.4229 76.2699 25.8411C75.9805 26.0346 75.7506 26.3046 75.6056 26.6211C75.4607 26.9375 75.4064 27.288 75.4489 27.6335C75.4399 27.9837 75.5169 28.3308 75.6731 28.6444C75.8294 28.9579 76.0601 29.2284 76.3451 29.4321C77.0776 29.9066 77.9433 30.133 78.8143 30.0776Z" fill="white"/>
<path d="M108.22 33.0731L108.22 7.09427H112.563V16.9857H113.233C113.487 16.5181 113.815 16.0948 114.205 15.7323C114.725 15.2628 115.338 14.9065 116.003 14.6857C117.077 14.3153 118.215 14.1704 119.348 14.2599C120.48 14.3494 121.581 14.6714 122.584 15.2059C123.682 15.8302 124.568 16.7687 125.128 17.9007C125.759 19.1794 126.069 20.5927 126.03 22.0181V33.0919H121.687V22.3691C121.733 21.7618 121.657 21.1515 121.464 20.5737C121.272 19.996 120.966 19.4623 120.566 19.0037C120.146 18.6154 119.652 18.316 119.113 18.1232C118.575 17.9304 118.003 17.8484 117.432 17.8819C116.761 17.8595 116.093 17.9816 115.474 18.2401C114.854 18.4985 114.297 18.8872 113.841 19.3797C112.939 20.3511 112.494 21.8489 112.494 23.7165V33.0731H108.22Z" fill="white"/>
<path d="M139.272 33.5937C137.559 33.6325 135.862 33.2472 134.334 32.4719C132.902 31.7501 131.707 30.6348 130.887 29.2569C130.019 27.7042 129.586 25.9462 129.634 24.1681V23.5414C129.594 21.7662 130.027 20.0122 130.887 18.4589C131.703 17.0581 132.898 15.9156 134.334 15.1625C135.866 14.3984 137.56 14.0137 139.272 14.0407C140.985 14.0057 142.681 14.3909 144.211 15.1625C145.662 15.8916 146.861 17.0401 147.651 18.4589C148.512 20.0122 148.944 21.7662 148.905 23.5414V24.1681C148.942 25.9452 148.51 27.7006 147.651 29.2569C146.856 30.6518 145.656 31.7728 144.211 32.4719C142.676 33.2302 140.984 33.6146 139.272 33.5937V33.5937ZM139.272 29.7771C139.976 29.7995 140.677 29.6789 141.333 29.4225C141.989 29.1661 142.587 28.7793 143.089 28.2856C144.13 27.1158 144.666 25.5815 144.58 24.0177V23.6417C144.653 22.0817 144.119 20.5542 143.089 19.3802C142.597 18.8714 142.002 18.4743 141.344 18.2159C140.685 17.9574 139.979 17.8437 139.272 17.8823C137.828 17.8503 136.43 18.3884 135.38 19.3802C134.337 20.5467 133.799 22.079 133.883 23.6417V24.0177C133.809 25.5876 134.348 27.1246 135.387 28.3044C136.439 29.2854 137.834 29.8143 139.272 29.7771V29.7771Z" fill="white"/>
<path d="M152.967 33.0735V14.5921H157.153V16.7605H157.83C158.075 16.0722 158.563 15.4971 159.202 15.1436C159.917 14.772 160.716 14.5928 161.521 14.6234H163.765V18.44H161.446C160.36 18.3675 159.287 18.7153 158.45 19.4114C158.051 19.8091 157.743 20.2896 157.549 20.8191C157.355 21.3486 157.28 21.9142 157.329 22.476V33.1299L152.967 33.0735Z" fill="white"/>
<path d="M172.988 33.5937C171.782 33.6111 170.586 33.3829 169.472 32.9231C168.468 32.5077 167.61 31.8058 167.003 30.9051C166.385 29.9467 166.073 28.8236 166.107 27.6839C166.063 26.5705 166.377 25.4723 167.003 24.5504C167.646 23.6699 168.529 22.9932 169.547 22.6014C170.713 22.1377 171.959 21.9097 173.213 21.9308H178.628V20.7839C178.646 20.3452 178.576 19.9074 178.422 19.4962C178.268 19.085 178.034 18.7088 177.732 18.3899C177.105 17.7632 176.234 17.4875 174.887 17.4875C173.858 17.4149 172.84 17.7377 172.041 18.3899C171.427 19.01 170.994 19.7856 170.788 20.6335L166.821 19.2861C167.115 18.3037 167.598 17.3882 168.244 16.5913C168.969 15.7654 169.862 15.1032 170.863 14.6485C172.127 14.1079 173.494 13.8491 174.868 13.8902C177.262 13.8902 179.205 14.5169 180.552 15.6888C181.899 16.8608 182.651 18.6782 182.651 20.9281V28.1853C182.651 28.931 183.021 29.3071 183.698 29.3071H185.265V33.0673H182.275C181.473 33.097 180.684 32.8588 180.032 32.3904C179.735 32.1786 179.497 31.8951 179.339 31.5664C179.181 31.2377 179.109 30.8744 179.129 30.5103V30.4351H178.503C178.303 30.8803 178.053 31.3009 177.757 31.6885C177.289 32.2356 176.698 32.665 176.033 32.9419C175.092 33.4186 174.042 33.6432 172.988 33.5937V33.5937ZM173.74 30.0779C174.364 30.1167 174.99 30.0308 175.58 29.8253C176.171 29.6198 176.715 29.2988 177.18 28.8809C177.633 28.4655 177.989 27.9552 178.222 27.3865C178.455 26.8177 178.559 26.2045 178.528 25.5907V25.2147H173.439C172.646 25.2047 171.868 25.4222 171.195 25.8414C170.906 26.0349 170.676 26.3049 170.531 26.6213C170.386 26.9378 170.332 27.2883 170.374 27.6338C170.364 27.9842 170.44 28.3319 170.596 28.6457C170.753 28.9596 170.984 29.2298 171.271 29.4324C172.01 29.913 172.885 30.1396 173.765 30.0779H173.74Z" fill="white"/>
<path d="M60.7641 7.09436V17.882H50.4424L50.4424 7.09436H45.9552L45.9552 33.0732H50.4424V21.9994H60.7641V33.0732H65.3328V7.09436H60.7641Z" fill="white"/>
<path d="M98.5683 7.09427H94.2253L94.2254 15.2631H98.5684L98.5683 7.09427Z" fill="white"/>
<path d="M103.883 15.3376H98.5681V19.455H103.883V15.3376Z" fill="white"/>
<path d="M94.2254 19.6062V29.1822C94.1923 30.2541 94.5687 31.2984 95.2782 32.1026C95.6578 32.4575 96.1045 32.7329 96.592 32.9126C97.0795 33.0923 97.5981 33.1728 98.1172 33.1492H103.281V29.6334H99.521C98.8504 29.6334 98.4744 29.2574 98.4744 28.5053V19.6062H94.2254Z" fill="white"/>
<path d="M187.947 13.9963V12.1311H189.773V2.26117H187.947V0.395996H194.844C195.66 0.395996 196.372 0.538475 196.981 0.823433C197.59 1.09544 198.063 1.49049 198.4 2.0086C198.749 2.51375 198.924 3.11605 198.924 3.81549V4.00978C198.924 4.63151 198.808 5.14314 198.574 5.54467C198.341 5.9462 198.056 6.25706 197.72 6.47726C197.396 6.69745 197.085 6.85288 196.787 6.94355V7.25442C197.085 7.33213 197.402 7.48756 197.739 7.72071C198.089 7.9409 198.38 8.25177 198.613 8.6533C198.859 9.05483 198.982 9.57941 198.982 10.227V10.4213C198.982 11.1726 198.808 11.8137 198.458 12.3448C198.108 12.8759 197.622 13.2839 197.001 13.5688C196.392 13.8538 195.686 13.9963 194.883 13.9963H187.947ZM191.891 12.0922H194.63C195.33 12.0922 195.88 11.9238 196.282 11.5871C196.683 11.2503 196.884 10.784 196.884 10.1882V10.0133C196.884 9.4175 196.683 8.95121 196.282 8.61444C195.893 8.27767 195.343 8.10929 194.63 8.10929H191.891V12.0922ZM191.891 6.18582H194.63C195.291 6.18582 195.822 6.02392 196.224 5.7001C196.625 5.36333 196.826 4.90999 196.826 4.34007V4.14578C196.826 3.57587 196.625 3.129 196.224 2.80519C195.835 2.46842 195.304 2.30003 194.63 2.30003H191.891V6.18582Z" fill="#B399EA"/>
<path d="M205.648 14.1711C204.923 14.1711 204.275 14.0092 203.705 13.6854C203.135 13.3616 202.689 12.9018 202.365 12.3059C202.041 11.7101 201.879 10.9977 201.879 10.1688V4.41779H203.88V10.0328C203.88 10.8617 204.087 11.477 204.502 11.8785C204.916 12.2671 205.493 12.4614 206.231 12.4614C207.047 12.4614 207.701 12.1894 208.193 11.6454C208.699 11.0884 208.951 10.2918 208.951 9.2556V4.41779H210.952V13.9963H208.99V12.5585H208.679C208.498 12.9471 208.174 13.3162 207.708 13.666C207.241 14.0027 206.555 14.1711 205.648 14.1711Z" fill="#B399EA"/>
<path d="M214.493 13.9963V4.41779H216.495V13.9963H214.493ZM215.504 3.11605C215.115 3.11605 214.785 2.993 214.513 2.7469C214.254 2.48785 214.124 2.15755 214.124 1.75602C214.124 1.35449 214.254 1.03068 214.513 0.784576C214.785 0.525523 215.115 0.395996 215.504 0.395996C215.905 0.395996 216.236 0.525523 216.495 0.784576C216.754 1.03068 216.883 1.35449 216.883 1.75602C216.883 2.15755 216.754 2.48785 216.495 2.7469C216.236 2.993 215.905 3.11605 215.504 3.11605Z" fill="#B399EA"/>
<path d="M220.047 13.9963V0.395996H222.049V13.9963H220.047Z" fill="#B399EA"/>
<path d="M229.565 14.2683C228.775 14.2683 228.043 14.074 227.369 13.6854C226.696 13.2968 226.152 12.7399 225.737 12.0145C225.336 11.2762 225.135 10.389 225.135 9.35274V9.06131C225.135 8.03805 225.336 7.15727 225.737 6.41897C226.139 5.68067 226.676 5.11723 227.35 4.72865C228.023 4.34007 228.762 4.14578 229.565 4.14578C230.187 4.14578 230.705 4.2235 231.119 4.37893C231.547 4.53436 231.896 4.73513 232.168 4.98123C232.44 5.21438 232.648 5.46048 232.79 5.71953H233.101V0.395996H235.102V13.9963H233.14V12.6362H232.829C232.583 13.0507 232.207 13.4263 231.702 13.7631C231.21 14.0999 230.497 14.2683 229.565 14.2683ZM230.128 12.5197C230.996 12.5197 231.708 12.2412 232.265 11.6842C232.835 11.1273 233.12 10.3307 233.12 9.29445V9.11959C233.12 8.09634 232.842 7.30623 232.285 6.74926C231.728 6.1923 231.009 5.91382 230.128 5.91382C229.273 5.91382 228.561 6.1923 227.991 6.74926C227.434 7.30623 227.156 8.09634 227.156 9.11959V9.29445C227.156 10.3307 227.434 11.1273 227.991 11.6842C228.561 12.2412 229.273 12.5197 230.128 12.5197Z" fill="#B399EA"/>
<path d="M243.022 14.2683C242.05 14.2683 241.202 14.0675 240.477 13.666C239.751 13.2515 239.181 12.6751 238.767 11.9368C238.365 11.1855 238.165 10.3177 238.165 9.33331V9.10016C238.165 8.10281 238.365 7.23499 238.767 6.49669C239.168 5.74543 239.725 5.16904 240.438 4.76751C241.163 4.35303 241.999 4.14578 242.944 4.14578C243.864 4.14578 244.667 4.35303 245.353 4.76751C246.053 5.16904 246.597 5.73248 246.985 6.45783C247.374 7.18317 247.568 8.03157 247.568 9.00302V9.76075H240.205C240.231 10.6027 240.509 11.2762 241.04 11.7814C241.584 12.2736 242.258 12.5197 243.061 12.5197C243.812 12.5197 244.375 12.3513 244.751 12.0145C245.14 11.6777 245.437 11.2892 245.645 10.8488L247.296 11.7036C247.115 12.0663 246.849 12.4484 246.5 12.85C246.163 13.2515 245.716 13.5883 245.159 13.8603C244.602 14.1323 243.89 14.2683 243.022 14.2683ZM240.224 8.22586H245.528C245.476 7.50051 245.217 6.93708 244.751 6.53554C244.285 6.12106 243.676 5.91382 242.925 5.91382C242.173 5.91382 241.558 6.12106 241.079 6.53554C240.613 6.93708 240.328 7.50051 240.224 8.22586Z" fill="#B399EA"/>
<path d="M250.56 13.9963V4.41779H252.522V5.54467H252.833C252.989 5.14314 253.235 4.8517 253.571 4.67037C253.921 4.47608 254.349 4.37893 254.854 4.37893H256V6.18582H254.776C254.128 6.18582 253.597 6.36716 253.183 6.72983C252.768 7.07956 252.561 7.62357 252.561 8.36187V13.9963H250.56Z" fill="#B399EA"/>
<path fill-rule="evenodd" clip-rule="evenodd" d="M11.7156 7.79261L13.0775 6.37744L33.9104 18.8358L32.3578 20.1406L11.7156 7.79261ZM7.55623 11.7595L6.78165 12.5352L27.2115 24.7549L28.769 23.4527L8.17254 11.1359L7.55623 11.7595ZM1.15185 13.1024L11.7613 19.4494C14.8 21.2541 17.8717 23.0767 20.0381 24.3621L20.0405 24.3636L20.0489 24.3685C21.4916 25.2246 22.531 25.8413 22.8888 26.0541L23 26.1148C24.7937 27.0934 26.1375 25.8378 26.1375 25.8378L26.1455 25.8233L2.58142 11.7242L1.15185 13.1024ZM8.13389 7.3315L6.80321 8.76996L29.7884 22.5156L31.3384 21.2156L8.13389 7.3315ZM9.293 21.616L10.5186 20.4276L15.3634 23.2655L14.1329 24.4512L9.293 21.616ZM13.1218 25.4303L11.8197 26.6899L6.97977 23.8546L8.28186 22.5951L13.1218 25.4303ZM10.8087 27.6693L9.50658 28.9289L4.66666 26.0937L5.96875 24.8341L10.8087 27.6693ZM8.4955 29.908L7.19342 31.1676L2.35349 28.3324L3.65558 27.0728L8.4955 29.908ZM2.27572 31.8788C4.22365 33.0231 5.7463 32.4172 6.1727 32.1417L1.33761 29.3091L0.0355201 30.5687L2.27572 31.8788Z" fill="url(#paint0_linear_1347_191)"/>
<defs>
<linearGradient id="paint0_linear_1347_191" x1="30.3706" y1="22.8534" x2="-1.79599" y2="5.4015" gradientUnits="userSpaceOnUse">
<stop offset="0.152539" stop-color="#AF64EE"/>
<stop offset="0.823591" stop-color="#02FE57"/>
</linearGradient>
</defs>
</svg>
