<svg width="441" height="88" viewBox="0 0 441 88" fill="currentColor" xmlns="http://www.w3.org/2000/svg">
    <path d="M186.068 74.3498C183.213 74.3909 180.379 73.8525 177.74 72.7675C175.358 71.7948 173.321 70.137 171.89 68.0057C170.422 65.7457 169.677 63.0955 169.752 60.4047C169.647 57.775 170.397 55.1816 171.89 53.0107C173.407 50.9316 175.495 49.3343 177.903 48.4116C180.665 47.3201 183.616 46.7824 186.588 46.8293H199.355V44.1231C199.398 43.088 199.233 42.0547 198.868 41.0844C198.504 40.1141 197.947 39.2265 197.232 38.4741C195.748 36.9953 193.684 36.3446 190.492 36.3446C188.055 36.1734 185.645 36.9351 183.752 38.4741C182.298 39.9372 181.271 41.7675 180.783 43.7682L171.4 40.5888C172.074 38.1699 173.282 35.9318 174.936 34.0384C176.591 32.1449 178.649 30.644 180.961 29.6456C183.984 28.3641 187.253 27.7584 190.537 27.8711C196.208 27.8711 200.825 29.3499 204.017 32.1153C207.209 34.8806 208.975 39.1691 208.975 44.478V61.6026C208.975 63.3623 209.866 64.2496 211.455 64.2496H215.181V73.1224H208.085C206.184 73.1925 204.314 72.6306 202.77 71.5253C202.07 71.0237 201.508 70.3541 201.137 69.5785C200.766 68.803 200.597 67.9466 200.647 67.0889V66.9114H199.162C198.69 67.9618 198.097 68.9543 197.396 69.8691C196.289 71.1634 194.89 72.1771 193.313 72.8267C191.079 73.9728 188.577 74.499 186.068 74.3498ZM187.835 66.0537C189.314 66.1452 190.796 65.9426 192.195 65.4576C193.594 64.9727 194.883 64.2152 195.985 63.2292C197.061 62.251 197.905 61.0472 198.457 59.7046C199.009 58.3621 199.255 56.9142 199.177 55.4655V54.5783H187.122C185.245 54.5571 183.402 55.0702 181.807 56.0571C181.122 56.5136 180.577 57.1507 180.234 57.8974C179.89 58.6442 179.762 59.4712 179.863 60.2864C179.841 61.1128 180.024 61.9318 180.394 62.6717C180.764 63.4116 181.31 64.0498 181.986 64.5306C183.721 65.6503 185.771 66.1843 187.835 66.0537Z" fill="white"/>
    <path d="M257.48 73.1216L257.48 11.8204H267.768V35.1608H269.357C269.958 34.0574 270.735 33.0585 271.658 32.2032C272.892 31.0954 274.342 30.2545 275.919 29.7336C278.462 28.8597 281.159 28.5177 283.841 28.7289C286.523 28.94 289.133 29.6999 291.507 30.961C294.108 32.4341 296.207 34.6487 297.534 37.3199C299.029 40.3373 299.763 43.6721 299.672 47.0356V73.166H289.384V47.8637C289.492 46.4307 289.312 44.9906 288.856 43.6273C288.4 42.264 287.676 41.0047 286.727 39.9226C285.732 39.0065 284.562 38.2998 283.286 37.845C282.011 37.3901 280.656 37.1964 279.304 37.2755C277.714 37.2226 276.132 37.5109 274.664 38.1207C273.196 38.7305 271.878 39.6476 270.797 40.8099C268.659 43.102 267.605 46.6363 267.605 51.0431V73.1216H257.48Z" fill="white"/>
    <path d="M331.041 74.3507C326.982 74.4423 322.963 73.5329 319.342 71.7036C315.951 70.0004 313.119 67.3686 311.177 64.1174C309.122 60.4533 308.096 56.3052 308.208 52.1095V50.6307C308.114 46.4416 309.139 42.3029 311.177 38.6376C313.111 35.3322 315.941 32.6364 319.342 30.8591C322.973 29.0563 326.985 28.1485 331.041 28.2121C335.099 28.1296 339.115 29.0384 342.739 30.8591C346.177 32.5797 349.017 35.2898 350.89 38.6376C352.928 42.3029 353.953 46.4416 353.859 50.6307V52.1095C353.948 56.3027 352.924 60.4449 350.89 64.1174C349.006 67.4088 346.164 70.0539 342.739 71.7036C339.104 73.493 335.096 74.4 331.041 74.3507ZM331.041 65.3448C332.709 65.3976 334.37 65.1129 335.924 64.508C337.478 63.9031 338.892 62.9904 340.082 61.8252C342.549 59.065 343.819 55.4446 343.615 51.7546V50.8673C343.788 47.1862 342.522 43.5818 340.082 40.8115C338.918 39.611 337.508 38.674 335.948 38.0641C334.388 37.4543 332.714 37.1859 331.041 37.2771C327.621 37.2015 324.308 38.4714 321.822 40.8115C319.35 43.564 318.074 47.1798 318.274 50.8673V51.7546C318.1 55.4589 319.377 59.0857 321.837 61.8696C324.329 64.1845 327.634 65.4324 331.041 65.3448Z" fill="white"/>
    <path d="M363.46 73.1224V29.5126H373.377V34.6292H374.981C375.561 33.0051 376.717 31.6482 378.232 30.814C379.925 29.9372 381.818 29.5142 383.725 29.5866H389.04V38.5925H383.547C380.974 38.4214 378.433 39.242 376.45 40.8846C375.503 41.8229 374.774 42.9568 374.315 44.2063C373.856 45.4558 373.678 46.7904 373.793 48.1159V73.2556L363.46 73.1224Z" fill="white"/>
    <path d="M410.894 74.3507C408.039 74.3918 405.205 73.8534 402.565 72.7683C400.188 71.788 398.154 70.1318 396.716 68.0066C395.253 65.7449 394.513 63.0948 394.593 60.4056C394.489 57.7783 395.233 55.187 396.716 53.0116C398.24 50.9338 400.333 49.3371 402.743 48.4125C405.505 47.3183 408.457 46.7805 411.428 46.8302H424.255V44.124C424.298 43.0888 424.133 42.0556 423.768 41.0853C423.403 40.115 422.847 39.2274 422.132 38.4749C420.648 36.9961 418.584 36.3455 415.392 36.3455C412.955 36.1743 410.545 36.9359 408.652 38.4749C407.198 39.938 406.171 41.7684 405.683 43.7691L396.285 40.5896C396.982 38.2714 398.127 36.1113 399.656 34.2308C401.375 32.282 403.49 30.7194 405.861 29.6465C408.855 28.3708 412.093 27.7602 415.348 27.8572C421.019 27.8572 425.621 29.3359 428.813 32.1013C432.005 34.8667 433.786 39.1552 433.786 44.4641V61.5886C433.786 63.3484 434.662 64.2357 436.266 64.2357H439.977V73.1085H432.895C430.995 73.1786 429.125 72.6166 427.581 71.5114C426.878 71.0114 426.313 70.3425 425.939 69.5669C425.566 68.7912 425.395 67.934 425.443 67.075V66.8975H423.958C423.486 67.9479 422.893 68.9403 422.192 69.8551C421.082 71.1461 419.684 72.1592 418.109 72.8127C415.878 73.9376 413.392 74.4675 410.894 74.3507ZM412.675 66.0546C414.154 66.146 415.636 65.9434 417.036 65.4585C418.435 64.9736 419.723 64.2161 420.826 63.2301C421.899 62.2499 422.741 61.0458 423.293 59.7037C423.845 58.3616 424.092 56.9147 424.018 55.4664V54.5791H411.963C410.086 54.5555 408.241 55.0687 406.648 56.0579C405.963 56.5145 405.418 57.1516 405.074 57.8983C404.731 58.645 404.603 59.4721 404.703 60.2873C404.678 61.1143 404.859 61.9346 405.229 62.6752C405.599 63.4157 406.148 64.0534 406.826 64.5314C408.577 65.6655 410.651 66.2002 412.735 66.0546H412.675Z" fill="white"/>
    <path d="M145.081 11.8204V37.2756H120.63L120.63 11.8204H110L110 73.1217H120.63V46.9913H145.081V73.1217H155.904V11.8204H145.081Z" fill="white"/>
    <path d="M234.635 11.8204H224.347L224.348 31.0942H234.635L234.635 11.8204Z" fill="white"/>
    <path d="M247.216 31.2726H234.628V40.9874H247.216V31.2726Z" fill="white"/>
    <path d="M224.342 41.3451V63.9391C224.263 66.4682 225.155 68.9321 226.835 70.8296C227.734 71.6669 228.793 72.3166 229.947 72.7407C231.102 73.1648 232.33 73.3546 233.56 73.299H245.792V65.0037H236.885C235.297 65.0037 234.406 64.1165 234.406 62.3421V41.3451H224.342Z" fill="white"/>
    <g clip-path="url(#clip0_856_7593)">
        <path fill-rule="evenodd" clip-rule="evenodd" d="M4.35794 23.8762L34.0006 40.9C47.8294 48.6533 61.9073 56.5439 64.3565 57.8992C64.4535 57.9511 64.5649 58.0041 64.6619 58.0559C69.6011 60.4667 74.2618 54.484 74.2618 54.484L74.3113 54.416L10.3489 18.1106L4.35794 23.8762Z" fill="url(#paint0_linear_856_7593)"/>
        <path fill-rule="evenodd" clip-rule="evenodd" d="M39.5198 7.50127L33.5664 13.169L85.5223 43.4411L91.7338 37.4779L39.5198 7.50127Z" fill="url(#paint1_linear_856_7593)"/>
        <path fill-rule="evenodd" clip-rule="evenodd" d="M24.9696 12.3613L18.9485 18.1388L76.7265 51.8382L82.9812 45.8787L24.9696 12.3613Z" fill="url(#paint2_linear_856_7593)"/>
        <path fill-rule="evenodd" clip-rule="evenodd" d="M31.8081 44.1353L28.5601 47.2487L41.3939 54.4377L44.6563 51.3255L31.8081 44.1353Z" fill="url(#paint3_linear_856_7593)"/>
        <path fill-rule="evenodd" clip-rule="evenodd" d="M39.1844 56.689L35.7304 60.0013L22.9279 52.7862L26.3349 49.5132L39.1844 56.689Z" fill="url(#paint4_linear_856_7593)"/>
        <path fill-rule="evenodd" clip-rule="evenodd" d="M29.7899 65.6985L33.2427 62.4005L20.3932 55.2247L16.9404 58.5226L29.7899 65.6985Z" fill="url(#paint5_linear_856_7593)"/>
        <path fill-rule="evenodd" clip-rule="evenodd" d="M27.3071 68.0697L23.8543 71.3677L11.0844 64.112L14.4589 60.8795L27.3071 68.0697Z" fill="url(#paint6_linear_856_7593)"/>
        <path fill-rule="evenodd" clip-rule="evenodd" d="M21.3502 73.7512C20.2404 74.4927 16.2794 76.1421 11.12 73.2642L5.12497 69.8221L8.51512 66.5766L21.3646 73.7524L21.3502 73.7512Z" fill="url(#paint7_linear_856_7593)"/>
    </g>
    <defs>
        <linearGradient id="paint0_linear_856_7593" x1="74.1151" y1="52.6388" x2="-1.64308" y2="59.08" gradientUnits="userSpaceOnUse">
            <stop offset="0.156205" stop-color="#AF64EE"/>
            <stop offset="1" stop-color="#02FE57"/>
        </linearGradient>
        <linearGradient id="paint1_linear_856_7593" x1="91.3944" y1="38.0124" x2="28.3041" y2="42.5745" gradientUnits="userSpaceOnUse">
            <stop offset="0.156205" stop-color="#AF64EE"/>
            <stop offset="1" stop-color="#02FE57"/>
        </linearGradient>
        <linearGradient id="paint2_linear_856_7593" x1="82.6613" y1="45.8502" x2="13.1362" y2="50.9498" gradientUnits="userSpaceOnUse">
            <stop offset="0.156205" stop-color="#AF64EE"/>
            <stop offset="1" stop-color="#02FE57"/>
        </linearGradient>
        <linearGradient id="paint3_linear_856_7593" x1="59.9476" y1="62.4926" x2="5.46726" y2="59.9568" gradientUnits="userSpaceOnUse">
            <stop offset="0.100929" stop-color="#AF64EE"/>
            <stop offset="1" stop-color="#02FE57"/>
        </linearGradient>
        <linearGradient id="paint4_linear_856_7593" x1="47.2988" y1="62.3651" x2="13.3456" y2="62.0966" gradientUnits="userSpaceOnUse">
            <stop offset="0.144404" stop-color="#AF64EE"/>
            <stop offset="1" stop-color="#02FE57"/>
        </linearGradient>
        <linearGradient id="paint5_linear_856_7593" x1="41.3809" y1="68.0622" x2="7.33951" y2="67.8041" gradientUnits="userSpaceOnUse">
            <stop offset="0.144404" stop-color="#AF64EE"/>
            <stop offset="1" stop-color="#02FE57"/>
        </linearGradient>
        <linearGradient id="paint6_linear_856_7593" x1="35.4078" y1="73.7301" x2="1.51368" y2="73.4574" gradientUnits="userSpaceOnUse">
            <stop offset="0.144404" stop-color="#AF64EE"/>
            <stop offset="1" stop-color="#02FE57"/>
        </linearGradient>
        <linearGradient id="paint7_linear_856_7593" x1="35.851" y1="79.6856" x2="-4.13736" y2="80.2376" gradientUnits="userSpaceOnUse">
            <stop offset="0.144404" stop-color="#AF64EE"/>
            <stop offset="0.942412" stop-color="#02FE57"/>
        </linearGradient>
        <clipPath id="clip0_856_7593">
            <rect width="88.2275" height="69.1349" fill="white" transform="matrix(0.996223 0.086828 -0.0874847 0.996166 6.05078 4.58304)"/>
        </clipPath>
    </defs>
</svg>

