<svg width="230" height="40" viewBox="0 0 230 40" fill="none" xmlns="http://www.w3.org/2000/svg">
<path d="M97.2808 36.4656C95.7885 36.4871 94.3074 36.2057 92.9278 35.6386C91.683 35.1302 90.6186 34.2637 89.8705 33.1497C89.1033 31.9685 88.7137 30.5833 88.7532 29.1769C88.6979 27.8025 89.0899 26.447 89.8705 25.3123C90.6631 24.2257 91.7546 23.3908 93.0131 22.9085C94.4569 22.338 95.9994 22.057 97.5524 22.0815H104.226V20.6671C104.248 20.126 104.162 19.586 103.971 19.0788C103.78 18.5717 103.49 18.1078 103.116 17.7145C102.34 16.9416 101.261 16.6015 99.5932 16.6015C98.3194 16.512 97.0595 16.9101 96.0704 17.7145C95.3102 18.4792 94.7737 19.4359 94.5185 20.4816L89.6145 18.8198C89.9665 17.5555 90.5979 16.3857 91.4626 15.3961C92.3272 14.4064 93.4032 13.6219 94.6116 13.1001C96.1918 12.4303 97.9001 12.1137 99.6164 12.1727C102.581 12.1727 104.994 12.9456 106.662 14.3909C108.33 15.8363 109.254 18.0778 109.254 20.8526V29.803C109.254 30.7228 109.719 31.1865 110.55 31.1865H112.497V35.824H108.788C107.795 35.8607 106.818 35.567 106.01 34.9893C105.644 34.7271 105.351 34.3771 105.157 33.9718C104.963 33.5664 104.875 33.1188 104.901 32.6705V32.5778H104.125C103.878 33.1268 103.568 33.6455 103.201 34.1236C102.623 34.8001 101.892 35.33 101.067 35.6695C99.8999 36.2686 98.5919 36.5435 97.2808 36.4656V36.4656ZM98.2042 32.1295C98.9771 32.1773 99.7518 32.0714 100.483 31.8179C101.215 31.5645 101.888 31.1685 102.464 30.6532C103.026 30.1419 103.468 29.5127 103.756 28.811C104.045 28.1093 104.173 27.3526 104.132 26.5954V26.1316H97.8318C96.8508 26.1206 95.8871 26.3887 95.0539 26.9045C94.6956 27.1432 94.4109 27.4762 94.2314 27.8665C94.052 28.2567 93.9848 28.689 94.0374 29.1151C94.0262 29.547 94.1216 29.9751 94.315 30.3618C94.5085 30.7485 94.7941 31.0821 95.147 31.3334C96.0539 31.9186 97.1258 32.1977 98.2042 32.1295Z" fill="white"/>
<path d="M134.61 35.8238L134.61 3.78357H139.987V15.9829H140.817C141.131 15.4061 141.538 14.884 142.02 14.437C142.665 13.858 143.423 13.4185 144.247 13.1462C145.576 12.6895 146.986 12.5107 148.388 12.6211C149.79 12.7315 151.154 13.1286 152.394 13.7878C153.754 14.5577 154.851 15.7152 155.545 17.1113C156.326 18.6884 156.709 20.4314 156.662 22.1894V35.847H151.285V22.6223C151.341 21.8733 151.247 21.1206 151.009 20.408C150.77 19.6955 150.392 19.0373 149.896 18.4717C149.376 17.9929 148.764 17.6235 148.098 17.3858C147.431 17.148 146.723 17.0468 146.016 17.0881C145.185 17.0605 144.358 17.2112 143.591 17.5299C142.824 17.8486 142.135 18.328 141.57 18.9354C140.453 20.1335 139.902 21.9807 139.902 24.284V35.8238H134.61Z" fill="white"/>
<path d="M173.057 36.466C170.935 36.5138 168.835 36.0385 166.942 35.0824C165.17 34.1922 163.689 32.8167 162.675 31.1173C161.601 29.2022 161.064 27.0342 161.123 24.8412V24.0683C161.074 21.8788 161.609 19.7156 162.675 17.7999C163.686 16.0723 165.165 14.6632 166.942 13.7343C168.84 12.792 170.937 12.3175 173.057 12.3508C175.178 12.3077 177.277 12.7827 179.171 13.7343C180.968 14.6336 182.452 16.0501 183.431 17.7999C184.497 19.7156 185.032 21.8788 184.983 24.0683V24.8412C185.029 27.0328 184.494 29.1978 183.431 31.1173C182.446 32.8377 180.961 34.2202 179.171 35.0824C177.271 36.0176 175.176 36.4917 173.057 36.466V36.466ZM173.057 31.7589C173.928 31.7865 174.797 31.6377 175.609 31.3215C176.421 31.0053 177.16 30.5283 177.782 29.9193C179.072 28.4766 179.736 26.5843 179.629 24.6557V24.1919C179.719 22.268 179.057 20.384 177.782 18.9361C177.174 18.3086 176.437 17.8189 175.621 17.5001C174.806 17.1814 173.931 17.0411 173.057 17.0888C171.269 17.0493 169.538 17.713 168.238 18.9361C166.946 20.3748 166.28 22.2646 166.384 24.1919V24.6557C166.293 26.5918 166.961 28.4874 168.246 29.9425C169.549 31.1524 171.276 31.8047 173.057 31.7589V31.7589Z" fill="white"/>
<path d="M190.012 35.8242V13.0308H195.195V15.7051H196.033C196.337 14.8562 196.941 14.147 197.733 13.7109C198.618 13.2527 199.607 13.0316 200.604 13.0694H203.382V17.7765H200.511C199.166 17.6871 197.838 18.116 196.801 18.9745C196.307 19.465 195.926 20.0576 195.686 20.7107C195.446 21.3637 195.352 22.0613 195.413 22.7541V35.8938L190.012 35.8242Z" fill="white"/>
<path d="M214.8 36.466C213.308 36.4875 211.826 36.2061 210.447 35.639C209.204 35.1266 208.141 34.261 207.39 33.1502C206.625 31.9681 206.238 30.5829 206.28 29.1774C206.226 27.8042 206.615 26.4498 207.39 25.3128C208.186 24.2268 209.28 23.3923 210.54 22.909C211.983 22.3371 213.526 22.056 215.079 22.082H221.783V20.6675C221.806 20.1265 221.719 19.5864 221.529 19.0793C221.338 18.5721 221.048 18.1082 220.674 17.715C219.898 16.942 218.819 16.6019 217.151 16.6019C215.877 16.5125 214.617 16.9106 213.628 17.715C212.868 18.4797 212.332 19.4363 212.076 20.482L207.165 18.8202C207.529 17.6086 208.127 16.4795 208.926 15.4967C209.824 14.4781 210.93 13.6614 212.169 13.1006C213.734 12.4338 215.426 12.1147 217.128 12.1654C220.092 12.1654 222.497 12.9383 224.166 14.3837C225.834 15.829 226.765 18.0705 226.765 20.8453V29.7957C226.765 30.7155 227.223 31.1793 228.061 31.1793H230.001V35.8168H226.299C225.306 35.8534 224.329 35.5597 223.522 34.982C223.154 34.7207 222.859 34.3711 222.664 33.9657C222.468 33.5603 222.379 33.1123 222.404 32.6633V32.5705H221.628C221.381 33.1195 221.071 33.6382 220.705 34.1164C220.125 34.7911 219.394 35.3207 218.571 35.6622C217.405 36.2501 216.106 36.5271 214.8 36.466V36.466ZM215.731 32.1299C216.504 32.1777 217.279 32.0719 218.01 31.8184C218.741 31.5649 219.415 31.169 219.991 30.6537C220.552 30.1414 220.992 29.512 221.281 28.8105C221.569 28.1091 221.698 27.3528 221.659 26.5958V26.1321H215.359C214.377 26.1197 213.413 26.388 212.581 26.905C212.222 27.1436 211.938 27.4766 211.758 27.8669C211.579 28.2572 211.512 28.6895 211.564 29.1156C211.551 29.5478 211.645 29.9766 211.839 30.3636C212.033 30.7507 212.319 31.084 212.674 31.3338C213.589 31.9266 214.673 32.2061 215.762 32.1299H215.731Z" fill="white"/>
<path d="M75.8564 3.78357V17.0882H63.0766L63.0766 3.78357H57.5208L57.5208 35.8238H63.0766V22.1663H75.8564V35.8238H81.5131V3.78357H75.8564Z" fill="white"/>
<path d="M122.661 3.78351H117.284L117.284 13.8583H122.661L122.661 3.78351Z" fill="white"/>
<path d="M129.241 13.9504H122.661V19.0285H129.241V13.9504Z" fill="white"/>
<path d="M117.285 19.2148V31.025C117.244 32.3471 117.71 33.635 118.588 34.6268C119.058 35.0645 119.611 35.4041 120.215 35.6258C120.819 35.8475 121.461 35.9467 122.103 35.9176H128.497V31.5815H123.841C123.011 31.5815 122.546 31.1178 122.546 30.1903V19.2148H117.285Z" fill="white"/>
<g clip-path="url(#clip0_1348_5805)">
<path fill-rule="evenodd" clip-rule="evenodd" d="M2.27538 10.0843L17.7698 18.9821C24.9982 23.0345 32.3568 27.1586 33.637 27.867C33.6877 27.8941 33.7459 27.9219 33.7966 27.9489C36.3784 29.209 38.8146 26.082 38.8146 26.082L38.8404 26.0465L5.40691 7.07077L2.27538 10.0843Z" fill="url(#paint0_linear_1348_5805)"/>
<path fill-rule="evenodd" clip-rule="evenodd" d="M20.6527 1.52443L17.5408 4.48677L44.6985 20.309L47.9453 17.1922L20.6527 1.52443Z" fill="url(#paint1_linear_1348_5805)"/>
<path fill-rule="evenodd" clip-rule="evenodd" d="M13.0497 4.06517L9.9025 7.08486L40.1034 24.6985L43.3728 21.5836L13.0497 4.06517Z" fill="url(#paint2_linear_1348_5805)"/>
<path fill-rule="evenodd" clip-rule="evenodd" d="M16.6232 20.6725L14.9254 22.2999L21.6338 26.0577L23.3391 24.4309L16.6232 20.6725Z" fill="url(#paint3_linear_1348_5805)"/>
<path fill-rule="evenodd" clip-rule="evenodd" d="M20.4807 27.2342L18.6752 28.9656L11.9832 25.1942L13.7641 23.4833L20.4807 27.2342Z" fill="url(#paint4_linear_1348_5805)"/>
<path fill-rule="evenodd" clip-rule="evenodd" d="M15.5692 31.9436L17.374 30.2197L10.6574 26.4688L8.85254 28.1927L15.5692 31.9436Z" fill="url(#paint5_linear_1348_5805)"/>
<path fill-rule="evenodd" clip-rule="evenodd" d="M14.2702 33.1827L12.4653 34.9066L5.79028 31.114L7.5542 29.4243L14.2702 33.1827Z" fill="url(#paint6_linear_1348_5805)"/>
<path fill-rule="evenodd" clip-rule="evenodd" d="M11.1573 36.1526C10.5772 36.5402 8.50674 37.4023 5.80981 35.8981L2.67613 34.0988L4.44823 32.4023L11.1649 36.1532L11.1573 36.1526Z" fill="url(#paint7_linear_1348_5805)"/>
</g>
<defs>
<linearGradient id="paint0_linear_1348_5805" x1="38.7379" y1="25.1176" x2="-0.861346" y2="28.4847" gradientUnits="userSpaceOnUse">
<stop offset="0.156205" stop-color="#AF64EE"/>
<stop offset="1" stop-color="#02FE57"/>
</linearGradient>
<linearGradient id="paint1_linear_1348_5805" x1="47.7679" y1="17.4716" x2="14.7902" y2="19.8564" gradientUnits="userSpaceOnUse">
<stop offset="0.156205" stop-color="#AF64EE"/>
<stop offset="1" stop-color="#02FE57"/>
</linearGradient>
<linearGradient id="paint2_linear_1348_5805" x1="43.2056" y1="21.5687" x2="6.86436" y2="24.2345" gradientUnits="userSpaceOnUse">
<stop offset="0.156205" stop-color="#AF64EE"/>
<stop offset="1" stop-color="#02FE57"/>
</linearGradient>
<linearGradient id="paint3_linear_1348_5805" x1="31.3321" y1="30.2681" x2="2.85431" y2="28.9424" gradientUnits="userSpaceOnUse">
<stop offset="0.100929" stop-color="#AF64EE"/>
<stop offset="1" stop-color="#02FE57"/>
</linearGradient>
<linearGradient id="paint4_linear_1348_5805" x1="24.7222" y1="30.2011" x2="6.97432" y2="30.0607" gradientUnits="userSpaceOnUse">
<stop offset="0.144404" stop-color="#AF64EE"/>
<stop offset="1" stop-color="#02FE57"/>
</linearGradient>
<linearGradient id="paint5_linear_1348_5805" x1="21.628" y1="33.1791" x2="3.83394" y2="33.0442" gradientUnits="userSpaceOnUse">
<stop offset="0.144404" stop-color="#AF64EE"/>
<stop offset="1" stop-color="#02FE57"/>
</linearGradient>
<linearGradient id="paint6_linear_1348_5805" x1="18.5045" y1="36.1415" x2="0.787455" y2="35.9988" gradientUnits="userSpaceOnUse">
<stop offset="0.144404" stop-color="#AF64EE"/>
<stop offset="1" stop-color="#02FE57"/>
</linearGradient>
<linearGradient id="paint7_linear_1348_5805" x1="18.7371" y1="39.2545" x2="-2.1655" y2="39.543" gradientUnits="userSpaceOnUse">
<stop offset="0.144404" stop-color="#AF64EE"/>
<stop offset="0.942412" stop-color="#02FE57"/>
</linearGradient>
<clipPath id="clip0_1348_5805">
<rect width="46.117" height="36.1346" fill="white" transform="matrix(0.996224 0.0868217 -0.0874911 0.996165 3.16147 0)"/>
</clipPath>
</defs>
</svg>
