<?xml version="1.0" encoding="UTF-8" standalone="no"?>
<svg xmlns="http://www.w3.org/2000/svg" xmlns:xlink="http://www.w3.org/1999/xlink" class="card" face="6C" height="3.5in" preserveAspectRatio="none" viewBox="-120 -168 240 336" width="2.5in"><defs><symbol id="SC6" viewBox="-600 -600 1200 1200" preserveAspectRatio="xMinYMid"><path d="M30 150C35 385 85 400 130 500L-130 500C-85 400 -35 385 -30 150A10 10 0 0 0 -50 150A210 210 0 1 1 -124 -51A10 10 0 0 0 -110 -65A230 230 0 1 1 110 -65A10 10 0 0 0 124 -51A210 210 0 1 1 50 150A10 10 0 0 0 30 150Z" fill="black"></path></symbol><symbol id="VC6" viewBox="-500 -500 1000 1000" preserveAspectRatio="xMinYMid"><path d="M-250 100A250 250 0 0 1 250 100L250 210A250 250 0 0 1 -250 210L-250 -210A250 250 0 0 1 0 -460C150 -460 180 -400 200 -375" stroke="black" stroke-width="80" stroke-linecap="square" stroke-miterlimit="1.5" fill="none"></path></symbol></defs><rect width="239" height="335" x="-119.5" y="-167.5" rx="12" ry="12" fill="white" stroke="black"></rect><use xlink:href="#VC6" height="32" width="32" x="-114.4" y="-156"></use><use xlink:href="#SC6" height="26.769" width="26.769" x="-111.784" y="-119"></use><use xlink:href="#SC6" height="70" width="70" x="-87.501" y="-135.588"></use><use xlink:href="#SC6" height="70" width="70" x="17.501" y="-135.588"></use><use xlink:href="#SC6" height="70" width="70" x="-87.501" y="-35"></use><use xlink:href="#SC6" height="70" width="70" x="17.501" y="-35"></use><g transform="rotate(180)"><use xlink:href="#VC6" height="32" width="32" x="-114.4" y="-156"></use><use xlink:href="#SC6" height="26.769" width="26.769" x="-111.784" y="-119"></use><use xlink:href="#SC6" height="70" width="70" x="-87.501" y="-135.588"></use><use xlink:href="#SC6" height="70" width="70" x="17.501" y="-135.588"></use></g></svg>