<?xml version="1.0" encoding="UTF-8" standalone="no"?>
<svg xmlns="http://www.w3.org/2000/svg" xmlns:xlink="http://www.w3.org/1999/xlink" class="card" face="9H" height="3.5in" preserveAspectRatio="none" viewBox="-120 -168 240 336" width="2.5in"><defs><symbol id="SH9" viewBox="-600 -600 1200 1200" preserveAspectRatio="xMinYMid"><path d="M0 -300C0 -400 100 -500 200 -500C300 -500 400 -400 400 -250C400 0 0 400 0 500C0 400 -400 0 -400 -250C-400 -400 -300 -500 -200 -500C-100 -500 0 -400 -0 -300Z" fill="red"></path></symbol><symbol id="VH9" viewBox="-500 -500 1000 1000" preserveAspectRatio="xMinYMid"><path d="M250 -100A250 250 0 0 1 -250 -100L-250 -210A250 250 0 0 1 250 -210L250 210A250 250 0 0 1 0 460C-150 460 -180 400 -200 375" stroke="red" stroke-width="80" stroke-linecap="square" stroke-miterlimit="1.5" fill="none"></path></symbol></defs><rect width="239" height="335" x="-119.5" y="-167.5" rx="12" ry="12" fill="white" stroke="black"></rect><use xlink:href="#VH9" height="32" width="32" x="-114.4" y="-156"></use><use xlink:href="#SH9" height="26.769" width="26.769" x="-111.784" y="-119"></use><use xlink:href="#SH9" height="70" width="70" x="-87.501" y="-135.501"></use><use xlink:href="#SH9" height="70" width="70" x="17.501" y="-135.501"></use><use xlink:href="#SH9" height="70" width="70" x="-87.501" y="-68.5"></use><use xlink:href="#SH9" height="70" width="70" x="17.501" y="-68.5"></use><use xlink:href="#SH9" height="70" width="70" x="-35" y="-35"></use><g transform="rotate(180)"><use xlink:href="#VH9" height="32" width="32" x="-114.4" y="-156"></use><use xlink:href="#SH9" height="26.769" width="26.769" x="-111.784" y="-119"></use><use xlink:href="#SH9" height="70" width="70" x="-87.501" y="-135.501"></use><use xlink:href="#SH9" height="70" width="70" x="17.501" y="-135.501"></use><use xlink:href="#SH9" height="70" width="70" x="-87.501" y="-68.5"></use><use xlink:href="#SH9" height="70" width="70" x="17.501" y="-68.5"></use></g></svg>