<?xml version="1.0" encoding="UTF-8" standalone="no"?>
<svg xmlns="http://www.w3.org/2000/svg" xmlns:xlink="http://www.w3.org/1999/xlink" class="card" face="JD" height="3.5in" preserveAspectRatio="none" viewBox="-120 -168 240 336" width="2.5in"><defs><symbol id="VDJ" viewBox="-500 -500 1000 1000" preserveAspectRatio="xMinYMid"><path d="M50 -460L250 -460M150 -460L150 250A100 100 0 0 1 -250 250L-250 220" stroke="red" stroke-width="80" stroke-linecap="square" stroke-miterlimit="1.5" fill="none"></path></symbol><symbol id="SDJ" viewBox="-600 -600 1200 1200" preserveAspectRatio="xMinYMid"><path d="M-400 0C-350 0 0 -450 0 -500C0 -450 350 0 400 0C350 0 0 450 0 500C0 450 -350 0 -400 0Z" fill="red"></path></symbol><symbol id="DJ6" preserveAspectRatio="none" viewBox="0 0 1300 2000"><path stroke="#44F" stroke-linecap="round" stroke-linejoin="round" stroke-width="3" fill="none" d="M85,590c-4.700789,8.72507 -5.186787,17.0989 0,25M88.710078,621.88418c-4.700789,8.72507 -5.186787,17.0989 0,25M88.710078,656.88418c-4.700789,8.72507 -5.186787,17.0989 0,25M88.710078,686.88418c-4.700789,8.72507 -5.186787,17.0989 0,25M130,510c0,25 10,30 10,30M50.927687,597.4996c-1.13052,2.57966 -1.33893,5.77405 0,10M50.927687,630.52364c-1.13052,2.57966 -1.33893,5.77405 0,10M50.927687,664.9996c-1.13052,2.57966 -1.33893,5.77405 0,10M50.927687,700c-1.13052,2.57966 -1.33893,5.77405 0,10M50.927687,696.15932c-1.13052,2.57966 -1.33893,5.77405 0,10M725,500c25,-10 40,-10 50,-5M705,255c-30,-20 -60.95115,-7.27972 -90,15M785,275c24.49605,-30.28885 50.8757,-35.96138 70,-25M692.54026,258.60402c5.79878,4.0092 9.63542,10.97454 9.63542,18.89598 0,12.42641 -9.44135,22.5 -21.08785,22.5 -11.6465,0 -21.08785,-10.07359 -21.08785,-22.5 0,-3.28538 0.65995,-6.40629 1.84613,-9.22005M853.12381,261.7389c6.97583,3.39911 11.87622,11.41458 11.87622,20.7611 0,12.42641 -8.66208,22.5 -19.34729,22.5 -10.68521,0 -19.34729,-10.07359 -19.34729,-22.5 0,-3.81643 0.81704,-7.41094 2.25881,-10.55985M835,317.32348c11.29232,3.96884 26.09989,-0.36152 27.06897,-2.32348M517.96925,509.82169C557.53794,533.35836 604.4889,555.09153 650,555M525.36882,498.26604C565.47164,522.39165 613.48777,545.09355 660,545"></path><use xlink:href="#SDJ" height="200" width="200" transform="translate(650,1000)scale(1,0.972)rotate(0)translate(-100,-100)" stroke="#44F" stroke-width="36" stroke-linejoin="round" stroke-linecap="round"></use><use xlink:href="#SDJ" height="50" width="50" transform="translate(894,598)scale(1,0.972)rotate(-26)translate(-25,-25)"></use><use xlink:href="#SDJ" height="50" width="50" transform="translate(852,623)scale(1,0.972)rotate(-22)translate(-25,-25)"></use><use xlink:href="#SDJ" height="50" width="50" transform="translate(806,639)scale(1,0.972)rotate(-14)translate(-25,-25)"></use><use xlink:href="#SDJ" height="50" width="50" transform="translate(757,650)scale(1,0.972)rotate(-6)translate(-25,-25)"></use><use xlink:href="#SDJ" height="50" width="50" transform="translate(706,655)scale(1,0.972)rotate(0)translate(-25,-25)"></use><use xlink:href="#SDJ" height="50" width="50" transform="translate(656,653)scale(1,0.972)rotate(5)translate(-25,-25)"></use><use xlink:href="#SDJ" height="50" width="50" transform="translate(607,647)scale(1,0.972)rotate(10)translate(-25,-25)"></use><use xlink:href="#SDJ" height="50" width="50" transform="translate(560,637)scale(1,0.972)rotate(15)translate(-25,-25)"></use></symbol><symbol id="DJ5" preserveAspectRatio="none" viewBox="0 0 1300 2000"><path stroke="#44F" stroke-linecap="round" stroke-linejoin="round" stroke-width="6" fill="none" d="M100,709.95247V1610L-2.9802322e-6,1710M100,678.1109v13.91136M100,645.03275v17.31193M100,609.79062v14.83879M100,397.4104V594.64269M5.9604645e-7,5.9604645e-7 100,100v196.63027M100.15582,1207.2754c107.99697,79.3471 171.73737,190.7171 199.48574,315.9144M207.29978,545.26132C445.37608,846.844 403.68199,1165.6564 260.67471,1405.6063M358.17377,1166.6171 653.7044,866.47198M365.26366,541.56136 774.86501,1002.9514M650,870.23634V1005M635,885.46875V1120.8047M620.00001,900.70314 620,1103.9082M604.99998,915.93747l10e-6,171.07423M590,931.17188V1070.1152M575,946.40625V1053.2188M560,961.64062l-2e-5,74.68158M545.00002,976.87503l-10e-6,42.55077M530,992.10938v10.41992M408.006,544.65043 795.89988,981.58838M444.42427,540.61584l372.5096,419.60853M368.80053,1110.7498 632.66142,842.76889M354.52828,832.82122 496.14627,688.99198M344.45919,797.9729 475.10329,665.28888M144.449,587.03401 262.0846,508.61027M940.10081,460.45107l259.69239,70.42505M882.04894,524.54038c-41.33296,34.61757 -88.82013,55.86397 -141.03332,63.69595 -77.19506,11.57926 -165.24623,-6.43541 -258.69921,-56.45334M453.02796,538.37005c103.51317,59.81338 202.90746,82.85096 290.95642,69.64362 86.56533,-12.9848 161.58423,-61.30369 217.21688,-141.82113M850.41136,523.82899C816.55024,547.59478 778.9452,562.32257 738.04883,568.45703 669.735,578.7041 590.81405,564.2411 505.55124,521.31672M557.38423,667.85246c141.55979,33.77416 280.14805,12.0389 377.10013,-68.72074M930.87692,534.03078l17.16427,274.62827M950.76629,512.26071c5.17585,82.81351 10.43158,166.90516 14.86149,237.78369M601.09924,716.78811c123.68744,18.04212 244.25957,-3.94588 336.97192,-69.98917M760.13342,716.92782C767.96747,741.66243 783.7206,787.20884 800,810c19.66187,27.52662 60.97272,70.51679 77.7181,87.62075M786.84881,712.27861C795.12384,737.78359 809.83353,778.76694 825,800c12.46408,17.44971 33.62796,41.11357 51.71868,60.45788M813.05336,705.96085C821.50286,731.57961 835.54393,769.76151 850,790c10.84303,15.18024 28.27005,35.06333 44.5301,52.71421M838.64153,697.7371C847.14502,723.31589 860.87439,760.22415 875,780c13.41381,18.77933 36.90372,44.75588 55.79533,64.79992M153.97196,662.33132C309.96651,889.98768 287.88345,1108.4892 192.9867,1295.5334M1199.9275,715.50663c-53.2268,-48.04534 -91.438,-105.97498 -116.8533,-171.3872 -6.2732,-16.14554 -11.7668,-32.74695 -16.5142,-49.76812M1198.8228,754.03183c-86.1222,-69.992 -139.2213,-162.65707 -165.4804,-268.01186M1144.5996,515.97065c3.5097,27.01837 30.4012,77.53188 54.9427,106.16652M80,240 -2.9802322e-7,160M0,120l80,80M80,280 -2.9802322e-7,200M80,555 -2.9802322e-7,475M0,435l80,80M80,870 -2.9802322e-7,790M0,750l80,80M80,910 -2.9802322e-7,830M80,1185 -2.9802322e-7,1105M0,1065l80,80M80,1225 -2.9802322e-7,1145M80,1500 -2.9802322e-7,1420M0,1380l80,80M80,1540 -2.9802322e-7,1460M80,715.82616V1580L-5.9604645e-7,1660M80,404.21152V586.91415M0,50l80,80v170.95825M592.66142,882.76889l-100,-110c-20,-30 10,-60 40,-40l100,110M538.52391,938.3763 440,830c-20,-30 10,-60 40,-40l98.19272,108.01199M488.88488,988.77337 390,880c-20,-30 10,-60 40,-40l98.60644,108.46709M366.05543,884.0823c4.51896,0.86788 9.23176,2.77583 13.94457,5.9177l98.88554,108.77409M439.2592,1039.1851 376.34139,969.97553M376.85625,991.54188l52.37077,57.60782M389.33471,1089.2682l-15.594,-17.1534M516.97672,711.77469c-1.07786,-0.0888 -2.15214,-0.14044 -3.22086,-0.15555 -1.29732,-0.0183 -2.58589,0.0172 -3.86328,0.10547 -10.21915,0.70597 -19.68751,4.78712 -26.58789,11.6875 -11.54426,11.54425 -15.19004,30.27838 -8.34961,47.68555 -5.92821,-1.85933 -11.94503,-2.54172 -17.72266,-2.14258 -10.21914,0.70597 -19.68946,4.78712 -26.58984,11.6875 -9.67033,9.67033 -13.79327,24.38609 -10.85938,39.14062 -4.22585,-0.84038 -8.44886,-1.11149 -12.55078,-0.82812 -10.21914,0.70597 -19.68946,4.78712 -26.58984,11.6875 -9.61698,9.61698 -13.7484,24.22394 -10.9082,38.89648 -0.28336,-0.0598 -0.56613,-0.13305 -0.84961,-0.1875 -0.98,-0.2026 -1.97781,-0.30663 -2.97852,-0.31054 -0.86967,-0.003 -1.72346,0.068 -2.55505,0.20782M911.50108,824.10599l-51.30095,54.9653M848.93018,726.39834c30.43795,-14.24358 60.78089,-29.93562 91.00079,-47.50301M860.22852,753.12322c27.32544,-12.6791 54.57526,-26.51104 81.72919,-41.80447M874.06749,778.66123c23.36041,-10.81061 46.66577,-22.46044 69.90343,-35.14229M892.42462,802.10166c17.88294,-8.33956 35.73325,-17.17657 53.54525,-26.59757M912.41345,824.76178c11.86215,-5.5956 23.70971,-11.41378 35.541,-17.47981M919.9581,855.55407c6.27161,-2.87531 12.53932,-5.81026 18.80286,-8.80858M848.07126,724.08555 890,690 839.65088,700.6266M859.68627,751.83731 905,715 852.30913,726.12084M873.5528,777.75883 920,740 867.30913,751.12084M891.24185,800.57275 935,765 882.30913,776.12084M946.91617,790.65088l-49.60704,10.46996M910.28292,822.28758l36.74254,-29.86946M944.57371,820.36643l-27.26458,5.75441M921.8765,854.12152l18.25945,-14.84384M796.74486,810.82551 735,805 785,785M816.74486,835.82551 755,830 800.99542,811.60183M836.74486,860.82549 775,855 821.29268,836.48293M856.74486,885.82551 795,880 843.07627,860.76949M865.48731,910.23512 810,905 860,885M771.87513,751.15652c-45.67506,6.44339 -87.51951,11.32255 -128.23276,13.29279M771.74486,750.82551 710,745 760,725M784.46281,781.69083c-37.55991,5.86588 -76.03653,10.14182 -115.74062,12.28875M783.92844,780.55979 725,775 773.66615,755.53354M800.54316,810.72615c-34.2109,5.51232 -69.17229,9.72296 -105.12088,12.22137 -0.11275,0.008 -0.22552,0.0157 -0.33829,0.0235M820.56245,835.72304c-33.67312,5.42619 -68.07331,9.59137 -103.42624,12.10401M842.46034,860.41575c-33.62642,5.4703 -67.97482,9.68837 -103.27051,12.26341M865,885c-33.78449,5.56514 -68.2936,9.87349 -103.75657,12.52741M864.17527,912.50512c-26.5723,4.03432 -53.60856,7.26393 -81.21807,9.49927M832.53909,944.21449c-9.11779,0.98051 -18.29553,1.85704 -27.53732,2.62246M845.62647,931.47433 830,930 857.64283,918.94287M137.75257,705.59197c129.03807,202.3061 110.48599,391.09323 29.07803,558.57083M144.66368,587.05011c211.43274,263.85053 187.39438,526.87369 72.80724,741.45849M240.69781,1365.4907C368.26421,1137.3105 400.01617,847.83877 175.71998,566.27445M144.78019,587.13165C356.09642,850.90064 332.05806,1113.9238 217.8535,1328.8699M176.02029,566.162c223.99588,281.67677 192.24392,571.1485 64.81741,798.8243M100,710c0,0 9.29102,14.99519 24.32798,10.10747C139.66775,715.12132 156.474,665.06009 155,640c-1.46792,-24.95687 -15,-65 -15,-70 0,-5 1.90858,-14.69086 1.90858,-34.69086 0,-30 -31.90858,-45.30914 -34.07257,-2.52687C107.2092,545.17432 110,550 115,565M115,565c-0.67582,4.55173 -10,15 -10,20 0,20 8.28635,22.80911 8.28635,22.80911M0,602.5A52.5,17.5 0 0 1 52.5,585 52.5,17.5 0 0 1 105,602.5 52.5,17.5 0 0 1 52.5,620 52.5,17.5 0 0 1 0,602.5M0,635c0,0 0,0 0,0 0,-7.26326 13.906764,-13.49304 33.710273,-16.14069M73.836594,618.55326C94.935161,621.00027 110,627.44036 110,635c0,9.66498 -24.624339,17.5 -55,17.5 -30.375661,0 -55,-7.83502 -55,-17.5M0,670A52.5,17.5 0 0 1 52.5,652.5 52.5,17.5 0 0 1 105,670 52.5,17.5 0 0 1 52.5,687.5 52.5,17.5 0 0 1 0,670M81.190615,684.82855C95.42114,687.85126 105,693.5135 105,700c0,9.66498 -21.266474,17.5 -47.5,17.5 -26.233526,0 -47.5,-7.83502 -47.5,-17.5 0,-5.87034 7.845484,-11.06558 19.884218,-14.24016M71.353778,586.35378 1.8096853e-5,515.00002M0.01954654,309.85484C97.553847,306.60681 187.04569,278.57823 265,215 242.58207,308.96614 186.5467,390.54153 0.19208181,424.08377M0.02611495,329.86514C80.533659,327.26172 156.89334,308.02209 225.89844,266.74805 215.04176,289.09377 200.42052,309.7058 179.62695,328.29492 143.53144,360.56376 88.070217,387.48097 0.3030741,403.73347M403.78383,197.62419C336.26254,339.65518 347.37034,430.78708 320,465c-20,25 -55,30 -55,0 0,-35 34.89995,-14.62572 35,-10M420.14983,194.7359C350.94562,338.29848 360.63805,429.10673 335,465c-25,35 -70,30 -70,0M436.41732,192.11036C365.77167,337.15433 375.05923,428.37497 350,465c-65,95 -110,35 -110,0 0,-75 90,-50 85,-10M452.66924,189.51025C380.3287,335.87349 384.96411,425.07179 365,465c-20,40 -77.60248,65.60999 -94.57243,48.74508M468.76283,187.3051C395.28161,334.97808 400.06417,424.87166 380,465c-20,40 -64.49987,68.13553 -85,55M484.86189,185.0972C410.17626,334.00089 413.8917,422.78304 398.06034,465c-15,40 -63.99783,80.55502 -88.06034,60M500.98907,182.86551C425.26914,333.18324 432.82673,424.62811 416.12069,466.74877 395,520 361.55589,552.64659 333.87298,532.76206M517.08318,180.7002C440.17534,332.31117 447.07596,424.66245 433.30665,468.06034 420,510 385.05006,555.51218 355.84466,537.64093M532.95278,178.99081C455.14049,331.61469 463.1489,424.34891 453.11576,468.93473 445,505 414.57664,561.0215 378.60909,540.43286M548.83217,177.27211C470.16595,330.96483 486.95731,428.90208 472.48768,472.43227 460,510 433.17716,553.42269 404.18658,543.70568M564.71321,175.55622C485.04614,330.22679 504.28597,424.83822 496.66872,470.24631 490,510 460.57216,546.71261 428.47424,539.87503M580,175C500,330 527.49789,425.817 516.91502,470.6835 510,500 488.83632,539.01648 459.3735,536.33341M595,175c-80,155 -40.20318,258.59763 -57.40148,301.367 -14.96324,37.21112 -34.46264,50.38617 -51.88548,51.96249M872.92278,165.36952C878.47536,185.24409 890,227.40901 890,235c0,10 -10,40 -10,55 0,15 -10,70 -20,95 -10,25 -45,90 -50,100 -5,10 -9.80911,39.56281 -24.80911,44.56281C770.19089,534.56281 735,550 720,540c-15,-10 -20,-15 -30,-15 -10,0 -30,5 -45,0 -15,-5 -85,-15 -90,-30 -4.37927,-13.20852 -10,-20 -12.37685,-37.81404M600,250c38.33434,-16.37294 66.18557,-53.25333 135,-10v0l-5,5c-36.11885,-35.30746 -82.46014,-18.22506 -130,5v0M885,240c-35,-15 -45,-30 -95,5v0c30,-15 66.71102,-25.58291 95,-5v0M790,245c-5.6154,2.79579 -7.25819,21.1243 -5,30 2.46569,9.69125 15,50 15,60 0,10 8.93473,52.18596 8.93473,57.18596C808.93473,402.18596 790,410 775,410M740,370c-20.80837,1.70765 -37.88441,39.0889 9.3165,31.367C779.33131,396.45667 760,390 730,400M695,440v15l10,-10 -10,-5v0M805,435l-5,10 -10,-5 15,-5v0M700,445c15,0 30,-10 35,-10 5,0 15,10 20,10 5,0 15,-10 20,-10 5,0 10,5 15,5M735,470c10.01679,10.83217 40,15 40,-10M595,285c35,5 80,-30 120,-30M635,280c-5,15 55,25 70,15 15,-10 20,-5 20,-5M790.92308,285.26548c20,0 52.33169,-22.79967 70,-25 17.66831,-2.20033 20,10 20,10M790,285c20,10 33.07061,20 52.77504,20C862.47948,305 880,290 880,290M882.739,166.2193C916.80465,221.49072 899.28677,285.40768 900,345c0.8771,16.2765 15,10 20,5M875.87082,322.90274C862.67976,401.7494 940,392.04303 940,350c0,-40 -40,-25 -40,-5M895,380c0,45 20,70 35,45M863.25836,377.67781C863.1492,465.86053 958.06226,484.49806 950,420c-5,-40 -50,-20 -49.35411,-3.3237M849.70973,409.41945C853.6922,459.1525 893.43355,482.28636 925,470c18.6631,-7.26409 21.41954,-17.96959 21.12553,-24.43459M836.38083,435.22668C844.55434,477.95113 902.81586,504.1707 930,470M826.95836,452.9799c9.23009,40.69099 44.6545,58.76253 73.33191,47.60065 9.37718,-3.78954 17.97636,-11.41482 19.48762,-21.62957M818.48383,468.74467c11.12771,36.61173 44.52103,52.45596 71.80644,41.83588 10.07967,-3.92323 15.51949,-8.85029 18.34481,-13.57099M809.42889,486.65193c6.14859,37.14216 80.06298,56.92175 91.04012,18.90786M920.15944,125.77949l-34.261,-0.76972c-20.57241,-0.46203 -41.18813,-0.75012 -61.84766,-0.83985 -144.61668,-0.62811 -291.43473,8.51346 -441.39258,36.50977l-25.62291,4.78298M199.52363,-1.861155e-4 390,200C557.85386,168.66261 722.223,161.34428 885,165L1041.0815,-4.7504902e-4M472.32911,571.72521c96.1261,49.65099 189.63098,68.81642 274.62206,56.06776 92.08707,-13.81305 172.41975,-65.87574 230.70508,-150.23242l3.63322,-5.2579"></path></symbol><symbol id="DJ4" preserveAspectRatio="none" viewBox="0 0 1300 2000"><path fill="black" d="M130,1057c-4.05697,-0.057 -4.05697,6.0574 0,6h60c4.05697,0.057 4.05697,-6.0574 0,-6zm-10,25c-4.05697,-0.057 -4.05697,6.0574 0,6h85c4.05697,0.057 4.05697,-6.0574 0,-6zm-20,27v12h117.99556l2.32219,-12zm0,25v12h112.19009l2.61246,-12zm0,25v12h104.3527l3.77356,-12zm0,25v12h96.80558l3.48329,-12zm17.56086,37h68.50459l4.93466,-12h-87.37239zm29.89819,25h27.86628l4.93465,-12h-46.4438zM885.89844,125.00977c-20.57241,-0.46203 -41.18813,-0.75012 -61.84766,-0.83985 -144.61668,-0.62811 -291.43473,8.51346 -441.39258,36.50977L356.76536,165.14144 390,200c167.85386,-31.33739 332.223,-38.65572 495,-35l35.36136,-38.40799zM934.48436,599.13172c-96.95208,80.75964 -235.54034,102.4949 -377.10013,68.72074l43.71501,48.93565c123.68744,18.04212 244.25957,-3.94588 336.97192,-69.98917zM816.93387,960.22437 444.42427,540.61584 408.006,544.65043 795.89988,981.58838ZM496.14627,688.99198 354.52828,832.82122 344.45919,797.9729 475.10329,665.28888ZM877.7181,897.62075c-4.42741,-4.52222 -10.57209,-10.85403 -17.54891,-18.39031l51.2367,-55.32553c6.54934,7.15907 13.21499,14.3439 19.38944,20.89501M192.9867,1295.5334c94.89675,-187.0442 116.97981,-405.54572 -39.01474,-633.20208 -4.97928,15.60172 -9.5041,32.46041 -16.21939,43.26065 129.03807,202.3061 110.48599,391.09323 29.07803,558.57083z"></path></symbol><symbol id="DJ3" preserveAspectRatio="none" viewBox="0 0 1300 2000"><path fill="#44F" d="M509,758c9,0 28.31504,-1.23652 32,4 19,27 34.04704,54.14117 62,66 5.8946,2.50074 10.25821,21.90098 2,26 -38.41841,19.06926 -54.16748,-44.09457 -64,-71 -7.29748,-19.96864 -27.05442,-16.3424 -31,-17 -6,-1 -3.68742,-8 -1,-8zM456.33858,815.23111c9,0 28.31504,-1.23652 32,4 19,27 34.04704,54.14117 62,66 5.8946,2.50074 10.25821,21.90098 2,26 -38.41841,19.06926 -54.16748,-44.09457 -64,-71 -7.29748,-19.96864 -27.05442,-16.3424 -31,-17 -6,-1 -3.68742,-8 -1,-8zM406.33858,865.23111c9,0 28.31504,-1.23652 32,4 19,27 34.04704,54.14117 62,66 5.8946,2.50074 10.25821,21.90098 2,26 -38.41841,19.06926 -54.16748,-44.09457 -64,-71 -7.29748,-19.96864 -27.05442,-16.3424 -31,-17 -6,-1 -3.68742,-8 -1,-8zM371.24813,915.14871c7.57939,0.18799 14.95627,1.04959 17.09045,4.08236 19.00001,27 34.04704,54.14117 62,66 5.8946,2.50074 10.25821,21.90103 2,26.00003 -38.41841,19.0693 -54.16749,-44.0946 -64,-71.00003 -3.54885,-9.71099 -10.04436,-13.8418 -16.23502,-15.59885M376.2895,1019.0656c7.01586,6.6818 14.83067,12.2547 24.04908,16.1655 5.89459,2.5007 10.2582,21.901 2,26 -10.87943,5.4001 -19.94095,4.2057 -27.565,-0.8923M697.24958,280a13.624805,20 0 0 1 -13.6248,20 13.624805,20 0 0 1 -13.62481,-20 13.624805,20 0 0 1 13.62481,-20 13.624805,20 0 0 1 13.6248,20zM860.00001,284.5064a12.499983,20.291776 0 0 1 -12.49999,20.29178 12.499983,20.291776 0 0 1 -12.49998,-20.29178 12.499983,20.291776 0 0 1 12.49998,-20.29178 12.499983,20.291776 0 0 1 12.49999,20.29178zM1039.2878,594.29575c-17.0093,-37.3226 -29.8743,-76.64471 -38.9183,-117.43495l-19.08023,-4.55815 -3.63322,5.2579c-8.474,12.26447 -17.41404,23.84632 -26.83922,34.71371 5.12511,82.79996 10.38084,166.89161 15.04414,237.70574 19.44237,-54.63238 44.35443,-106.74317 73.42683,-155.68425zM1144.5996,515.97065l55.1936,14.90547m-55.1936,-14.90547c3.5097,27.01837 30.4012,77.53188 54.9427,106.16652l0.2509,-91.26105M137.56981,706.00019c-4.34778,7.56853 -8.85478,12.68128 -13.24183,14.10728C109.29102,724.99519 100,709.97624 100,709.97624l0.0779,496.90446c23.97722,17.9539 45.70919,37.0813 66.05805,57.431 82.1026,-167.6265 100.65468,-356.41363 -28.56615,-558.31151zM100,1610 -10,1720M354.52828,832.82122l141.61799,-143.82924 20.83045,22.78271c-1.07786,-0.0888 -2.15214,-0.14044 -3.22086,-0.15555 -1.29732,-0.0183 -2.58589,0.0172 -3.86328,0.10547 -10.21915,0.70597 -19.68751,4.78712 -26.58789,11.6875 -11.54426,11.54425 -15.19004,30.27838 -8.34961,47.68555 -5.92821,-1.85933 -11.94503,-2.54172 -17.72266,-2.14258 -10.21914,0.70597 -19.68946,4.78712 -26.58984,11.6875 -9.67033,9.67033 -13.79327,24.38609 -10.85938,39.14062 -4.22585,-0.84038 -8.44886,-1.11149 -12.55078,-0.82812 -10.21914,0.70597 -19.68946,4.78712 -26.58984,11.6875 -9.61698,9.61698 -13.7484,24.22394 -10.9082,38.89648 -0.28336,-0.0598 -0.56613,-0.13305 -0.84961,-0.1875 -0.98,-0.2026 -1.97781,-0.30663 -2.97852,-0.31054 -0.86967,-0.003 -1.72346,0.068 -2.55505,0.20782zM1100,520a9.9999998,9.9999998 0 0 1 -10,10 9.9999998,9.9999998 0 0 1 -10,-10 9.9999998,9.9999998 0 0 1 10,-10 9.9999998,9.9999998 0 0 1 10,10zM1130,585a9.9999998,9.9999998 0 0 1 -10,10 9.9999998,9.9999998 0 0 1 -10,-10 9.9999998,9.9999998 0 0 1 10,-10 9.9999998,9.9999998 0 0 1 10,10zM1175,655a9.9999998,9.9999998 0 0 1 -10,10 9.9999998,9.9999998 0 0 1 -10,-10 9.9999998,9.9999998 0 0 1 10,-10 9.9999998,9.9999998 0 0 1 10,10z"></path></symbol><symbol id="DJ2" preserveAspectRatio="none" viewBox="0 0 1300 2000"><path fill="red" d="M199.52148,0l157.66407,165.58203 25.47265,-4.90234c149.95785,-27.99631 296.7759,-37.13788 441.39258,-36.50977 20.65953,0.0897 41.27525,0.37782 61.84766,0.83985l34.47461,1.57031L1040.9492,0h-90.37108l-73.62695,108.70117 -3.26758,-0.0723c-17.43992,-0.38354 -35.10109,-0.6067 -52.80078,-0.6836 -14.19091,-0.0617 -28.39696,-0.0289 -43.67773,0.15235l-7.91602,0.0937L798.26758,0H696.22266l-7.77344,110.40039 -5.35938,0.2207c-28.90564,1.19451 -58.05762,2.96537 -87.60546,5.35938L589.9707,116.42773 570.95508,0H447.89844l45.31445,126.51953 -7.39062,0.95703c-26.19409,3.39116 -52.95007,7.40266 -79.91016,12.12305L402.36914,140.2207 292.63281,0Zm108.34961,0 99.54297,127.19727c23.43187,-4.05137 46.64908,-7.54037 69.50196,-10.58789L435.15039,0Zm275.24414,0 16.92383,103.62695c25.99132,-2.04096 51.6931,-3.60588 77.18946,-4.7207L684.19141,0Zm227.57618,0 -25.73047,96.070312c12.29871,-0.10653 24.2951,-0.175767 35.97461,-0.125 16.66399,0.07238 33.2704,0.301981 49.72461,0.644532L936.08594,0ZM0,50v70l80,80v-70zm0,150v109.85352c27.325054,-0.91104 54.013626,-3.78058 80,-8.81641V280Zm225.89844,66.74805C156.88675,308.02603 80.516023,327.25303 0,329.85352v73.93554c87.941567,-16.24665 143.49015,-43.18838 179.62695,-75.49414 20.79357,-18.58912 35.41481,-39.20115 46.27149,-61.54687zM80,404.4375C56.423649,412.12851 29.870302,418.72246 0,424.09375V435l80,80zm182.08398,104.17188 -54.92968,36.68359c65.5852,82.86393 109.88762,167.06245 137.03125,251.62305L475.10742,665.29297 365.26367,541.56055c-34.415,-10.87756 -70.71377,-12.66012 -103.17969,-32.95117zm863.33402,2.24023 -42.3438,33.26953 9.8067,23.38086h66.5136l-40.5117,50.64062 14.3594,21.42383 61.3808,-10.23047 -17.6699,63.61329 12.2031,12.11523 10.9825,-39.53906 -0.5957,-43.38672 -6.0684,-7.82031 -60.3711,10.0625 36.7149,-45.89453L1156.7402,552.5h-60.0566l46.6523,-36.65625zM0,515v87.5a52.5,17.5 0 0 1 52.5,-17.5 52.5,17.5 0 0 1 18.664062,1.16406zm0,87.5V635c0,-7.26326 13.907429,-13.49298 33.710938,-16.14062l0.300781,-0.002A52.5,17.5 0 0 1 0,602.5ZM0,635v35a52.5,17.5 0 0 1 52.5,-17.5 52.5,17.5 0 0 1 27.5,2.61914v-4.54492C72.493327,651.79671 64.012037,652.5 55,652.5 24.624339,652.5 0,644.66498 0,635Zm0,35v80l80,80V715.41406C73.301978,716.74411 65.642419,717.5 57.5,717.5 31.266474,717.5 10,709.66498 10,700c0,-5.86678 7.836947,-11.05926 19.863281,-14.23438A52.5,17.5 0 0 1 0,670ZM170.15234,567a3.0003,3.0003 0 1 0 0,6h8.42774 0.38086a3.0003,3.0003 0 1 0 0,-6h-0.38086zM72.720703,586.35352A52.5,17.5 0 0 1 80,587.61914v-1.26562zM146.99805,587a3.0003,3.0003 0 1 0 0,6h46.9375 0.35547a3.0003,3.0003 0 1 0 0,-6h-0.35547zm15.47265,20a3.0003,3.0003 0 1 0 0,6h45.8418 0.32422a3.0003,3.0003 0 1 0 0,-6H208.3125ZM80,617.39258a52.5,17.5 0 0 1 -6.863281,1.16601l0.699219,-0.006c2.125467,0.24652 4.170294,0.54449 6.164062,0.86915zM176.95508,627a3.0003,3.0003 0 1 0 0,6h44.98242 0.29688a3.0003,3.0003 0 1 0 0,-6h-0.29688zm13.67187,20a3.0003,3.0003 0 1 0 0,6h44.19922 0.26953a3.0003,3.0003 0 1 0 0,-6h-0.26953zm12.8711,20a3.0003,3.0003 0 1 0 0,6h43.38086 0.25a3.0003,3.0003 0 1 0 0,-6h-0.25zm12.07812,20a3.0003,3.0003 0 1 0 0,6h42.42188a3.0003,3.0003 0 1 0 0,-6zm597.47656,18.96094 -26.20312,6.31836C795.12464,737.78428 809.83353,778.76694 825,800c12.70132,17.78185 34.43655,42.01754 52.74805,61.55859L894.5293,842.71484C878.26925,825.06396 860.84303,805.18024 850,790 835.54393,769.76151 821.50223,731.5797 813.05273,705.96094ZM226.8457,707a3.0003,3.0003 0 1 0 0,6h41.58203a3.0003,3.0003 0 1 0 0,-6zm10.30664,20a3.0003,3.0003 0 1 0 0,6h41.02149a3.0003,3.0003 0 1 0 0,-6zm9.55664,20a3.0003,3.0003 0 1 0 0,6h40.4668a3.0003,3.0003 0 1 0 0,-6zm8.81446,20a3.0003,3.0003 0 1 0 0,6h39.75976 0.15625a3.0003,3.0003 0 1 0 0,-6h-0.15625zm8.08203,20a3.0003,3.0003 0 1 0 0,6h39.14062a3.0003,3.0003 0 1 0 0,-6zm7.35351,20a3.0003,3.0003 0 1 0 0,6h38.60938a3.0003,3.0003 0 1 0 0,-6zm6.51368,20a3.0003,3.0003 0 1 0 0,6h38.26367a3.0003,3.0003 0 1 0 0,-6zM0,830v235l80,80V910Zm283.21289,17a3.0003,3.0003 0 1 0 0,6h37.80859a3.0003,3.0003 0 1 0 0,-6zm5.04297,20a3.0003,3.0003 0 1 0 0,6h37.43945a3.0003,3.0003 0 1 0 0,-6zm4.35352,20a3.0003,3.0003 0 1 0 0,6h37.15234a3.0003,3.0003 0 1 0 0,-6zm3.66796,20a3.0003,3.0003 0 1 0 0,6h36.94532a3.0003,3.0003 0 1 0 0,-6zm2.98633,20a3.0003,3.0003 0 1 0 0,6h36.62695a3.0003,3.0003 0 1 0 0,-6zm2.19727,20a3.0003,3.0003 0 1 0 0,6h36.45312a3.0003,3.0003 0 1 0 0,-6zm1.49023,20a3.0003,3.0003 0 1 0 0,6h36.39844a3.0003,3.0003 0 1 0 0,-6zm0.83008,20a3.0003,3.0003 0 1 0 0,6H340a3.0003,3.0003 0 1 0 0,-6zm0.17383,20a3.0003,3.0003 0 1 0 0,6H340a3.0003,3.0003 0 1 0 0,-6zm-0.48438,20a3.0003,3.0003 0 1 0 0,6h36.41211a3.0003,3.0003 0 1 0 0,-6zm-1.13672,20a3.0003,3.0003 0 1 0 0,6h36.44727a3.0003,3.0003 0 1 0 0,-6zm-1.7871,20a3.0003,3.0003 0 1 0 0,6h36.55468a3.0003,3.0003 0 1 0 0,-6zm-2.51954,20a3.0003,3.0003 0 1 0 0,6h36.81641a3.0003,3.0003 0 1 0 0,-6zm-3.18359,20a3.0003,3.0003 0 1 0 0,6h37.11523a3.0003,3.0003 0 1 0 0,-6zm-3.82617,20a3.0003,3.0003 0 1 0 0,6h37.35351a3.0003,3.0003 0 1 0 0,-6zM0,1145v235l80,80v-235zm286.55078,2a3.0003,3.0003 0 1 0 0,6h37.65625a3.0003,3.0003 0 1 0 0,-6zm-5.10937,20a3.0003,3.0003 0 1 0 0,6h38.02343a3.0003,3.0003 0 1 0 0,-6zm-5.75,20a3.0003,3.0003 0 1 0 0,6h38.44531a3.0003,3.0003 0 1 0 0,-6zm-6.39649,20a3.0003,3.0003 0 1 0 0,6h38.91406a3.0003,3.0003 0 1 0 0,-6zm-7.04101,20a3.0003,3.0003 0 1 0 0,6h39.39648a3.0003,3.0003 0 1 0 0,-6zm-7.69141,20a3.0003,3.0003 0 1 0 0,6h39.84375a3.0003,3.0003 0 1 0 0,-6zm-8.3418,20a3.0003,3.0003 0 1 0 0,6h40.33985a3.0003,3.0003 0 0 0 0.002,0 3.0003,3.0003 0 0 0 0.006,0h0.0391a3.0003,3.0003 0 0 0 0.16211,-5.9961 3.0003,3.0003 0 0 0 -0.17773,0h-0.0312zm-9,20a3.0003,3.0003 0 1 0 0,6h40.88282a3.0003,3.0003 0 1 0 0,-6zm-9.66015,20a3.0003,3.0003 0 1 0 0,6h41.46289a3.0003,3.0003 0 1 0 0,-6zm-9.125,20a3.0003,3.0003 0 1 0 0,6h40.87695a3.0003,3.0003 0 1 0 0,-6zm12.81836,20a3.0003,3.0003 0 1 0 0,6h17.70312 0.125a3.0003,3.0003 0 1 0 0,-6h-0.125zM0,1459.9551V1660l80,-80v-40.7676z"></path></symbol><symbol id="DJ1" preserveAspectRatio="none" viewBox="0 0 1300 2000"><path fill="#FC4" d="M0 0L0 602.5A52.5 17.5 0 0 1 52.5 585A52.5 17.5 0 0 1 100 595.0918L100 397.39258C208.28637 356.23552 247.22219 289.51677 265 215C214.52335 256.16791 159.20261 282.41009 100 296.69141L100 100L0 0zM0 602.5L0 635C0 627.73674 13.907429 621.50702 33.710938 618.85938L34.011719 618.85742A52.5 17.5 0 0 1 0 602.5zM0 635L0 670A52.5 17.5 0 0 1 52.5 652.5A52.5 17.5 0 0 1 100 662.5918L100 645.05664C90.047496 649.55699 73.608746 652.5 55 652.5C24.624339 652.5 0 644.66498 0 635zM0 670L0 1710L100 1610L100 707.81445C92.207412 713.55569 76.108357 717.5 57.5 717.5C31.266474 717.5 10 709.66498 10 700C10 694.13322 17.836947 688.94074 29.863281 685.76562A52.5 17.5 0 0 1 0 670zM872.92188 165.36914C878.47445 185.24371 890 227.40901 890 235C890 245 880 275 880 290C880 305 870 360 860 385C850 410 815.00039 475.00021 809.71484 485.82617C812.58584 504.41831 831.7744 518.64212 851.90039 523.86133L850.41211 523.82812C816.55099 547.59393 778.9452 562.32257 738.04883 568.45703C669.735 578.7041 590.81359 564.24079 505.55078 521.31641L504.89453 521.61133C516.49919 514.24871 527.98414 500.27442 537.59766 476.36719C554.79596 433.59782 515 330 595 175C527.02204 174.999 461.4023 179.19548 403.7832 197.625C342.89407 325.70524 345.94685 412.39376 326.03125 454.13867C330 415.0003 240 390 240 465C240 485.57808 255.55526 514.79775 283.0293 516.08984C348.17818 537.16061 412.97782 552.71165 485.71289 528.33008C488.09032 528.11498 490.50735 527.67473 492.94531 526.99609L482.31641 531.7832C575.76939 581.80113 663.82059 599.81559 741.01562 588.23633C793.22884 580.40435 840.71587 559.15859 882.04883 524.54102L880.32031 524.50195C889.91393 521.89493 897.49799 515.84832 900.46875 505.56055C924.51897 477.24068 934.66845 461.55787 947.25 443.66406C950.07625 437.65828 951.22324 429.78588 950 420C945 380 900.00055 400.0002 900.11914 415.27344C896.74579 404.8411 894.99936 393.29248 895.14453 379.89648C914.50267 387.62207 940 374.14289 940 350C940 310 900 345 900 345C900 345 916.80393 221.49017 882.73828 166.21875L872.92188 165.36914zM961.20117 466.19336C905.56852 546.7108 830.5497 595.02887 743.98438 608.01367C655.93542 621.22101 556.54051 598.18252 453.02734 538.36914L445 540L472.33008 571.72461C568.45618 621.3756 661.96009 640.54163 746.95117 627.79297C817.72895 617.17631 881.56057 583.95922 933.77734 530.85547L930.87695 534.03125L948.04102 808.6582L965.62695 750.04492C961.19944 679.20481 955.94657 595.15867 950.77344 512.38867C960.181 501.47711 969.15485 489.86467 977.65625 477.56055L981.28906 472.30273L961.20117 466.19336zM1033.3418 486.01953C1059.6009 591.37432 1112.7001 684.03925 1198.8223 754.03125L1199.9277 715.50586C1133.5631 655.6016 1090.5416 580.33244 1066.5605 494.35156L1033.3418 486.01953zM365.26367 541.56055L516.33398 711.73438C515.47197 711.67507 514.61176 711.63124 513.75586 711.61914C512.45854 711.60084 511.16997 711.63634 509.89258 711.72461C499.67343 712.43058 490.20507 716.51173 483.30469 723.41211C471.76043 734.95636 468.11465 753.69049 474.95508 771.09766C469.02687 769.23833 463.01005 768.55594 457.23242 768.95508C447.01328 769.66105 437.54296 773.7422 430.64258 780.64258C420.97225 790.31291 416.84931 805.02867 419.7832 819.7832C415.55735 818.94282 411.33434 818.67171 407.23242 818.95508C397.01328 819.66105 387.54296 823.7422 380.64258 830.64258C371.0256 840.25956 366.89416 854.86652 369.73438 869.53906C369.45101 869.47926 369.16825 869.40601 368.88477 869.35156C367.90477 869.14896 366.90696 869.04493 365.90625 869.04102C365.03658 869.03802 364.18315 869.10822 363.35156 869.24805L363.74023 871.375C342.12366 763.33303 292.8512 653.03287 207.75 544.89648L144.1543 586.48047C147.97971 601.13005 154.04474 623.7592 155 640C155.35155 645.97684 154.66365 653.3761 153.58789 661.78906C309.96689 889.98798 287.88259 1108.49 192.41211 1294.9258C219.45445 1328.2143 242.12526 1365.216 260.43164 1405.0918C304.39508 1331.6091 338.78809 1250.6475 358.48242 1164.9941L358.17383 1166.6172L653.70508 866.47266L774.86523 1002.9512L795.90039 981.58789L408.00586 544.65039L365.26367 541.56055zM100 609.9043A52.5 17.5 0 0 1 73.173828 618.55859L73.835938 618.55273C84.483643 619.78765 93.586495 622.04186 100 624.94141L100 609.9043zM100 677.4043A52.5 17.5 0 0 1 80.134766 684.84766L81.191406 684.82812C89.256129 686.54116 95.820062 689.10353 100 692.18164L100 677.4043zM838.64062 697.73633L813.05273 705.96094C821.50223 731.5797 835.54393 769.76151 850 790C860.84303 805.18024 878.26925 825.06396 894.5293 842.71484C894.5293 842.71484 917.56551 830.64399 910.72852 823.05859C897.24079 808.09442 883.90157 792.46219 875 780C860.87439 760.22415 847.14413 723.31512 838.64062 697.73633zM786.84961 712.2793L760.13281 716.92773C767.96686 741.66234 783.7206 787.20884 800 810C814.38872 830.1442 840.37142 858.56889 859.83594 879.07031C866.96926 886.58364 876.71875 860.45703 876.71875 860.45703C858.62803 841.11272 837.46408 817.44971 825 800C809.83353 778.76694 795.12464 737.78428 786.84961 712.2793z"></path></symbol><rect id="XDJ" width="164.8" height="260.8" x="-82.4" y="-130.4"></rect></defs><rect width="239" height="335" x="-119.5" y="-167.5" rx="12" ry="12" fill="white" stroke="black"></rect><use width="164.8" height="260.8" x="-82.4" y="-130.4" xlink:href="#DJ1"></use><use transform="rotate(180)" width="164.8" height="260.8" x="-82.4" y="-130.4" xlink:href="#DJ1"></use><use width="164.8" height="260.8" x="-82.4" y="-130.4" xlink:href="#DJ2"></use><use transform="rotate(180)" width="164.8" height="260.8" x="-82.4" y="-130.4" xlink:href="#DJ2"></use><use width="164.8" height="260.8" x="-82.4" y="-130.4" xlink:href="#DJ3"></use><use transform="rotate(180)" width="164.8" height="260.8" x="-82.4" y="-130.4" xlink:href="#DJ3"></use><use width="164.8" height="260.8" x="-82.4" y="-130.4" xlink:href="#DJ4"></use><use transform="rotate(180)" width="164.8" height="260.8" x="-82.4" y="-130.4" xlink:href="#DJ4"></use><use width="164.8" height="260.8" x="-82.4" y="-130.4" xlink:href="#DJ5"></use><use transform="rotate(180)" width="164.8" height="260.8" x="-82.4" y="-130.4" xlink:href="#DJ5"></use><use width="164.8" height="260.8" x="-82.4" y="-130.4" xlink:href="#DJ6"></use><use transform="rotate(180)" width="164.8" height="260.8" x="-82.4" y="-130.4" xlink:href="#DJ6"></use><use xlink:href="#VDJ" height="32" width="32" x="-114.4" y="-156"></use><use xlink:href="#SDJ" height="26.769" width="26.769" x="-111.784" y="-119"></use><use xlink:href="#SDJ" height="55.68" width="55.68" x="34" y="-132.16"></use><g transform="rotate(180)"><use xlink:href="#VDJ" height="32" width="32" x="-114.4" y="-156"></use><use xlink:href="#SDJ" height="26.769" width="26.769" x="-111.784" y="-119"></use><use xlink:href="#SDJ" height="55.68" width="55.68" x="34" y="-132.16"></use></g><use xlink:href="#XDJ" stroke="#44F" fill="none"></use></svg>