<?xml version="1.0" encoding="UTF-8" standalone="no"?>
<svg xmlns="http://www.w3.org/2000/svg" xmlns:xlink="http://www.w3.org/1999/xlink" class="card" face="JH" height="3.5in" preserveAspectRatio="none" viewBox="-120 -168 240 336" width="2.5in"><defs><symbol id="VHJ" viewBox="-500 -500 1000 1000" preserveAspectRatio="xMinYMid"><path d="M50 -460L250 -460M150 -460L150 250A100 100 0 0 1 -250 250L-250 220" stroke="red" stroke-width="80" stroke-linecap="square" stroke-miterlimit="1.5" fill="none"></path></symbol><symbol id="SHJ" viewBox="-600 -600 1200 1200" preserveAspectRatio="xMinYMid"><path d="M0 -300C0 -400 100 -500 200 -500C300 -500 400 -400 400 -250C400 0 0 400 0 500C0 400 -400 0 -400 -250C-400 -400 -300 -500 -200 -500C-100 -500 0 -400 -0 -300Z" fill="red"></path></symbol><symbol id="HJ6" preserveAspectRatio="none" viewBox="0 0 1300 2000"><path stroke="#44F" stroke-linecap="round" stroke-linejoin="round" stroke-width="3" fill="none" d="M115,211.83788V336.03517M125,201.16992V341.48437M135,188.60547V349.31836M145,171.89258V361.47461M155,90V382.19531M165,93.402342V455M175,103.03515V446.27931M185,113.46094v318.7246M195,124.76953V417.1758M205,137.23438V400.86523M215,151.24023V383.21681M225,167.81836V363.49804M1202,680c9.8093,8.78849 7.628,26.84045 4,27M1194,649c9.8093,8.78849 7.628,26.84045 4,27M1215,603c-9,5 -4,36 -4,36M1221,648c3.2158,4.71238 3.8261,10.28421 4,16M1231,682c3.2158,4.71238 3.8261,10.28421 4,16M804,254c-2.91484,-2.55137 -26.0397,5.37637 -27,11M803,214c-12,3 -23,-10 -37,-10 -4.12311,0 -22,8 -22,8M785.39658,217.99026c3.63476,2.7787 5.51372,8.26714 5.60342,14.50974 0,10.21727 -6.49187,18.5 -14.5,18.5 -8.00813,0 -14.5,-8.28273 -14.5,-18.5 0,-1.54497 0.14844,-3.0457 0.4281,-4.48025M594.21182,400H574.71264M608.16913,415H557.67652M627.87356,430h-79.844M639.77833,445H526.27258M670,460H510M645,475H474.75369"></path><use xlink:href="#SHJ" height="100" width="100" transform="translate(546,1000)scale(1,0.972)rotate(0)translate(-50,-50)"></use><use xlink:href="#SHJ" height="100" width="100" transform="translate(615,1000)scale(1,0.972)rotate(180)translate(-50,-50)"></use><use xlink:href="#SHJ" height="75" width="75" transform="translate(883,776)scale(1,0.972)rotate(30)translate(-37,-37)"></use><use xlink:href="#SHJ" height="75" width="75" transform="translate(915,711)scale(1,0.972)rotate(30)translate(-37,-37)"></use><use xlink:href="#SHJ" height="75" width="75" transform="translate(954,646)scale(1,0.972)rotate(30)translate(-37,-37)"></use><use xlink:href="#SHJ" height="75" width="75" transform="translate(220,633)scale(1,0.972)rotate(60)translate(-37,-37)"></use><use xlink:href="#SHJ" height="75" width="75" transform="translate(155,728)scale(1,0.972)rotate(60)translate(-37,-37)"></use><use xlink:href="#SHJ" height="75" width="75" transform="translate(52,728)scale(1,0.972)rotate(60)translate(-37,-37)"></use><use xlink:href="#SHJ" height="75" width="75" transform="translate(96,825)scale(1,0.972)rotate(60)translate(-37,-37)"></use></symbol><symbol id="HJ5" preserveAspectRatio="none" viewBox="0 0 1300 2000"><path stroke="#44F" stroke-linecap="round" stroke-linejoin="round" stroke-width="6" fill="none" d="M497.5,1097.5v-195h305M497.53695,920h304.5977M497.7422,940H802.54516M497.5,902.5 220.25073,544.1046M527.5,902.5 239.8832,530.70267M637.5,902.5 332.0425,507.6403M667.5,902.5 360,505M843.54523,507.42138C742.26363,619.63396 702.25643,759.86643 667.5,902.5M861.60228,521.11429C769.04953,630.9337 730.8566,765.61106 697.5,902.5M927.76658,569.28185C849.2527,668.40463 802.42708,779.68513 772.5,902.5M947.11176,583.06392C874.97254,678.68619 831.04785,785.34524 802.5,902.5M1019.4464,637.16898C967.03454,702.84525 928.62898,773.87944 899.9052,850.0893M1038.7061,650.95849C986.60024,719.51428 949.09489,793.76442 921.43496,873.50848M832.60383,801.55437C926.4139,852.12415 990,950.02267 990,1062.5c0,71.6564 -25.80726,137.3957 -68.7955,188.7501M809.46486,875.27936c62.6448,39.58869 104.13315,108.64851 104.13315,187.22064 0,47.0778 -14.89435,90.7407 -40.30962,126.6955M802.61707,907.04434c48.75509,35.02012 80.42015,91.60786 80.42015,155.45566 0,37.0158 -10.64298,71.5914 -29.08883,100.9389M410.44704,570H795.05972M371.6955,520H831.34393M380,490h440l479.9997,352.65281M266.06519,512.71366 -6.0121561e-5,696.20694M235.47171,563.81223 -1.1326293e-4,726.20659M950.47664,862.55118C994.06177,917.82763 1020,987.1903 1020,1062.5c0,67.9838 -21.13733,131.1214 -57.31256,183.4252M1299.9766,1096.2998C1147.3348,1070.9868 1030,918.87092 1030,735c0,-28.78989 2.8766,-56.80127 8.3149,-83.66927M1299.9975,984.66375C1200.0407,960.59622 1124.9315,857.96173 1124.9315,735c0,-6.74019 0.2257,-13.4193 0.6688,-20.02774M1299.9321,953.90857C1214.4234,930.36018 1150.8219,841.28651 1150.8219,735c0,-0.68109 0,-1.36148 0.01,-2.04114M1299.9857,891.58596c-46.1051,-17.78701 -81.7307,-62.14932 -93.3443,-117.40631M1212.1849,1066.4204c-49.3918,119.2526 -123.4237,231.1324 -195.8398,307.0334M1188.142,1051.6962c-45.7522,115.8302 -115.5424,225.8669 -185.6451,304.2612M1164.8169,1034.2942c-37.4213,100.5699 -93.6898,197.7758 -153.4812,274.922M962.38181,1246.0963l48.75749,63.3848M1031.0142,704.28923c-33.18827,49.72014 -59.54377,102.25014 -80.73019,157.51986M422.63854,585h362.2616M1299.9825,1077.8418C1156.5101,1058.6748 1045,914.19428 1045,738.80502c0,-26.88135 2.6195,-53.03664 7.572,-78.12596M1059.3988,741.1094c0,-0.7675 -0.01,-1.53563 -0.01,-2.30438 0,-23.56378 2.1189,-46.54024 6.1428,-68.67569M1077.9111,856.36385c-8.1994,-24.99069 -13.8614,-51.48648 -16.6107,-79.04168M1140.3179,969.09258c-20.1073,-23.63481 -37.1356,-50.95235 -50.3073,-81.02974M1241.484,1044.4857c-31.0325,-13.0137 -59.4912,-32.4944 -84.2264,-57.07775M1299.9607,1060.6434c-8.0784,-1.1381 -16.0486,-2.6948 -23.8949,-4.6511M1076.5153,718.27127c0.705,-12.56452 2.0523,-24.92048 4.0032,-37.02207M1093.7098,850.36695c-8.1545,-24.56307 -13.6959,-50.68734 -16.2177,-77.89045M1150.033,952.84535c-17.5756,-21.10073 -32.5713,-45.23454 -44.3795,-71.68049M1252.6715,1028.2529c-28.5847,-11.0962 -54.9586,-27.9901 -78.1352,-49.51054M1093.2595,715.83004c0.5275,-7.84278 1.3227,-15.59602 2.3747,-23.24684M1102.8983,822.03399c-2.8744,-11.18221 -5.1848,-22.65642 -6.8916,-34.37593M1150.8209,924.93938c-7.8627,-10.79917 -15.0532,-22.30675 -21.4945,-34.43117M1241.4527,1002.431c-13.8083,-6.72368 -26.9716,-14.93093 -39.3489,-24.45461M1109.1216,731.53526c0.2141,-9.44092 0.844,-18.75874 1.8687,-27.92864M1109.0703,734.34219c0.013,-0.93684 0.03,-1.87249 0.051,-2.80693M1109.364,753.22508c-0.2155,-4.77424 -0.3247,-9.58202 -0.3247,-14.42006 0,-1.49051 0.01,-2.97816 0.031,-4.46283M1120.8416,824.07536c-3.907,-13.6632 -6.9011,-27.82669 -8.8959,-42.38814M1131.024,853.6527c-1.0209,-2.51801 -2.0094,-5.05809 -2.9647,-7.61949M1166.911,916.88195c-8.7223,-11.4161 -16.6179,-23.73811 -23.5748,-36.83294M1189.8783,942.97133c-1.163,-1.14547 -2.316,-2.30466 -3.4589,-3.47737M1299.9752,1001.2117c-32.0129,-5.53997 -61.8239,-19.13493 -87.9255,-38.99596M1125.046,852.42232c24.7576,-39.98864 -53.6064,-42.7593 -29.0623,-2.32039 -45.2497,0.95904 -12.4313,62.74216 13.3385,26.87164 16.5889,40.72513 65.9206,-19.52725 15.7238,-24.55125v0M1101.1567,749.59303c32.7223,-33.7828 -43.2444,-53.21583 -27.8973,-8.47005 -44.4117,-8.72127 -25.5367,58.64294 7.2955,29.0994 7.5142,43.32743 68.5695,-5.00699 20.6018,-20.62935v0M1185.9135,943.23345c11.9934,-45.4773 -63.7606,-25.23078 -28.4721,6.27226 -42.995,14.13824 6.4431,63.63649 20.6078,21.80186 27.764,34.10103 57.3386,-37.9358 7.8643,-28.07412v0M1300.1346,1010.0689c-5.0274,-2.3059 -12.2681,-1.873 -21.9391,3.4253 -2.1906,-46.98115 -68.3917,-4.9574 -25.2826,14.5187 -36.7797,26.3764 25.2227,58.7787 26.1955,14.6218 8.8116,5.8113 15.8896,5.7573 20.9466,2.654M802.34549,1041.2843C814.63704,1035.196 839.54293,1023.4286 855,1020c31.90193,-7.0763 33.67529,38.5554 5,40 -14.79504,0.7454 -43.33343,3.1297 -57.13915,4.3161M802.25855,1053.1854 835,1045M803.00171,1017.2272c8.41639,-9.3606 23.833,-25.79263 34.75877,-33.27917C861.51045,967.67407 877.96428,1004.3905 855,1015c-15.99648,7.3905 -51.48716,25.4599 -51.48716,25.4599M802.64135,1030.5334l26.99137,-19.5741M802.80081,968.57226c3.87242,-6.98034 7.98425,-13.66987 11.74319,-18.33954 18.05323,-22.4273 44.38909,7.99058 25.456,24.76728 -9.83206,8.71234 -28.32887,26.2301 -37.10666,34.5821M802.56213,994.1675l11.98221,-15.72717M802.68055,916.23818c12.41066,0.87889 23.55886,16.50494 13.28335,30.12997 -3.49586,4.63547 -8.30966,11.29224 -13.19342,18.13512M803.20787,1067.8041c13.22136,-1.6585 41.62409,-4.7271 57.74749,-2.8041 32.44737,3.8698 19.03328,47.5214 -8.50686,39.4035 -12.40462,-3.6565 -35.10706,-9.5972 -49.6034,-13.3393M803.11653,1079.1488l30.69768,2.8324M802.82468,1091.4315c13.12209,3.4126 40.07008,10.9394 54.14009,18.5685 25.82865,14.0049 5.32659,44.2101 -15.49798,37.2863M811.19881,1108.5079l14.27286,7.2529M820.8225,883.013 840,860c20.83333,-25 50,12 35,30l-19.53316,23.43979M866.11475,926.17568l25.88781,-16.66095c27.36518,-17.61176 44.10978,26.42587 24.40685,39.10634l-25.56123,16.45076M897.43728,979.42445l28.98058,-7.22761c31.57555,-7.87478 33.26702,39.20846 10.53261,44.87836l-26.66754,6.6507M912.77209,1042.4082l26.79187,0.7737c32.52913,0.9394 21.45053,46.7319 -1.9705,46.0556l-25.52652,-0.7372M908.37226,1109.7355l25.37541,6.1722c31.62077,7.6911 11.25123,50.1737 -11.51579,44.6361l-28.3756,-6.9018M888.39003,1164.9612l23.15134,17.7061c19.22632,14.7041 4.37666,35.4488 -12.15316,39.2571M830.62097,805.88837c8.31077,11.1943 11.71243,25.64414 4.93257,37.82254 33.97969,-40.77564 81.55128,19.57231 57.0859,48.93077 44.63332,-28.72524 71.9442,43.10127 39.80821,63.78344 51.50053,-12.84397 54.25937,63.94998 17.17898,73.19768 53.05587,1.5321 34.98636,76.221 -3.21387,75.1178 51.5743,12.5445 18.35102,81.8348 -18.78247,72.8027 29.40202,22.4864 9.94438,53.6341 -14.82051,62.5533M-4.1946769e-5,27.173862 105,155v468.15271M-2.8273735e-4,101.95617 60,175v479.3514M105.54275,220.90029C171.88778,160.99512 153.13361,122.45876 150,80 301.15308,208.77386 259.82851,334.77263 165,460 164.26867,400.69123 156.82035,347.16077 104.53351,332.20266M153.06712,103.9937C175.41109,132.99927 200.60008,160.30087 155,230c20.18754,7.86847 40.47761,13.66024 60,35 -15.8987,24.34828 -37.56531,33.20556 -60,40 17.25032,36.86946 52.18325,61.33171 9.93938,139.94598M1086.0394,685.5545c1.7233,-14.74679 5.1887,-42.09582 8.9606,-45.5545 5.2413,-4.80604 44.3306,-54.33061 50,-60 5,-5 35,-10 40,-10 5,0 26.7295,9.53056 30,25 9.5798,45.31219 -10.2427,75.36551 -35,10 -10,10 -15,10 -30,10 42.7191,33.89473 28.8882,60.20895 -15,80M1189.8315,569.82955c3.7063,-4.79594 8.7183,-9.81274 15.1685,-14.82955 30.7488,-23.91573 77.0146,-7.61148 30,30 -6.8761,5.50082 -13.2793,9.58326 -19.0927,12.44235M1230.9668,588.23519c37.4032,-11.4695 66.8088,9.20148 8.4314,42.19727 -55.5965,31.42397 -78.104,13.09477 -54.4123,-13.08287M1238.0928,630.92036c34.2811,-2.65327 54.6718,18.51589 -2.5656,38.27169 -59.9763,20.70116 -76.9537,-1.87148 -43.8532,-22.36324M1237.4958,668.58075c34.1493,-2.05232 55.8945,22.6568 0.3302,36.41925 -57.1622,14.15822 -68.359,-12.30845 -31.5144,-28.41069M1177.8222,753.31072c22.2723,-6.8921 50.5575,-31.93645 53.3065,-46.62429M1168.572,672.59595C1173.4508,691.9311 1152.688,716.34327 1150,715M1015,465c-5,40 35,55 75,25 53.8145,-40.36087 157.0904,-42.07476 105,65 -10,-35 -72.8037,-22.12621 -115,5 -70,45 -135,-65 -65,-95v0M1015,465c-45.45331,52.65511 14.2155,101.95688 90,50 74.2723,-50.9201 112.5215,23.68817 90,40l-5,15M1173.8273,465.27755c8.6562,16.01934 15.1305,32.11284 16.2744,48.38751M1150.3512,465.31008c9.9197,11.14178 17.9456,22.90676 22.3083,35.87714M1109.8914,477.9655c9.1807,6.8231 17.7409,14.14097 24.6983,22.41128M1076.3529,498.61036c12.9644,2.47265 25.0837,6.15631 35.6306,12.09304M1049.0062,506.01786c9.8926,7.50188 18.5778,15.68412 25.1195,25.07438M1019.7988,491.34042c7.3907,15.13275 13.1172,30.23105 14.7384,45.24445M1165.0155,533.9652c5.593,-10.02146 4.31,-21.72479 0.053,-35.11M1141.9579,535.46523c4.6695,-10.0807 3.3875,-22.60148 0.018,-37.07727M1101.1435,548.3359c4.6469,-8.76053 5.254,-20.1225 4.4572,-33.29616M1052.2805,570.45609c7.1559,-8.40756 10.151,-21.05102 12.2908,-36.06985M1004.5272,552.51315c6.7414,-4.07742 12.7139,-10.69226 18.6459,-18.78401M807.13712,147.06767C812.8806,165.26885 820,189.03368 820,195c0,11.18034 -5,13.12816 -5,20 0,5 40,70 40,90 0,20 -20,20 -25,20 -5,0 0,20 0,25 0,5 -5,15 -5,15 0,0 5,7.92893 5,15 0,15 -30,15 -30,15 0,0 5,15 5,20 0,5 20,0 20,25 0,10 -30,35 -40,35 -10,0 -20,-10 -30,-10 -10,0 -25,10 -35,10 -10,0 -61.02633,-20.51317 -80,-30 -10,-5 -8.57698,-19.97248 -25.60017,-26.56822 -10.39523,-4.0277 -21.73865,-19.19489 -30.4987,-36.12401M800,295c-39.02114,3.50289 -15.75534,40.28179 20,15 8.16508,-5.77334 0,5 0,5 -9.08317,0 -18.01656,4.73102 -25,4M748,366c20.00463,-2.5693 42.80076,-23.89729 48,-29 4.09299,-4.017 14.92184,4.33969 14,10 -19.78153,10.29837 -48.04318,21.62838 -62,19M784,374c14.112,-2.18007 28.14848,-0.78183 41,-10M687,224c2.04677,3.4714 65.66773,-38.84566 77,-43 13.90454,-5.09732 26.59367,6.69159 26,6l2,11c0,0 -16.40931,-11.86356 -25,-9 -9,3 -78.94364,40.1459 -80,35v0M715,245c33.34705,-2.16778 60.22567,-31.5381 87,-30M744.95992,236.78803C732.52561,265.24338 785.72384,244.61524 803,254M820,490 795.10673,471.33005M366.44945,156.05442C314.55451,278.49268 383.86141,375.08483 320,480c-9.53236,15.66031 -50,25 -55,0 -8.82523,-44.12613 50.24631,-27.89151 35,-10M388.83082,150.20227C331.01917,274.73282 395.78822,368.42356 340,480c-20,40 -91.15891,51.00962 -95,5 -6.65669,-79.73568 95,-60 75,-5M411.71309,144.17621C348.90694,271.72703 416.68449,366.63102 360,480c-12.3444,24.6888 -44.17833,38.33341 -67.64358,34.34322M434.14583,139.28589C366.70555,269.31221 432.40655,365.18689 375,480c-8.54683,17.09367 -22.77226,24.41423 -38.50395,25.97628M456.34823,135.07731C385.29084,266.55627 453.01849,353.96301 395,470c-12.3444,24.6888 -36.53475,38.99019 -60,35M478.34759,131.42121C404.0323,264.67715 473.55298,347.89403 415,465c-11.86382,23.72764 -30.05092,33.24264 -52.279,30.40547M500.27899,128.00352C422.83812,263.2613 494.05195,346.89608 435,465c-12.3444,24.6888 -26.53475,28.99019 -50,25M521.68345,125.57289C441.98226,262.26286 514.40487,346.19024 455,465c-12.3444,24.6888 -31.53475,28.99019 -55,25M543.01541,123.30571C461.1798,261.18125 534.73234,335.53531 475,455c-12.3444,24.6888 -26.53475,33.99019 -50,30M563.98404,121.68268C480.60166,260.55951 554.96627,330.06746 495,450c-12.3444,24.6888 -26.53475,33.99019 -50,30M584.58074,120.69207C500.24771,260.21318 575.10867,324.78265 515,445c-10.35677,20.71354 -18.49341,27.07646 -34.70275,26.23205M605,120c-85,140 -9.79203,189.58405 -70,310 -9.21459,18.42919 -16.67175,28.28448 -29.62065,30.43761M625,120c-85,140 -9.79203,179.58405 -70,300 -6.15308,12.30616 -15.24933,18.30473 -25.73193,20.7321M644.62322,120.6215C560.2374,260.02865 640.11875,269.76248 580,390c-7.44541,14.89083 -13.74345,22.36514 -22.7182,25.07689M335.61818,138.23352C473.65944,99.832554 647.92533,69.076687 841.9261,121.81864M199.64831,1.2820655e-4 355.70312,158.85547C484.17465,122.11158 658.57478,97.858259 815,150L960.45465,-4.1127205e-4"></path></symbol><symbol id="HJ4" preserveAspectRatio="none" viewBox="0 0 1300 2000"><path fill="black" d="M632.88086,93.753906C522.32033,93.230847 421.89438,114.26582 335.61914,138.32227l20.08398,20.5332C484.17465,122.11158 658.57478,97.858259 815,150l26.9668,-28.01758C769.20092,102.14267 699.21718,94.067742 632.88086,93.753906Zm-366.95703,418.851564 -3.6836,2.35547 -6.79882,22.09765 11.08007,12.82422 48.81446,-7.50976 -14.82227,44.46484 10.31641,13.12695 46.3457,-3.86132 -11.91992,51.64843 11.38867,12.11133 45.49805,-7.58203 -11.91992,55.62305 11.42187,11.95898 44.03906,-7.33984 -15.24218,49.53515 11.08007,12.82422 49.22657,-7.57422 -15.30664,49.75L485,830h50.72266L520.60156,871.58203 530,885h49.4707l-7.8164,17.19531 21.77734,0.41992 10.67188,-23.47656L595,865H544.27734L559.39844,823.41797 550,810h-51.45898l16.01757,-52.05859 -11.08007,-12.82422 -49.22657,7.57422 15.30664,-49.75 -11.20312,-12.80469 -45.49805,7.58203 11.91992,-55.62305 -11.42187,-11.95898 -45.25,7.54101 11.63867,-50.42968 -10.57422,-12.21289 -44.88867,3.74023 15.20508,-45.61328 -11.00781,-13.04492 -49.22657,7.57422 3.76953,-12.25zm627.30078,30.62695 -44.74609,6.88477 -8.22266,12.13086 12.75195,55.25586 -55.25586,12.75195 -6.98242,13.58984 21.1543,50.76953 -50.76953,21.1543 -5.38477,13.07617 21.67578,52.02539 -42.58984,25.55469 -3.59766,13.42969 20.89649,37.61523 -43.40039,34.72071c-3.1114,2.39843 -4.41618,6.26064 -3.70703,9.86132l22.80273,0.47266 43.39648,-34.7168 2.4961,-12.66406 -20.30274,-36.54687 41.70508,-25.02344 4.08594,-12.41992 -21.1543,-50.76953 50.76953,-21.1543 5.38477,-13.07617 -20.44727,-49.07227 53.46485,-12.33789 7.49609,-11.99219 -12.57812,-54.50586 52.48437,-8.07617zM350,550a7.5,7.5 0 0 0 -7.5,7.5 7.5,7.5 0 0 0 7.5,7.5 7.5,7.5 0 0 0 7.5,-7.5 7.5,7.5 0 0 0 -7.5,-7.5zm-62.5,7.5a7.5,7.5 0 0 0 -7.5,7.5 7.5,7.5 0 0 0 7.5,7.5 7.5,7.5 0 0 0 7.5,-7.5 7.5,7.5 0 0 0 -7.5,-7.5zm605,20a7.5,7.5 0 0 0 -7.5,7.5 7.5,7.5 0 0 0 7.5,7.5 7.5,7.5 0 0 0 7.5,-7.5 7.5,7.5 0 0 0 -7.5,-7.5zM440,585 660,870C684.37858,769.03229 716.85829,670.13127 765,585Zm387.5,7.5a7.5,7.5 0 0 0 -7.5,7.5 7.5,7.5 0 0 0 7.5,7.5 7.5,7.5 0 0 0 7.5,-7.5 7.5,7.5 0 0 0 -7.5,-7.5zM470,600h270c-40,75 -67.50104,154.54911 -85,240zm-137.5,7.5a7.5,7.5 0 0 0 -7.5,7.5 7.5,7.5 0 0 0 7.5,7.5 7.5,7.5 0 0 0 7.5,-7.5 7.5,7.5 0 0 0 -7.5,-7.5zm60,0a7.5,7.5 0 0 0 -7.5,7.5 7.5,7.5 0 0 0 7.5,7.5 7.5,7.5 0 0 0 7.5,-7.5 7.5,7.5 0 0 0 -7.5,-7.5zm646.0098,43.64453C986.59951,719.5142 949.09448,793.76486 921.19922,873.48633 964.09618,924.86002 990,990.71027 990,1062.5c0,71.6564 -25.80649,137.3957 -68.66602,188.7656l80.89842,104.3867c70.3681,-78.0894 140.1574,-188.1254 185.9356,-304.125 -8.0489,-5.3952 -15.8824,-11.065 -23.4278,-17.2265 -37.3456,100.5639 -93.6123,197.7701 -153.5019,275.0488l-48.70314,-63.3379C998.86321,1193.6223 1020,1130.4838 1020,1062.5c0,-4.8592 -0.1124,-9.6924 -0.3262,-14.5H1050a3.0003,3.0003 0 1 0 0,-6h-30.6504c-0.5096,-8.0838 -1.3301,-16.0845 -2.4277,-24H1062.5a3.0003,3.0003 0 1 0 0,-6h-46.4648c-1.2796,-8.0997 -2.8527,-16.10559 -4.7266,-24H1065a3.0003,3.0003 0 1 0 0,-6h-55.1816c-1.8291,-7.09289 -3.8888,-14.09687 -6.1817,-21H1080a6.0006,6.0006 0 0 0 4.3965,-1.83398c-2.1617,-3.34316 -4.2641,-6.73858 -6.3301,-10.16602h-78.67968c-2.29271,-6.0859 -4.76933,-12.08684 -7.41406,-18H1065a6.0006,6.0006 0 0 0 2.5684,-0.54492c-2,-3.77475 -3.9402,-7.59447 -5.8262,-11.45508h-75.43556c-3.03586,-6.10523 -6.25428,-12.10927 -9.6582,-18h76.84766c-1.6961,-3.96114 -3.3312,-7.96196 -4.9082,-12h-79.21876c-3.90463,-6.13736 -8.01894,-12.13545 -12.31641,-18h84.97847c-1.3369,-3.96504 -2.6,-7.97156 -3.8222,-12h-86.59962c2.31428,-6.03484 4.67959,-12.03815 7.12109,-18h74.45313c-1.0126,-3.97378 -1.9725,-7.97337 -2.8731,-12h-66.54683c2.58201,-6.0357 5.22352,-12.03903 7.94531,-18h54.99222c-0.7097,-3.97808 -1.3673,-7.97784 -1.9668,-12h-47.41604c2.87844,-6.03674 5.82351,-12.03979 8.85547,-18h36.26167c-0.4222,-3.98163 -0.7903,-7.98169 -1.1035,-12h-28.90427c11.72897,-22.08559 24.55627,-43.65045 38.62887,-64.70312 1.34,-18.05589 3.7721,-35.74585 7.4532,-53.15235zM842.5,652.5a7.5,7.5 0 0 0 -7.5,7.5 7.5,7.5 0 0 0 7.5,7.5 7.5,7.5 0 0 0 7.5,-7.5 7.5,7.5 0 0 0 -7.5,-7.5zm-465,15a7.5,7.5 0 0 0 -7.5,7.5 7.5,7.5 0 0 0 7.5,7.5 7.5,7.5 0 0 0 7.5,-7.5 7.5,7.5 0 0 0 -7.5,-7.5zm60,0a7.5,7.5 0 0 0 -7.5,7.5 7.5,7.5 0 0 0 7.5,7.5 7.5,7.5 0 0 0 7.5,-7.5 7.5,7.5 0 0 0 -7.5,-7.5zm345,10a7.5,7.5 0 0 0 -7.5,7.5 7.5,7.5 0 0 0 7.5,7.5 7.5,7.5 0 0 0 7.5,-7.5 7.5,7.5 0 0 0 -7.5,-7.5zm-300,45a7.5,7.5 0 0 0 -7.5,7.5 7.5,7.5 0 0 0 7.5,7.5 7.5,7.5 0 0 0 7.5,-7.5 7.5,7.5 0 0 0 -7.5,-7.5zm-65,5a7.5,7.5 0 0 0 -7.5,7.5 7.5,7.5 0 0 0 7.5,7.5 7.5,7.5 0 0 0 7.5,-7.5 7.5,7.5 0 0 0 -7.5,-7.5zM805,735a7.5,7.5 0 0 0 -7.5,7.5 7.5,7.5 0 0 0 7.5,7.5 7.5,7.5 0 0 0 7.5,-7.5 7.5,7.5 0 0 0 -7.5,-7.5zm-55,30a7.5,7.5 0 0 0 -7.5,7.5 7.5,7.5 0 0 0 7.5,7.5 7.5,7.5 0 0 0 7.5,-7.5 7.5,7.5 0 0 0 -7.5,-7.5zm456.8242,9.25586c11.4441,55.1896 47.0675,99.5319 93.1758,117.31641V842.6582c-31.005,-22.77868 -62.0072,-45.55561 -93.1758,-68.40234zM462.5,782.5a7.5,7.5 0 0 0 -7.5,7.5 7.5,7.5 0 0 0 7.5,7.5 7.5,7.5 0 0 0 7.5,-7.5 7.5,7.5 0 0 0 -7.5,-7.5zm65,0a7.5,7.5 0 0 0 -7.5,7.5 7.5,7.5 0 0 0 7.5,7.5 7.5,7.5 0 0 0 7.5,-7.5 7.5,7.5 0 0 0 -7.5,-7.5zm250,35a7.5,7.5 0 0 0 -7.5,7.5 7.5,7.5 0 0 0 7.5,7.5 7.5,7.5 0 0 0 7.5,-7.5 7.5,7.5 0 0 0 -7.5,-7.5zm-270,25a7.5,7.5 0 0 0 -7.5,7.5 7.5,7.5 0 0 0 7.5,7.5 7.5,7.5 0 0 0 7.5,-7.5 7.5,7.5 0 0 0 -7.5,-7.5zm65,0a7.5,7.5 0 0 0 -7.5,7.5 7.5,7.5 0 0 0 7.5,7.5 7.5,7.5 0 0 0 7.5,-7.5 7.5,7.5 0 0 0 -7.5,-7.5zM725,845a7.5,7.5 0 0 0 -7.5,7.5 7.5,7.5 0 0 0 7.5,7.5 7.5,7.5 0 0 0 7.5,-7.5 7.5,7.5 0 0 0 -7.5,-7.5z"></path></symbol><symbol id="HJ3" preserveAspectRatio="none" viewBox="0 0 1300 2000"><path fill="#44F" d="M1011.2375,1309.3487l-48.70288,-63.3379C998.86267,1193.6214 1020,1130.4838 1020,1062.5 1020,987.1903 994.06177,917.82763 950.38033,862.18014 971.47043,806.53937 997.82593,754.00937 1031.0655,704.16801 1030.3772,714.25089 1030,724.5744 1030,735c0,123.54039 52.9686,232.74556 134.4214,299.0404 -37.0258,100.8237 -93.2943,198.0296 -153.1839,275.3083zM748,366c20.00463,-2.5693 42.80076,-23.89729 48,-29 4.09299,-4.017 14.92184,4.33969 14,10 -19.78153,10.29837 -48.04318,21.62838 -62,19M687,224c2.04677,3.4714 65.66773,-38.84566 77,-43 13.90454,-5.09732 26.59367,6.69159 26,6l2,11c0,0 -16.40931,-11.86356 -25,-9 -9,3 -78.94364,40.1459 -80,35zM787.99997,233.5a8.4999998,15.5 0 0 1 -8.5,15.5 8.4999998,15.5 0 0 1 -8.5,-15.5 8.4999998,15.5 0 0 1 8.5,-15.5 8.4999998,15.5 0 0 1 8.5,15.5z"></path></symbol><symbol id="HJ2" preserveAspectRatio="none" viewBox="0 0 1300 2000"><path fill="red" d="M199.64844,0 355.70312,158.85547C484.17465,122.11158 658.57478,97.858259 815,150L960.45508,0h-86.25586l-72.25586,88.408203 -2.95898,-0.603515C763.77679,80.62013 729.26591,75.896485 695.65039,72.996094L690.62109,72.5625 697.58008,0h-67.60352l-0.084,70.974609 -4.99805,-0.0059c-38.8849,-0.03567 -76.40043,2.698568 -112.47461,7.173828L507.77148,78.720703 492.76953,0h-77.47851l32.89257,88.25 -5.82812,1.101562C413.49068,94.811819 385.99663,101.17094 359.80859,107.875l-3.43554,0.88086L283.97852,0Zm96.34375,0 64.80078,97.351562c23.53388,-5.971783 48.18939,-11.615645 73.91601,-16.621093L404.61719,0Zm206.95703,0 12.90234,67.705078c33.44321,-3.997357 68.14902,-6.46984 104.05274,-6.654297L619.97656,0Zm204.67383,0 -6.0918,63.533203c31.42374,2.872145 63.62284,7.330913 96.45898,13.910156L861.2832,0ZM0,101.95703V696.48828L60,654.35156V175Zm434.89844,426.79688c-6.16001,0 -12.29166,3.64996 -5.28711,10.93554a7.5,7.5 0 0 1 5.28711,-2.18554 7.5,7.5 0 0 1 5.28711,2.1875c7.0062,-7.28629 0.8732,-10.9375 -5.28711,-10.9375zm5.28711,10.9375c-0.102,0.10608 -0.17948,0.20487 -0.28711,0.3125 0.10799,-0.10799 0.20802,-0.18478 0.31445,-0.28711a7.5,7.5 0 0 0 -0.0273,-0.0254zm0.0273,0.0254a7.5,7.5 0 0 1 2.18555,5.28711 7.5,7.5 0 0 1 -2.1875,5.28711c14.57223,14.01206 14.57341,-24.58368 0.002,-10.57422zm-0.002,10.57422c-0.10608,-0.102 -0.20487,-0.17948 -0.3125,-0.28711 0.10799,0.10799 0.18478,0.20802 0.28711,0.31445a7.5,7.5 0 0 0 0.0254,-0.0273zm-0.0254,0.0273a7.5,7.5 0 0 1 -5.28711,2.18555 7.5,7.5 0 0 1 -5.28711,-2.1875c-14.01206,14.57223 24.58368,14.57341 10.57422,0.002zm-10.57422,-0.002c0.102,-0.10608 0.17948,-0.20487 0.28711,-0.3125 -0.10799,0.10799 -0.20803,0.18478 -0.31446,0.28711a7.5,7.5 0 0 0 0.0274,0.0254zm-0.0274,-0.0254a7.5,7.5 0 0 1 -2.18554,-5.28711 7.5,7.5 0 0 1 2.1875,-5.28711c-14.57223,-14.01206 -14.57342,24.58368 -0.002,10.57422zm0.002,-10.57422c0.10608,0.102 0.20487,0.17948 0.3125,0.28711 -0.10799,-0.10799 -0.18478,-0.20803 -0.28711,-0.31446a7.5,7.5 0 0 0 -0.0254,0.0274zm71.8164,-10.96289c-6.16001,0 -12.29166,3.64996 -5.28711,10.93554a7.5,7.5 0 0 1 5.28711,-2.18554 7.5,7.5 0 0 1 5.28711,2.1875c7.0062,-7.28629 0.8732,-10.9375 -5.28711,-10.9375zm5.28711,10.9375c-0.102,0.10608 -0.17948,0.20487 -0.28711,0.3125 0.10799,-0.10799 0.20803,-0.18478 0.31446,-0.28711a7.5,7.5 0 0 0 -0.0273,-0.0254zm0.0273,0.0254a7.5,7.5 0 0 1 2.18554,5.28711 7.5,7.5 0 0 1 -2.1875,5.28711c14.57223,14.01206 14.57342,-24.58368 0.002,-10.57422zm-0.002,10.57422c-0.10608,-0.102 -0.20487,-0.17948 -0.3125,-0.28711 0.10799,0.10799 0.18478,0.20802 0.28711,0.31445a7.5,7.5 0 0 0 0.0254,-0.0273zm-0.0254,0.0273a7.5,7.5 0 0 1 -5.28711,2.18555 7.5,7.5 0 0 1 -5.28711,-2.1875c-14.01206,14.57223 24.58368,14.57341 10.57422,0.002zm-10.57422,-0.002c0.102,-0.10608 0.17948,-0.20487 0.28711,-0.3125 -0.10799,0.10799 -0.20802,0.18478 -0.31445,0.28711a7.5,7.5 0 0 0 0.0273,0.0254zm-0.0273,-0.0254a7.5,7.5 0 0 1 -2.18555,-5.28711 7.5,7.5 0 0 1 2.1875,-5.28711c-14.57223,-14.01206 -14.57341,24.58368 -0.002,10.57422zm0.002,-10.57422c0.10608,0.102 0.20487,0.17948 0.3125,0.28711 -0.10799,-0.10799 -0.18478,-0.20803 -0.28711,-0.31446a7.5,7.5 0 0 0 -0.0254,0.0274zm71.81641,-10.96289c-6.16001,0 -12.29166,3.64996 -5.28711,10.93554a7.5,7.5 0 0 1 5.28711,-2.18554 7.5,7.5 0 0 1 5.28711,2.1875c7.0062,-7.28629 0.8732,-10.9375 -5.28711,-10.9375zm5.28711,10.9375c-0.102,0.10608 -0.17948,0.20487 -0.28711,0.3125 0.10799,-0.10799 0.20802,-0.18478 0.31445,-0.28711a7.5,7.5 0 0 0 -0.0273,-0.0254zm0.0273,0.0254a7.5,7.5 0 0 1 2.18555,5.28711 7.5,7.5 0 0 1 -2.1875,5.28711c14.57223,14.01206 14.57341,-24.58368 0.002,-10.57422zm-0.002,10.57422c-0.10608,-0.102 -0.20487,-0.17948 -0.3125,-0.28711 0.10799,0.10799 0.18478,0.20802 0.28711,0.31445a7.5,7.5 0 0 0 0.0254,-0.0273zm-0.0254,0.0273a7.5,7.5 0 0 1 -5.28711,2.18555 7.5,7.5 0 0 1 -5.28711,-2.1875c-14.01206,14.57223 24.58368,14.57341 10.57422,0.002zm-10.57422,-0.002c0.102,-0.10608 0.17948,-0.20487 0.28711,-0.3125 -0.10799,0.10799 -0.20802,0.18478 -0.31445,0.28711a7.5,7.5 0 0 0 0.0273,0.0254zm-0.0273,-0.0254a7.5,7.5 0 0 1 -2.18555,-5.28711 7.5,7.5 0 0 1 2.1875,-5.28711c-14.57223,-14.01206 -14.57341,24.58368 -0.002,10.57422zm0.002,-10.57422c0.10608,0.102 0.20487,0.17948 0.3125,0.28711 -0.10799,-0.10799 -0.18478,-0.20803 -0.28711,-0.31446a7.5,7.5 0 0 0 -0.0254,0.0274zm71.81445,-10.96289c-6.16001,0 -12.29166,3.64996 -5.28711,10.93554a7.5,7.5 0 0 1 5.28711,-2.18554 7.5,7.5 0 0 1 5.28711,2.1875c7.0062,-7.28629 0.8732,-10.9375 -5.28711,-10.9375zm5.28711,10.9375c-0.102,0.10608 -0.17948,0.20487 -0.28711,0.3125 0.10799,-0.10799 0.20803,-0.18478 0.31446,-0.28711a7.5,7.5 0 0 0 -0.0274,-0.0254zm0.0274,0.0254a7.5,7.5 0 0 1 2.18554,5.28711 7.5,7.5 0 0 1 -2.1875,5.28711c14.57223,14.01206 14.57342,-24.58368 0.002,-10.57422zm-0.002,10.57422c-0.10608,-0.102 -0.20487,-0.17948 -0.3125,-0.28711 0.10799,0.10799 0.18478,0.20802 0.28711,0.31445a7.5,7.5 0 0 0 0.0254,-0.0273zm-0.0254,0.0273a7.5,7.5 0 0 1 -5.28711,2.18555 7.5,7.5 0 0 1 -5.28711,-2.1875c-14.01206,14.57223 24.58368,14.57341 10.57422,0.002zm-10.57422,-0.002c0.102,-0.10608 0.17948,-0.20487 0.28711,-0.3125 -0.10799,0.10799 -0.20802,0.18478 -0.31445,0.28711a7.5,7.5 0 0 0 0.0273,0.0254zm-0.0273,-0.0254a7.5,7.5 0 0 1 -2.18555,-5.28711 7.5,7.5 0 0 1 2.1875,-5.28711c-14.57223,-14.01206 -14.57341,24.58368 -0.002,10.57422zm0.002,-10.57422c0.10608,0.102 0.20487,0.17948 0.3125,0.28711 -0.10799,-0.10799 -0.18478,-0.20803 -0.28711,-0.31446a7.5,7.5 0 0 0 -0.0254,0.0274zm71.81641,-10.96289c-6.16001,0 -12.29166,3.64996 -5.28711,10.93554a7.5,7.5 0 0 1 5.28711,-2.18554 7.5,7.5 0 0 1 5.28711,2.1875c7.0062,-7.28629 0.8732,-10.9375 -5.28711,-10.9375zm5.28711,10.9375c-0.102,0.10608 -0.17948,0.20487 -0.28711,0.3125 0.10799,-0.10799 0.20802,-0.18478 0.31445,-0.28711a7.5,7.5 0 0 0 -0.0273,-0.0254zm0.0273,0.0254a7.5,7.5 0 0 1 2.18555,5.28711 7.5,7.5 0 0 1 -2.1875,5.28711c14.57223,14.01206 14.57341,-24.58368 0.002,-10.57422zm-0.002,10.57422c-0.10608,-0.102 -0.20487,-0.17948 -0.3125,-0.28711 0.10799,0.10799 0.18478,0.20802 0.28711,0.31445a7.5,7.5 0 0 0 0.0254,-0.0273zm-0.0254,0.0273a7.5,7.5 0 0 1 -5.28711,2.18555 7.5,7.5 0 0 1 -5.28711,-2.1875c-14.01206,14.57223 24.58368,14.57341 10.57422,0.002zm-10.57422,-0.002c0.102,-0.10608 0.17948,-0.20487 0.28711,-0.3125 -0.10799,0.10799 -0.20802,0.18478 -0.31445,0.28711a7.5,7.5 0 0 0 0.0273,0.0254zm-0.0273,-0.0254a7.5,7.5 0 0 1 -2.18555,-5.28711 7.5,7.5 0 0 1 2.1875,-5.28711c-14.57223,-14.01206 -14.57341,24.58368 -0.002,10.57422zm0.002,-10.57422c0.10608,0.102 0.20487,0.17948 0.3125,0.28711 -0.10799,-0.10799 -0.18478,-0.20803 -0.28711,-0.31446a7.5,7.5 0 0 0 -0.0254,0.0274zm71.81445,-10.96289c-6.16001,0 -12.29166,3.64996 -5.28711,10.93554a7.5,7.5 0 0 1 5.28711,-2.18554 7.5,7.5 0 0 1 5.28711,2.1875c7.0062,-7.28629 0.8732,-10.9375 -5.28711,-10.9375zm5.28711,10.9375c-0.102,0.10608 -0.17948,0.20487 -0.28711,0.3125 0.10799,-0.10799 0.20803,-0.18478 0.31446,-0.28711a7.5,7.5 0 0 0 -0.0273,-0.0254zm0.0273,0.0254a7.5,7.5 0 0 1 2.18554,5.28711 7.5,7.5 0 0 1 -2.1875,5.28711c14.57223,14.01206 14.57342,-24.58368 0.002,-10.57422zm-0.002,10.57422c-0.10608,-0.102 -0.20487,-0.17948 -0.3125,-0.28711 0.10799,0.10799 0.18478,0.20802 0.28711,0.31445a7.5,7.5 0 0 0 0.0254,-0.0273zm-0.0254,0.0273a7.5,7.5 0 0 1 -5.28711,2.18555 7.5,7.5 0 0 1 -5.28711,-2.1875c-14.01206,14.57223 24.58368,14.57341 10.57422,0.002zm-10.57422,-0.002c0.102,-0.10608 0.17948,-0.20487 0.28711,-0.3125 -0.10799,0.10799 -0.20802,0.18478 -0.31445,0.28711a7.5,7.5 0 0 0 0.0273,0.0254zm-0.0273,-0.0254a7.5,7.5 0 0 1 -2.18555,-5.28711 7.5,7.5 0 0 1 2.1875,-5.28711c-14.57223,-14.01206 -14.57341,24.58368 -0.002,10.57422zm0.002,-10.57422c0.10608,0.102 0.20487,0.17948 0.3125,0.28711 -0.10799,-0.10799 -0.18478,-0.20803 -0.28711,-0.31446a7.5,7.5 0 0 0 -0.0254,0.0274zM470,600 655,840c17.49896,-85.45089 45,-165 85,-240zm680.832,132.95898c-0.01,0.67966 -0.01,1.35993 -0.01,2.04102 0,106.31333 63.6364,195.39872 149.1777,218.91992v-62.3457c-46.1093,-17.78491 -81.7451,-62.13411 -93.3594,-117.39453zM855.3457,851.5957C850.22328,851.6864 844.88281,854.14062 840,860L820.82227,883.01367 855.4668,913.43945 875,890c11.48438,-13.78125 -2.92105,-38.70057 -19.6543,-38.4043zm48.60742,53.82422c-3.6587,0.0964 -7.67536,1.34387 -11.95117,4.0957l-25.88672,16.66016 24.73243,38.89649 25.5625,-16.45118c16.62434,-10.69914 7.29998,-43.72176 -12.45704,-43.20117zm-101.33593,1.625 -0.0879,11.30274A3.0003,3.0003 0 0 0 799.95508,916.95703 3.0003,3.0003 0 0 0 797,920v20a3.0003,3.0003 0 0 0 5.3457,1.91016L802,986.10156c42.30656,39.72244 28.55091,84.92134 15.5293,130.04884l36.41992,47.2891c18.44585,-29.3475 29.08789,-63.9237 29.08789,-100.9395 0,-63.8478 -31.66483,-120.43496 -80.41992,-155.45508zm-302.66211,9.91211A3.0003,3.0003 0 0 0 497,920v20a3.0003,3.0003 0 1 0 6,0v-20a3.0003,3.0003 0 0 0 -3.04492,-3.04297zm15,0A3.0003,3.0003 0 0 0 512,920v20a3.0003,3.0003 0 1 0 6,0v-20a3.0003,3.0003 0 0 0 -3.04492,-3.04297zm15,0A3.0003,3.0003 0 0 0 527,920v20a3.0003,3.0003 0 1 0 6,0v-20a3.0003,3.0003 0 0 0 -3.04492,-3.04297zm15,0A3.0003,3.0003 0 0 0 542,920v20a3.0003,3.0003 0 1 0 6,0v-20a3.0003,3.0003 0 0 0 -3.04492,-3.04297zm15,0A3.0003,3.0003 0 0 0 557,920v20a3.0003,3.0003 0 1 0 6,0v-20a3.0003,3.0003 0 0 0 -3.04492,-3.04297zm15,0A3.0003,3.0003 0 0 0 572,920v20a3.0003,3.0003 0 1 0 6,0v-20a3.0003,3.0003 0 0 0 -3.04492,-3.04297zm15,0A3.0003,3.0003 0 0 0 587,920v20a3.0003,3.0003 0 1 0 6,0v-20a3.0003,3.0003 0 0 0 -3.04492,-3.04297zm15,0A3.0003,3.0003 0 0 0 602,920v20a3.0003,3.0003 0 1 0 6,0v-20a3.0003,3.0003 0 0 0 -3.04492,-3.04297zm15,0A3.0003,3.0003 0 0 0 617,920v20a3.0003,3.0003 0 1 0 6,0v-20a3.0003,3.0003 0 0 0 -3.04492,-3.04297zm15,0A3.0003,3.0003 0 0 0 632,920v20a3.0003,3.0003 0 1 0 6,0v-20a3.0003,3.0003 0 0 0 -3.04492,-3.04297zm15,0A3.0003,3.0003 0 0 0 647,920v20a3.0003,3.0003 0 1 0 6,0v-20a3.0003,3.0003 0 0 0 -3.04492,-3.04297zm15,0A3.0003,3.0003 0 0 0 662,920v20a3.0003,3.0003 0 1 0 6,0v-20a3.0003,3.0003 0 0 0 -3.04492,-3.04297zm15,0A3.0003,3.0003 0 0 0 677,920v20a3.0003,3.0003 0 1 0 6,0v-20a3.0003,3.0003 0 0 0 -3.04492,-3.04297zm15,0A3.0003,3.0003 0 0 0 692,920v20a3.0003,3.0003 0 1 0 6,0v-20a3.0003,3.0003 0 0 0 -3.04492,-3.04297zm15,0A3.0003,3.0003 0 0 0 707,920v20a3.0003,3.0003 0 1 0 6,0v-20a3.0003,3.0003 0 0 0 -3.04492,-3.04297zm15,0A3.0003,3.0003 0 0 0 722,920v20a3.0003,3.0003 0 1 0 6,0v-20a3.0003,3.0003 0 0 0 -3.04492,-3.04297zm15,0A3.0003,3.0003 0 0 0 737,920v20a3.0003,3.0003 0 1 0 6,0v-20a3.0003,3.0003 0 0 0 -3.04492,-3.04297zm15,0A3.0003,3.0003 0 0 0 752,920v20a3.0003,3.0003 0 1 0 6,0v-20a3.0003,3.0003 0 0 0 -3.04492,-3.04297zm15,0A3.0003,3.0003 0 0 0 767,920v20a3.0003,3.0003 0 1 0 6,0v-20a3.0003,3.0003 0 0 0 -3.04492,-3.04297zm15,0A3.0003,3.0003 0 0 0 782,920v20a3.0003,3.0003 0 1 0 6,0v-20a3.0003,3.0003 0 0 0 -3.04492,-3.04297zm148.31836,54.35547c-2.10465,-0.01 -4.38863,0.26955 -6.85547,0.88477l-28.98047,7.22656 12.8457,44.30277 26.66797,-6.6504c20.95829,-5.227 21.1571,-45.6492 -3.67773,-45.7637zm-20.50196,71.0957 -0.70507,46.0918 25.52734,0.7383c23.42103,0.6763 34.49983,-45.1173 1.9707,-46.0567zm-4.39843,67.3281 -14.51758,43.9063 28.37695,6.9004c22.76702,5.5376 43.1364,-36.9437 11.51563,-44.6348zm-19.98243,55.2246 -14.91601,23.9707 25.91406,32.9922c16.52982,-3.8083 31.37867,-24.5517 12.15235,-39.2558z"></path></symbol><symbol id="HJ1" preserveAspectRatio="none" viewBox="0 0 1300 2000"><path fill="#FC4" d="M0,27.173828V101.95703L60,175v479.35156l45,-31.19922V332.34375c47.54746,13.88505 57.73238,59.91066 59.79883,112.82227C207.18347,366.33183 172.25032,341.86946 155,305c22.43469,-6.79444 44.1013,-15.65172 60,-40 -19.52239,-21.33976 -39.81246,-27.13153 -60,-35 45.60008,-69.69913 20.41092,-97.0017 -2.07617,-126.05273 4.26215,33.89362 6.38364,68.40734 -47.38086,116.95312L105,280.75V155ZM616.34375,120.03906C526.3282,120.06041 439.18658,135.8115 366.16406,156.02734 314.55478,278.49343 383.86141,375.08483 320,480c20,-55 -81.65669,-74.73568 -75,5 1.6217,19.42514 15.24678,28.67574 31.95117,29.88281 -4.328,-0.20376 -8.26681,-0.74477 -11.52734,-1.72461l-45.06641,31.08594 -0.004,-0.006L0,696.20703v30L235.47266,563.8125 220.76172,544.76562 497.5,902.5 497.53711,920H802.5V902.5C831.04785,785.34524 874.97288,678.68575 947.42969,583.45898l-103.83594,-76.0625c-18.96493,21.00634 -35.78143,42.99322 -50.81836,65.79297L794.87695,570H410.2832L360,505h-21.81836c7.03111,-2.08932 14.31437,-4.3835 21.77539,-6.81055 3.81978,-0.61198 7.658,-1.20233 11.50391,-1.78515L360,505 371.69531,520H831.34375L843.54492,507.42188 820,490H412.90234c34.85939,-5.90774 68.5241,-14.10649 95.88282,-32.44922 7.35264,-4.9296 12.78884,-12.42658 20.59375,-17.13476 11.29317,-6.81241 22.21032,-13.53066 28.29687,-25.41602l-25.60156,9.58594 25.20703,-9.50977C566.256,412.36441 572.55459,404.89083 580,390 640.11875,269.76248 560.23698,260.02899 644.35938,120.55078c-9.361,-0.34689 -18.70368,-0.51393 -28.01563,-0.51172zM1163.4961,464.57422C1139.5891,464.36529 1111.0213,474.23404 1090,490c-40,30 -80,15 -75,-25 -70,30 -5,140 65,95 42.1963,-27.12621 105,-40 115,-5 31.7426,-65.24868 5.7911,-90.09986 -31.5039,-90.42578zm-868.3711,48.73242 -2.73633,1.02539c-2.76961,0.29378 -5.48373,0.48671 -8.11719,0.58203 3.5681,-0.21551 7.21015,-0.7583 10.85352,-1.60742zm497.4707,60.15625C727.4259,672.39827 695.72535,786.61685 667.43945,902.42188L413.45703,574.10156 422.63867,585H785Zm226.8516,63.70703c-52.41192,65.67627 -90.81922,136.71006 -119.543,212.91992l21.53125,23.41797C949.01815,793.98668 986.39464,719.93105 1038.2734,651.53516 1032.8619,678.34072 1030,706.28322 1030,735c0,136.63964 64.8075,255.72421 160.7383,318.2852l-2.5957,-1.5899c-45.7522,115.8302 -115.5438,225.8674 -185.6465,304.2617l13.8496,17.4961c72.4161,-75.901 146.448,-187.7806 195.8398,-307.0332l-6.2675,-3.8379c29.1072,16.6244 60.7557,28.1762 94.082,33.7012v-18.4707c-143.4769,-19.1618 -255,-163.61481 -255,-339.00781 0,-26.57032 2.5625,-52.4286 7.4043,-77.25196l-14.0156,-10.16992c0.1069,-0.14093 0.2113,-0.28295 0.3183,-0.42383zm88.4023,64.60547 17.75,13.19727c-0.4431,6.60844 -0.668,13.28715 -0.668,20.02734 0,122.96218 75.111,225.58935 175.0684,249.65625V953.91992C1214.4587,930.39872 1150.8223,841.31333 1150.8223,735c0,-0.68109 -6e-4,-1.36136 0.01,-2.04102zm-20.2754,13.24219c-11.0121,-0.22638 -20.789,7.22834 -14.3144,26.10547 -44.4117,-8.72127 -25.5373,58.64315 7.2949,29.09961 7.5142,43.32743 68.5693,-5.00655 20.6015,-20.62891 18.9176,-19.53068 1.5087,-34.26595 -13.582,-34.57617zm-254.97068,86.53711 -29.98633,105.49023c48.75509,35.02012 80.41992,91.60728 80.41992,155.45508 0,37.0158 -10.64204,71.592 -29.08789,100.9395l67.25586,87.8105C964.19332,1199.8956 990,1134.1564 990,1062.5 990,950.02267 926.41359,852.12447 832.60352,801.55469Zm276.73238,19.51758c-12.9859,-0.007 -25.2401,9.4417 -13.3515,29.02929 -45.2497,0.95904 -12.4319,62.74162 13.3379,26.8711 16.5889,40.72513 65.9214,-19.52679 15.7246,-24.55078 12.7656,-20.61915 -1.8873,-31.34208 -15.711,-31.34961zm59.8321,95.60742c-15.4147,0.1637 -32.1278,14.61347 -11.7266,32.82617 -42.995,14.13824 6.4427,63.63544 20.6074,21.80078 27.764,34.10106 57.3396,-37.93396 7.8653,-28.07226 5.0597,-19.18575 -5.4976,-26.67415 -16.7461,-26.55469zm92.3183,75.375c-17.1575,-0.3911 -37.5381,22.87351 -8.5742,35.95901 -36.7797,26.3764 25.2245,58.778 26.1973,14.6211 8.7819,5.7917 15.8372,5.7501 20.8906,2.6777v-35.2988c-5.0219,-2.2384 -12.2178,-1.7718 -21.8047,3.4804 -0.7188,-15.41561 -8.3297,-21.24841 -16.709,-21.43941z"></path></symbol><rect id="XHJ" width="164.8" height="260.8" x="-82.4" y="-130.4"></rect></defs><rect width="239" height="335" x="-119.5" y="-167.5" rx="12" ry="12" fill="white" stroke="black"></rect><use width="164.8" height="260.8" x="-82.4" y="-130.4" xlink:href="#HJ1"></use><use transform="rotate(180)" width="164.8" height="260.8" x="-82.4" y="-130.4" xlink:href="#HJ1"></use><use width="164.8" height="260.8" x="-82.4" y="-130.4" xlink:href="#HJ2"></use><use transform="rotate(180)" width="164.8" height="260.8" x="-82.4" y="-130.4" xlink:href="#HJ2"></use><use width="164.8" height="260.8" x="-82.4" y="-130.4" xlink:href="#HJ3"></use><use transform="rotate(180)" width="164.8" height="260.8" x="-82.4" y="-130.4" xlink:href="#HJ3"></use><use width="164.8" height="260.8" x="-82.4" y="-130.4" xlink:href="#HJ4"></use><use transform="rotate(180)" width="164.8" height="260.8" x="-82.4" y="-130.4" xlink:href="#HJ4"></use><use width="164.8" height="260.8" x="-82.4" y="-130.4" xlink:href="#HJ5"></use><use transform="rotate(180)" width="164.8" height="260.8" x="-82.4" y="-130.4" xlink:href="#HJ5"></use><use width="164.8" height="260.8" x="-82.4" y="-130.4" xlink:href="#HJ6"></use><use transform="rotate(180)" width="164.8" height="260.8" x="-82.4" y="-130.4" xlink:href="#HJ6"></use><use xlink:href="#VHJ" height="32" width="32" x="-114.4" y="-156"></use><use xlink:href="#SHJ" height="26.769" width="26.769" x="-111.784" y="-119"></use><use xlink:href="#SHJ" height="55.68" width="55.68" x="34" y="-132.16"></use><g transform="rotate(180)"><use xlink:href="#VHJ" height="32" width="32" x="-114.4" y="-156"></use><use xlink:href="#SHJ" height="26.769" width="26.769" x="-111.784" y="-119"></use><use xlink:href="#SHJ" height="55.68" width="55.68" x="34" y="-132.16"></use></g><use xlink:href="#XHJ" stroke="#44F" fill="none"></use></svg>