<?xml version="1.0" encoding="UTF-8" standalone="no"?>
<svg xmlns="http://www.w3.org/2000/svg" xmlns:xlink="http://www.w3.org/1999/xlink" class="card" face="JS" height="3.5in" preserveAspectRatio="none" viewBox="-120 -168 240 336" width="2.5in"><defs><symbol id="VSJ" viewBox="-500 -500 1000 1000" preserveAspectRatio="xMinYMid"><path d="M50 -460L250 -460M150 -460L150 250A100 100 0 0 1 -250 250L-250 220" stroke="black" stroke-width="80" stroke-linecap="square" stroke-miterlimit="1.5" fill="none"></path></symbol><symbol id="SSJ" viewBox="-600 -600 1200 1200" preserveAspectRatio="xMinYMid"><path d="M0 -500C100 -250 355 -100 355 185A150 150 0 0 1 55 185A10 10 0 0 0 35 185C35 385 85 400 130 500L-130 500C-85 400 -35 385 -35 185A10 10 0 0 0 -55 185A150 150 0 0 1 -355 185C-355 -100 -100 -250 0 -500Z" fill="black"></path></symbol><symbol id="SJ6" preserveAspectRatio="none" viewBox="0 0 1300 2000"><path stroke="#44F" stroke-linecap="round" stroke-linejoin="round" stroke-width="3" fill="none" d="M1225,520c0,10 25,10 25,10M1212.0833,537.97687c6.055,8.81002 1.0889,22.6431 0,22.02313M1212.0502,574.3073c6.055,8.81002 1.0889,22.6431 0,22.02313M1213.5608,601.84424c6.055,8.81002 1.0889,22.6431 0,22.02313M1222.0502,629.3073c6.055,8.81002 1.0889,22.6431 0,22.02313M1240,545c2.8165,4.38951 1.4689,7.21751 0,10M1243.355,575.11831c2.8165,4.38951 1.4689,7.21751 0,10M1243.355,605.11831c2.8165,4.38951 1.4689,7.21751 0,10M1243.355,635.11831c2.8165,4.38951 1.4689,7.21751 0,10M934,385c-10.82302,1.06092 -23.08148,-1.37924 -33,8M880,268c-7,1 -19,18 -19,18M871.43746,228.29497C873.65948,232.39336 875,237.70142 875,243.5c0,12.97869 -6.71573,23.5 -15,23.5 -8.28427,0 -15,-10.52131 -15,-23.5 0,-1.88879 0.14223,-3.72553 0.41083,-5.48537M786,243c28,0 58,-31 77,-31 11.49924,0 12,13 12,13"></path><use xlink:href="#SSJ" height="75" width="75" transform="translate(910,546)scale(1,0.972)rotate(35)translate(-37,-37)"></use><use xlink:href="#SSJ" height="75" width="75" transform="translate(845,641)scale(1,0.972)rotate(33)translate(-37,-37)"></use><use xlink:href="#SSJ" height="75" width="75" transform="translate(780,739)scale(1,0.972)rotate(33)translate(-37,-37)"></use></symbol><symbol id="SJ5" preserveAspectRatio="none" viewBox="0 0 1300 2000"><path stroke="#44F" stroke-linecap="round" stroke-linejoin="round" stroke-width="6" fill="none" d="M1299.8944,708.3581C1165.2251,619.98007 1044.8012,546.40551 913.65916,481.79897M778.7865,854.44353c90.11299,301.86987 247.3627,490.95487 521.1311,591.89757M791.46141,895H415.84565M800.0821,920H430.21347M808.29228,945H443.34975M904.79479,487.64169 701.69648,785.8073M980.71276,516.29403C904.09847,629.53618 826.24409,741.94178 749.86927,855.34576M417.19312,481.26608C323.04456,523.75672 229.46646,568.37866 137.21364,617.95184M335,520.11494V780.78818M450,491.88289V758.20903M280,545.22068V723.31691M315,528.52994V758.21018M480,480.41707V755.59656M480,515H860L660.08695,802.67975M480,570H820.89408M480,595H804.0582M480,635H775.61138M400.6066,564.3934a15,15 0 0 1 0,21.2132 15,15 0 0 1 -21.2132,0 15,15 0 0 1 0,-21.2132 15,15 0 0 1 21.2132,0v0M400.6066,564.3934c8.32012,-8.32012 14.62812,-9.54225 18.94845,-7.03287 13.85387,8.04674 7.26903,54.46355 -18.94845,28.24607C435,620 345,620 379.3934,585.6066 345,620 345,530 379.3934,564.3934 345,530 435,530 400.6066,564.3934v0M400,678.7868a15,15 0 0 1 0,21.2132 15,15 0 0 1 -21.2132,0 15,15 0 0 1 0,-21.2132 15,15 0 0 1 21.2132,0v0M400,678.7868c8.32012,-8.32012 14.62812,-9.54225 18.94845,-7.03287C432.80232,679.80067 426.21748,726.21748 400,700c34.3934,34.3934 -55.6066,34.3934 -21.2132,0 -34.3934,34.3934 -34.3934,-55.6066 0,-21.2132 -34.3934,-34.3934 55.6066,-34.3934 21.2132,0v0M335,620H450M335,640H450M406.81862,660H450M335,660h36.84064M424.67045,680H450M335,680h19.41506M424.38018,700H450M335,700h19.85962M406.09293,720H450M335,720h37.85659M422.92881,560H450M335,560h22.32695M426.41209,580H450M335,580h18.84366M408.56026,600H450M335,600h36.26009M376.19474,500H450M332.92283,520H450M399.99719,540H450M335,540h44.9683M335,740H450M335,760h22.61722M335,780h10.86114M528.29079,989.6967a15,15 0 0 1 0,21.2132 15,15 0 0 1 -21.2132,0 15,15 0 0 1 0,-21.2132 15,15 0 0 1 21.2132,0v0M616.42189,989.6967a15,15 0 0 1 0,21.2132 15,15 0 0 1 -21.2132,0 15,15 0 0 1 0,-21.2132 15,15 0 0 1 21.2132,0v0M528.29079,989.6967c8.32012,-8.32012 14.62812,-9.54225 18.94845,-7.03287 13.85387,8.04674 7.26903,54.46357 -18.94845,28.24607 34.3934,34.3934 -55.6066,34.3934 -21.2132,0 -34.3934,34.3934 -34.3934,-55.6066 0,-21.2132 -34.3934,-34.3934 55.6066,-34.3934 21.2132,0v0M616.42189,989.6967c8.32012,-8.32012 14.62812,-9.54225 18.94845,-7.03287 13.85387,8.04674 7.26903,54.46357 -18.94845,28.24607 34.3934,34.3934 -55.6066,34.3934 -21.2132,0 -34.3934,34.3934 -34.3934,-55.6066 0,-21.2132 -34.3934,-34.3934 55.6066,-34.3934 21.2132,0v0M750,895v-74.24488h-0.15004c0.0834,-0.72647 0.13342,-1.45477 0.15004,-2.18367 10e-6,-18.09015 -20.14718,-32.75512 -45,-32.75512 -20.61882,1.31343 -32.66348,9.57069 -45,22.88646v-9.31135h-0.15833c0.088,-0.93551 0.14081,-1.87338 0.15833,-2.81202 10e-6,-23.29552 -21.26647,-42.18028 -47.50001,-42.18028 -23.99951,0 -43.84193,15.8053 -47.304,34.86551C563.62483,763.96714 541.1055,745 513.51805,745c-28.43268,0 -51.48193,20.14719 -51.48192,44.8 -0.33192,-0.77011 -0.017,-2.52159 10e-6,-3.3 0,-25.68124 -25.53595,-46.5 -57.03613,-46.5 -31.50019,0 -57.03613,20.81876 -57.03613,46.5 10e-4,1.03426 0.0468,2.06817 0.13369,3.1h-0.13369v7.60854M1000.6315,526.4229 750,895M918.03602,483.96227l57.68251,39.65672M777.37235,675.06849l64.65354,44.44931M787.6131,660.23401l64.78179,44.53748M842.11197,579.88949l64.42924,44.29509M852.3612,565.06082l63.9915,43.99416M900.59473,493.84638l64.50218,44.34525M713.04868,770.53347l64.07861,44.05404M722.9647,755.47573l64.74065,44.5092M956.06216,593.50521C1081.7078,666.31733 1197.894,743.7496 1300.0739,821.2551M968.65258,572.91621C1089.3699,643.26428 1201.2166,717.81816 1300.123,792.5081M988.78702,543.7901C1101.61,609.52585 1206.5194,675.49689 1300.1512,745.06727M1299.9186,1002.9026C1170.5171,952.17034 1080,835.64225 1080,700c0,-10.24692 0.5166,-20.38476 1.5274,-30.3934M1299.9576,1096.424C1234.0099,1076.0348 1173.3923,1041.8193 1123.2663,995.74261 1037.9372,917.30686 989.99991,810.925 989.99991,700c0,-27.63121 2.97451,-54.98052 8.76052,-81.6862M1299.9269,978.6922C1187.5574,928.80253 1110,822.75827 1110,700c0,-4.01075 0.083,-8.00366 0.2469,-11.97735M1299.9333,960.37114C1198.0314,911.70879 1128.3651,813.37885 1128.3651,700M1299.9556,1058.2083c-57.8943,-18.8494 -111.0889,-48.9374 -155.476,-88.73832C1064.7767,898.00213 1020,801.07085 1020,700c0,-21.89211 2.1008,-43.59001 6.2022,-64.877M1031.3607,730.28289C1030.457,720.24598 1030,710.14423 1030,700c0,-19.9333 1.7646,-39.70259 5.2158,-59.13814M1061.1762,842.2663c-15.1977,-33.32239 -25.0592,-68.62613 -29.0968,-104.8495M1122.2187,935.14818c-23.3711,-26.07046 -42.6284,-54.72186 -57.3907,-85.12449M1203.9039,1004.513c-18.5258,-11.92041 -36.048,-25.27002 -52.3532,-39.96908 -7.0342,-6.34128 -13.7897,-12.88677 -20.2596,-19.62101M1283.9474,1044.8003c-20.0955,-7.6283 -39.5266,-16.6846 -58.102,-27.0975M1040.4088,716.50009C1040.1368,711.01534 1040,705.51406 1040,700c0,-15.85562 1.1087,-31.47649 3.2595,-46.80239M1063.9567,824.40356c-9.8882,-24.88987 -16.8217,-50.77807 -20.6013,-77.22853M1114.1891,911.8134c-13.5232,-17.35791 -25.3195,-35.69882 -35.2873,-54.80051M1187.6316,983.48896c-10.0464,-7.4963 -19.7301,-15.45853 -29.0099,-23.87117 -0.98,-0.88842 -1.9544,-1.78092 -2.9233,-2.67746M1275.8049,1033.5806c-7.0487,-2.9381 -14.0061,-6.0605 -20.8632,-9.3639M972.10032,887.73255c41.32648,22.00508 79.45068,51.25725 112.67098,86.99828C1164.9539,1060.9976 1210,1178.0004 1210,1300c0,34.7556 -3.6559,69.1058 -10.7385,102.4552M965.62238,884.35597c2.16783,1.10583 4.32722,2.23139 6.47794,3.37658M787.75408,840.0354c62.11519,0.82925 122.72063,16.18924 177.8683,44.32057M1194.4876,1379.2775c-0.4606,2.8069 -0.9482,5.6104 -1.4633,8.4109M1197.9781,1353.3307c-0.33,3.1236 -0.6912,6.2413 -1.0841,9.3538M1200.679,1294.9536c0.017,1.6811 0.026,3.3633 0.026,5.0464v0c0,12.6708 -0.4306,25.1979 -1.3302,37.6182M1199.9123,1272.2913c0.2323,4.0533 0.4138,8.1145 0.5443,12.1828M1197.2718,1242.4452c0.6287,5.2465 1.1722,10.5109 1.6295,15.7911M1186.6306,1184.2409c4.0148,16.2244 7.1926,32.7192 9.5052,49.4107M1180.9487,1163.3295c1.1727,3.9578 2.2949,7.9342 3.366,11.9281M1172.4181,1137.3222c1.415,3.9263 2.7789,7.8743 4.0913,11.8428M1148.3077,1081.9199c7.1784,13.9408 13.6582,28.2719 19.415,42.9302M1137.3157,1061.82c1.1168,1.9261 2.2198,3.8608 3.3087,5.8039M1122.2558,1037.6264c2.1729,3.2575 4.3037,6.5438 6.3919,9.8579M1079.7893,983.52218c12.6398,13.74619 24.3747,28.27802 35.1633,43.48822M1064.2471,967.46767c1.5749,1.54505 3.14,3.1041 4.695,4.67707M1045.7858,950.38873c1.8506,1.61362 3.6895,3.24526 5.5165,4.8948M991.01094,909.9382c14.27156,8.83251 28.08436,18.58776 41.35776,29.22983M971.9944,898.86284c1.44019,0.78769 2.8763,1.58444 4.30823,2.39021M950.82771,888.07723c1.40604,0.66528 2.80871,1.3389 4.20794,2.02084M881.18196,862.71731c17.61739,4.60518 34.91404,10.43187 51.78263,17.43227M859.38728,857.67812c2.77501,0.55879 5.54333,1.14754 8.30457,1.76606M833.92431,853.41999c2.96067,0.395 5.91528,0.82381 8.86337,1.28622M782.44244,849.99996c11.82254,0 23.59348,0.53851 35.28448,1.60292M1191.4046,1297.6211c0,0.7928 0.01,1.5858 0.01,2.3791 0,12.2075 -0.4715,24.3626 -1.4037,36.4373M1189.1227,1253.5095c0.06,0.6049 0.1182,1.21 0.1756,1.8153M1178.246,1189.2557c3.423,14.1592 6.1952,28.5255 8.2969,43.0477M1140.3987,1087.1966c6.6538,12.9561 12.6909,26.256 18.0911,39.8468M1073.2112,990.58737c11.9531,13.00193 23.0782,26.72263 33.3389,41.06693M985.98918,918.36727c13.85895,8.55551 27.27662,18.0002 40.17612,28.29974M879.93272,872.68321c16.85777,4.45232 33.41294,10.04924 49.56698,16.74683M780.45821,860.00517c0.66124,-0.003 1.32265,-0.005 1.98423,-0.005 11.35913,0 22.66953,0.50842 33.90493,1.51356M1182.1063,1297.0258c0.01,0.991 0.01,1.9824 0.01,2.9742 0,12.5455 -0.5096,25.0345 -1.5164,37.4349M1168.9439,1190.5122c3.5692,14.5828 6.4315,29.3925 8.5642,44.3703M1131.533,1090.6171c6.9108,13.3378 13.1512,27.0521 18.6976,41.082M1065.023,995.91057c0.01,0.0112 0.021,0.0223 0.031,0.0335 12.5934,13.54903 24.2597,27.90913 34.9547,42.96613M978.96354,925.57112c14.75876,8.96575 29.01456,18.95801 42.67096,29.93385M875.91724,881.92421c17.61957,4.56047 34.90577,10.39887 51.74125,17.46288M785.30268,870.011c10.72696,0.0825 21.40732,0.6287 32.01786,1.6283M1169.9606,1294.0481c0.026,1.9824 0.039,3.9664 0.039,5.9519 0,13.6909 -0.6258,27.3124 -1.8605,40.8202M1156.2274,1189.8267c4.2445,16.6665 7.5338,33.6479 9.8317,50.8504M1119.0228,1093.2877c7.9717,15.0255 15.0592,30.5567 21.2264,46.4996M1052.6626,1001.1033c1.2826,1.3422 2.5574,2.6949 3.8244,4.058 13.1854,14.1859 25.3227,29.2888 36.3581,45.1692M967.72121,933.76935c17.31158,10.13688 33.93759,21.71384 49.71679,34.65899M868.25174,893.38242c20.16529,4.92634 39.89821,11.57345 59.01362,19.85881M788.57249,883.08726c10.83742,0.18423 21.62307,0.85634 32.33139,2.00497M1159.8836,1289.9088c0.078,3.359 0.1164,6.7229 0.1164,10.0912 0,15.3015 -0.8024,30.5138 -2.3823,45.5721M1145.2386,1187.5245c5.2225,19.4967 9.0977,39.4533 11.5639,59.7096M1107.8757,1094.0493c9.511,17.3974 17.7932,35.5144 24.786,54.1939M1041.0113,1004.0022c2.8391,2.871 5.6411,5.7934 8.4047,8.7667 14.1921,15.269 27.1377,31.6284 38.7663,48.8952M956.32888,939.43849c20.77016,11.59377 40.57795,25.28644 59.13852,40.95108M859.84544,902.42018c23.80621,5.36522 47.0268,13.18298 69.34499,23.31211M791.05554,893.89953c11.69057,0.28669 23.31666,1.15596 34.84437,2.59272M1149.6979,1283.962c0.201,5.3328 0.3021,10.6798 0.3021,16.038 0,17.9597 -1.1356,35.7933 -3.3639,53.3899M1133.6122,1183.2348c6.8204,23.741 11.5753,48.2229 14.1451,73.1347M1095.2861,1092.4132c12.1338,21.1676 22.3671,43.4904 30.5809,66.6585M1085.5194,1076.2689c0.1493,0.2341 0.2983,0.4683 0.4471,0.7027M1026.6385,1004.4422c5.3646,5.1308 10.6028,10.4435 15.7064,15.9344 16.069,17.2883 30.4965,36.0125 43.1745,55.8923M939.71301,942.58052c27.18128,13.84351 52.82272,31.29473 76.28519,52.06884M934.14777,939.80702c1.86206,0.90777 3.71721,1.8323 5.56524,2.7735M847.3313,910.76219c30.02458,5.7939 59.18224,15.57304 86.81647,29.04483M794.79409,904.77583c13.38433,0.48371 26.67628,1.75153 39.822,3.77945M812.94085,955C1015,960 1132.6075,1148.0985 1110,1350M833.16596,1004.9516c129.78183,25.6611 228.11834,147.9995 228.11834,295.0484 0,4.2946 -0.084,8.5681 -0.25,12.8188M850.27896,1039.9798c102.38312,30.8541 178.31124,129.8207 182.90114,248.6108M1160.0856,1026.0953c50.3428,80.3446 77.7986,175.6019 77.7986,273.9047 0,39.2529 -4.4197,77.4738 -12.8842,115M807.78322,810.75835c85.66761,5.13251 167.90104,36.182 237.42148,89.01342M1210.4635,1058.4597c35.9982,73.8433 55.3049,156.621 55.3049,241.5403 0,43.1858 -4.9932,85.8177 -14.6356,127.0024M1185,1155c1.5931,6.7172 -11.2734,15.5205 -28.7382,19.6626 -17.4647,4.1421 -32.9141,2.0546 -34.5073,-4.6626 -1.5931,-6.7172 11.2733,-15.5205 28.7381,-19.6626 17.4648,-4.1421 32.9143,-2.0546 34.5074,4.6626v0M1124.0977,1163.6342c1.5986,-6.5544 7.3813,-15.4591 15.9023,-23.6342 12.9523,-12.4264 27.3266,-18.4616 32.106,-13.4799 3.5939,3.746 1.3195,12.0741 -5.825,21.5467M1173.4531,1168.8059c9.837,3.822 14.6265,9.1352 13.8082,13.8719 -1.1754,6.8028 -16.4664,9.8402 -34.1537,6.7843 -14.6412,-2.5296 -26.3347,-8.4415 -29.2614,-14.2615M1205,1265c0.388,6.8927 -13.8252,13.2981 -31.7461,14.3069 -17.9208,1.0088 -32.763,-3.7609 -33.1511,-10.6536 -0.388,-6.8926 13.8251,-13.2981 31.746,-14.3069 17.9209,-1.0087 32.7632,3.761 33.1512,10.6536v0M1143.5281,1262.7983c2.7254,-6.1715 9.9829,-13.9215 19.8078,-20.4721 14.9343,-9.9572 30.1454,-13.3726 33.9751,-7.6286 2.8797,4.3192 -0.8227,12.1181 -9.5205,20.1879M1191.2068,1276.5621c9.0123,5.4911 12.7937,11.5632 11.1558,16.0824 -2.3525,6.4905 -17.9393,6.7937 -34.8144,0.6774 -13.9689,-5.063 -24.4416,-12.9376 -26.3001,-19.1813M1203.843,1372.9204c-1.3958,6.761 -16.7775,9.3 -34.3561,5.6709 -17.5785,-3.6291 -30.6971,-12.0517 -29.3014,-18.8128 1.3958,-6.7609 16.7774,-9.3 34.356,-5.6709 17.5785,3.6291 30.6973,12.0519 29.3015,18.8128v0M1145,1355c4.2194,-5.2642 13.2244,-10.8896 24.4024,-14.6962 16.9911,-5.7863 32.5691,-5.1792 34.7946,1.3559 1.6734,4.914 -3.9083,11.5 -14.3874,17.0644M1141.024,1369.9503c-0.7085,-1.6584 -1.1009,-3.2007 -1.1414,-4.5744M1187.5424,1380.5508c7.2991,7.6222 9.3936,14.4619 6.6497,18.4087M1140,1050c3.7319,5.8079 -5.4842,18.3821 -20.5848,28.0851 -15.1005,9.7029 -30.3672,12.8605 -34.0992,7.0526 -3.7319,-5.8079 5.4841,-18.382 20.5847,-28.0849 15.1006,-9.703 30.3674,-12.8607 34.0993,-7.0528v0M1085.414,1078.3551c-0.6671,-6.7135 1.833,-17.0326 7.1583,-27.5721 8.0947,-16.0204 19.6517,-26.4836 25.8134,-23.3702 4.6333,2.3411 5.2515,10.952 1.6552,22.2587M1133.6888,1066.8554c10.5479,0.3411 16.8291,3.7638 17.6291,8.5036 1.1486,6.8074 -12.2679,14.7469 -29.9671,17.7336 -14.6509,2.4724 -27.6436,0.7759 -32.3358,-3.7431M1065,955c4.6986,5.05781 -2.1528,19.06157 -15.3031,31.27811 -13.1504,12.21643 -27.6198,18.01969 -32.3185,12.96191 -4.6987,-5.05781 2.1527,-19.06146 15.303,-31.2779C1045.8318,955.74558 1060.3013,949.94218 1065,955v0M1016.2773,992.54667c-1.8418,-6.49028 -1.2027,-17.08867 2.1782,-28.40279 5.1392,-17.19784 14.6674,-29.53704 21.282,-27.56037 4.9738,1.48634 7.1025,9.85284 5.5589,21.61685M1061.7637,972.70485c10.4424,-1.52645 17.2292,0.73357 18.8534,5.25768 2.3324,6.49769 -9.4717,16.68112 -26.3656,22.74567 -13.9843,5.02 -27.0724,5.6441 -32.4887,2.0244M970,885c5.80082,3.74284 2.61453,19.00374 -7.11687,34.08603 -9.73143,15.08217 -22.32279,24.27458 -28.12371,20.53176 -5.80082,-3.74284 -2.61459,-19.00361 7.11684,-34.0858C951.60766,890.44972 964.19908,881.25717 970,885v0M932.04174,933.4027c-3.38553,-5.83559 -5.37995,-16.26424 -4.89363,-28.0627 0.73924,-17.93407 6.93012,-32.24194 13.82787,-31.95758 5.18674,0.21383 9.313,7.79695 10.71826,19.57828M971.2299,902.95614c9.74347,-4.05456 16.87794,-3.53805 19.56772,0.44576 3.86276,5.72181 -5.06535,18.50176 -19.94186,28.54525 -12.31433,8.31375 -24.8443,12.14623 -30.98598,9.9741M853.37296,847.96109c6.70173,1.65688 8.64246,17.12559 4.33461,34.55023 -4.30791,17.42454 -13.23295,30.20681 -19.93476,28.54998 -6.70173,-1.65687 -8.64247,-17.12544 -4.33457,-34.55 4.30785,-17.42462 13.2329,-30.20704 19.93472,-28.55021v0M833.18461,906.06515c-5.09667,-4.42039 -10.36871,-13.63669 -13.73909,-24.95396 -5.12308,-17.20266 -3.91256,-32.7454 2.70388,-34.71579 4.97522,-1.48162 11.33983,4.35117 16.49377,15.03814M860.36568,864.54535c7.89941,-6.99815 14.81512,-8.82582 18.65255,-5.93103 5.51111,4.15785 1.21559,19.14407 -9.59452,33.47319 -8.94827,11.86127 -19.55534,19.554 -26.06953,19.49341M862.19833,1012.3059l14.1303,-49.45611M915.21822,1035.8681l27.2768,-47.73439M957.86478,1066.4202l38.56916,-42.0754M996.66553,1106.9239l46.15817,-31.9557M1030.0454,1160.6948l49.9221,-21.3952M1051.0391,1217.7922l51.7468,-10.3494M1060.6602,1270h51.0881M829.09574,994.02391l47.18324,-31.00036 38.93924,72.84455 81.21572,-11.5233 0.23159,82.5791 83.30197,32.3757 -28.9284,78.4926 60.6312,52.2078 -42.6813,49.5619M812.94085,955l49.25748,57.3059 80.29669,-24.17219 15.36976,78.28649 84.95892,8.548 -12.7783,85.7266 72.3584,46.8244 -41.7436,62.4808 51.4618,54.4373 -16.3977,15.7089M1072.3152,1321.5939l40.0607,2.8615M1265,1432.8052V1190M1280,1438.8342V1200M1295,1444.9918V1210M1054.7695,851.07432c36.7852,-10.5862 25.2027,47.8822 76.0349,16.61714M1089.9777,777.25521c-56.9522,26.84473 -5.2511,49.72119 -35.8918,72.30235M1121.39,947.19986c29.3452,-13.89336 35.5357,40.24756 74.9769,-4.42321M1131.1391,868.27679c-45.7722,40.18439 4.0265,48.74082 -12.0838,76.04321M1213.312,1019.6272c22.9936,-12.0375 42.6319,30.836 67.8616,-23.85233M1197.8265,943.15208c-32.8612,48.92805 10.4948,47.17725 8.641,72.54102M1281.169,995.77487c-18.6621,48.53363 6.5311,48.67783 18.9937,60.83883M1021.9095,735.66532c40.8016,0.46532 9.283,53.476 67.827,40.60622M1080.0999,677.47873c-62.251,7.21981 -19.1642,46.43222 -58.2984,57.08439M1041.8377,645.57266c3.4238,15.2601 1.4996,33.09858 38.2622,31.71118M1082.3251,737.13252C1073.9618,739.50657 1065.4822,741.65926 1055,740M1065,715c0.5852,17.40783 8.793,17.80027 16.8799,18.46239M1082.3858,740.00909C1074.7802,745.03899 1066.1914,751.53082 1065,760M1106.5293,823.17663c-7.9017,5.11287 -15.7323,10.29766 -27.1138,11.89221M1081.6832,808.23868c6.1264,17.89835 14.9948,13.97351 23.5798,12.30394M1106.7239,825.74842c-6.0736,7.24375 -13.3245,16.53901 -11.9063,25.53081M1162.5571,909.34657c-2.5972,8.29049 -5.4457,16.55665 -12.5742,24.40883M1134.5546,911.68806c15.791,9.60644 20.2608,1.53006 25.6138,-5.16682M1165.023,912.87856c0.1528,8.6384 1.2087,18.24926 7.169,23.47574M1241.0038,973.90938c-2.2944,6.66451 -5.2596,13.26412 -11.0067,19.59466M1214.5688,971.4367c12.1479,7.39014 17.5958,4.31545 21.9,-0.54552M1245.1603,976.20239c0.409,7.60326 1.8985,15.38689 7.0459,19.90055M1277.181,804.53689c-11.6723,22.62013 9.2337,47.84315 22.8578,59.25861M1249.5824,783.70263C1204.9521,775.14915 1132.3012,766.75354 1140,740c2.9782,-8.93464 11.2783,-16.09533 17.5037,-20.42543M1166.4039,766.20029c-40.4163,31.35029 -11.9811,47.82447 107.397,53.1625M1180.1414,809.38114c-27.5832,58.67578 44.2479,32.39236 96.1669,23.12579M1199.6,846.59747c-13.2166,54.27209 30.4549,34.15916 84.7506,0.15437M1220.5184,879.30028c7.836,58.41513 38.3043,28.02605 73.4886,-20.8665M1249.2601,907.9102c27.8899,70.96407 38.9376,3.90016 50.7335,-37.55491M1282.3165,928.09134c8.165,16.9417 13.8149,24.74545 17.7089,26.20993M893.77585,799.90233l-1.4734,2.17501M961.18125,700.39911l-2.54623,3.75872M905.38959,802.52013l-6.75297,9.96867M973.20095,702.41765l-8.42267,12.43347M920.03979,800.65556 902.52786,826.5065M989.60333,697.96652l-21.52564,31.77595M941.81883,788.26745l-28.60589,42.22774M990.37937,716.58283l-26.44824,39.04265M950,695c47.07068,37.65655 -7.7785,124.05737 -56.08373,104.85015C890.91012,798.65484 887.92932,797.05052 885,795M989.66698,699.22442C976.94794,704.41048 962.96936,704.07856 950,695M885,795c10.8224,8.65792 16.25708,19.89258 17.62231,31.82798M1220.0293,359.25976c17.9493,0 32.5,26.86292 32.5,60 0,33.13708 -14.5507,60 -32.5,60 -17.9493,0 -32.5,-26.86292 -32.5,-60 0,-33.13708 14.5507,-60 32.5,-60v0M1220.0293,249.9707l29.2891,29.28906 -29.2891,29.28906 -29.2891,-29.28906 29.2891,-29.28906v0M1220.0293,79.259761c17.9493,0 32.5,26.862919 32.5,59.999999 0,33.13708 -14.5507,60 -32.5,60 -17.9493,0 -32.5,-26.86292 -32.5,-60 0,-33.13708 14.5507,-59.999999 32.5,-59.999999v0M1236.1556,519.97926c23.5569,-12.83499 40.7487,-53.07075 40.7487,-100.7195C1276.8879,379.17234 1264.5093,342.60019 1245,325l45.7402,-45.74024 -45.7754,-45.77539c19.5168,-17.57622 31.9093,-54.13524 31.9395,-94.22461 0,-57.989898 -25.4638,-104.999999 -56.875,-104.999999 -31.4112,0 -56.875,47.010101 -56.875,104.999999 0.016,40.08742 12.395,76.65958 31.9043,94.25977l-45.7402,45.74023 45.7754,45.77539c-19.5168,17.57622 -31.9093,54.13524 -31.9395,94.22461 0,33.82221 8.6621,63.90939 22.1141,83.11302M1095.5164,579.92395C1097.7345,566.50881 1106.7169,540.06875 1115,535c9.5306,-5.83214 45,-35 60,-35 15,0 30,20 60,20 25,0 20,20 0,20 -20,0 -35,-5 -35,-5 -15.0173,16.85284 -25.1301,15.34149 -35,20 -10.1107,4.77216 15,-5 20,5 4.4145,8.82908 -14.5567,52.73685 -19.06,62.8983M1249.293,535.585c17.735,1.80413 30.707,7.5749 30.707,14.415 0,8.28427 -19.0279,15 -42.5,15 -23.4721,0 -42.5,-6.71573 -42.5,-15 0,-4.92064 6.7131,-9.2879 17.0833,-12.02313M1247.8098,564.29923c17.8241,-0.29572 31.3851,3.90821 32.1902,10.70077 0.975,8.22669 -17.1303,17.13523 -40.4392,19.89776 -23.309,2.76254 -42.9951,-1.66703 -43.9701,-9.89373C1195.0116,580.11759 1205,570 1230,565M1248.249,594.40147c17.8241,-0.29572 31.3851,3.90821 32.1902,10.70077 0.975,8.22669 -17.1303,17.13523 -40.4392,19.89776 -23.309,2.76254 -42.9951,-1.66703 -43.9701,-9.89373 -0.5582,-4.71002 8.7018,-14.28027 31.76,-19.44294M1247.3115,625.09813c15.6412,1.66915 32.7369,8.90612 32.6885,15.61144 -0.059,8.12101 -16.9014,14.81108 -37.6191,14.94267 -20.7177,0.13159 -37.4654,-6.34513 -37.4068,-14.46615 0.034,-4.6495 9.2039,-12.95547 29.9684,-15.45267M930.06418,169.33525C930.1128,195.11124 920.04126,219.24753 921,225c1.64399,9.86394 49.73298,90.17231 52,105 4.13893,27.07116 -37.09691,27.44487 -39,31 -1.33486,2.49362 1,19 1,19 0,5 -10,20 -10,20 0,0 0,10 5,15 5,5 -25,20 -25,20 0,0 15,20 15,30 0,10 -5,25 -30,25 -25,0 -55,-5 -75,-5 -20,0 -75,-25 -85,-25M671.58238,470.7663C679.19086,474.38519 712.3678,489.40805 730,485c12.84963,-3.21241 29.82709,-8.48873 40.32417,-11.85089M925,395c0,0 -15,-3 -20,-3 -5,0 -10,13 -20,13 -10,0 -10,5 -10,5 -0.61904,0.31621 22.90277,3.62526 30,-5 3.17696,-3.86095 20.18377,-2.235 20.18377,-2.235M850,395c15,0 35.00637,-26.64308 45,-27l25,-1 -4,8c0,0 -13,2 -18,2 -5,0 -23,23 -33,23 -10,0 -15,-5 -15,-5v0M912,321c-15.11891,0.10227 -26.3924,34.91448 0,31 26.02124,-3.85942 44.2604,-17.7743 28,-17 -21,1 -29,11 -33,16M909,197l-8,8c0,0 -31,-12 -48,-10 -16.16732,1.90204 -78,33 -78,33 14,-18 87,-62 134,-31v0M795,256c32,5 47,-31 103,-31M830,247c-32,29 66,20 66,20M502.91686,199.43819C520.49823,262.58874 450.9514,302.6112 460,375c5,40 70,35 70,0 0,-25 -30,-20 -30,-5 0,15 10,20 10,20M523.08173,195.23158c19.86653,64.44118 -51.41971,104.54858 -42.26552,177.7821 2.3656,18.92481 15.74064,22.62525 29.17802,17.56439M539.66936,191.84327C564.96961,258.15109 493.6497,297.29454 500,370M558.38755,188.67521c26.98532,64.08972 -37.16559,103.38456 -39.89299,168.97088M576.70868,184.9603C607.46384,251.85002 532.78,303.14874 530,370M592.92839,182.60446c32.85599,69.92992 -46.19795,118.3091 -47.05193,184.48148C545,435 620,420 620,385c0,-35 -51.82514,-36.6487 -50,-5 1.82514,31.6487 38.51666,12.69331 30,5M613.38823,179.05913c28.94935,66.23234 -46.49177,117.81868 -47.34095,183.61874 -0.20118,15.58859 3.84969,25.9873 10.21123,32.33408M634.23347,176.10957c25.53691,63.44049 -43.11185,119.56033 -48.8604,181.85551M620.04624,385.16977C650.46087,441.03685 735,412.86965 735,370c0,-55.22681 -55,-45 -55,-10 0,34.64982 45,15 25,-5M655.2209,173.36273C678.04089,237.94503 610,312.17106 610,350c0,5.09251 1.28305,9.80067 2.30037,14.21462M674.34424,170.94422C699.5877,234.95699 628.80923,298.09229 635,360c5,50 80,42.13137 80,15 0,-10 -10,-20 -10,-20M693.92284,168.86298c32.24421,85.25657 -86.12579,177.23104 -5.65452,208.70596M485.42686,475.87474C454.34201,503.04438 405,487.85891 405,455c0,-55.22681 50.04576,-39.99996 50,-15 -0.0376,20.55682 -30,20 -30,-5M509.92832,400.58966c0.92351,17.77403 -1.02965,32.52191 -4.97893,44.56514M495.38965,402.92607C505.67582,462.54762 425.84744,493.31316 420,455c-0.75438,-4.94276 0,-10 5,-20M483.3872,401.62894C480.06328,428.24339 462.63856,460.55564 440,455M573.47019,484.53862C542.26251,518.86814 485,516.45811 485,470c0,-30.41381 50,-35 50,-10 0,30 -30,20 -30,10M591.76233,413.76918c1.29366,7.9347 1.67557,15.3995 1.28507,22.38217M576.23842,414.24019C576.98008,427.6742 575.97465,452.36887 565,465c-29.33159,33.75882 -58.51096,14.88852 -60,5 -0.75959,-5.04435 1.66656,-7.2141 5,-10M563.84386,409.46286c-5.943,44.40707 -17.42916,71.91543 -38.67842,69.66045M552.99725,398.63422C547.65706,421.34253 541.95662,442.819 535,460M546.47235,376.70034c-7.36756,23.26614 -17.8156,49.93947 -27.69571,67.15379M689.3867,414.39187C678.84586,529.44941 564.05831,518.47519 570,465c5,-45 48.84275,-29.9732 50,-5 1.18448,25.56084 -30,25 -30,5M674.25082,416.2578c-6.68173,41.85927 -47.13746,95.07883 -75.45651,62.59797M658.63456,415.10604c-4.81546,30.36436 -15.68949,53.83126 -42.5879,59.055M643.37015,408.98074c-4.07877,23.44522 -14.00077,38.51595 -23.64587,50.38327M629.44549,398.09159c-1.90547,17.57776 -8.15164,33.69673 -15.08106,48.14285M605.85021,408.44989c2.14927,9.9888 1.72979,20.29869 0.13958,30.75492M339.38872,-0.60685455C395.39607,55.571926 459.42848,122.36942 500,200 643.73077,169.58589 791.68819,153.31898 935,170 981.78372,106.81396 1042.0468,51.847034 1107.3587,-0.04140766M480.44084,165.79345C600.09169,117.28095 839.09815,89.168384 958.80415,139.50724"></path></symbol><symbol id="SJ4" preserveAspectRatio="none" viewBox="0 0 1300 2000"><path fill="black" d="M280,545l35,-16.51886V758.034l-34.82495,-34.91928zM430.21347,920 415,895h376.46141l8.58826,25zM480,595h324.0582l-28.44682,40H480ZM1224.878,1415.0239c8.5865,-37.5501 13.0062,-75.771 13.0062,-115.0239 0,-98.3028 -27.4558,-193.5601 -77.6822,-273.8189 16.5148,12.1765 33.7446,23.1627 50.9645,32.6352 35.2952,73.4867 54.6019,156.2644 54.6019,241.1837 0,43.1858 -4.9932,85.8177 -15.4283,126.6042 -9.1746,-4.0236 -17.4378,-7.7427 -25.4621,-11.5803zM955.31068,846.65464 985,800c5.5337,23.76638 11.8434,47.19874 18.2707,70.58049M480.48497,166.00437C487.46594,177.23965 493.99035,188.50098 500,200 643.73077,169.58589 791.68819,153.31898 935,170 942.47865,159.89935 950.30175,150.00872 958.6195,139.90719 839.09815,89.168384 600.09169,117.28095 480.48497,166.00437Z"></path></symbol><symbol id="SJ3" preserveAspectRatio="none" viewBox="0 0 1300 2000"><path fill="#44F" d="M515,515v55h55v-55zm27.5,10A17.5,17.5 0 0 1 560,542.5 17.5,17.5 0 0 1 542.5,560 17.5,17.5 0 0 1 525,542.5 17.5,17.5 0 0 1 542.5,525ZM635,515v55h55v-55zm27.5,10A17.5,17.5 0 0 1 680,542.5 17.5,17.5 0 0 1 662.5,560 17.5,17.5 0 0 1 645,542.5 17.5,17.5 0 0 1 662.5,525ZM755,515v55h55v-55zm27.5,10A17.5,17.5 0 0 1 800,542.5 17.5,17.5 0 0 1 782.5,560 17.5,17.5 0 0 1 765,542.5 17.5,17.5 0 0 1 782.5,525ZM512.5,770a37.5,37.5 0 0 0 -37.5,37.5 37.5,37.5 0 0 0 0.0879,2.5H475v85h75v-85h-0.125A37.5,37.5 0 0 0 550,807.5 37.5,37.5 0 0 0 512.5,770ZM404.53612,770c-20.71068,0 -37.5,16.78932 -37.5,37.5 0.001,0.83408 0.0308,1.66788 0.0879,2.5h-0.0879v12.24959L415.43514,895h26.60098v-85h-0.125c0.0695,-0.83171 0.11117,-1.66551 0.125,-2.5 0,-20.71068 -16.78932,-37.5 -37.5,-37.5zM612.5625,787.85714A32.4375,32.142857 0 0 0 580.125,820a32.4375,32.142857 0 0 0 0.076,2.14286h-0.076V895H645v-72.85714h-0.10812A32.4375,32.142857 0 0 0 645,820 32.4375,32.142857 0 0 0 612.5625,787.85714ZM702.5625,809.99999a27.4375,25.92857 0 0 0 -27.4375,25.92858 27.4375,25.92857 0 0 0 0.0643,1.72857h-0.0643v58.77142H730v-58.77142h-0.0915A27.4375,25.92857 0 0 0 730,835.92857 27.4375,25.92857 0 0 0 702.5625,809.99999ZM1010.8145,556.40234l-18.30473,30.58399 34.25003,20.66406 18.2011,-30.41211zM1074.1289,595.02734l-17.8965,29.90235 33.6094,21.73242 18.3047,-30.58399zM1137.1855,634.08203l-18.5859,31.05274 33.1484,22.5039 19.252,-32.16601zM1199.5781,674.24609l-19.2519,32.16407 32.4336,23.69726 19.9414,-33.3164zM1260.666,716.58789l-19.5566,32.67773 32.5605,23.48438 19.6094,-32.76367zM851.11816,747.94154 875,765c50,35 90,-35 50,-70L898.04279,677.02853ZM900,720c8.28427,0 15,6.71573 15,15 0,8.28427 -6.71573,15 -15,15 -8.28427,0 -15,-6.71573 -15,-15 0,-8.28427 6.71573,-15 15,-15zM998.39004,618.25643 956.06216,593.50521 919.52715,645.37654 940,660c20.55359,14.38751 39.41737,11.03212 51.72896,-0.34135zM965,615c8.28427,0 15,6.71573 15,15 0,8.28427 -6.71573,15 -15,15 -8.28427,0 -15,-6.71573 -15,-15 0,-8.28427 6.71573,-15 15,-15zM810,810l55.74525,7.93536C864.14631,807.90831 859.17993,798.03244 850,790l-19.34919,-12.89946zM993.3359,749.86246l-58.95405,88.20872c39.14825,14.88202 76.53205,35.64161 110.84985,61.70209 -27.3634,-46.31128 -45.1,-97.16506 -51.8958,-149.91081zM925,395c0,0 -15,-5 -20,-5 -5,0 -10,15 -20,15 -10,0 -10,5 -10,5 -0.61904,0.31621 22.90277,3.62526 30,-5 3.17696,-3.86095 20.18377,-2.235 20.18377,-2.235M850,395c15,0 35.00637,-26.64308 45,-27l25,-1 -4,8c0,0 -13,2 -18,2 -5,0 -23,23 -33,23 -10,0 -15,-5 -15,-5zM912,352c26.02124,-3.85943 44.2604,-17.7743 28,-17 -21,1 -29,11 -33,16M909,197l-8,8c0,0 -31,-12 -48,-10 -16.16732,1.90204 -78,33 -78,33 14,-18 87,-62 134,-31zM870.99994,247.5a7.9999995,17.499995 0 0 1 -8,17.49999 7.9999995,17.499995 0 0 1 -8,-17.49999 7.9999995,17.499995 0 0 1 8,-17.5 7.9999995,17.499995 0 0 1 8,17.5"></path></symbol><symbol id="SJ2" preserveAspectRatio="none" viewBox="0 0 1300 2000"><path fill="red" d="M339.99414,0C387.43372,47.599847 440.5475,102.80581 480.33398,165.76562 600.0914,117.28142 839.09852,89.167466 958.60352,139.92578 1001.1555,89.326587 1052.4502,43.591271 1107.3164,0Zm880.03516,79.259766a32.5,60 0 0 0 -32.5,60.000004 32.5,60 0 0 0 32.5,60 32.5,60 0 0 0 32.5,-60 32.5,60 0 0 0 -32.5,-60.000004zm0,170.710934 -29.2891,29.28907 29.2891,29.28906 29.2891,-29.28906zm0,109.28907a32.5,60 0 0 0 -32.5,60 32.5,60 0 0 0 32.5,60 32.5,60 0 0 0 32.5,-60 32.5,60 0 0 0 -32.5,-60zM988.95898,543.5625 968.70703,573.10352C1089.3381,643.25027 1201.1142,717.77655 1300,792.44531V744.96094C1206.4059,675.42961 1101.5626,609.47613 988.95898,543.5625Zm-708.95312,1.63867c-47.87396,23.23284 -95.50789,47.34182 -142.25,72.6211 53.19471,30.11823 100.35637,65.09712 142.41992,105.29296zm110.21289,14.80078a15,15 0 0 0 -10.82617,4.39063 15,15 0 0 0 0,21.21484 15,15 0 0 0 21.21484,0 15,15 0 0 0 0,-21.21484 15,15 0 0 0 -10.38867,-4.39063zM480,635.21094 480.34961,755.45508C489.60803,748.87836 501.04406,745 513.51758,745c27.58745,0 50.10657,18.96812 51.67773,44.26562 3.46207,-19.0602 23.30518,-34.86718 47.30469,-34.86718 26.23354,0 47.50001,18.88612 47.5,42.18164 -0.0175,0.93864 -0.0702,1.87504 -0.1582,2.81054H660l0.043,2.96876 115.7793,-166.94532zm-90.38672,39.18359a15,15 0 0 0 -10.82617,4.39258 15,15 0 0 0 0,21.21289 15,15 0 0 0 21.21289,0 15,15 0 0 0 0,-21.21289 15,15 0 0 0 -10.38672,-4.39258zm887.89652,130.15235c-11.9054,22.59309 8.8818,47.77209 22.4902,59.20117v-42.52344c-7.3359,-5.55738 -14.7526,-11.11505 -22.4902,-16.67773zM808.91211,944.40039c0.0754,0.20121 0.15304,0.39852 0.22851,0.59961h0.38282zM651.2832,944.5293 443.34961,945l-0.64258,-0.30078c17.48084,34.53045 33.43262,71.12378 47.98633,109.84768L490.47656,1055H651.375ZM812.94141,955l20.22461,49.9512c129.78183,25.6611 228.11918,147.9999 228.11918,295.0488 0,4.2946 -0.084,8.5677 -0.25,12.8184L1110,1350c22.6075,-201.9015 -94.9994,-390 -297.05859,-395zm-295.25782,8.90234c13.90165,0 27.80413,8.59823 10.60743,25.79493 8.32012,-8.32012 14.62693,-9.54259 18.94726,-7.03321 13.85387,8.04674 7.27022,54.46364 -18.94726,28.24614 34.3934,34.3934 -55.60629,34.3934 -21.2129,0 -34.39339,34.3934 -34.39339,-55.60633 0,-21.21293 -17.19668,-17.1967 -3.29618,-25.79493 10.60547,-25.79493zm-10.60547,25.79493a15,15 0 0 0 0,21.21293 15,15 0 0 0 21.2129,0 15,15 0 0 0 0,-21.21293 15,15 0 0 0 -21.2129,0zm98.73633,-25.79493c13.90165,0 27.80411,8.59823 10.60743,25.79493 8.3201,-8.32012 14.62888,-9.54259 18.94921,-7.03321 13.85387,8.04674 7.26825,54.46364 -18.94921,28.24614 34.3934,34.3934 -55.6063,34.3934 -21.2129,0 -34.3934,34.3934 -34.3934,-55.60633 0,-21.21293 -17.1967,-17.1967 -3.29618,-25.79493 10.60547,-25.79493zm-10.60547,25.79493a15,15 0 0 0 0,21.21293 15,15 0 0 0 21.2129,0 15,15 0 0 0 0,-21.21293 15,15 0 0 0 -21.2129,0zm254.875,50.47463c47.76278,99.0049 107.68075,181.4087 182.80472,248.6484 -4.2979,-119.0192 -80.22626,-217.9857 -182.80472,-248.6484zm360.38872,18.2636c35.9884,73.8684 55.2949,156.6452 55.2949,241.5645 0,43.1858 -4.9929,85.8177 -14.4375,127.0312 15.9002,6.7874 32.0861,13.2199 48.6699,19.3321v-349.9336c-31.2146,-9.6475 -61.2385,-22.3839 -89.5273,-37.9942z"></path></symbol><symbol id="SJ1" preserveAspectRatio="none" viewBox="0 0 1300 2000"><path fill="#FC4" d="M1220.0293,34.259766c-31.4112,0 -56.875,47.010098 -56.875,105.000004 0.016,40.08742 12.395,76.65957 31.9043,94.25976l-45.7402,45.74024 45.7754,45.77539c-19.517,17.57622 -31.9093,54.13524 -31.9395,94.22461 0,33.25124 8.3726,62.89216 21.4375,82.13085 0.9359,3.77777 47.6967,25.61299 51.8223,18.44727 23.4244,-12.98714 40.4902,-53.10326 40.4902,-100.57812C1276.8879,379.17235 1264.5093,342.60019 1245,325l45.7402,-45.74023 -45.7754,-45.77539c19.5168,-17.57623 31.9093,-54.13524 31.9395,-94.22461 0,-57.989906 -25.4638,-105.000004 -56.875,-105.000004zm0,45c17.9493,0 32.5,26.862924 32.5,60.000004 0,33.13708 -14.5507,60 -32.5,60 -17.9493,0 -32.5,-26.86292 -32.5,-60 0,-33.13708 14.5507,-60.000004 32.5,-60.000004zM694.04102,169.13477C630.1529,175.5738 566.1985,186.08877 502.98242,199.39844 520.49857,262.58937 450.9514,302.6112 460,375c1.81828,14.54628 11.57228,23.14188 23.31836,26.56836 -3.25415,26.67544 -20.68027,58.98688 -43.07422,53.24219C447.8128,455.05149 454.9816,450.0483 455,440c0.0457,-24.99996 -50,-40.22681 -50,15 0,26.44984 31.9708,41.44178 60.64453,32.24609 -5.21015,1.7975 -10.49347,2.9404 -15.66992,3.63086l0.0781,267.125C439.61776,747.05302 423.3242,740 405,740c-31.50019,0 -57.03516,20.81876 -57.03516,46.5 0.001,1.03426 0.0459,2.06778 0.13282,3.09961h-0.13282l-0.041,7.125c24.46244,30.00124 46.92928,62.77961 67.72461,98.10547L749.79492,895 750,820.75586h-0.15039c0.0834,-0.72647 0.13377,-1.45469 0.15039,-2.18359 10e-6,-18.09015 -20.14718,-32.75586 -45,-32.75586 -9.3762,0.59726 -16.97851,2.63189 -23.64258,5.92382 5.90727,-2.95 12.52926,-4.93925 20.47461,-5.80468l10.5332,-15.46094 64.76172,44.11328 10.30664,-14.78906 -64.46875,-44.32227 -6.74609,9.3418 125.96094,-184.88281 64.36133,44.25 9.8125,-15.13086 -63.99219,-43.99414 -3.30274,4.77929 51.69727,-75.88281 64.3418,44.23438 10.62109,-14.57227L918.03906,483.96289 910,485l-8.74609,8.22656 3.99218,-5.85937C901.46298,489.02177 896.38289,490 890,490c-25,0 -55,-5 -75,-5 -9.74732,0 -27.80835,-5.93899 -44.79883,-11.93945C759.82677,476.51042 742.84963,481.78759 730,485c-17.6322,4.40805 -50.80833,-10.61536 -58.5332,-14.36133 -10.5374,15.72431 -24.31388,25.3146 -38.31641,29.89844 26.18124,-8.65688 51.55225,-34.88291 56.25586,-86.08984C714.14543,408.95861 735,391.29254 735,370c0,-55.22681 -55,-45 -55,-10 0,9.54012 3.41167,14.96313 8.10352,17.48242 -80.30609,-31.38926 38.06424,-123.36233 5.9375,-208.34765zm525.98828,80.83593 29.2891,29.28907 -29.2891,29.28906 -29.2891,-29.28906zm0,109.28907c17.9493,0 32.5,26.86292 32.5,60 0,33.13708 -14.5507,60 -32.5,60 -17.9493,0 -32.5,-26.86292 -32.5,-60 0,-33.13708 14.5507,-60 32.5,-60zM485.40625,476.125c0.0199,0.1606 0.0469,0.31527 0.0684,0.47461 -0.0144,-0.1039 -0.0332,-0.20416 -0.0469,-0.30859 -0.3811,0.24777 -0.76543,0.51244 -1.15039,0.77929 0.37815,-0.31113 0.75592,-0.62208 1.12891,-0.94531zm-5.57813,4.25781L480,515H860L660.04297,802.21484 660,808.70312v-9.3125h-0.1582c0.088,-0.93551 0.14068,-1.8719 0.1582,-2.81054 10e-6,-23.29552 -21.26646,-42.18164 -47.5,-42.18164 -23.99951,0 -43.84262,15.80699 -47.30469,34.86718C563.62415,763.96812 541.10503,745 513.51758,745c-17.98066,0 -33.79647,8.06327 -43.00196,20.22266 2.62391,-3.49145 5.77627,-6.6726 9.39063,-9.44141l-0.11328,-275.375c0.0117,-0.008 0.0235,-0.0156 0.0351,-0.0234zm93.69922,3.89844c0.14529,0.26042 0.3062,0.51164 0.45899,0.76758 -0.10849,-0.17778 -0.22126,-0.35324 -0.32617,-0.53321 -15.41577,16.8619 -37.0589,24.86562 -55.10157,23.09376 18.02125,1.71512 39.62503,-6.34946 54.96875,-23.32813zM980.71289,516.29492 750,855v40L925.36914,637.10352 807.54492,810.74219c36.99705,2.2175 73.30998,9.25103 108.22852,20.7539 -34.92103,-11.47372 -71.25461,-18.48819 -108.28516,-20.66992l-19.68164,28.85352c62.06311,1.18399 122.66874,16.54445 177.81641,44.67578l6.47656,3.37695c41.32649,22.00508 79.45159,51.25702 112.67189,86.99805C1164.9541,1060.9972 1210,1178.0004 1210,1300c0,34.7556 -3.6557,69.1062 -10.8496,102.4766 8.2799,4.2883 16.8014,8.4473 25.6523,12.5117 8.6624,-37.5146 13.0821,-75.7354 13.0821,-114.9883 0,-98.3028 -27.4571,-193.5597 -77.5137,-273.6934 -0.3615,-0.2659 -0.721,-0.5392 -1.082,-0.8066 42.1564,31.2681 89.8471,55.2147 140.7109,70.9355V899.50391c-51.7122,-25.69313 -109.9716,-86.67251 -101.2891,-151.56836 -35.1208,-24.62762 -71.4492,-48.97531 -108.8418,-72.9668 74.9405,48.01368 145.3542,97.11149 210.1309,146.24219V708.4375C1195.393,639.78632 1099.363,580.03839 1000.4395,526.4707l-0.076,0.11328zM335,520l-20,8.48047v229.73047l20,22.57812zm55,18.59766c-13.90165,0 -27.80412,8.59822 -10.60742,25.79492 -34.3934,-34.3934 -34.3934,55.60824 0,21.21484 -34.3934,34.3934 55.60824,34.3934 21.21484,0 26.21748,26.21748 32.80114,-20.19935 18.94727,-28.24609 -4.32033,-2.50938 -10.62715,-1.28887 -18.94727,7.03125 17.1967,-17.1967 3.29423,-25.79492 -10.60742,-25.79492zM480,570v25H804.05859L820,570Zm518.94531,48.58789c0.2944,0.17653 0.58463,0.35467 0.87891,0.53125 -0.29364,-0.17612 -0.58516,-0.35323 -0.87891,-0.5293zm-609.55273,34.4043c-13.90165,0 -27.80217,8.59822 -10.60547,25.79492 -34.3934,-34.3934 -34.3934,55.60629 0,21.21289 -34.3934,34.3934 55.60629,34.3934 21.21289,0 26.21748,26.21748 32.80309,-20.19935 18.94922,-28.24609 -4.32033,-2.50938 -10.6291,-1.28692 -18.94922,7.0332 17.1967,-17.1967 3.29423,-25.79492 -10.60742,-25.79492zm398.2207,7.24219 -10.24023,14.83398 64.65234,44.44922 10.23828,-14.83594zM470.21094,765.63281c-0.20747,0.28063 -0.4109,0.56283 -0.61133,0.84766 0.19946,-0.28501 0.40492,-0.56658 0.61133,-0.84766zm-8.27149,23.83594c0.0227,0.12092 0.0553,0.23109 0.0957,0.32617v0.006c-0.0415,-0.0963 -0.0726,-0.20892 -0.0957,-0.33203zm218.41407,2.78711c-0.48371,0.25169 -0.96319,0.51022 -1.4375,0.77539 0.47334,-0.26674 0.95499,-0.52188 1.4375,-0.77539zm337.20698,51.07617c0.3141,0.79139 0.632,1.58151 0.9512,2.37109 -0.319,-0.78974 -0.6372,-1.57952 -0.9512,-2.37109zm3.0821,7.5332c0.3083,0.73287 0.611,1.46799 0.9238,2.19922 -0.3126,-0.73147 -0.6156,-1.4661 -0.9238,-2.19922zm3.6816,8.49415c0.5139,1.14621 1.0395,2.28771 1.5645,3.42968 -0.5245,-1.14205 -1.0511,-2.28335 -1.5645,-3.42968zm3.0879,6.70703c0.597,1.26839 1.1941,2.53587 1.8047,3.79882 -0.6101,-1.26296 -1.2083,-2.53035 -1.8047,-3.79882zm2.7324,5.68359c1.3209,2.69587 2.6697,5.38071 4.0528,8.05078 -1.3822,-2.6705 -2.7328,-5.35412 -4.0528,-8.05078zm5.0293,9.92969c0.8177,1.55861 1.6417,3.11461 2.4805,4.66406 -0.8383,-1.54952 -1.6633,-3.10525 -2.4805,-4.66406zm2.7715,5.1914c1.8882,3.47545 3.8264,6.92978 5.8203,10.35743 3.0941,5.31894 6.3144,10.57806 9.6602,15.77539 -2.8443,-4.40843 -5.6065,-8.85465 -8.2617,-13.34766 -0.4756,-0.80484 -0.9288,-1.62012 -1.3985,-2.42773 -1.9936,-3.42804 -3.9326,-6.88079 -5.8203,-10.35743zm-243.16405,17.86719c2.44383,7.2194 4.94346,14.36014 7.47852,21.44922L800,920H430l12.70703,24.69922 366.20508,-0.29883 -0.23633,-0.65039c1.41341,3.77728 2.83611,7.54048 4.27539,11.27539 202.04923,4.9742 319.65603,193.07281 296.89263,394.81051 11.2001,7.6075 22.8421,15.1195 34.7753,22.375 -6.5059,-9.679 -6.5121,-16.274 2.0176,-18.8203C1148.865,1335.794 1150,1317.9597 1150,1300c0,-5.3582 -0.1017,-10.7043 -0.3027,-16.0371 -13.4387,-10.0344 -11.8038,-19.084 -1.9395,-27.5938 -2.5698,-24.9118 -7.3261,-49.3937 -14.1465,-73.1347 -18.2832,-13.575 -11.4544,-18.32 -7.7441,-24.1621 -8.2138,-23.1681 -18.4482,-45.4906 -30.582,-66.6582 -8.3662,-4.1011 -14.6807,-8.7163 -9.7657,-16.1446 -12.678,-19.8798 -27.1048,-38.6042 -43.1738,-55.8925 -5.1036,-5.4909 -10.3424,-10.8048 -15.707,-15.9356 -3.9753,-2.3756 -8.0992,-4.4442 -10.6407,-9.79296 -23.46237,-20.77411 -49.10383,-38.22485 -76.28511,-52.06836l-5.56445,-2.77344c-27.63423,-13.47179 -56.79183,-23.25102 -86.81641,-29.04492l-12.7168,-2.20703c-13.14572,-2.02792 -26.43671,-3.29449 -39.83398,-3.81641zm259.01365,8.83203c0.9989,1.54604 2.0064,3.08828 3.0274,4.62305 -1.0226,-1.53444 -2.027,-3.07814 -3.0274,-4.62305zm-536.11131,50.33203c-13.90165,0 -27.80216,8.59823 -10.60547,25.79493 -34.39339,-34.3934 -34.39339,55.60633 0,21.21293 -34.39339,34.3934 55.6063,34.3934 21.2129,0 26.21748,26.2175 32.80113,-20.1994 18.94726,-28.24614 -4.32033,-2.50938 -10.62714,-1.28691 -18.94726,7.03321 17.1967,-17.1967 3.29422,-25.79493 -10.60743,-25.79493zm88.13086,0c-13.90165,0 -27.80217,8.59823 -10.60547,25.79493 -34.3934,-34.3934 -34.3934,55.60633 0,21.21293 -34.3934,34.3934 55.60629,34.3934 21.2129,0 26.21748,26.2175 32.80308,-20.1994 18.94921,-28.24614 -4.32033,-2.50938 -10.62911,-1.28691 -18.94921,7.03321 17.19668,-17.1967 3.29422,-25.79493 -10.60743,-25.79493zm227.35157,41.04886 17.11328,35.0293c102.38312,30.8541 178.3105,129.8192 182.9004,248.6093l27.8555,24.2286c0.166,-4.2507 0.25,-8.5238 0.25,-12.8184 0,-147.0489 -98.33735,-269.3877 -228.11918,-295.0488z"></path></symbol><rect id="XSJ" width="164.8" height="260.8" x="-82.4" y="-130.4"></rect></defs><rect width="239" height="335" x="-119.5" y="-167.5" rx="12" ry="12" fill="white" stroke="black"></rect><use width="164.8" height="260.8" x="-82.4" y="-130.4" xlink:href="#SJ1"></use><use transform="rotate(180)" width="164.8" height="260.8" x="-82.4" y="-130.4" xlink:href="#SJ1"></use><use width="164.8" height="260.8" x="-82.4" y="-130.4" xlink:href="#SJ2"></use><use transform="rotate(180)" width="164.8" height="260.8" x="-82.4" y="-130.4" xlink:href="#SJ2"></use><use width="164.8" height="260.8" x="-82.4" y="-130.4" xlink:href="#SJ3"></use><use transform="rotate(180)" width="164.8" height="260.8" x="-82.4" y="-130.4" xlink:href="#SJ3"></use><use width="164.8" height="260.8" x="-82.4" y="-130.4" xlink:href="#SJ4"></use><use transform="rotate(180)" width="164.8" height="260.8" x="-82.4" y="-130.4" xlink:href="#SJ4"></use><use width="164.8" height="260.8" x="-82.4" y="-130.4" xlink:href="#SJ5"></use><use transform="rotate(180)" width="164.8" height="260.8" x="-82.4" y="-130.4" xlink:href="#SJ5"></use><use width="164.8" height="260.8" x="-82.4" y="-130.4" xlink:href="#SJ6"></use><use transform="rotate(180)" width="164.8" height="260.8" x="-82.4" y="-130.4" xlink:href="#SJ6"></use><use xlink:href="#VSJ" height="32" width="32" x="-114.4" y="-156"></use><use xlink:href="#SSJ" height="26.769" width="26.769" x="-111.784" y="-119"></use><use xlink:href="#SSJ" height="55.68" width="55.68" x="-91.768" y="-132.16"></use><g transform="rotate(180)"><use xlink:href="#VSJ" height="32" width="32" x="-114.4" y="-156"></use><use xlink:href="#SSJ" height="26.769" width="26.769" x="-111.784" y="-119"></use><use xlink:href="#SSJ" height="55.68" width="55.68" x="-91.768" y="-132.16"></use></g><use xlink:href="#XSJ" stroke="#44F" fill="none"></use></svg>