<?xml version="1.0" encoding="UTF-8" standalone="no"?>
<svg xmlns="http://www.w3.org/2000/svg" xmlns:xlink="http://www.w3.org/1999/xlink" class="card" face="KC" height="3.5in" preserveAspectRatio="none" viewBox="-120 -168 240 336" width="2.5in"><defs><symbol id="VCK" viewBox="-500 -500 1000 1000" preserveAspectRatio="xMinYMid"><path d="M-285 -460L-85 -460M-185 -460L-185 460M-285 460L-85 460M85 -460L285 -460M185 -440L-170 155M85 460L285 460M185 440L-10 -70" stroke="black" stroke-width="80" stroke-linecap="square" stroke-miterlimit="1.5" fill="none"></path></symbol><symbol id="SCK" viewBox="-600 -600 1200 1200" preserveAspectRatio="xMinYMid"><path d="M30 150C35 385 85 400 130 500L-130 500C-85 400 -35 385 -30 150A10 10 0 0 0 -50 150A210 210 0 1 1 -124 -51A10 10 0 0 0 -110 -65A230 230 0 1 1 110 -65A10 10 0 0 0 124 -51A210 210 0 1 1 50 150A10 10 0 0 0 30 150Z" fill="black"></path></symbol><symbol id="CK6" preserveAspectRatio="none" viewBox="0 0 1300 2000"><path stroke="#44F" stroke-linecap="round" stroke-linejoin="round" stroke-width="3" fill="none" d="M1205,585.2246V501.00389M1205,664.06444V585.2246M1205,736.06835V664.06444M1205,476.72851V140M1235,868.53708V170M1225,862.94531V160M1215,856.56639V150M1205,849.23239V796.72461M1195,230.03516V218.91213M1195,285.71095V230.03516M1195,370.18557l10e-5,-27.11328M1195,440.06642V370.18557M1200.5583,904.10509c3.8869,4.86144 4.6037,9.57234 2.4856,23.82416M1205,935c3.8869,4.86144 6.7076,14.03225 2.537,24.38423M1203.41,958.18579c3.8869,4.86144 4.6551,15.26378 0.8949,23.76847M1199.8468,989.82783c3.8869,4.86144 3.6288,14.44277 0.074,22.53697M1240,907.2578c1.2762,3.84382 1.458,7.24986 0,10M1240.6155,939.21849c1.2762,3.84382 1.458,7.24986 0,10M1238.1525,967.50256c1.2762,3.84382 1.458,7.24986 0,10M1236.642,994.17898c1.2762,3.84382 1.458,7.24992 0,10.00002M1193.8491,939.44169C1177.1346,940 1180,970 1180,970M480,305c5,-10 19.18861,-20 35,-20 15,0 30,20 30,20M630,307.10925c0,0 15.59102,-23.50547 32.587,-23.70125 16.86922,-0.19431 30.73329,9.62285 34.403,15.199M620,315c5,15 14.81085,31.86678 40,30M470,325c-3.26385,17.63806 35,25 35,25M518.89909,305.82498c0.71086,2.40791 1.10092,5.02743 1.10092,7.76715 0,11.82324 -7.26432,21.40787 -16.22532,21.40787 -8.961,0 -16.22533,-9.58463 -16.22533,-21.40787 0,-4.15742 0.8982,-8.03805 2.45252,-11.32251M668.2595,297.6412c1.51174,3.25287 2.38331,7.07961 2.38331,11.17494 0,11.82324 -7.26432,21.40787 -16.22532,21.40787 -8.961,0 -16.22533,-9.58463 -16.22533,-21.40787 0,-3.67918 0.70344,-7.14158 1.94254,-10.16585M560,515c15,-10 35,-5 40,0"></path><use xlink:href="#SCK" height="90" width="90" transform="translate(893,859)scale(1,0.972)rotate(5)translate(-45,-45)"></use><use xlink:href="#SCK" height="90" width="90" transform="translate(927,721)scale(1,0.972)rotate(15)translate(-45,-45)"></use><use xlink:href="#SCK" height="90" width="90" transform="translate(992,601)scale(1,0.972)rotate(25)translate(-45,-45)"></use></symbol><symbol id="CK5" preserveAspectRatio="none" viewBox="0 0 1300 2000"><path stroke="#44F" stroke-linecap="round" stroke-linejoin="round" stroke-width="6" fill="none" d="M522.89946,3.4796319c9.29661,67.9067991 63.93445,63.4315221 67.75323,108.8434281 3.44105,40.92056 -51.6455,45.49043 -54.87181,4.5513 -2.18056,-27.669238 29.20442,-29.893498 31.35531,-2.60075 1.07544,13.64639 -18.52163,15.27184 -19.59707,1.62547M522.89946,3.4796319C524.35724,72.036617 469.72827,76.62439 473.07023,122.07584c3.01145,40.9562 58.09813,36.38784 54.87181,-4.55129 -2.18055,-27.669237 -33.50619,-24.692022 -31.35532,2.60074 1.07543,13.64637 20.67252,12.02091 19.59708,-1.62547M803.52042,0.0083487c-1.61728,68.4319893 60.02097,74.3751393 56.20018,119.7511913 -3.44559,40.92033 -65.70092,35.0118 -62.01247,-5.88624 2.49288,-27.641447 37.89466,-23.901792 35.43571,3.36356 -1.22949,13.6327 -23.37681,11.53047 -22.14733,-2.10222M803.49877,0.01017719C792.84838,67.580864 731.19583,61.822082 726.83671,107.14617c-3.93115,40.87425 58.32404,46.78427 62.01249,5.88624 2.49288,-27.641449 -32.97674,-30.628921 -35.43572,-3.36356 -1.22947,13.63267 20.91785,15.7349 22.14733,2.10222M881.7602,157.36365c1.16201,-1.19056 2.29728,-2.4235 3.40426,-3.70014 13.50821,-15.57848 21.04333,-36.1939 22.97946,-60.172561C934.56525,87.881779 954.37443,80.312095 970,71.80741M840.76436,152.60864C868.5811,141.05431 884.66913,116.44423 881.61643,70.52775 970.03834,57.492744 977.85613,28.050164 1016.1156,4.8041951M384.63751,83.185925c11.35443,8.151145 23.45585,14.705278 36.84401,17.808805 3.26685,10.61217 6.90989,23.05462 14.4281,36.76454 3.7266,6.7957 8.65875,13.43872 14.82126,19.61206M490.65706,153.04418C452.77056,135.41043 453.48263,104.49672 440.89477,75.57957 408.94197,77.33746 370.4588,37.367252 336.36001,-0.19981025M611.36441,145.17903c10.9253,-14.51559 19.05107,-32.22243 22.98728,-52.755857 9.53387,-4.368773 17.87708,-10.464195 24.62784,-17.581187 6.33421,7.50921 14.31629,14.093979 23.58526,19.026361 2.55022,19.151813 8.80607,36.110233 17.69034,50.522733M661.11102,-4.759348e-7C654.88793,34.595953 646.01547,66.138383 610.12103,71.520915 608.0095,108.17316 593.55433,131.47767 571.81131,146.87836M734.46985,145.37237C718.0019,129.07875 707.96296,106.5856 707.9437,74.453123 672.41682,66.929756 665.35458,34.909688 661.11102,-4.759348e-7c0,0 0,0 0,0M1019.4178,0.21358779C930.31249,123.36835 911.81756,170.70059 893.87725,227.73813M331.33098,0.60259911C399.55705,102.39104 431.37918,159.18448 457.19072,225.5247M446.33162,199.14654c173.56368,-21.01463 316.12692,-17.02291 456.43075,1.99835M457.05112,225.43244c165.82048,-19.48743 302.23384,-15.74459 436.89043,2.14403M428.12856,160.03465c187.25473,-23.82143 340.46198,-19.28401 490.61123,1.8767M-0.06507991,771.26195C113.12784,665.90749 248.10586,577.55962 401.37082,542.79581M1155.0002,609.63423 959.39497,538.07133M1300.0002,662.68301l-55.0003,-20.12206M924.37106,538.30385 719.57227,636.91016 552.27312,561.62571M544.17732,590.87979 720,670 938.56825,564.76344M566.02954,650.06l154.61304,69.57477 163.99053,-78.9584M577.89636,688.29717l143.17395,64.42744 140.14268,-67.4764M647.05441,757.4068l78.74832,48.38666 76.56099,-47.88938M649.0647,808.6657l81.47046,50.1966 74.0099,-47.51872M651.49406,870.60355l83.77352,41.3276 71.53084,-45.38307M800.58928,714.43752l7.728,189.33596M625.96505,709.92812l-36.85417,20.10231M647.05519,757.40727l-45.62004,26.06041M649.06534,808.66611l-37.57722,23.9974M651.49426,870.60366 620.96147,884.8761M802.36344,757.90425l28.80644,8.17222M806.79789,866.54841l4.64687,2.21643M804.54465,811.34384l14.6443,6.01042M605.78319,959.99999 599.2832,960M700.71679,960l-6.5,-10e-6M460.00001,960.00002 460,718.46094M440.88525,924.27429a125,125 0 0 1 -125,125.00001 125,125 0 0 1 -125,-125.00001 125,125 0 0 1 125,-125 125,125 0 0 1 125,125v0M961.50795,538.87077C815.96941,693.79869 799.00376,865.21991 808.18772,1039.9956M825.70402,1039.9852C816.30511,864.71821 832.72224,697.90271 979.42759,545.41855M949.77485,955.53057C943.88877,822.19003 968.12464,698.47509 1075.0971,580.48837M999.08576,951.68038C992.4425,822.22397 1015.8156,711.50454 1126.1392,599.14677M974.32013,951.08637C968.4907,820.68097 992.68488,704.04727 1100.5211,589.75122M677.5,1000A27.5,27.5 0 0 1 650,1027.5 27.5,27.5 0 0 1 622.5,1000 27.5,27.5 0 0 1 650,972.5 27.5,27.5 0 0 1 677.5,1000v0M692.05452,965.9376C709.00441,925.84824 680.22101,905.82567 650,905.23818c-30.22101,0.58749 -59.00441,20.61006 -42.05452,60.69942 -45,-34.54713 -65.3769,2.23401 -65.63599,34.0624 0.25909,31.8284 20.63599,68.6096 65.63599,34.0624 -16.94989,40.0894 11.83351,60.112 42.05452,60.6994 30.22101,-0.5874 59.00441,-20.61 42.05452,-60.6994 45,34.5472 65.3769,-2.234 65.63599,-34.0624 -0.25909,-31.82839 -20.63599,-68.60953 -65.63599,-34.0624v0M498.67402,562.88239c41.3207,84.04286 67.26464,185.87217 87.85332,299.41839C556.31568,778.59382 509.83478,715.50153 450.5332,671.75195 393.43805,629.63016 325.64841,605.78414 251.28022,595.71366M196.20115,960H162.65429M140,659.36329V940M100,687.7793V900M1214.9185,1054.9392A25,25 0 0 1 1225,1075v0a25,25 0 0 1 -25,25 25,25 0 0 1 -25,-25 25,25 0 0 1 14.2808,-22.5853M1179.0741,1062.1854C1156.1229,1055.0451 1105,1032.1634 1105,970c0,-65 45,-75 55,-75 20,0 34.1051,26.64204 34.1051,46.64204 0,40 -39.1051,33.77177 -39.1051,3.35796 0,-20 10,-30 10,-30l-30,20M1260,1035a47.5,20 0 0 1 -47.5,20 47.5,20 0 0 1 -47.5,-20 47.5,20 0 0 1 47.5,-20 47.5,20 0 0 1 47.5,20v0M1193.8491,939.44169C1199.4522,935.88404 1208.1848,932.53182 1220,930v0c70,-15 59.8446,26.26295 15,30 -21.6833,1.80694 -36.0386,-0.24194 -43.2229,-4.0902M1258.1654,953.4893c25.2944,6.41437 10.0226,30.03268 -24.0408,31.15309 -50.4324,1.65883 -60.4614,-15.41331 -33.3334,-25.69858M1247.5347,982.8347c31.3983,4.08687 17.2862,31.0324 -17.1468,32.231 -56.6766,1.9729 -59.3511,-22.54884 -13.184,-30.63726M1185.9582,913.44542c3.48,-5.51081 14.3403,-11.30299 32.4129,-15.17568v0c70,-15 59.8446,26.26295 15,30 -20.9545,1.74621 -35.0653,-0.10857 -42.4742,-3.70835M1157.0973,957.32219C1162.0973,977.32219 1145,1025 1145,1025M1155,873.42776V180l45,-45 45,45v693.42775M1105,860c0,-20 40,-32.7067 40,0 0,7.45288 -10,7.53267 -10,0 0,-5 -9.929,-5.12392 -10,5 -0.2467,34.99913 65,-10 75,-20 10,10 75.2467,54.99913 75,20 -0.071,-10.12392 -10,-10 -10,-5 0,7.53267 -10,7.45288 -10,0 0,-32.7067 40,-20 40,0 0,50 -85,27.59954 -95,15 -10,12.59954 -95,35 -95,-15v0M1200.4076,845.62368c1.9077,-27.81216 7.833,-71.45499 7.3023,-90.89504 -0.6821,-24.9907 -10.7401,-33.89856 -11.2858,-53.89111 -0.5457,-19.99256 17.4467,-51.39008 16.7646,-76.38077 -0.6821,-24.9907 -15.3003,-53.22304 -15.846,-73.21559 -0.5457,-19.99256 9.3265,-45.27133 8.7808,-65.26389 -0.5457,-19.99255 -17.0888,-55.85995 -17.6345,-75.8525 -0.5457,-19.99255 14.5502,-64.52612 14.0045,-84.51867 -0.5457,-19.99255 -11.8559,-50.10567 -12.2652,-65.10009 -0.4093,-14.99442 13.3013,-62.43872 12.892,-77.43314C1202.7111,168.07847 1200.4465,149.67911 1200,135c-0.037,15.31531 1.7159,33.76847 1.7159,48.76847 0,15 -15,62.05255 -15,77.05255 0,15 10.4844,45.41051 10.4844,65.41051 0,20 -16.3054,64.10509 -16.3054,84.10509 0,20 15.5583,56.30542 15.5583,76.30542 0,20 -10.5583,45 -10.5583,65 0,20 13.8424,48.62069 13.8424,73.62069 0,25 -18.8424,55.89491 -18.8424,75.89491 0,20 9.8112,29.17898 9.8112,54.17898 0,23.25677 -10.1739,80.86223 -10.7473,104.86172M203.40468,977.83395c85.59108,-21.58175 147.29353,-22.23267 227.62043,-5.81758M279.80507,804.71486c-0.5071,27.73989 -0.59057,55.30305 -0.35663,82.68813 -30.26406,3.32862 -59.22478,9.70945 -87.13962,18.52893M350.72792,804.2916c2.05678,26.95785 3.64214,53.9925 4.81238,81.07906 26.31559,1.50782 53.67624,5.31289 82.16046,11.71839M217.22532,1000.1643c76.07132,-18.43261 129.85852,-19.10372 201.29917,-5.1651M254.64372,815.46829c-0.21617,16.80985 -0.26541,33.53542 -0.22966,50.20944 -18.61672,2.96986 -36.77403,6.9726 -54.47676,11.92212M428.17305,869.54262c-16.59171,-3.25658 -32.85474,-5.66805 -48.80196,-7.30239 -0.81436,-15.76472 -1.72691,-31.52041 -2.81265,-47.25629M330,880a15,15 0 0 1 -15,15 15,15 0 0 1 -15,-15 15,15 0 0 1 15,-15 15,15 0 0 1 15,15v0M330,835a15,15 0 0 1 -15,15 15,15 0 0 1 -15,-15 15,15 0 0 1 15,-15 15,15 0 0 1 15,15v0M330,925a15,15 0 0 1 -15,15 15,15 0 0 1 -15,-15 15,15 0 0 1 15,-15 15,15 0 0 1 15,15v0M280,925a15,15 0 0 1 -15,15 15,15 0 0 1 -15,-15 15,15 0 0 1 15,-15 15,15 0 0 1 15,15v0M235,935a15,15 0 0 1 -15,15 15,15 0 0 1 -15,-15 15,15 0 0 1 15,-15 15,15 0 0 1 15,15v0M380,925a15,15 0 0 1 -15,15 15,15 0 0 1 -15,-15 15,15 0 0 1 15,-15 15,15 0 0 1 15,15v0M425,930a15,15 0 0 1 -15,15 15,15 0 0 1 -15,-15 15,15 0 0 1 15,-15 15,15 0 0 1 15,15v0M285.24246,803.19971a30.652709,27.5 0 0 1 -0.01,-0.69971 30.652709,27.5 0 0 1 30.65271,-27.5 30.652709,27.5 0 0 1 30.65271,27.5v0a30.652709,27.5 0 0 1 -0.0111,0.74119M303.33594,777.96363C300.16664,763.71638 289.40005,725.93333 265,730c-23.93685,3.98948 -41.63933,59.0169 -20,70 16.94523,8.6006 16.08956,-46.8725 35,-45 9.35264,0.92609 13.58085,21.49426 14.69108,28.02722M304.09516,777.14347c4.4e-4,0.008 8.8e-4,0.0157 10e-4,0.0236M325.93836,776.55418C327.44566,750.40572 331.61384,724.78477 340,700l-25,-30 -25,30c8.44914,24.97093 12.61672,50.79065 14.09516,77.14347M325.93745,776.56994c3e-4,-0.005 6.1e-4,-0.0105 9.1e-4,-0.0158M335.56453,781.5898C336.98856,773.91148 341.25333,755.86608 350,755c18.91044,-1.8725 18.05477,53.6006 35,45 21.63933,-10.9831 3.93685,-66.01052 -20,-70 -24.00176,-4.00029 -34.81152,32.49405 -38.17465,47.24743M177.59568,945l-38.54101,10e-6M176.17578,929.99999 140,930.00001M176.20703,915.00001 140,914.99999M178.03906,900.00001 140,900.00002M181.58201,884.99998l-41.58203,10e-6M187.12498,869.99997 139.99999,870M194.60741,854.99999l-54.60742,-2e-5M204.60937,840 140,840.00003M217.78129,825.00001l-77.78126,2e-5M233.26366,810.00002l-93.26367,-3e-5M222.86525,795.00001 140,794.99998M220.21681,780.00002l-80.2168,2e-5M221.76171,764.99998 140,765.00001M226.44727,749.99999H140M459.99999,944.99998h-5.82617M460,930h-4.40625M460,915h-4.43555M459.99999,899.99999h-6.27148M459.99999,884.99999h-9.8125M460,870.00001H444.66211M460,854.99999H437.18945M459.99999,839.99999h-32.8125M460.00001,825.00001l-46.00586,10e-6M460,810l-63.17383,-10e-6M460,795.00001H407.11524M460,780H409.7832M460,765H408.23828M460,749.99999H403.55273M1300,1040h-41.5703M1245,830l55.0002,-18.3334M865.53857,536.83251c25.59043,3.75924 49.27112,-7.0426 49.10581,-33.28388 -0.15063,-23.91156 -23.26763,-33.14341 -37.8994,-27.02609M885.89333,538.01113c25.59043,3.75924 49.27112,-7.0426 49.10581,-33.28388 -0.14584,-23.15041 -21.81918,-32.5408 -36.47735,-27.56363M905.89333,538.01113c25.59043,3.75924 49.27112,-7.0426 49.10581,-33.28388 -0.15063,-23.91156 -23.26763,-33.14341 -37.8994,-27.02609M920.89333,538.01113c25.59043,3.75924 49.27112,-7.0426 49.10581,-33.28388 -0.14389,-22.84129 -21.24423,-32.28757 -35.88649,-27.75532M940.89333,538.01113c25.59043,3.75924 49.27112,-7.0426 49.10581,-33.28388 -0.15063,-23.91156 -23.26763,-33.14341 -37.8994,-27.02609M960.89333,538.01113c25.59043,3.75924 49.27107,-7.0426 49.10577,-33.28388 -0.1506,-23.91156 -23.26759,-33.14341 -37.89936,-27.02609M980.89337,538.01115c25.59043,3.75924 49.27103,-7.0426 49.10573,-33.28388 -0.1506,-23.91156 -23.2676,-33.14341 -37.89932,-27.02609M754.93884,214.82768c58.34598,120.26296 27.10929,213.5326 28.09459,252.46562C785,545 895,560 894.64438,503.54863 894.4239,468.54933 845,465 845,495c-0.58884,16.60389 31.33307,20.56835 25,0M772.97952,215.89263c58.23362,119.78121 37.19917,213.16303 38.18157,251.98122 0.81966,32.38769 23.43213,43.3432 49.50304,41.01851M791.0011,216.95348c57.74588,119.2716 39.18049,212.21686 40.15999,250.92037 0.41416,16.36491 6.39223,27.25797 15.56903,33.73083M811.03389,218.61719c47.4415,81.93703 34.36333,176.1067 41.47193,260.64511M830.07499,220.3536C877.7565,299.70708 867.69409,390.71711 880.00466,475M848.35018,222.12381c45.91566,80.08836 39.24698,178.27929 59.15331,252.77829M867.12958,224.32371c44.88881,80.25279 39.31817,181.40196 67.87275,251.10903M886.0729,226.53891c44.62204,81.12034 39.36932,189.0492 76.42826,250.11804M897.635,216.50054C949.20935,300.1396 951.802,432.02725 990,475M774.52433,561.15249C804.21197,565.21383 839.25108,548.55039 845,537.05255M755,215C846.36834,433.50932 720.99414,442.80052 724.06221,515.88799 724.90768,536.02872 735,545 748.28541,549.57549M779.95567,548.38143c21.55339,5.2519 48.55985,-2.60008 66.06711,-11.30103M790.4446,381.67337c-9.30199,47.9588 -51.77834,73.17291 -48.8776,123.23963 0.65368,11.28245 7.62039,16.12057 11.39398,23.11384M789.69685,396.48139c-10.50178,31.11022 -33.46367,50.38317 -31.00179,92.87516 3.09931,53.494 45.33224,53.9396 77.63334,45.16281M788.24973,411.56204c-8.79545,19.55292 -20.03258,35.14107 -18.1033,68.4404 2.59497,44.78898 31.60605,55.44215 59.93823,52.57176M700,505c-4.57903,71.22644 80,80 80,40 0,-30 -50,-20 -30,5M683,511c0,30 24.83261,77.83522 51.12918,54.58055M666,517c0,35 22.57543,70.89552 49.35562,55.67781M649,523c0,30 16,62 46.42097,53.22644M632,529c5,30 13,56 45.45288,49.03343M615,535c10,30 15,40 39.61549,43.9696M575,535c-10,23.79694 -15.38451,26.85119 -40,30M558,530.24061C553,554.03755 542.45288,565.52611 510,560M541,525.48122C541,549.27816 510.42097,566.95947 480,560M507,515.96244c0,23.79694 -28.11668,58.86778 -54.41325,40.42145M490,511.20305C500,566.72925 395,570 393.91626,525.21282 392.94313,484.99717 450,490 450,520c0,23.64294 -40.81764,30.22444 -40,5 0.2664,-8.21842 10,-15 20,-10M565,555c20,25 50,5 50,-20M524,520.72183c0,20.17139 -20.53415,37.88267 -45.31856,38.57265M463.46556,224.87042C451.46332,265.44226 470,272.05028 470,325c0,55 -65,45 -65,5 0,-30 40,-25 40,0 0,18.40484 -30,20 -30,5 0,-15 15,-10 15,-10M456.51336,224.82836c-14.60221,44.60824 -6.85552,72.64285 -11.6423,107.21465M429.6836,410.69225c0,0 -15,-5 -15,10 0,15 30,13.40484 30,-5 0,-25 -44.10509,-30.41051 -44.10509,-0.41051 0,40 64.42149,44.71826 65,-5C465.87713,384.61802 460,380 466.73615,342.63806 450,370 466.90016,406.04789 444.10509,420.41051M465,405c18.91733,89.45692 2.8301,125.09854 -30,135M465,275c0,0 20,-20 40,-20 20,0 27.54291,6.06121 32.53695,6.30542C543.0607,261.57553 550,255 555,250v10c0,0 -12.05255,4.66338 -17.05255,4.66338 -5,0 -26.04445,-5.80813 -34.17898,-6.30542C499.79535,258.11507 471.5435,266.39488 465,275M740,285c0,0 -32.9064,-33.28407 -52.9064,-33.28407 -20,0 -49.29989,8.52426 -54.29393,8.76847C627.27592,260.75451 615,260 610,250v10c0,0 17.38917,3.84236 22.38917,3.84236 5,0 50.16607,-9.23425 55.93596,-8.76847C704.21011,256.35623 733.4565,276.39488 740,285M555,260c0,0 15,15 15,20 0,20 -11.71593,30.41051 -11.71593,50.41051 0,20 -13.28407,59.58949 -12.87356,68.28407C545.64632,403.68902 560,410 565,410c5,0 5,20 5,20M605,375c25,5 28.97367,36.32456 10,30 -45,-15 -45,10 -12.53695,-2.46305M530,460v10l5,-5 -5,-5v0M645,460v10l-5,-5 5,-5v0M535,465c10,0 15,-10 25,-10 10,0 15,5 20,5 5,0 16.56814,-7.12644 21.56814,-7.12644C606.56814,452.87356 625,465 640,465M565,485c5.86123,12.36016 30,15 35,0M470,310c10,-5 20,-10 35.74713,-9.17898C521.53707,301.64427 535,325 550,325c-25,0 -30,10 -45,10 -15,0 -25,-5 -35,-10M620,315c0,0 20,-20 35,-20 15,0 50,20 60,20 -22.34673,-0.0507 -44.76433,15 -60,15 -20,0 -35,-15 -35,-15M495,430c5.81906,1.43908 15,-12.65844 0,-12.44589 -22.65292,0.321 -14.29708,33.46885 9.46432,33.43195C519.0676,450.96337 535,432.09863 550,430v-10c-30,10 -25,25 -45,30M690,435c-12.38091,-5 -19.67266,-21.47102 2.42784,-23.21688C715,410 710,450 667.29664,450.98606 645.72037,451.48428 632.31731,430 600,430v-10c52.09763,5 36.9472,25 66.50496,30M757.84712,1000A107.84712,96.547858 0 0 1 650,1096.5478 107.84712,96.547858 0 0 1 542.15288,1000 107.84712,96.547858 0 0 1 650,903.45216 107.84712,96.547858 0 0 1 757.84712,1000v0M533.14918,565.48022c44.80084,97.37577 70.461,213.43828 91.43118,340.76095M721.07031,752.72461 738.1827,944.621M645.53869,718.73635l7.24869,184.84176M551.9629,960.00004 435.61326,960M806.26169,959.99997 748.00976,960M748.00736,959.99537l59.20999,-37.00622M201.98585,621.1053c182.60583,10.65772 322.19078,96.3116 373.56283,309.0787M754.22736,975h51.21992M492.49921,975h52.34563"></path></symbol><symbol id="CK4" preserveAspectRatio="none" viewBox="0 0 1300 2000"><path fill="black" d="M672.93164,185.05078c-70.69497,-0.11093 -145.24163,4.2451 -226.59961,14.0957l10.71875,26.28516c165.82048,-19.48743 302.23404,-15.74409 436.89063,2.14453l8.82031,-26.43164C828.22531,191.03949 753.05261,185.1765 672.93164,185.05078ZM401.37109,542.79492c-51.87137,11.76555 -101.64808,29.66945 -149.64257,52.60547 73.92017,10.38352 141.70953,34.22977 198.80468,76.35156 59.30158,43.74958 105.78248,106.84187 135.99414,190.54883C565.93866,748.75456 539.99453,646.92567 498.67383,562.88281L425,555ZM938.56836,564.76367 720,670 544.17773,590.87891l21.85157,59.18164 154.61328,69.57422 163.99023,-78.95899zm161.95314,24.98828C992.68524,704.048 968.49088,820.68054 974.32031,951.08594l24.76563,0.59375C992.44268,822.22328 1015.8151,711.50425 1126.1387,599.14648ZM1245,642.29883v187.72656l55,-18.35742V662.61328ZM139.91406,659.40625c-13.63827,9.14276 -39.990232,28.34766 -39.990232,28.34766L100,900c13.80712,0 25,11.19288 25,25 0,4.93906 -1.43146,9.54288 -4.18359,13.05664 5.06445,1.28077 12.00602,3.79597 19.5,7.49219L140,940ZM1050,787c-4.057,-0.0574 -4.057,6.05738 0,6h75c4.057,0.0574 4.057,-6.05738 0,-6zm-27.457,25 -1.1407,6H1140v-6zm-4.1739,23.5 -1.2421,9h77.2675l7.2364,-9zm-2.9961,25 -0.8144,9h76.5098l-1.0352,-9zm-1.7265,25.5 -0.4922,18h98.6309l-13.7188,-18zm-0.6016,31 0.1328,6h86.4024l3.0664,-6zm0.4473,20 14.8027,6h64.6211l1.3945,-6zm44.5586,20 8.8652,6h23.3828l0.3574,-6zm25.1699,20 5.5195,6h2.0352l-0.543,-6zm-725.14843,6.64844a3.0003,3.0003 0 0 0 -1.60352,0.52929c-11.4571,7.66252 -25.35724,12.09571 -40.58398,12.09571 -13.72709,0 -26.37503,-3.60462 -37.12891,-9.92774a3.0003,3.0003 0 1 0 -3.04102,5.17188c11.66888,6.86112 25.39068,10.75582 40.16993,10.75582 16.39385,0 31.48545,-4.79315 43.91992,-13.10934a3.0003,3.0003 0 0 0 -1.73242,-5.51562zm33.11914,3.67187a3.0003,3.0003 0 0 0 -2.29688,1.05469c-17.73099,20.2083 -43.76195,32.8984 -73.00976,32.8984 -27.38853,0 -51.95164,-11.1275 -69.52735,-29.13668a3.0003,3.0003 0 1 0 -4.29492,4.18945c18.66645,19.12683 44.80635,30.94723 73.82227,30.94723 30.98568,0 58.68786,-13.4786 77.51953,-34.94137a3.0003,3.0003 0 0 0 -2.21289,-5.01172z"></path></symbol><symbol id="CK3" preserveAspectRatio="none" viewBox="0 0 1300 2000"><path fill="#44F" d="M1200,135c-0.037,15.31531 1.7168,33.76758 1.7168,48.76758 0,15 -15,62.05273 -15,77.05273 0,15 10.4844,45.41211 10.4844,65.41211 0,20 -16.3067,64.10352 -16.3067,84.10352 0,20 15.5586,56.30664 15.5586,76.30664 0,20 -10.5586,45 -10.5586,65 0,20 13.8418,48.62109 13.8418,73.62109 0,25 -18.8418,55.89453 -18.8418,75.89453 0,20 9.8125,29.17774 9.8125,54.17774 0,23.25677 -10.1746,80.86379 -10.748,104.86328l20.4492,-14.57617c1.9077,-27.81216 7.8315,-71.45448 7.3008,-90.89453 -0.6821,-24.9907 -10.7395,-33.89808 -11.2852,-53.89063 -0.5457,-19.99256 17.4478,-51.39017 16.7657,-76.38086 -0.6821,-24.9907 -15.302,-53.22425 -15.8477,-73.2168 -0.5457,-19.99256 9.3269,-45.27111 8.7812,-65.26367 -0.5457,-19.99255 -17.089,-55.85901 -17.6347,-75.85156 -0.5457,-19.99255 14.5515,-64.52698 14.0058,-84.51953 -0.5457,-19.99255 -11.8563,-50.10519 -12.2656,-65.09961 -0.4093,-14.99442 13.3019,-62.43917 12.8926,-77.43359C1202.7119,168.07786 1200.4465,149.67911 1200,135ZM652.25977,294.0293a10,17.5 0 0 0 -10,17.5 10,17.5 0 0 0 10,17.5 10,17.5 0 0 0 10,-17.5 10,17.5 0 0 0 -10,-17.5zm-150.04493,5.17382a10,17.5 0 0 0 -10,17.5 10,17.5 0 0 0 10,17.5 10,17.5 0 0 0 10,-17.5 10,17.5 0 0 0 -10,-17.5zM550,420c-30,10 -25,25 -45,30l-0.53516,0.98633C519.06812,450.96364 535,432.09863 550,430Zm50,0v10c32.31731,0 45.72059,21.48455 67.29688,20.98633L666.50586,450C636.9481,445 652.09763,425 600,420Zm526,179.06055c-110.1846,112.44436 -133.55784,223.16409 -127.12109,352.5625 49.77099,5.73878 90.76149,41.01386 104.74609,88.15235l33.4336,0.1543C1119.7764,1025.4885 1105,1003.4214 1105,970c0,-65 45,-75 55,-75 10.7141,0 19.7357,7.64572 25.8809,18.13281 3.5566,-5.19816 14.4176,-10.99059 32.4902,-14.86328 66.7067,-14.29428 60.6228,22.50551 20.5293,29.04883 36.9733,-3.50654 38.8547,15.32295 19.5215,26.08008 21.3207,5.56259 13.3776,23.55473 -10.7285,29.42773 31.2392,4.09549 17.1266,31.04093 -17.0625,32.98243 17.3527,3.7677 29.3691,10.8888 29.3691,19.1914 0,1.8342 -0.5859,3.61 -1.627,5.1484L1300,1040.0293V662.66797l-55,-20.16406 -0.1035,230.91211c16.0508,6.82562 30.2187,7.92842 30.1035,-8.41602 -0.071,-10.12392 -10,-10 -10,-5 0,7.53267 -10,7.45288 -10,0 0,-32.7067 40,-20 40,0 0,50 -85,27.59954 -95,15 -4.2058,5.29909 -21.68,12.3255 -40.5156,14.97656 -0.2694,0.0379 -0.5387,0.0752 -0.8086,0.11133 -1.1328,0.15153 -2.2694,0.29216 -3.4082,0.41016C1130.5403,893.05986 1105,887.40738 1105,860c0,-20 40,-32.7067 40,0 0,7.45288 -10,7.53267 -10,0 0,-5 -9.929,-5.12392 -10,5 -0.1137,16.12849 13.6801,15.26849 29.7832,8.55078L1155,609.20898Zm112.9004,328.25781c-1.9692,0.18676 -4.0112,0.4201 -6.1816,0.73828 2.1404,-0.16576 4.2022,-0.41523 6.1816,-0.73828zM460.17383,718.58789 459.89648,960 550.65039,960.07227 575.32227,929.25C552.67896,836.10259 513.07278,767.38224 460.17383,718.58789Zm362.20703,5.32813a10,10 0 0 0 -10,10 10,10 0 0 0 10,10 10,10 0 0 0 10,-10 10,10 0 0 0 -10,-10zM620,735a10,10 0 0 0 -10,10 10,10 0 0 0 10,10 10,10 0 0 0 10,-10 10,10 0 0 0 -10,-10zm48.0293,3.2832a10,10 0 0 0 -10,10 10,10 0 0 0 10,10 10,10 0 0 0 10,-10 10,10 0 0 0 -10,-10zm109.60547,1.23242a10,10 0 0 0 -10,10 10,10 0 0 0 10,10 10,10 0 0 0 10,-10 10,10 0 0 0 -10,-10zm-76.76368,15.18946a10,10 0 0 0 -10,10 10,10 0 0 0 10,10 10,10 0 0 0 10,-10 10,10 0 0 0 -10,-10zm45.1543,2.05273a10,10 0 0 0 -10,10 10,10 0 0 0 10,10 10,10 0 0 0 10,-10 10,10 0 0 0 -10,-10zM52.5,772.5a7.5,7.5 0 0 0 -7.5,7.5 7.5,7.5 0 0 0 7.5,7.5 7.5,7.5 0 0 0 7.5,-7.5 7.5,7.5 0 0 0 -7.5,-7.5zm430,10c6.90356,0 12.5,5.59644 12.5,12.5 0,6.90356 -5.59644,12.5 -12.5,12.5 -6.90356,0 -12.5,-5.59644 -12.5,-12.5 0,-6.90356 5.59644,-12.5 12.5,-12.5zm144.88867,3.40234a10,10 0 0 0 -10,10 10,10 0 0 0 10,10 10,10 0 0 0 10,-10 10,10 0 0 0 -10,-10zm154.76172,2.875a10,10 0 0 0 -10,10 10,10 0 0 0 10,10 10,10 0 0 0 10,-10 10,10 0 0 0 -10,-10zm-111.6582,0.82032a10,10 0 0 0 -10,10 10,10 0 0 0 10,10 10,10 0 0 0 10,-10 10,10 0 0 0 -10,-10zM37.5,790a7.5,7.5 0 0 0 -7.5,7.5 7.5,7.5 0 0 0 7.5,7.5 7.5,7.5 0 0 0 7.5,-7.5 7.5,7.5 0 0 0 -7.5,-7.5zm35,2.5A7.5,7.5 0 0 0 65,800 7.5,7.5 0 0 0 72.5,807.5 7.5,7.5 0 0 0 80,800 7.5,7.5 0 0 0 72.5,792.5ZM55,805l-25,75 15,-15 10,30 5,-30 10,15zm648.33398,1.01758a10,10 0 0 0 -10,10 10,10 0 0 0 10,10 10,10 0 0 0 10,-10 10,10 0 0 0 -10,-10zm47.20704,0a10,10 0 0 0 -10,10 10,10 0 0 0 10,10 10,10 0 0 0 10,-10 10,10 0 0 0 -10,-10zm-373.89454,9.0039c0.99694,15.698 1.91025,31.45403 2.72461,47.21875 15.94722,1.63434 32.20958,4.04575 48.73243,7.03516 -11.30761,-23.03035 -29.27275,-41.87876 -51.45704,-54.25391zM254.5293,815.4375c-24.40212,13.71317 -43.63391,35.3507 -54.45899,61.7793 17.5701,-4.56577 35.72703,-8.56921 54.34375,-11.53907 -0.0358,-16.67402 0.0135,-33.40021 0.11524,-50.24023zM522.5,827.5c6.90356,0 12.5,5.59644 12.5,12.5 0,6.90356 -5.59644,12.5 -12.5,12.5 -6.90356,0 -12.5,-5.59644 -12.5,-12.5 0,-6.90356 5.59644,-12.5 12.5,-12.5zm110.22656,13a10,10 0 0 0 -10,10 10,10 0 0 0 10,10 10,10 0 0 0 10,-10 10,10 0 0 0 -10,-10zm43.10352,3.28516a10,10 0 0 0 -10,10 10,10 0 0 0 10,10 10,10 0 0 0 10,-10 10,10 0 0 0 -10,-10zm108.7832,2.46289a10,10 0 0 0 -10,10 10,10 0 0 0 10,10 10,10 0 0 0 10,-10 10,10 0 0 0 -10,-10zm-75.94336,13.95703a10,10 0 0 0 -10,10 10,10 0 0 0 10,10 10,10 0 0 0 10,-10 10,10 0 0 0 -10,-10zm44.33594,3.28515a10,10 0 0 0 -10,10 10,10 0 0 0 10,10 10,10 0 0 0 10,-10 10,10 0 0 0 -10,-10zM315,865a15,15 0 0 0 -15,15 15,15 0 0 0 15,15 15,15 0 0 0 15,-15 15,15 0 0 0 -15,-15zm167.5,2.5c6.90356,0 12.5,5.59644 12.5,12.5 0,6.90356 -5.59644,12.5 -12.5,12.5 -6.90356,0 -12.5,-5.59644 -12.5,-12.5 0,-6.90356 5.59644,-12.5 12.5,-12.5zm-170.45898,2.44141a6.0259113,6.0741649 0 0 1 6.02734,6.07421 6.0259113,6.0741649 0 0 1 -6.02734,6.07422 6.0259113,6.0741649 0 0 1 -6.0254,-6.07422 6.0259113,6.0741649 0 0 1 6.0254,-6.07421zm477.91015,22.69336a10,10 0 0 0 -10,10 10,10 0 0 0 10,10 10,10 0 0 0 10,-10 10,10 0 0 0 -10,-10zm-111.6582,6.56835a10,10 0 0 0 -9.10547,5.86719l19.08398,4.78321a10,10 0 0 0 0.0215,-0.6504 10,10 0 0 0 -10,-10zM537.5,905c6.90356,0 12.5,5.59644 12.5,12.5 0,6.90356 -5.59644,12.5 -12.5,12.5 -6.90356,0 -12.5,-5.59644 -12.5,-12.5 0,-6.90356 5.59644,-12.5 12.5,-12.5zm220.8418,4.87695a10,10 0 0 0 -10,10 10,10 0 0 0 10,10 10,10 0 0 0 10,-10 10,10 0 0 0 -10,-10zM265,910a15,15 0 0 0 -15,15 15,15 0 0 0 15,15 15,15 0 0 0 15,-15 15,15 0 0 0 -15,-15zm100,0a15,15 0 0 0 -15,15 15,15 0 0 0 15,15 15,15 0 0 0 15,-15 15,15 0 0 0 -15,-15zm-3.39258,4.94141a6.0259113,6.0741649 0 0 1 6.02539,6.07421 6.0259113,6.0741649 0 0 1 -6.02539,6.07422 6.0259113,6.0741649 0 0 1 -6.02734,-6.07422 6.0259113,6.0741649 0 0 1 6.02734,-6.07421zM261.02539,915a6.0259113,6.0741649 0 0 1 6.02734,6.07422 6.0259113,6.0741649 0 0 1 -6.02734,6.07422A6.0259113,6.0741649 0 0 1 255,921.07422 6.0259113,6.0741649 0 0 1 261.02539,915Zm450.10742,0.62305a10,10 0 0 0 -5.62304,1.73242l15.46484,10.04297a10,10 0 0 0 0.1582,-1.77539 10,10 0 0 0 -10,-10zm-385.54492,69.74804c-33.88107,0.24625 -68.06815,5.05332 -108.61523,14.90431 22.59865,29.8389 58.51755,48.998 98.91211,48.998 42.74974,0 80.48797,-21.4593 102.83398,-54.23434 -33.57872,-6.55244 -63.2358,-9.88524 -93.13086,-9.66797z"></path></symbol><symbol id="CK2" preserveAspectRatio="none" viewBox="0 0 1300 2000"><path fill="red" d="M330,835a15,15 0 0 1 -15,15 15,15 0 0 1 -15,-15 15,15 0 0 1 15,-15 15,15 0 0 1 15,15zM330,925a15,15 0 0 1 -15,15 15,15 0 0 1 -15,-15 15,15 0 0 1 15,-15 15,15 0 0 1 15,15zM235,935a15,15 0 0 1 -15,15 15,15 0 0 1 -15,-15 15,15 0 0 1 15,-15 15,15 0 0 1 15,15zM425,930a15,15 0 0 1 -15,15 15,15 0 0 1 -15,-15 15,15 0 0 1 15,-15 15,15 0 0 1 15,15zM139.8202,945.3063c7.62015,3.71791 15.83895,8.65802 23.19034,14.92176l33.17633,-0.0484c-3.45336,-11.24539 -5.30162,-23.35952 -5.30162,-35.90534 10e-6,-58.338 39.964,-107.34192 94.00842,-121.12817l0.34879,0.0536c-0.007,-0.23319 -0.01,-0.46645 -0.01,-0.69971 0,-7.81675 3.63523,-14.87177 9.46517,-19.67569C293.58085,776.49426 289.35264,755.92609 280,755c-18.91044,-1.8725 -18.05477,53.6006 -35,45 -21.63933,-10.9831 -3.93685,-66.01052 20,-70 24.40005,-4.06667 35.16664,33.71638 38.33594,47.96363l0.75922,-0.82016C302.61672,750.79065 298.44914,724.97093 290,700l25,-30 25,30c-8.38616,24.78477 -12.55434,50.40572 -14.06164,76.55418l0.88699,0.69325C330.18848,762.49405 340.99824,725.99971 365,730c23.93685,3.98948 41.63933,59.0169 20,70 -16.94523,8.6006 -16.08956,-46.8725 -35,-45 -8.74667,0.86608 -13.01144,18.91148 -14.70846,26.30184 6.74878,4.7514 11.24634,12.50357 11.24634,21.19816 0,0 -0.004,0.49418 0.33492,0.73756 54.21696,13.90174 94.01244,62.82189 94.01245,121.03677 0,12.29592 -1.77536,24.17718 -5.17786,35.56354l24.58818,0.16215 -0.0343,-241.33174c-67.0994,-62.05809 -155.9304,-91.58965 -258.10002,-97.65004 -21.18998,11.90995 -42.06261,24.81864 -62.29505,38.42072L140,940ZM600.07385,1000a20,20 0 0 1 -20,20 20,20 0 0 1 -20,-20 20,20 0 0 1 20,-20 20,20 0 0 1 20,20zM670,944.17072a20,20 0 0 1 -20,20 20,20 0 0 1 -20,-20 20,20 0 0 1 20,-20 20,20 0 0 1 20,20zM492.27902,974.45735c0.90253,16.64091 1.10396,34.16165 1.14853,50.80285l53.45104,-0.3407c-3.02618,-7.7454 -4.50058,-16.5055 -4.56907,-24.9195 0.0701,-8.61487 1.61409,-17.59258 4.74508,-25.42892M949.49508,955.5966c-40.88979,11.85003 -72.97618,43.67917 -85.45215,84.2691l-38.42409,0.1269c-9.31373,-175.27439 7.1034,-342.08989 153.56044,-494.674l95.93872,35.13393C968.12464,698.47509 943.88877,822.19003 949.49508,955.5966ZM869.18903,535.83828l55.18203,2.46557 -204.79879,98.60631 -167.21242,-75.25707c4.80253,-1.48989 8.36422,-3.58464 12.05461,-6.75962C585,580 615,560 615,535c10,30 15,40 39.61549,43.9696 28.31722,-1.16847 56.27099,-2.88702 77.74194,-14.4169 16.0177,6.95633 33.70441,5.11835 42.24684,-4.03452 29.6077,4.69565 64.64681,-11.96779 69.8605,-23.70323 8.36407,1.27737 17.08891,1.04323 24.72426,-0.97667zM385.06779,83.802165c10.92415,7.534905 23.02557,14.089038 36.41373,17.192565 3.26685,10.61217 6.90989,23.05462 14.4281,36.76454 3.7266,6.7957 8.65875,13.43872 14.08269,19.65146 56.0686,-6.63114 109.76671,-10.6617 161.31459,-12.31264 10.98281,-14.43465 19.10858,-32.14149 23.04479,-52.674917 9.53387,-4.368773 17.87708,-10.464195 24.62784,-17.581187 6.33421,7.50921 14.31629,14.093979 23.58526,19.026361 2.55022,19.151813 8.80607,36.110233 17.09179,50.457903 62.51999,0.99603 122.87103,5.50958 182.22907,12.89668 1.03656,-1.05016 2.17183,-2.2831 3.27881,-3.55974 13.50821,-15.57848 21.04333,-36.1939 22.97946,-60.172561 26.42133,-5.60885 46.23051,-13.178534 61.29818,-20.945568C932.02695,129.8664 915.3549,165.63627 902.96906,200.4476 762.45854,182.12363 619.8953,178.13191 445.94708,198.20679 430.24211,162.07551 411.84929,127.38199 385.06779,83.802165Z"></path></symbol><symbol id="CK1" preserveAspectRatio="none" viewBox="0 0 1300 2000"><path fill="#FC4" d="M315.88477,799.27344c-12.56235,0 -24.6922,1.85347 -36.10547,5.37109 -0.48214,27.8097 -0.56402,55.37273 -0.33008,82.75781 -30.26406,3.32862 -59.22646,9.71055 -87.20508,18.66797 -0.91775,6.03679 -1.35937,12.06769 -1.35937,18.20313 0,19.37207 4.40727,37.71502 12.39648,53.82031 85.71456,-21.84226 147.4165,-22.49246 227.92578,-6.01172 6.30069,-14.67951 9.67774,-30.8501 9.67774,-47.80859 0,-9.41882 -1.04097,-18.59369 -3.09961,-27.30078 -28.56833,-6.28932 -55.92855,-10.09375 -82.24414,-11.60157 -1.17024,-27.08656 -2.75611,-54.12166 -4.69532,-81.09375 -11.01134,-3.26165 -22.78311,-5.0039 -34.96093,-5.0039zM315,865a15,15 0 0 1 15,15 15,15 0 0 1 -15,15 15,15 0 0 1 -15,-15 15,15 0 0 1 15,-15zm-50,45a15,15 0 0 1 15,15 15,15 0 0 1 -15,15 15,15 0 0 1 -15,-15 15,15 0 0 1 15,-15zm100,0a15,15 0 0 1 15,15 15,15 0 0 1 -15,15 15,15 0 0 1 -15,-15 15,15 0 0 1 15,-15zM285.24246,803.19971a30.652709,27.5 0 0 1 -0.01,-0.69971 30.652709,27.5 0 0 1 30.65271,-27.5 30.652709,27.5 0 0 1 30.65271,27.5v0a30.652709,27.5 0 0 1 -0.0111,0.74119M303.33594,777.96363C300.16664,763.71638 289.40005,725.93333 265,730c-23.93685,3.98948 -41.63933,59.0169 -20,70 16.94523,8.6006 16.08956,-46.8725 35,-45 9.35264,0.92609 13.58085,21.49426 14.69108,28.02722M325.93836,776.55418C327.44566,750.40572 331.61384,724.78477 340,700l-25,-30 -25,30c8.44914,24.97093 12.61672,50.79065 14.09516,77.14347M335.56453,781.5898C336.98856,773.91148 341.25333,755.86608 350,755c18.91044,-1.8725 18.05477,53.6006 35,45 21.63933,-10.9831 3.93685,-66.01052 -20,-70 -24.00176,-4.00029 -34.81152,32.49405 -38.17465,47.24743M692.05452,965.9376C709.00441,925.84824 680.22101,905.82567 650,905.23818c-30.22101,0.58749 -59.00441,20.61006 -42.05452,60.69942 -45,-34.54713 -65.3769,2.23401 -65.63599,34.0624 0.25909,31.8284 20.63599,68.6096 65.63599,34.0624 -16.94989,40.0894 11.83351,60.112 42.05452,60.6994 30.22101,-0.5874 59.00441,-20.61 42.05452,-60.6994 45,34.5472 65.3769,-2.234 65.63599,-34.0624 -0.25909,-31.82839 -20.63599,-68.60953 -65.63599,-34.0624zM625.33203,910.53711c-1.29049,-7.8721 -2.59974,-15.69928 -3.92773,-23.48438 1.33034,7.78774 2.64812,15.6037 3.9414,23.47852zm124.39189,49.79159 56.49483,-0.44198c0.75351,-109.52858 18.21681,-216.80549 78.23828,-318.92774L720.64258,719.63477 566.14062,650.1582c-9.74759,-29.54044 -20.63739,-57.82428 -32.99218,-84.67773l-34.47461,-2.59766c41.3207,84.04286 67.26483,185.87175 87.85351,299.41797C556.31568,778.59382 509.83478,715.50153 450.5332,671.75195 393.43805,629.63016 325.64881,605.78465 251.81641,595.35938c-16.48204,7.73731 -33.21405,16.43457 -49.74219,25.70898 182.00145,10.66405 321.30864,95.8619 372.76321,308.34003C635,890 711.03775,893.67129 749.72392,960.3287ZM609.7793,823.21289c0.12821,0.65669 0.25896,1.31132 0.38672,1.96875 -0.1277,-0.65764 -0.25858,-1.31186 -0.38672,-1.96875zm3.33398,17.41016c0.18997,1.01288 0.37739,2.0323 0.56641,3.04687 -0.18888,-1.01479 -0.37657,-2.03378 -0.56641,-3.04687zm2.69336,14.62109c0.35073,1.92997 0.70122,3.861 1.04883,5.79688 -0.34737,-1.93668 -0.69832,-3.86612 -1.04883,-5.79688zm1.72266,9.59961c1.22767,6.88986 2.4365,13.81701 3.6289,20.7793 -1.19118,-6.96496 -2.40216,-13.88689 -3.6289,-20.7793zM1214.9185,1054.9392A25,25 0 0 1 1225,1075v0a25,25 0 0 1 -25,25 25,25 0 0 1 -25,-25 25,25 0 0 1 14.2808,-22.5853M1260,1035a47.5,20 0 0 1 -47.5,20 47.5,20 0 0 1 -47.5,-20 47.5,20 0 0 1 47.5,-20 47.5,20 0 0 1 47.5,20zM1105,860c0,-20 40,-32.7067 40,0 0,7.45288 -10,7.53267 -10,0 0,-5 -9.929,-5.12392 -10,5 -0.2467,34.99913 65,-10 75,-20 10,10 75.2467,54.99913 75,20 -0.071,-10.12392 -10,-10 -10,-5 0,7.53267 -10,7.45288 -10,0 0,-32.7067 40,-20 40,0 0,50 -85,27.59954 -95,15 -10,12.59954 -95,35 -95,-15zM961.50795,538.87077 924.37106,538.30385 719.57227,636.91016 552.73103,561.52961C548.52182,563.03869 542.70237,564.01471 535,565l9.17732,25.87979L720,670 938.70991,564.54889c7.3233,-8.74993 14.8699,-17.2385 22.79804,-25.67812zM330.91797,0c45.53399,67.911651 74.9488,115.88677 97.1582,159.96484 187.30743,-23.75202 340.51457,-19.21489 490.88477,1.27149C936.8934,122.39682 965.05764,75.350942 1019.584,0ZM806.26169,959.99997l-58.25193,3e-5 6.2176,15h51.21992zm-254.29879,7e-5 -59.3684,-2e-5L492.49921,975h52.34563z"></path></symbol><rect id="XCK" width="164.8" height="260.8" x="-82.4" y="-130.4"></rect></defs><rect width="239" height="335" x="-119.5" y="-167.5" rx="12" ry="12" fill="white" stroke="black"></rect><use width="164.8" height="260.8" x="-82.4" y="-130.4" xlink:href="#CK1"></use><use transform="rotate(180)" width="164.8" height="260.8" x="-82.4" y="-130.4" xlink:href="#CK1"></use><use width="164.8" height="260.8" x="-82.4" y="-130.4" xlink:href="#CK2"></use><use transform="rotate(180)" width="164.8" height="260.8" x="-82.4" y="-130.4" xlink:href="#CK2"></use><use width="164.8" height="260.8" x="-82.4" y="-130.4" xlink:href="#CK3"></use><use transform="rotate(180)" width="164.8" height="260.8" x="-82.4" y="-130.4" xlink:href="#CK3"></use><use width="164.8" height="260.8" x="-82.4" y="-130.4" xlink:href="#CK4"></use><use transform="rotate(180)" width="164.8" height="260.8" x="-82.4" y="-130.4" xlink:href="#CK4"></use><use width="164.8" height="260.8" x="-82.4" y="-130.4" xlink:href="#CK5"></use><use transform="rotate(180)" width="164.8" height="260.8" x="-82.4" y="-130.4" xlink:href="#CK5"></use><use width="164.8" height="260.8" x="-82.4" y="-130.4" xlink:href="#CK6"></use><use transform="rotate(180)" width="164.8" height="260.8" x="-82.4" y="-130.4" xlink:href="#CK6"></use><use xlink:href="#VCK" height="32" width="32" x="-114.4" y="-156"></use><use xlink:href="#SCK" height="26.769" width="26.769" x="-111.784" y="-119"></use><use xlink:href="#SCK" height="55.68" width="55.68" x="-86.595" y="-132.16"></use><g transform="rotate(180)"><use xlink:href="#VCK" height="32" width="32" x="-114.4" y="-156"></use><use xlink:href="#SCK" height="26.769" width="26.769" x="-111.784" y="-119"></use><use xlink:href="#SCK" height="55.68" width="55.68" x="-86.595" y="-132.16"></use></g><use xlink:href="#XCK" stroke="#44F" fill="none"></use></svg>