<?xml version="1.0" encoding="UTF-8" standalone="no"?>
<svg xmlns="http://www.w3.org/2000/svg" xmlns:xlink="http://www.w3.org/1999/xlink" class="card" face="KD" height="3.5in" preserveAspectRatio="none" viewBox="-120 -168 240 336" width="2.5in"><defs><symbol id="VDK" viewBox="-500 -500 1000 1000" preserveAspectRatio="xMinYMid"><path d="M-285 -460L-85 -460M-185 -460L-185 460M-285 460L-85 460M85 -460L285 -460M185 -440L-170 155M85 460L285 460M185 440L-10 -70" stroke="red" stroke-width="80" stroke-linecap="square" stroke-miterlimit="1.5" fill="none"></path></symbol><symbol id="SDK" viewBox="-600 -600 1200 1200" preserveAspectRatio="xMinYMid"><path d="M-400 0C-350 0 0 -450 0 -500C0 -450 350 0 400 0C350 0 0 450 0 500C0 450 -350 0 -400 0Z" fill="red"></path></symbol><symbol id="DK6" preserveAspectRatio="none" viewBox="0 0 1300 2000"><path stroke="#44F" stroke-linecap="round" stroke-linejoin="round" stroke-width="3" fill="none" d="M545,265c2.63987,-9.53087 17.64423,-23.57026 27.90274,-22.03192C591.20689,245.71293 610,280 620,280M630,290c-10,0 -20,10 -20,10M583.00764,271.84099c0.35325,1.98028 0.54101,4.05503 0.54101,6.19243 0,13.80712 -7.83502,25 -17.5,25 -9.66498,0 -17.5,-11.19288 -17.5,-25 0,-4.4285 0.80602,-8.58806 2.21992,-12.19562M120.80243,496.81511c-3.72523,13.38464 -7.11981,15.26559 -16.17249,17.23428M96.462767,508.4914c-3.72523,13.38464 -11.328782,13.37882 -20.381462,15.34751M80.207438,529.94277c-3.72523,13.38464 -7.70036,14.1045 -18.204409,13.751M69.590431,558.28092c-5.031462,10.62704 -11.038508,10.47607 -19.655778,9.54203M181.95213,517.2424C188.17857,532.90274 210,535 210,535M65,590c4.796977,0.89471 7.936894,-1.11044 10,-5M108.20402,551.02627c4.79698,0.89471 7.93689,-2.90642 10,-6.79598M65,590c4.796977,0.89471 7.936894,-1.11044 10,-5M136.02627,532.69089c4.79698,0.89471 6.65405,-2.64985 8.71716,-6.53941M83.686371,566.81445c4.79698,0.89471 7.93689,-2.64985 10,-6.53941"></path><use xlink:href="#SDK" height="120" width="120" transform="translate(650,1000)scale(1,0.972)rotate(0)translate(-60,-60)"></use><use xlink:href="#SDK" height="120" width="120" transform="translate(570,1000)scale(1,0.972)rotate(0)translate(-60,-60)"></use><use xlink:href="#SDK" height="170" width="170" transform="translate(400,640)scale(1,0.972)rotate(-15)translate(-85,-85)" stroke="#44F" stroke-width="42.352" stroke-linejoin="round" stroke-linecap="round"></use><use xlink:href="#SDK" height="150" width="150" transform="translate(435,765)scale(1,0.972)rotate(-10)translate(-75,-75)" stroke="#44F" stroke-width="48" stroke-linejoin="round" stroke-linecap="round"></use><use xlink:href="#SDK" height="130" width="130" transform="translate(453,885)scale(1,0.972)rotate(-5)translate(-65,-65)" stroke="#44F" stroke-width="55.384" stroke-linejoin="round" stroke-linecap="round"></use><use xlink:href="#SDK" height="110" width="110" transform="translate(460,982)scale(1,0.972)rotate(0)translate(-55,-55)" stroke="#44F" stroke-width="65.454" stroke-linejoin="round" stroke-linecap="round"></use><use xlink:href="#SDK" height="100" width="100" transform="translate(450,1070)scale(1,0.972)rotate(10)translate(-50,-50)" stroke="#44F" stroke-width="72" stroke-linejoin="round" stroke-linecap="round"></use><use xlink:href="#SDK" height="90" width="90" transform="translate(1259,1000)scale(1,0.972)rotate(60)translate(-45,-45)"></use><use xlink:href="#SDK" height="90" width="90" transform="translate(1173,1052)scale(1,0.972)rotate(50)translate(-45,-45)"></use><use xlink:href="#SDK" height="90" width="90" transform="translate(1094,1120)scale(1,0.972)rotate(40)translate(-45,-45)"></use><use xlink:href="#SDK" height="90" width="90" transform="translate(1038,1209)scale(1,0.972)rotate(30)translate(-45,-45)"></use></symbol><symbol id="DK5" preserveAspectRatio="none" viewBox="0 0 1300 2000"><path stroke="#44F" stroke-linecap="round" stroke-linejoin="round" stroke-width="6" fill="none" d="M1205,261.18164v97.63672M1190,252.1289V367.8711M1175,350.31054v29.9961M1175,290.40624l-10e-5,39.18749M1175,239.69335v29.99609M1160,368.37304v27.98437M1160,298.35547l10e-5,23.28907M1160,223.64258v27.98437M1145,305.87305v8.2539M520.13446,778.54293C616.39636,754.40581 684.39171,730.93507 767.92578,660h142.39453c-156.78693,297.27564 -107.90582,528.8569 -68.79652,765.2537M525.76562,808.05859C620.59119,784.3522 694.85471,758.78386 778.83594,690h83.00586c-131.84598,281.90144 -89.77828,512.978 -51.06863,736.0453M989.36617,1432.9453C889.2541,1168.1986 806.63756,966.90855 1000.0508,642.94141L1031.6582,590H741.76562l-9.92187,8.75586C653.49449,667.88756 603.995,685.13006 511.71279,708.4804M1017.0969,1421.3227C928.0212,1156.0188 838.46934,972.11685 1025.8105,658.32031L1084.5078,560H730.42383l-18.42969,16.25977c-74.36078,65.61245 -115.84262,79.92381 -204.67112,102.39284M426.29144,0.00702507C462.76227,61.819745 494.76219,122.79563 510,190 730,140 800,325 1000,265 993.85203,157.29694 1056.1226,67.145249 1111.9664,-0.01834848M614.75871,0.03174285C631.48735,41.409963 670.70575,49.676525 670.33977,90.060085c-0.4078,44.996545 -60.97867,44.224205 -60.33467,-0.77015 0.43526,-30.409995 34.90628,-29.556141 34.47696,0.44009 -0.2147,14.998125 -21.76276,14.723075 -21.5481,-0.27505M599.09597,0.04408137C581.14616,40.794213 541.83979,48.101132 541.05119,88.409775c-0.88018,44.990505 59.69066,45.764495 60.33466,0.77015 0.43527,-30.410001 -34.0476,-30.436316 -34.47693,-0.44008 -0.21468,14.998125 21.33342,15.273165 21.54809,0.27505M910,3.4099281c-3.95826,75.0516359 63.50376,83.5710439 57.93973,133.1765019 -5.01372,44.69932 -73.04277,36.17196 -67.76365,-8.49498 3.56795,-30.188676 42.24149,-24.92367 38.72211,4.85427 -1.75972,14.88897 -25.96102,11.85506 -24.20132,-3.03391M910,3.4099281C896.36123,77.247999 828.88472,68.851326 822.73189,118.38296c-5.5443,44.63282 62.48457,53.16184 67.76365,8.49494 3.56796,-30.188691 -35.20268,-34.632196 -38.7221,-4.85425 -1.75969,14.88897 22.44162,17.92288 24.20131,3.0339M491.88439,128.80389C710,100 880,200 1015.6035,156.59474M995.41082,161.9229C1002.4081,149.77019 1007.2538,135.65937 1010,120c8.2712,-0.94453 15.9872,-2.11301 23.2045,-3.47492M951.48825,167.37419c19.21873,-13.48839 30.89168,-37.15278 31.90284,-75.195325 30.42501,-1.54844 52.50071,-5.644041 69.80531,-11.195181M466.51909,71.25512c9.446,5.241489 19.35411,9.278943 29.91392,11.366113 3.98484,11.50305 8.45187,24.996677 17.21275,39.740407 0.76253,1.28327 1.56561,2.56007 2.40931,3.8285M552.62845,123.89293C531.21852,105.07197 528.49488,78.759296 516.72883,54.10509 491.69879,56.297 462.17773,35.159386 433.18294,8.3158803M698.80445,133.69588c9.72323,-12.91028 17.51651,-28.17792 22.5967,-45.675673 10.84696,-3.769131 20.57045,-9.546158 28.66027,-16.603965 6.14753,8.853184 14.18715,16.870197 23.79899,23.219253 0.78534,19.911645 5.34936,38.047205 12.74223,53.992355M757.09165,0.05247459C747.11204,32.94264 733.17361,60.760947 697.08876,62.687238 692.45939,93.201075 680.69719,114.37968 664.04529,129.14604M824.53827,155.37381C808.69153,135.9893 800.32723,110.64434 803.52674,76.109422 768.85613,65.233805 762.11592,34.58927 760.38141,0.04274993M0.12758657,733.28026C160.87224,627.13785 273.94651,577.15097 405.89243,531.56472M1084.5078,560c58.5556,0 155.0482,48.39296 215.6064,93.99597M1060.7977,648.53734c113.0963,71.76959 182.6168,159.56987 221.4243,276.26361M1045.468,674.30181c108.8239,68.97904 172.6262,150.48598 209.0911,262.34741M1300.0713,886.18959C1257.2145,777.44226 1184.7434,691.77084 1076.1707,622.79818M998.7352,762.89986c94.5834,60.40167 136.8968,120.76076 165.8987,221.53143M988.56827,785.96404c89.06273,57.04368 124.76233,109.89846 152.39653,206.61799l1.791,6.26957M973.92304,823.82292c78.20346,50.36129 103.12766,90.66162 128.58086,179.74738l5.9889,20.9627M1045.3692,1281.5918l3.3378,-9.8242c51.421,-130.6216 135.3498,-196.3419 251.2491,-246.2589M1154.0906,1227.9486c35.8119,-56.2116 81.9276,-90.805 145.8142,-120.7726M1113.3793,1249.4302c42.7642,-84.6421 101.8335,-131.0659 186.517,-169.5437M1077.8713,1266.5803c47.6872,-111.379 119.4528,-168.5747 222.0057,-213.8957M970.82826,1200.0024C1041.6679,1050.4636 1161.9459,971.39134 1299.9572,917.59538M981.74106,1237.1891C1046.0578,1080.0411 1161.1748,999.87324 1299.9935,944.44308M1002.2784,1300.143c108.097,-44.3645 209.4748,-97.7156 297.742,-168.6012M970.20322,1198.396c-13.49084,-48.2508 -23.45105,-95.1341 -27.49619,-142.5171 -9.68778,-113.47839 12.8984,-231.1969 104.56837,-384.74413l58.6973,-98.32032 7.0893,-9.68201M1039.892,1410.6058c-19.6674,-59.8732 -42.01691,-121.2993 -58.39794,-173.9602M523.07617,809.99999 814.875,810M527.68361,915.00002 788.32812,915M527.26173,940.00002 783.95703,940M1113.1009,1200.2546l20.7305,13.4466M1142.4633,1161.4646l18.5101,16.0333M1168.8279,1134.5706l16.4611,17.8458M1204.1969,1105.8965l14.1,19.8096M1236.0128,1085.2678l12.3359,21.0656M1278.6107,1062.5982l10.5793,22.2621M1095.3631,1230.4979l21.8236,11.5782M1220,603.86522V160l80,-80.000001M1260,626.74805V176.56836l39.9995,-39.99853M1219.9819,352.66432C1178.5001,366.00542 1146.587,405.67533 1120,460c-1.436,-40.36288 -8.3056,-82.08674 20,-115 -16.063,-8.51062 -30.6803,-9.46321 -50,-35 19.3197,-25.53679 33.937,-26.48938 50,-35 -28.3056,-32.91326 -21.436,-74.63712 -20,-115 26.587,54.32467 58.5001,93.99458 99.9819,107.33568M1148.301,411.43474c0.056,-3.19695 0.1942,-6.27513 0.4412,-9.2238 1.32,-15.75587 4.7198,-26.855 14.0039,-37.65039l24.4941,-28.48243 -33.1953,-17.58789c-8.6379,-4.57661 -14.026,-6.53096 -18.7031,-8.49023 4.6771,-1.95927 10.0652,-3.91362 18.7031,-8.49023l33.1953,-17.58789 -24.4941,-28.48243c-9.2841,-10.79539 -12.6839,-21.89452 -14.0039,-37.65039 -0.247,-2.94867 -0.385,-6.02685 -0.4412,-9.22381M1120,160c-80.2538,116.73042 -51.7455,210.78734 0,300M708.55864,618.37566A42,42 0 0 1 730,655v0a42,42 0 0 1 -42,42 42,42 0 0 1 -41.59831,-36.20511M686.0285,635.59992A19.5,19.5 0 0 1 688,635.5 19.5,19.5 0 0 1 707.5,655 19.5,19.5 0 0 1 688,674.5 19.5,19.5 0 0 1 668.5,655a19.5,19.5 0 0 1 2.09058,-8.7842M797.22857,589.99651A42,42 0 0 1 800,605 42,42 0 0 1 758,647 42,42 0 0 1 716.56355,611.85714M770.45316,589.99459A19.5,19.5 0 0 1 777.5,605 19.5,19.5 0 0 1 758,624.5 19.5,19.5 0 0 1 738.5,605a19.5,19.5 0 0 1 7.05511,-15.01249M883.78962,589.98969A42,42 0 0 1 885,600a42,42 0 0 1 -42,42 42,42 0 0 1 -42,-42 42,42 0 0 1 1.21089,-10.01241M859.73392,589.98859A19.5,19.5 0 0 1 862.5,600 19.5,19.5 0 0 1 843,619.5 19.5,19.5 0 0 1 823.5,600a19.5,19.5 0 0 1 2.76669,-10.01231M971.28962,589.98969A42,42 0 0 1 972.5,600a42,42 0 0 1 -42,42 42,42 0 0 1 -42,-42 42,42 0 0 1 1.21089,-10.01241M947.23392,589.98859A19.5,19.5 0 0 1 950,600 19.5,19.5 0 0 1 930.5,619.5 19.5,19.5 0 0 1 911,600a19.5,19.5 0 0 1 2.76669,-10.01231M1001.9607,639.75786A42,42 0 0 1 973.5,600a42,42 0 0 1 1.21089,-10.01241M1014.0872,619.44875A19.5,19.5 0 0 1 996,600a19.5,19.5 0 0 1 2.76669,-10.01231M960.29395,715.74109A42,42 0 0 1 928.5,675a42,42 0 0 1 42,-42 42,42 0 0 1 28.73891,11.37199M971.15691,694.48893A19.5,19.5 0 0 1 970.5,694.5 19.5,19.5 0 0 1 951,675a19.5,19.5 0 0 1 19.5,-19.5 19.5,19.5 0 0 1 16.78498,9.57456M926.66528,791.82457A42,42 0 0 1 888.5,750a42,42 0 0 1 42,-42 42,42 0 0 1 28.2289,10.9013M935.97174,768.71657A19.5,19.5 0 0 1 930.5,769.5 19.5,19.5 0 0 1 911,750a19.5,19.5 0 0 1 19.5,-19.5 19.5,19.5 0 0 1 17.49368,10.88483M901.23694,871.99353A42,42 0 0 1 900.5,872a42,42 0 0 1 -42,-42 42,42 0 0 1 42,-42 42,42 0 0 1 24.63624,7.98448M907.71978,848.11421A19.5,19.5 0 0 1 900.5,849.5 19.5,19.5 0 0 1 881,830a19.5,19.5 0 0 1 19.5,-19.5 19.5,19.5 0 0 1 16.27796,8.76324M641.0431,663.73365A42,42 0 0 1 655,695a42,42 0 0 1 -42,42 42,42 0 0 1 -42,-42 42,42 0 0 1 0.10369,-2.94948M615.92278,675.72029A19.5,19.5 0 0 1 632.5,695 19.5,19.5 0 0 1 613,714.5 19.5,19.5 0 0 1 593.5,695a19.5,19.5 0 0 1 4.1583,-12.03671M565.70615,693.65027A42,42 0 0 1 575,720a42,42 0 0 1 -42,42 42,42 0 0 1 -15.08264,-2.80161M538.79038,701.37954A19.5,19.5 0 0 1 552.5,720 19.5,19.5 0 0 1 533,739.5 19.5,19.5 0 0 1 513.5,720a19.5,19.5 0 0 1 5.3419,-13.40888M795.15874,246.41185C741.57829,377.81587 800,422.2098 800,500c0,55 -115,90 -115,0 0,-55 75,-55 75,-10 0,35 -62.76516,44.8906 -60,10 3.05186,-38.5082 47.48736,-19.35457 35,-5M782.51711,240.73254C724.7769,376.33225 780.4844,412.89037 780.4844,491.78982 780.4844,546.78982 695,550 700,500M770,235C708.21196,375.32061 760,410 760,490M807.99686,251.82095C758.18508,379.05176 815,423.287 815,500c0,30.82308 -36.11806,55.36475 -67.87165,55.14387M821.04773,256.90115C774.70049,380.24547 830,424.31698 830,500c0,30.82308 -36.11806,55.36475 -67.87165,55.14387M834.32336,261.58294C791.10233,381.37499 845,425.28242 845,500c0,30.82308 -36.11806,55.36475 -67.87165,55.14387M847.74806,266.03904C807.44112,382.47731 860,426.21624 860,500c0,30.82308 -36.11806,55.36475 -67.87165,55.14387M861.46381,269.81818C823.57988,383.43372 875,427.01992 875,500c0,30.82308 -36.11806,55.36475 -67.87165,55.14387M875.46271,272.86832C839.50111,384.22051 890,427.67663 890,500c0,30.82308 -36.11806,55.36475 -67.87165,55.14387M889.73747,275.14186C855.189,384.81584 905,428.1709 905,500c0,30.82308 -36.11806,55.36475 -67.87165,55.14387M904.28317,276.59588C870.62945,385.20061 920,428.48918 920,500c0,30.82308 -36.11806,55.36475 -67.87165,55.14387M919.10028,277.18811C885.80896,385.35825 935,428.6193 935,500c0,30.82308 -36.11806,55.36475 -67.87165,55.14387M934.19481,276.88149C900.71601,385.27657 950,428.5519 950,500c0,30.82308 -36.11806,55.36475 -67.87165,55.14387M949.583,275.63358C915.3379,384.94561 965,428.27835 965,500c0,30.82308 -36.11806,55.36475 -67.87165,55.14387M965.28988,273.40505C929.66341,384.36036 980,427.79294 980,500c0,30.82308 -36.11806,55.36475 -67.87165,55.14387M981.35298,270.15113C943.68034,383.51895 995,427.09125 995,500c0,30.82308 -36.11806,55.36475 -67.87165,55.14387M997.87045,265.68609C957.33493,382.38901 1010,426.14173 1010,500c0,30.82308 -36.11806,55.36475 -67.87165,55.14387M520,532.77778C465.79585,598.50432 405,580 405,540c0,-40 65,-45 65,-5 0,30 -45,25 -45,5 0,-10 0,-10 5,-15M500,534.44444c-25.08277,26.79136 -49.17691,31.34092 -67.46305,18.09251M540,532.22222c-20,40 -57.91528,45.68364 -79.40254,45.12203M560,533.88889c-20,40 -55.86273,43.19595 -77.34999,42.63434M580,535c-20,40 -55.86273,42.08484 -77.34999,41.52323M600,533.33333c-20,40 -55.86273,43.75151 -77.34999,43.1899M620,531.66667c-20,40 -55.86273,45.41817 -77.34999,44.85656M640,530.55556c-20,40 -55.86273,46.52928 -77.34999,45.96767M660,531.11111c-20,40 -55.86273,45.97373 -77.34999,45.41212M680,530c-20,40 -55.86273,47.08484 -77.34999,46.52323M695.52258,538.01257c-20.53037,32.95263 -52.90713,39.03249 -72.87257,38.51066M517.82728,188.82725C514.88589,200.90948 510,221.50505 510,225c0,5 15,20 15,25 0,5 -25,30 -35,45 -10,15 -25,60 -25,70 0,10 -5,20 10,20 15,0 20,15 20,15l-10,15 10,25c0,0 -1.83772,13.67544 -5,20 -5,10 20,15 20,20 0,5 -20.43692,15.01913 -20,20 3.90773,44.54792 -24.38342,56.24006 -25,50M535,350c15,0 10,40 -10,30 -30,-15 -45,5 -15,-5M615,410c2.20477,-6.06312 7.38336,-10 15,-10 25,0 10,45 -30,45 -40,0 -85,-35 -85,-35v-15c40,15 30,45 85,50M495,440c20,0 40,5 60,20 -22.92526,-16.54382 -40,-35 -70,-45M525,210l-5,15c0,0 45,-5 55,-5 30,0 60,45 95,45 -35,0 -65,-55 -95.29027,-56.16109 -9.99266,-0.38305 -13.61398,9.41945 -33.61398,9.41945C536.3817,218.25836 525,210 525,210v0M630,290c-30,0 -45.34554,-24.91813 -65,-25 -10.13785,-0.0422 -30,5 -30,5M595.87082,279.64438C610.87277,299.64662 557.3738,309.07226 545,295M239.86931,597.1156C233.83109,582.48372 222.96633,557.69108 210,535c-20,-35 -45,-15 -35,5 10,20 20,35 20,35M175.29027,539.93465C173.60935,538.91322 154.06592,512.45682 125,500c-35,-15 -33.237561,7.22236 -10,25 11.23211,8.593 50,65 50,65M105,515.29027C85,495 60,500 80,530c20,30 55,75 55,75M80,530c-15,-20 -30,0 -15,20 18.973666,25.29822 40,80 40,80M72.031916,560.58055C45,530 44.063832,561.80699 54.063832,581.80699 59.063831,591.80699 75,645 80,655l10.701172,21.40234M1037.5644,687.8699c4.7228,7.86815 11.4714,18.19567 -8.3426,39.34101 -9.1264,9.73964 -2.6874,24.1805 10.7782,7.78909 20,-35 35,-15 45.124,-20.98813 -2.6894,9.83243 20.2095,20.5981 -10.0912,47.185C1065,770 1070,785 1085,770c21.1313,-34.32885 35.4708,-13.85011 45.7847,-19.50475 -3.0087,9.73945 19.5268,21.24648 -11.6252,46.83065 -10.3147,8.47111 -5.8067,23.62626 9.6747,9.12363 29.05,-27.94811 37.8082,-4.53242 49.209,-7.42596 -5.3504,8.67657 13.5882,25.45717 -22.9752,42.43109 -12.1064,5.62018 -11.5346,21.42125 6.0078,12.39993 31.1715,-23.04358 37.0029,1.26683 48.6718,-0.21194 -6.3705,7.95777 10.3757,26.92678 -27.9878,39.30574 -12.7024,4.09875 -14.0656,19.85129 5.6553,12.03573 35.6899,-18.74104 37.5728,6.18798 49.3282,6.58763 -7.5572,6.84089 5.9522,28.23612 -33.8938,34.34339 -13.1932,2.02216 -17.0493,17.35616 3.6651,12.78314M1026.4931,707.76203c4.5725,14.6211 -28.11348,34.81884 -9.7014,47.17428 20.4797,13.74293 35.3028,-2.51702 53.2083,-19.93631 -14.9048,20.04709 -30.6967,38.70115 -10,55 19.4354,16.73082 36.5198,-2.19539 54.984,-19.02122 -15.5509,19.55013 -29.984,39.02122 -17.5939,56.48001 12.7916,18.0245 38.1415,-0.88827 60.2289,-12.5578 -19.9486,15.03623 -45.2813,28.28577 -32.619,50.09901 12.5467,21.61399 39.1886,10.78859 62.5364,1.90541C1165.9,879.3914 1144.1675,892.81609 1155,915c10.3717,21.24013 33.2374,11.17453 57.7024,6.12551 -23.9263,7.68906 -52.1643,19.08863 -29.3024,51.67133"></path></symbol><symbol id="DK4" preserveAspectRatio="none" viewBox="0 0 1300 2000"><path fill="black" d="M1084.5078,560l-58.6973,98.32031c-187.34106,313.79654 -97.78858,497.69809 -8.7128,763.00199l23.0918,-10.2657 -57.76177,-175.5117C1046.8746,1079.4869 1161.6683,999.67987 1300,944.44336V917.61523C1161.9788,971.41071 1041.6716,1050.4551 970.82812,1200.002l0.79493,2.7089 -1.41993,-4.3144c-13.49084,-48.2508 -23.45095,-95.1346 -27.49609,-142.5176 -9.68778,-113.47837 12.89838,-231.1969 104.56837,-384.74413l58.6973,-98.32032 -29.7813,49.91602C1184.6867,691.72775 1257.1346,777.35088 1300,886.01562V653.91602C1247.8871,614.68957 1169.3267,573.4428 1112.0195,562.9043l-0.064,0.10742zM220,625c-38.24283,16.86912 -50.72991,39.82024 -50.18359,65.84961 -13.28958,-0.34787 -27.53429,4.81132 -43.6211,20.5957C129.14064,701.54104 129.6134,690.78569 130,680 91.688342,696.89948 79.224063,719.90293 79.818359,745.99023 70.667665,746.73051 61.030237,750.27464 50.632812,758.20508 54.075525,747.82091 54.590337,736.42898 55,725 16.462692,741.99901 4.0778842,765.17375 4.8300781,791.45117 3.2357829,791.65966 1.6258824,791.96264 0,792.35352v13.44921C6.4550922,804.97998 13.029216,804.84937 22.259766,805.2168 13.210678,807.83817 6.8373963,809.67947 0,811.01562v13.97071c15.19651,7.2e-4 32.096716,-6.11846 51.394531,-20.84766 -11.463177,-5.78838 -22.949782,-11.43728 -35.183593,-12.78125 13.190575,-5.09022 21.792967,-11.76219 27.439453,-19.45117 22.216707,12.23644 47.947119,11.84991 80.484379,-12.98437 -10.80315,-5.45511 -21.62773,-10.78362 -33.078129,-12.50586 19.824819,-7.61171 29.327649,-18.78077 34.013669,-31.60743 23.0285,14.30487 49.76513,15.29249 84.06446,-10.88671 -9.73511,-4.9158 -19.48738,-9.73402 -29.69922,-11.9004 17.50466,-6.37097 27.30161,-15.39824 32.84765,-25.88867 22.52767,13.01392 48.64459,13.13452 81.85157,-12.21093 -23.7779,-12.00676 -47.65411,-23.4465 -78.10938,3.05664C219.11573,646.92693 219.60641,635.98055 220,625Zm-15,25c-9.29458,18.58916 -14.42789,24.36992 -31.14258,41.13086 -0.4679,-0.0505 -0.93611,-0.10298 -1.40625,-0.14063C185.52163,669.58711 190.88484,664.11516 205,650Zm52.2793,4.80664c2.37707,0.0159 4.92783,0.0822 7.7207,0.19336 -19.15353,5.54847 -26.53952,7.60643 -51.5293,8.73047 0.20119,-0.43709 0.38211,-0.88071 0.57032,-1.32227 19.61931,-5.65292 27.96423,-7.70402 43.23828,-7.60156zm-85,50c2.37707,0.0159 4.92783,0.0822 7.7207,0.19336 -19.93451,5.77471 -27.00557,7.77529 -54.58008,8.86914 0.0526,-0.15236 0.0952,-0.30813 0.14649,-0.46094 22.23837,-6.43816 30.55106,-8.70998 46.71289,-8.60156zM115,705c-9.24144,18.48288 -14.36538,24.30049 -30.851562,40.83984 -0.535247,-0.007 -1.072902,-8e-5 -1.611329,0.0117C95.545291,724.565 100.91555,719.08445 115,705ZM40,750C30.712732,768.57454 25.581531,774.36152 8.8984375,791.0918 8.3776504,791.1133 7.853986,791.1519 7.3300781,791.1914 20.490717,769.61957 25.84063,764.15937 40,750Zm47.279297,9.80664c2.377069,0.0159 4.92783,0.0822 7.720703,0.19336 -18.541551,5.37119 -26.021403,7.47382 -49.138672,8.62305 0.418893,-0.68737 0.813976,-1.38301 1.19336,-2.08399 17.575675,-5.02058 25.720701,-6.82972 40.224609,-6.73242zM523.07617,810 527.68359,915H788.32812L814.875,810Zm467.70899,71.87109 -2.30469,9.46289c-13.93563,57.21716 -16.33715,109.63622 -11.89649,161.65232 0.99746,11.6837 2.41448,23.3868 4.16602,35.1309l2.11914,14.2109 8.61524,-11.498c21.29782,-28.4219 44.77012,-53.8249 69.99222,-76.6211l2.7832,-2.5156 -1.043,-3.6055c-17.2201,-59.46375 -30.2536,-90.30006 -65.01563,-119.90235zm7.12695,22.38282c26.41369,25.13479 37.62049,51.97746 52.73439,103.68749 -21.3047,19.5174 -41.3226,40.9825 -59.90431,64.4629 -0.85527,-6.8316 -1.62148,-13.6472 -2.20117,-20.4375 -4.08728,-47.8767 -2.1436,-95.76657 9.37109,-147.71289z"></path></symbol><symbol id="DK3" preserveAspectRatio="none" viewBox="0 0 1300 2000"><path fill="#44F" d="M600,445c-40,0 -85,-35 -85,-35v-15c40,15 30,45 85,50M525,210l-5,15c0,0 45,-5 55,-5 30,0 60,45 95,45 -35,0 -65,-55 -95.29027,-56.16109 -9.99266,-0.38305 -13.61398,9.41945 -33.61398,9.41945C536.3817,218.25836 525,210 525,210ZM574.66702,283.06149a11.248988,20.384647 0 0 1 -11.24899,20.38465 11.248988,20.384647 0 0 1 -11.24899,-20.38465 11.248988,20.384647 0 0 1 11.24899,-20.38464 11.248988,20.384647 0 0 1 11.24899,20.38464zM489.00886,572.69843l133.64115,3.8248c19.96544,0.52183 52.3422,-5.55803 72.98839,-38.35624 8.82161,11.65309 21.89723,16.73002 35.87243,16.96944l-1.087,4.86357 -18.42969,16.25977c-74.36078,65.61245 -115.84262,79.92381 -204.95079,102.13167 -5.83569,-35.70851 -11.98026,-70.7978 -18.03449,-105.69301zM800,605c0,23.19596 -18.80404,42 -42,42 -29.83941,0.63699 -35.20181,-40.06181 -49.39258,-28.5957C721.82111,625.84521 730,639.83231 730,655c0,23.19596 -18.80404,42 -42,42 -20.92772,0 -38.65526,-15.40633 -41.58398,-36.11914 -1.7829,0.98077 -3.56529,1.93576 -5.34961,2.87695C649.93331,671.72327 655,683.07962 655,695c0,23.19596 -18.80404,42 -42,42 -17.87462,0 -33.13143,-11.17088 -39.19531,-26.9082C574.58751,713.31547 575,716.63884 575,720c0,23.19596 -18.80404,42 -42,42 -5.15691,0 -10.26911,-0.94888 -15.08203,-2.80078l2.2168,19.34375C616.39667,754.40585 684.39171,730.93507 767.92578,660h142.39453c-156.78693,297.27564 -107.90617,528.8571 -68.79687,765.2539 30.59918,0.3778 51.77184,10.1961 52.52911,40.46l95.31268,-32.7686C915.03354,1236.3749 850.34937,1074.7875 901.13086,871.99414 900.92041,871.99708 900.71047,872 900.5,872c-23.19596,0 -42,-18.80404 -42,-42 0,-23.19596 18.80404,-42 42,-42 8.80364,0 17.3828,2.76816 24.52734,7.9082 0.51273,-1.36306 1.02957,-2.72657 1.55274,-4.09375C905.00303,789.79234 888.5,771.68115 888.5,750c0,-23.19596 18.80404,-42 42,-42 10.39004,0 20.40683,3.85348 28.12109,10.80859 0.51029,-1.03432 1.01901,-2.06867 1.53516,-3.10547C941.54316,710.97321 928.5,694.21691 928.5,675c0,-23.19596 18.80404,-42 42,-42 10.66714,0 20.93338,4.05835 28.7168,11.35156 0.28021,-0.4708 0.5526,-0.93884 0.834,-1.41015l1.9023,-3.18555C984.93904,633.95822 973.5,617.97535 973.5,600c0,-3.37003 0.40653,-6.72693 1.20898,-10h-3.41796c0.80242,3.27303 1.20899,6.63002 1.20898,10 0,23.19596 -18.80404,42 -42,42 -23.19596,0 -42,-18.80404 -42,-42 0,-3.37003 0.40653,-6.72693 1.20898,-10h-5.91796c0.80242,3.27303 1.20899,6.63002 1.20898,10 0,23.19596 -18.80404,42 -42,42 -23.19596,0 -42,-18.80404 -42,-42 0,-3.37003 0.40653,-6.72693 1.20898,-10 -9.20029,-1.20745 -2.26146,7.46758 -2.20898,15zm175.10352,-15 55.56638,1.6543 0.9883,-1.6543zM998.7352,762.89986c94.5834,60.40167 136.8968,120.76076 165.8987,221.53143L1183.4,972.79684c-22.8619,-32.5827 5.3761,-43.98227 29.3024,-51.67133 -24.465,5.04902 -47.3307,15.11462 -57.7024,-6.12551 -10.8325,-22.18391 10.9,-35.6086 32.5364,-48.09459 -23.3478,8.88318 -49.9897,19.70858 -62.5364,-1.90541 -12.6623,-21.81324 12.6704,-35.06278 32.619,-50.09901 -22.0874,11.66953 -47.4373,30.5823 -60.2289,12.5578C1085,810 1099.4331,790.52891 1114.984,770.97878 1096.5198,787.80461 1079.4354,806.73082 1060,790c-20.6967,-16.29885 -4.9048,-34.95291 10,-55 -17.9055,17.41929 -32.7286,33.67924 -53.2083,19.93631 -18.41208,-12.35544 14.2739,-32.55318 9.7014,-47.17428m228.066,228.88719C1218.0942,824.78779 1154.2919,743.28085 1045.468,674.30181l-7.9036,13.56809c4.7228,7.86815 11.4714,18.19567 -8.3426,39.34101 -9.1264,9.73964 -2.6874,24.1805 10.7782,7.78909 20,-35 35,-15 45.124,-20.98813 -2.6894,9.83243 20.2095,20.5981 -10.0912,47.185C1065,770 1070,785 1085,770c21.1313,-34.32885 35.4708,-13.85011 45.7847,-19.50475 -3.0087,9.73945 19.5268,21.24648 -11.6252,46.83065 -10.3147,8.47111 -5.8067,23.62626 9.6747,9.12363 29.05,-27.94811 37.8082,-4.53242 49.209,-7.42596 -5.3504,8.67657 13.5882,25.45717 -22.9752,42.43109 -12.1064,5.62018 -11.5346,21.42125 6.0078,12.39993 31.1715,-23.04358 37.0029,1.26683 48.6718,-0.21194 -6.3705,7.95777 10.3757,26.92678 -27.9878,39.30574 -12.7024,4.09875 -14.0656,19.85129 5.6553,12.03573 35.6899,-18.74104 37.5728,6.18798 49.3282,6.58763 -7.5572,6.84089 5.9522,28.23612 -33.8938,34.34339 -13.1932,2.02216 -17.0493,17.35616 3.6651,12.78314zM1142.7558,998.8516l-1.791,-6.26957C1113.3306,895.8625 1077.631,843.00772 988.56827,785.96404l-14.64523,37.85888c78.20346,50.36129 103.12766,90.66162 128.58086,179.74738l5.9889,20.9627"></path></symbol><symbol id="DK2" preserveAspectRatio="none" viewBox="0 0 1300 2000"><path fill="red" d="M750.06055,71.416016c-8.08982,7.057807 -17.8132,12.834384 -28.66016,16.603515 -5.08019,17.497749 -12.87292,32.765689 -23.08984,45.496089 -57.34444,-8.46649 -118.20953,-13.38592 -182.86524,-7.31054 -0.23353,-1.28345 -1.0363,-2.56048 -1.79883,-3.84375C504.8856,107.6176 500.41843,94.124144 496.43359,82.621094 485.87378,80.533924 475.96492,76.497562 466.75586,72.613281 485.60878,111.4191 500.83584,149.58268 510,190c220,-50 290,135 490,75 -3.10327,-54.36459 11.2261,-104.25691 33.2832,-148.72656 -7.2955,1.61396 -15.012,2.78203 -23.2832,3.72656 -2.7462,15.65937 -7.5914,29.77038 -15.18164,42.07617 -62.43846,13.15325 -131.21343,0.63488 -208.16797,-13.49023 -7.44024,-15.9039 -12.00372,-34.03953 -12.78906,-53.951174C764.24949,88.28571 756.20808,80.2692 750.06055,71.416016ZM1300,136.57031l-40,39.99805 1.2617,450.92969c14.2413,8.90673 27.2118,17.77157 38.7383,26.43164zm-186.9375,426.5625 -7.0898,9.68164 -58.6973,98.32032zm-88.0039,26.09375c-8.7637,0.25357 -24.385,4.42685 -26.29102,0.76172C996.95705,593.01418 996,596.4738 996,600c0,10.22139 7.8934,18.70867 18.0879,19.44922 -2.5656,-4.93351 19.2511,-23.80086 16.6855,-28.73438 -0.6353,-1.22171 -2.7936,-1.5728 -5.7148,-1.48828zm-279.50391,0.76172C741.08573,593.69291 738.5,599.19518 738.5,605c0,10.76955 8.73045,19.5 19.5,19.5 10.76955,0 19.5,-8.73045 19.5,-19.5 0,-5.80106 -2.58284,-11.30117 -7.04688,-15.00586zm80.71289,0C824.45705,593.01418 823.5,596.4738 823.5,600c0,10.76955 8.73045,19.5 19.5,19.5 10.76955,0 19.5,-8.73045 19.5,-19.5 0,-3.5258 -0.9555,-6.98606 -2.76562,-10.01172zm87.5,0C911.95705,593.01418 911,596.4738 911,600c0,10.76955 8.73045,19.5 19.5,19.5 10.76955,0 19.5,-8.73045 19.5,-19.5 0,-3.5258 -0.9555,-6.98606 -2.76562,-10.01172zM688,635.5c-0.65843,0 -1.31564,0.033 -1.9707,0.0996l-15.43946,10.61523C669.21531,648.93901 668.5,651.9487 668.5,655c0,10.76955 8.73045,19.5 19.5,19.5 10.76955,0 19.5,-8.73045 19.5,-19.5 0,-10.76955 -8.73045,-19.5 -19.5,-19.5zm282.5,20c-10.76955,0 -19.5,8.73045 -19.5,19.5 0,10.76955 8.73045,19.5 19.5,19.5 0.21902,0 0.43736,-0.005 0.65625,-0.0117l16.12891,-29.41406C983.77607,659.13997 977.39413,655.5 970.5,655.5Zm-354.57812,20.2207 -18.26368,7.24219C594.96412,686.3967 593.5,690.63546 593.5,695c0,10.76955 8.73045,19.5 19.5,19.5 10.76955,0 19.5,-8.73045 19.5,-19.5 0,-9.64087 -7.04617,-17.83427 -16.57812,-19.2793zM778.83594,690c-83.98123,68.78386 -158.24572,94.35221 -254.41602,119.0293l290.46875,0.77343C827.24941,770.71955 842.71522,730.89476 861.8418,690ZM538.79102,701.37891 518.8418,706.5918C515.41163,710.21363 513.5,715.01164 513.5,720c0,10.76955 8.73045,19.5 19.5,19.5 10.76955,0 19.5,-8.73045 19.5,-19.5 0,-8.53906 -5.55507,-16.08548 -13.70898,-18.62109zM930.5,730.5c-10.76955,0 -19.5,8.73045 -19.5,19.5 0,10.76955 8.73045,19.5 19.5,19.5 1.85186,0 3.6952,-0.26356 5.47266,-0.7832l12.02148,-27.33203C944.7122,734.72058 937.9285,730.5 930.5,730.5Zm-30,80c-10.76955,0 -19.5,8.73045 -19.5,19.5 0,10.76955 8.73045,19.5 19.5,19.5 2.47269,0 4.92374,-0.47122 7.2207,-1.38672l9.05664,-28.84961C913.16876,813.79272 907.05386,810.5 900.5,810.5Zm73.37891,13.07227c-30.28734,84.62012 -37.40112,159.34009 -31.17188,232.30663 4.04514,47.383 14.00524,94.2663 27.80859,143.3203 35.46708,-73.4062 82.79598,-130.262 138.20118,-174.9765l-6.2129,-20.6524c-25.4532,-89.08574 -50.378,-129.3864 -128.62499,-179.99803zm323.72849,121.93359 -9.2754,3.73633 11.668,28.96484v-26.76172zm-97.8262,46.55078 -8.6874,4.95313 36.7324,64.40043 8.6855,-4.9551zM1300,1054.0137l-21.3887,8.584 10.5782,22.2617 10.8105,-4.8379zm-191.6797,2.7285 -7.4141,6.7109 49.4766,54.6621 7.4141,-6.709zm127.6934,28.5254 -31.8164,20.6289 14.0996,19.8105 30.0527,-19.373zm-67.1856,49.3027 -26.3652,26.8945 18.5098,16.0332 24.3164,-25.082zm-133.6465,3.5547 -5.5878,8.293 61.8281,41.6562 5.5879,-8.293zm77.92,62.1289 -17.7383,30.2441 21.8242,11.5782 16.6445,-28.375zm-129.3516,32.9102 -3.76953,9.2617 69.16793,28.1601 3.7715,-9.2617z"></path></symbol><symbol id="DK1" preserveAspectRatio="none" viewBox="0 0 1300 2000"><path fill="#FC4" d="M426.28125 0C462.75286 61.814306 494.76186 122.79415 510 190C730 140 800 325 1000 265C993.85231 157.30184 1056.1153 67.162634 1111.957 0L426.28125 0zM1300 80L1220 160L1220.459 604.0918C1249.6163 619.40474 1277.3392 636.87015 1300 653.91992L1300 80zM730.42383 560L711.99414 576.25977C637.63336 641.87222 596.15077 656.18331 507.32227 678.65234L525.76562 808.05859C620.5912 784.3522 694.85471 758.78386 778.83594 690L861.8418 690C825.05834 768.64714 801.82364 843.33497 788.26367 915L527.68359 915L527.26172 940L783.89258 940C755.88896 1115.1226 784.12517 1272.4822 810.77344 1426.0449C859.05971 1422.4859 905.7181 1420.3939 895 1470L1017.0977 1421.3223C928.02192 1156.0184 838.46944 972.11685 1025.8105 658.32031L1084.5078 560L730.42383 560zM1060.7969 648.53711L1045.4688 674.30273C1154.2925 743.28177 1218.0937 824.78701 1254.5586 936.64844L1282.2227 924.80078C1243.4152 808.10704 1173.8932 720.3067 1060.7969 648.53711zM1037.5645 687.86914L1026.4922 707.76172C1031.0647 722.38282 998.37896 742.58011 1016.791 754.93555C1037.2707 768.67848 1052.0945 752.41929 1070 735C1055.0952 755.04709 1039.3033 773.70115 1060 790C1079.4354 806.73082 1096.5202 787.80435 1114.9844 770.97852C1099.4335 790.52865 1085.0005 810.00019 1097.3906 827.45898C1110.1822 845.48348 1135.5317 826.56992 1157.6191 814.90039C1137.6705 829.93662 1112.3377 843.18676 1125 865C1137.5467 886.61399 1164.1893 875.78943 1187.5371 866.90625C1165.9007 879.39224 1144.1675 892.81609 1155 915C1165.3717 936.24013 1188.2381 926.17402 1212.7031 921.125C1188.7768 928.81406 1160.5385 940.21416 1183.4004 972.79688L1206.5137 958.69922C1185.7993 963.27224 1189.6564 947.93818 1202.8496 945.91602C1242.6956 939.80875 1229.1869 918.41316 1236.7441 911.57227C1224.9887 911.17262 1223.1059 886.24333 1187.416 904.98438C1167.6951 912.79994 1169.0574 897.04797 1181.7598 892.94922C1220.1233 880.57026 1203.3775 861.60035 1209.748 853.64258C1198.0791 855.12135 1192.2477 830.81189 1161.0762 853.85547C1143.5338 862.87679 1142.962 847.07526 1155.0684 841.45508C1191.6318 824.48116 1172.6926 807.70001 1178.043 799.02344C1166.6422 801.91698 1157.884 778.50111 1128.834 806.44922C1113.3526 820.95185 1108.8455 805.79728 1119.1602 797.32617C1150.3122 771.742 1127.7765 760.23554 1130.7852 750.49609C1120.4713 756.15073 1106.1313 735.67115 1085 770C1070 785 1065.0004 770.0004 1075.0332 761.19727C1105.3339 734.61037 1082.4336 723.84415 1085.123 714.01172C1074.999 719.99985 1060 700 1040 735C1026.5344 751.39141 1020.0963 736.95058 1029.2227 727.21094C1049.0367 706.0656 1042.2873 695.73729 1037.5645 687.86914zM1300 1025.4961C1184.0819 1075.4151 1100.1335 1141.1323 1048.707 1271.7676L1045.5469 1281.6172C1031.3758 1287.9873 1016.8883 1294.1464 1002.2578 1299.9648C1014.443 1335.6798 1027.6845 1373.4429 1040.1895 1411.0566C1119.216 1376.5469 1200.5097 1332.3044 1300 1266.6055L1300 1025.4961z"></path></symbol><rect id="XDK" width="164.8" height="260.8" x="-82.4" y="-130.4"></rect></defs><rect width="239" height="335" x="-119.5" y="-167.5" rx="12" ry="12" fill="white" stroke="black"></rect><use width="164.8" height="260.8" x="-82.4" y="-130.4" xlink:href="#DK1"></use><use transform="rotate(180)" width="164.8" height="260.8" x="-82.4" y="-130.4" xlink:href="#DK1"></use><use width="164.8" height="260.8" x="-82.4" y="-130.4" xlink:href="#DK2"></use><use transform="rotate(180)" width="164.8" height="260.8" x="-82.4" y="-130.4" xlink:href="#DK2"></use><use width="164.8" height="260.8" x="-82.4" y="-130.4" xlink:href="#DK3"></use><use transform="rotate(180)" width="164.8" height="260.8" x="-82.4" y="-130.4" xlink:href="#DK3"></use><use width="164.8" height="260.8" x="-82.4" y="-130.4" xlink:href="#DK4"></use><use transform="rotate(180)" width="164.8" height="260.8" x="-82.4" y="-130.4" xlink:href="#DK4"></use><use width="164.8" height="260.8" x="-82.4" y="-130.4" xlink:href="#DK5"></use><use transform="rotate(180)" width="164.8" height="260.8" x="-82.4" y="-130.4" xlink:href="#DK5"></use><use width="164.8" height="260.8" x="-82.4" y="-130.4" xlink:href="#DK6"></use><use transform="rotate(180)" width="164.8" height="260.8" x="-82.4" y="-130.4" xlink:href="#DK6"></use><use xlink:href="#VDK" height="32" width="32" x="-114.4" y="-156"></use><use xlink:href="#SDK" height="26.769" width="26.769" x="-111.784" y="-119"></use><use xlink:href="#SDK" height="55.68" width="55.68" x="-89.68" y="-132.16"></use><g transform="rotate(180)"><use xlink:href="#VDK" height="32" width="32" x="-114.4" y="-156"></use><use xlink:href="#SDK" height="26.769" width="26.769" x="-111.784" y="-119"></use><use xlink:href="#SDK" height="55.68" width="55.68" x="-89.68" y="-132.16"></use></g><use xlink:href="#XDK" stroke="#44F" fill="none"></use></svg>