<?xml version="1.0" encoding="UTF-8" standalone="no"?>
<svg xmlns="http://www.w3.org/2000/svg" xmlns:xlink="http://www.w3.org/1999/xlink" class="card" face="KS" height="3.5in" preserveAspectRatio="none" viewBox="-120 -168 240 336" width="2.5in"><defs><symbol id="VSK" viewBox="-500 -500 1000 1000" preserveAspectRatio="xMinYMid"><path d="M-285 -460L-85 -460M-185 -460L-185 460M-285 460L-85 460M85 -460L285 -460M185 -440L-170 155M85 460L285 460M185 440L-10 -70" stroke="black" stroke-width="80" stroke-linecap="square" stroke-miterlimit="1.5" fill="none"></path></symbol><symbol id="SSK" viewBox="-600 -600 1200 1200" preserveAspectRatio="xMinYMid"><path d="M0 -500C100 -250 355 -100 355 185A150 150 0 0 1 55 185A10 10 0 0 0 35 185C35 385 85 400 130 500L-130 500C-85 400 -35 385 -35 185A10 10 0 0 0 -55 185A150 150 0 0 1 -355 185C-355 -100 -100 -250 0 -500Z" fill="black"></path></symbol><symbol id="SK6" preserveAspectRatio="none" viewBox="0 0 1300 2000"><path stroke="#44F" stroke-linecap="round" stroke-linejoin="round" stroke-width="3" fill="none" d="M1212.5657,936.72229c0.4232,7.11583 2.9663,10.16941 6.5451,11.34445M1215,973.2617c3.5713,8.68812 9.2098,17.5816 0,25M1209.9927,1007.8226c3.5713,8.6881 9.2098,17.5816 0,25M1210.5058,1045.2815c3.5713,8.6881 9.2098,17.5816 0,25M1245,978.2617c2.7794,6.38969 1.183,10.59148 0,15M1252.4405,942.8553c2.7794,6.38969 1.183,10.59148 0,15M1242.1778,1012.3853c2.7794,6.3897 1.183,10.5914 0,15M1240.6384,1048.3048c2.7794,6.3897 1.183,10.5914 0,15M1227.0587,944.2695c3.5713,8.68812 9.2098,17.5816 0,25M1240,516.59376v-5.34375M1240,651.16603V516.59376M1240.0001,670.84574 1240,651.16603M1240.0001,771.51955V670.84574M1240,857.66797l10e-5,-25.02928M1250,881.35545V805.89449M1240,880.87303V857.66797M1250,792.00581V153.26171M1240,511.25001V143.26169M1270,881.12109V173.2617M1260,881.66016V163.26171M1230.0292,323.71477V133.29092M1230.0292,463.29096V393.8886M1230.0292,616.69916V558.95695M1230.0292,734.39837V616.69916M1230.0292,747.21867v-12.8203M1220,219.24999V186.21093M725,325c6.58285,1.07959 35,-45 60,-45 25,0 35,10 40,20M745.51799,332.83796c10.71027,8.48115 21.00675,16.98904 34.74258,16.84981 18.41631,-0.18667 36.82645,-7.64547 45.65164,-18.06598M891.43678,316.7734c10,0 30,-30 45,-30 15,0 30,10 35,15M971.43678,331.7734c-15.33043,12.12565 -33.90591,12.94892 -55,5M814.58273,301.9474c0.53759,2.16218 0.82778,4.46653 0.82778,6.85802 0,12.42641 -7.83502,22.5 -17.5,22.5 -9.66498,0 -17.5,-10.07359 -17.5,-22.5 0,-4.05859 0.83579,-7.86619 2.29816,-11.15381M954.73705,302.0883c1.08966,2.93333 1.69973,6.21762 1.69973,9.6851 0,12.42641 -7.83502,22.5 -17.5,22.5 -9.66498,0 -17.5,-10.07359 -17.5,-22.5 0,-3.15279 0.50436,-6.15413 1.415,-8.87791"></path><use xlink:href="#SSK" height="90" width="90" transform="translate(495,612)scale(1,0.972)rotate(-10)translate(-45,-45)"></use><use xlink:href="#SSK" height="90" width="90" transform="translate(528,751)scale(1,0.972)rotate(-5)translate(-45,-45)"></use><use xlink:href="#SSK" height="90" width="90" transform="translate(839,640)scale(1,0.972)rotate(20)translate(-45,-45)"></use><use xlink:href="#SSK" height="90" width="90" transform="translate(795,749)scale(1,0.972)rotate(20)translate(-45,-45)"></use></symbol><symbol id="SK5" preserveAspectRatio="none" viewBox="0 0 1300 2000"><path stroke="#44F" stroke-linecap="round" stroke-linejoin="round" stroke-width="6" fill="none" d="M1111.8118,709.36741c-15.1149,28.54652 -58.0356,-21.03855 -94.1321,-9.88575M1058.6491,631.05829c7.2135,37.08524 71.1892,51.50592 53.1627,78.30912 -33.7627,4.05562 -57.282,-19.01217 -79.214,-46.28322 35.4482,3.66566 67.0808,12.2939 79.214,46.28322M1058.6491,631.05829c-5.8388,12.3541 -11.954,24.744 -0.7171,34.88604M1017.6797,699.48166c5.4853,-18.04094 16.5201,-20.09481 30.473,-17.74272M1155,635.15984c-16.2505,27.9157 -57.1428,-23.35501 -93.6586,-13.66258M1105.0289,554.7765c5.7165,37.34528 69.0607,54.32662 49.9711,80.38334 -33.8985,2.69482 -56.4712,-21.29997 -77.289,-49.4308 35.2721,5.08798 66.5322,14.98111 77.289,49.4308M1105.0289,554.7765c-6.3309,12.10934 -12.9393,24.24334 -2.1192,34.829M1061.3414,621.49726c6.2063,-17.8058 17.6767,-19.40846 31.5237,-16.49726M1078.6497,777.46587c-10.1699,30.65838 -60.7216,-11.11963 -94.46771,5.86661M1013.2331,709.06082c13.2656,35.37477 78.747,38.98283 65.4166,68.40505 -32.6221,9.60026 -59.6422,-9.24635 -85.79422,-32.50129 35.56502,-2.26556 68.19072,0.99567 85.79422,32.50129M1013.2331,709.06082c-3.7085,13.15151 -7.6837,26.38419 5.0799,34.52163M984.18199,783.33248c2.41652,-18.70092 13.30545,-22.55602 27.45521,-22.55114M1048.1909,855.12404c-8.7949,31.08075 -61.15644,-8.40527 -94.11294,10.06652M979.79371,789.69917c14.82729,34.74912 80.40449,35.43836 68.39719,65.42487 -32.1624,11.04309 -59.99474,-6.5819 -87.15619,-28.64949 35.42895,-3.84668 68.16749,-2.04118 87.15619,28.64949M979.79371,789.69917c-3.11937,13.30358 -6.50147,26.70011 6.61181,34.26125M954.07796,865.19056c1.58156,-18.78996 12.64212,-22.25104 26.77806,-22.87611M1110.3579,706.00695c1.4131,-2.45759 2.8478,-4.92127 4.3044,-7.39127M1108.2919,709.62281c0.6834,-1.20383 1.3721,-2.40911 2.066,-3.61586M1104.211,716.90452c1.3393,-2.4215 2.6995,-4.84866 4.0809,-7.28171M1079.5778,765.85122c7.2949,-16.09916 15.476,-32.39059 24.6332,-48.9467M1076.1346,773.58575c1.1252,-2.57343 2.2728,-5.1515 3.4432,-7.73453M1073.9684,778.5992c0.7126,-1.66924 1.4347,-3.34036 2.1662,-5.01345M1070.3555,787.24119c1.1766,-2.87532 2.3807,-5.75584 3.6129,-8.64199M1049.3728,847.4885c5.7466,-19.92272 12.6791,-39.95538 20.9827,-60.24731M1047.4783,854.20802c0.6166,-2.23859 1.2481,-4.47836 1.8945,-6.71952M1047.1473,855.41458c0.1098,-0.40215 0.2202,-0.80434 0.331,-1.20656M1045.8041,860.4191c0.4396,-1.6676 0.8873,-3.33574 1.3432,-5.00452M1033.8029,917.04185c3.0708,-18.88966 7.0182,-37.72114 12.0012,-56.62275M984.54051,860.61153c-2.27731,9.43323 -4.33228,18.84803 -6.17834,28.25106M1009.7046,779.44805c-3.9634,10.40993 -7.6199,20.77584 -10.98672,31.10623M1045.4735,700.37675c-5.2661,10.03528 -10.2234,20.01296 -14.8863,29.94008M1090.7854,624.21331c-6.6924,10.06569 -13.0603,20.06052 -19.1167,29.99092M1136.9488,560.21256l-7.7476,10.1683c-2.9713,3.89965 -5.8931,7.78759 -8.7662,11.66416M1106.0804,683.97118c8.2491,-13.731 17.149,-27.63169 26.7434,-41.73186M1069.0277,753.55684c5.6574,-12.20024 11.8037,-24.50104 18.4734,-36.92575M1038.5875,832.34031c4.5126,-14.54318 9.6467,-29.16072 15.4652,-43.89554M1019.8794,910.47399c2.4606,-14.31399 5.4222,-28.62507 8.9462,-42.97525M962.43529,827.63217c-4.254,14.99847 -7.95226,29.93763 -11.13959,44.8335M962.80761,826.32429c-0.12457,0.43601 -0.24868,0.87197 -0.37232,1.30788M1079.2702,587.89818c-57.6278,82.51135 -94.41461,161.25964 -116.46259,238.42611M1080.4442,586.2208c-0.3923,0.5593 -0.7836,1.11842 -1.174,1.67738M1108.0745,548.60762l-2.7366,3.5916c-8.6972,11.41459 -16.9899,22.75327 -24.8937,34.02158M1142.6832,602.41229c3.3879,-4.59614 6.8479,-9.21246 10.3813,-13.84979l12.328,-16.17979M1094.6067,674.04829c7.4794,-12.38492 15.4724,-24.89461 24.0086,-37.54747M1056.24,745.75252c5.3135,-11.40373 11.0406,-22.88793 17.2069,-34.46853M1025.3371,824.90746c4.1497,-13.12698 8.7925,-26.31406 13.9707,-39.58748M1005.9443,903.57684c2.2787,-12.66734 4.9456,-25.34162 8.0397,-38.04718M969.25091,860.53665c-1.6096,6.80086 -3.10722,13.59205 -4.49749,20.37554M975.17611,837.32107c-0.52403,1.91273 -1.03885,3.82452 -1.54456,5.73543M980.53366,818.79475c-0.65358,2.1463 -1.29523,4.29126 -1.92511,6.43493M993.52793,780.24199c-2.45658,6.63972 -4.79298,13.26335 -7.01331,19.87265M1003.7131,754.29481c-1.0698,2.5765 -2.121,5.15028 -3.1538,7.72143M1011.4335,736.38337c-1.2037,2.69352 -2.3867,5.38384 -3.5491,8.07107M1029.9375,697.9311c-3.718,7.20934 -7.2821,14.39254 -10.6971,21.55169M1042.3634,674.77456c-1.1601,2.08076 -2.3071,4.1592 -3.4412,6.23536M1052.2889,657.45834c-1.5087,2.56201 -2.9974,5.12034 -4.4663,7.67507M1075.2978,620.48668c-4.5092,6.87605 -8.8714,13.7233 -13.0904,20.54341M1089.0193,600.1325c-0.9062,1.30872 -1.8071,2.61636 -2.7026,3.92292M1099.4683,585.32754c-0.9529,1.32526 -1.9003,2.64937 -2.8422,3.97235M1122.523,554.39419l-5.2535,6.89487c-2.1939,2.87942 -4.3615,5.75325 -6.5031,8.62161M1131.3788,592.47209c3.189,-4.31706 6.44,-8.65001 9.754,-12.99943l10.0517,-13.19221M1082.8425,664.61047c6.9232,-11.42362 14.2705,-22.94254 22.0634,-34.56879M1043.1968,738.4971c5.1173,-10.95742 10.6045,-21.98247 16.4823,-33.08684M1011.8815,818.16457c3.8624,-12.05574 8.1297,-24.16098 12.8317,-36.33244M992.08654,896.45932c2.10804,-11.21889 4.51705,-22.44934 7.25195,-33.7053M458.35921,187.91008C667.9823,155.67506 840.2596,155.61491 1009.6331,173.86014M492.94701,258.58107C678.62686,231.79604 832.01039,231.41699 983.8728,246.58737M480.0623,230.14595c194.33066,-28.71174 354.63169,-29.0201 512.87516,-12.79469M332.73727,0.46824384C420.80369,119.89162 460.49495,183.43642 493.10681,258.67753M1112.5919,0.63218311C1020.7277,133.10962 1001.8161,184.81695 983.80572,246.76653M802.07205,161.79647C783.04855,144.4931 771.04982,120.18927 770,85 729.84394,77.927017 720.88479,43.092057 715,5c-5.88479,38.092057 -14.84394,72.927017 -55,80 -1.19957,40.20904 -16.6946,66.20549 -40.63064,83.78532M663.75388,165.62589c11.81037,-16.25539 20.37328,-35.91378 24.1387,-58.53019 10.57174,-5.09743 19.75051,-12.046715 27.10742,-20.062497 7.35691,8.015782 16.53568,14.965067 27.10742,20.062497 3.47806,20.8904 11.04929,39.25706 21.49215,54.74927M528.38784,178.20186C485.25719,160.13394 485.06806,126.25541 470,95 429.42289,98.366827 377.73173,43.442677 334.76654,-0.17395399M407.03696,105.17685c13.01781,8.554 26.82376,15.33451 41.96499,18.29385 4.00995,11.51468 8.50114,25.02144 17.38672,39.78907 4.40438,7.31998 10.15833,14.43318 17.27959,20.99162M921.7281,166.23197C952.61119,152.6651 969.89902,125.18524 965,75 1062.2467,58.113894 1071.4758,26.421149 1111.8866,-0.02611353M967.9401,170.09365c1.26744,-1.34199 2.50351,-2.72951 3.70638,-4.16396 14.67831,-17.50421 22.48457,-40.32855 23.89258,-66.652346 29.50554,-7.010213 51.51944,-15.950429 68.80304,-25.777277M875,0.15767959C865.28425,74.693605 795.72296,70.363829 792.27288,120.18361c-3.10885,44.89249 67.0255,49.32122 69.86091,4.41064 1.91635,-30.353377 -38.03024,-32.460753 -39.92052,-2.52036 -0.94514,14.97019 24.00519,16.54542 24.95032,1.57522M875,0.15767959C875.26438,75.323697 944.81787,79.77688 941.97482,129.63499c-2.56186,44.92702 -72.69631,40.49994 -69.8609,-4.41065 1.91635,-30.353375 41.81079,-27.420018 39.92052,2.52037 -0.94514,14.9702 -25.89546,13.39497 -24.95033,-1.57523M559.82725,13.347769c3.83152,75.032356 -57.39868,81.849953 -52.18955,131.516421 4.69394,44.75434 66.439,37.94298 61.50419,-6.78562 -3.33525,-30.23039 -38.43512,-25.94157 -35.14525,3.8775 1.64494,14.90953 23.61073,12.48609 21.96579,-2.42344M559.82725,13.347769c12.61784,74.06298 73.8616,67.368291 79.60516,116.975801 5.17549,44.70121 -56.56939,51.51422 -61.5042,6.78562 -3.33526,-30.23039 31.85538,-33.69656 35.14526,-3.8775 1.64493,14.90954 -20.32084,17.33297 -21.96578,2.42344M827.86994,809.84368C677.84497,862.46931 600.85662,869.5223 487.63425,798.38687M498.59634,906.47098c42.38304,19.49069 85.21493,31.23707 129.79233,33.58957 59.63185,3.14697 116.43508,-8.74023 179.43158,-28.5785M492.55044,836.20464c47.64103,26.91874 92.04025,41.4597 139.00034,43.93794 57.06108,3.0113 115.22779,-10.98903 187.99701,-35.68493M739.47641,960.67472c21.31647,-4.37228 42.73731,-10.02698 64.59267,-16.62256M499.89832,939.79291c20.06375,8.45162 40.39072,15.32128 61.07191,20.40284M645.09901,850.27279C634.44854,733.73997 608.7967,622.75469 579.08921,516.80496M727.67385,591.67573c-30.6263,66.52888 -53.39521,133.09869 -69.23636,199.02806M752.2064,586.18235c-42.16179,88.28846 -69.99983,176.60278 -85.89023,263.47519M806.64377,566.38012c-49.0525,93.17217 -80.85351,186.22744 -98.73451,277.80335M829.02032,566.70628c-49.41528,91.64731 -81.56465,183.0102 -99.9065,273.00214M658.5152,790.46525C645.80094,695.00047 624.10062,603.59195 599.63785,515.95095M604.54398,846.72608C593.58882,734.27321 568.32322,626.21321 538.98002,522.06029M583.97863,842.28995C572.72158,732.61055 547.75006,626.70057 518.75584,524.09558M997.69021,1468.109C951.404,1310.8692 916.04917,1159.744 919.95703,1013.1992 924.03644,860.2216 966.19098,710.07232 1093.4077,543.10781M967.93442,1473.2893C921.77864,1316.213 885.94998,1163.1026 889.96875,1012.3984 894.13418,856.19458 937.67383,700.99911 1064.0694,532.20192M922.67554,582.86997C745.38858,887.36431 789.78575,1175.3611 869.27331,1456.19M898.9755,1450.8861C857.56202,1304.8554 826.04907,1158.5923 829.99023,1010.7988 833.65068,873.5321 867.11988,734.58961 952.83774,590.54478M938.2029,863.65097c40.72158,29.12775 103.5577,60.243 192.782,93.72983M1114.6623,698.61568c17.4464,-29.58377 38.0364,-60.07484 62.2635,-91.87154l3.0744,-4.035M1153.3772,613.18411c3.7789,-5.148 7.6505,-10.32415 11.6169,-15.52981l14.4185,-18.92343M1076.2381,935.69643c11.4577,-83.15438 40.0403,-163.45522 103.6806,-256.68926M1047.8367,923.47745c14.5336,-94.7381 51.1329,-187.42002 132.0309,-295.886M1019.5092,516.39102c55.3019,18.82725 109.273,39.15986 160.5455,62.54498M-0.31133915,645.18177C77.862751,592.38585 249.65633,531.0788 376.90002,521.33427M925.84445,1141.4457C981.80051,1173.147 1020,1236.7301 1020,1310c0,42.6578 -12.948,82.0322 -34.80981,113.7432M995.26479,1459.4384C1029.3159,1419.9563 1050,1367.2272 1050,1310c0,-91.02 -52.32458,-170.6611 -127.53307,-203.7223M1131.8018,1432.3277C1146.799,1394.1369 1155,1352.7007 1155,1310c0,-146.9812 -97.1671,-278.9797 -234.21117,-315.21023M1093.8475,1444.3997C1113.8221,1403.6359 1125,1357.755 1125,1310c0,-131.7061 -85.0225,-249.1582 -205.11725,-284.3202M1076.2288,935.76395c4.2983,166.27765 90.2256,322.07985 168.7512,449.84085M1237.8898,1141.4607c14.7213,31.9037 43.2943,80.8485 63.9757,116.1039M675,1000a25,20 0 0 0 -25,-20 25,20 0 0 0 -25,20 25,20 0 0 0 25,20 25,20 0 0 0 25,-20v0M695,1030c75,75 75,-135 0,-60M725,1030c0,0 5,-5 5,-10 0,-5 -5,-10 -5,-20 0,-10 5,-15 5,-20 0,-5 -5,-10 -5,-10M605,1030c-75,75 -75,-135 0,-60M575,1030c0,0 -5,-5 -5,-10 0,-5 5,-10 5,-20 0,-10 -5,-15 -5,-20 0,-5 5,-10 5,-10M620,990c-65,-65 125,-65 60,0M620,960c0,0 5,-5 10,-5 5,0 10,5 20,5 10,0 15,-5 20,-5 5,0 10,5 10,5M620,1010c-65,65 125,65 60,0M620,1040c0,0 5,5 10,5 5,0 10,-5 20,-5 10,0 15,5 20,5 5,0 10,-5 10,-5M592.99611,960.00002l14.1074,-3e-5M592.99611,1040h14.1074M500.25977,960.00001l60.88085,-2e-5M500.08592,979.99997l51.04298,2e-5M499.54686,999.99997l49.20316,3e-5M498.64259,1020H551.1289M497.16992,1040h63.9707M1140,933.2617c-5,-5 -12.2919,-28.71066 15,-30 29.5005,-1.39368 55.4667,25.07982 85,25 17.4004,-0.047 45,-15 45,-15 -0.209,-10.80447 7.8938,-19.64999 0,-35 -25,10 -92.9506,-5 -135,-5 -25,0 -40,28.65625 -40,50 0,45 60.5574,39.40363 63.4606,16.92118C1175,928.2617 1155,903.2617 1155,903.2617M1131.7895,955.21943c-18.8276,76.51137 5.2813,118.41447 70.5038,127.17817M1210.4232,973.04161C1180.8439,971.57387 1185,963.2617 1185,963.2617c2.2156,29.67185 -8.808,47.2053 -25,60M1165.9348,918.96608c26.5089,3.54828 36.8818,19.29562 59.0652,19.29562 2.3705,0 4.6708,0.49169 6.8175,1.35851M1226.193,968.60057c-19.9951,-4.00372 -13.5817,-24.17938 16.7545,-33.41769v0c59.9323,-18.25125 71.5752,11.57125 22.0525,28.07882 -2.9808,0.99361 -5.8259,1.85148 -8.5361,2.58302M1230.5418,967.71863c70.6116,-10.24488 79.3365,20.84559 20.7759,30.72512 -70.95,11.96975 -71.3763,-23.38367 -20.7759,-30.72512v0M1226.5581,1004.1795c71.0398,-6.65552 78.1789,24.837 19.1931,31.7379 -71.4652,8.3611 -70.1004,-26.9685 -19.1931,-31.7379v0M1227.5694,1039.1795c63.2845,-6.6555 69.6442,24.837 17.0978,31.7379 -63.6635,8.3611 -62.4477,-26.9685 -17.0978,-31.7379v0M1265,1108.2617a37.5,35.000001 0 0 1 -37.5,35 37.5,35.000001 0 0 1 -37.5,-35 37.5,35.000001 0 0 1 37.5,-35 37.5,35.000001 0 0 1 37.5,35v0M1180,875V183.2617l50,-50 50,50v696.53908M1000,1085a35,35 0 0 1 -35,35 35,35 0 0 1 -35,-35 35,35 0 0 1 35,-35 35,35 0 0 1 35,35v0M1066.5312,1144.3541a35,35 0 0 1 -35,35 35,35 0 0 1 -35.00004,-35 35,35 0 0 1 35.00004,-35 35,35 0 0 1 35,35v0M1106.4438,1219.8253a35,35 0 0 1 -35,35 35,35 0 0 1 -35,-35 35,35 0 0 1 35,-35 35,35 0 0 1 35,35v0M1123.1345,1307.6331a35,35 0 0 1 -35,35 35,35 0 0 1 -35,-35 35,35 0 0 1 35,-35 35,35 0 0 1 35,35v0M1112.2492,1389.6354a35,35 0 0 1 -35,35 35,35 0 0 1 -35,-35 35,35 0 0 1 35,-35 35,35 0 0 1 35,35v0M1006.718,1466.4889a35,35 0 0 1 -0.027,-1.3823 35,35 0 0 1 35,-35 35,35 0 0 1 31.7033,20.1709M1244.3921,880.62957c-1.5437,-6.76979 -5.4996,-25.09657 -5.9805,-37.12361 -0.5992,-14.98686 13.5898,-35.59701 13.1902,-45.58826 -0.3995,-9.99123 -21.5822,-39.12807 -22.1815,-54.11494 -0.5992,-14.98686 12.1915,-70.56635 11.5921,-85.55321 -0.5993,-14.98686 -17.1855,-54.32417 -17.7847,-69.31103 -0.5993,-14.98686 17.7866,-55.78871 16.9875,-75.7712 -0.799,-19.98248 -17.9845,-74.30664 -18.5837,-89.29351 -0.5993,-14.98686 18.1861,-45.79746 17.3871,-65.77995 -0.7991,-19.98248 -16.9857,-49.32854 -17.585,-64.3154 -0.5992,-14.98686 3.5977,-35.17857 3.1982,-45.16982 -0.3996,-9.99123 -6.3944,-34.76012 -6.7939,-44.75135 -0.3996,-9.99125 12.1913,-70.56637 12.1913,-70.56637M1239.3709,880.42339c-1.5029,-6.80569 -5.3262,-25.13146 -5.7262,-37.14554 -0.4992,-14.99168 13.8268,-35.4799 13.4938,-45.47437 -0.3328,-9.99444 -21.3205,-39.31209 -21.8198,-54.30379 -0.4992,-14.99168 12.6618,-70.4605 12.1623,-85.45219 -0.4992,-14.99168 -16.8224,-54.47022 -17.3216,-69.4619 -0.4994,-14.99169 18.158,-55.63526 17.4923,-75.62418 -0.6657,-19.98892 -17.4881,-74.45913 -17.9874,-89.45083 -0.4993,-14.99168 18.4909,-45.64079 17.8253,-65.62971 -0.6658,-19.98891 -16.6561,-49.47298 -17.1554,-64.46467 -0.4993,-14.99169 3.8322,-35.14705 3.4993,-45.14151 -0.3329,-9.99444 -6.1623,-34.81417 -6.4951,-44.80862C1217.0056,193.47162 1230,133.00556 1230,133.00556M1280,635c6.7427,4.18138 13.4071,8.45138 19.9889,12.81475M1214.033,878.09089C1212.5794,869.96817 1210,854.0355 1210,843.2617c0,-15 15,-35 15,-45 0,-10 -20,-40 -20,-55 0,-15 15,-70 15,-85 0,-15 -15,-55 -15,-70 0,-15 20,-55 20,-75 0,-20 -15,-75 -15,-90 0,-15 20,-45 20,-65 0,-20 -15,-50 -15,-65 0,-15 5,-35 5,-45 0,-10 -5,-35 -5,-45 0,-10 15,-70 15,-70M1234.4008,880.47459c-1.4652,-6.85553 -5.1492,-25.14516 -5.4688,-37.13186 -0.3998,-14.99467 14.0618,-35.38739 13.7952,-45.38384 -0.2665,-9.99644 -21.0591,-39.45269 -21.4589,-54.44736 -0.3998,-14.99467 13.1289,-70.37495 12.729,-85.36962 -0.3998,-14.99467 -16.4607,-54.58064 -16.8605,-69.57531 -0.3998,-14.99467 18.5269,-55.51355 17.9938,-75.50645 -0.5331,-19.99289 -16.9938,-74.57353 -17.3936,-89.5682 -0.3998,-14.99467 18.7934,-45.5171 18.2603,-65.51 -0.5331,-19.99289 -16.3274,-49.58241 -16.7272,-64.57708 -0.3998,-14.99467 4.0653,-35.12084 3.7988,-45.11729 -0.2666,-9.99644 -5.9312,-34.85429 -6.1977,-44.85073C1216.6046,193.4404 1230,133.06189 1230,133.06189M1152.2782,1267.8681c24.8207,45.4342 51.1829,88.4077 74.9429,127.0389M1075.9526,1094.3673c-16.6382,-54.2227 -25.0902,-108.65678 -19.6147,-160.69542l1.1317,-5.77031M499.32741,257.89283C416.74655,411.14183 472.82477,422.94279 440,500 425.07676,535.0328 390,520 398.85468,495.77586 411.71927,460.58165 435,475 430,495c-2.0441,8.17638 -14.81198,12.95576 -20,10M515.45305,255.76419C430.95228,410.92246 485.20518,421.46653 455,500c-25,65 -64.88095,20 -56.02627,-4.22414M531.58866,253.68558C445.46807,410.83002 500.3395,421.11729 470,500c-25,65 -111.09123,67.49193 -90,0 25,-80 72.05255,-58.46059 67.05255,-23.46059M547.64077,251.77122C460.02273,410.74791 515.46224,420.79817 485,500c-10.73547,27.91222 -32.13402,41.42087 -51.38806,42.40489M563.67967,249.89134C474.58596,410.67004 530.58187,420.48714 500,500c-10.63914,27.66176 -31.88228,39.53446 -51.15166,38.84517M579.61382,248.2096C489.19571,410.60265 545.68815,420.21081 515,500c-9.26911,24.09969 -27.73427,33.87059 -46.22717,33.18512M595.54225,246.54598C503.81012,410.53805 560.79261,419.93921 530,500c-8.32429,21.64316 -23.26086,29.95973 -38.70478,28.93331M611.35052,245.10387C518.47623,410.48369 575.88262,419.70518 545,500c-8.31689,21.62392 -22.47134,28.45913 -36.88231,25.4672M627.15731,243.67002C533.14458,410.43113 590.97163,419.47376 560,500c-7.43302,19.32585 -19.94574,25.74874 -33.30613,23.45899M642.83058,242.47765C547.86905,410.38852 606.04528,419.28226 575,500c-6.98529,18.16175 -18.54172,23.68174 -31.10941,20.73432M658.50549,241.28616C562.59396,410.34694 621.11855,419.09177 590,500c-6.57217,17.08764 -17.66722,21.37975 -30.06977,17.19678M674.039,240.34689C577.37726,410.31485 636.17608,418.94219 605,500c-5.63073,14.63991 -14.89431,18.8936 -25.62766,15.92585M689.57433,239.40671C592.1605,410.28334 651.23346,418.793 620,500c-5.64651,14.68094 -14.96476,18.19548 -25.76509,14.06119M704.89132,238.85107C607.03247,410.265 666.26728,418.70507 635,500c-4.58062,11.90961 -12.345,15.16732 -21.84293,12.12863M720,510c0,0 -5,85 -40,85 -35,0 -35,-55 -5,-55 30,0 20,35 0,35 -10,0 -6.4865,-14.54614 5,-15M733.125,515.625c-5,45 -12.34727,97.5068 -41.13098,76.14843M746.25,521.25c-3.00598,41.77343 -5.32198,80.23428 -28.73175,67.92851M759.375,526.875c-5,35 -1.22087,70.48053 -22.75973,58.6269M772.5,532.5c-5,35 1.66398,59.51891 -19.87488,47.66528M785.625,538.125c-3.56322,26.875 3.68677,51.50475 -17.85209,39.65112M798.75,543.75C795,565 800,580 783.18341,573.53966M811.875,549.375c-8.1831,22.65193 -1.875,17.82453 -15.94939,18.49143M825,555c-4.58949,5.85386 -2.68127,12.49809 -18.67826,11.52295M660,467.15928c1.16967,18.15106 -5.66247,54.10435 -38.13282,46.05998M672,475.72742c5.98393,22.53733 -1.26327,65.42826 -50.13282,37.49184M684,484.29557c4.11748,23.47009 -6.54749,69.02028 -46.57453,35.75456M696,492.86371C695,505 692.04906,550.78938 667.1299,531.13388M708,501.43186c0,17.84072 -12.17898,71.92771 -24.03923,71.36868M825,555c9.56486,47.32774 66.99479,11.24932 57.59442,-15M950,517.24138c2.87356,77.75862 85.436,111.7594 70,5.54187 -10.7336,-73.85945 -63.28327,-43.67436 -52.43021,6.32184 6.0219,27.74077 42.25791,49.97151 37.91591,6.19829 -4.7791,-48.17973 -21.92968,-35.41208 -21.2579,-21.40461C985,530 989.0429,533.98893 996.289,539.08867M936.51888,521.7931C946.018,572.24433 959.2709,602.0123 995,590M923.03777,526.34483c8.5863,56.05203 19.88642,69.04315 46.14121,64.47619M909.55665,530.89655c5.1539,36.46724 0.41812,58.2597 34.07717,56.10424M896.07554,535.44828C899.5331,561.35236 902.11864,578.13561 920,580M882.59442,540c4.97086,23.21645 8.71742,50.02285 26.37931,36.02627M980,245c0,0 10,30 10,40 0,10 -5,23.08703 -5,27.80788 0,4.72086 3.57608,62.23192 2.68473,72.19212 -2.24214,25.05433 -18.87448,100.31096 -21.31904,125.31096M985,245c0,20 60.346,42.77986 61.5928,80 2.1653,64.63969 -42.1637,37.78466 -60.22968,18.36005M987.27422,270c0,0 41.20518,35.05789 42.72578,55 2.5359,33.25856 -30.64337,17.89186 -44.28889,9.31136M990,292.89819c0,0 23.3595,11.37575 25,27.10181 2.556,24.50227 -18.93362,14.99416 -29.43929,8.75309M987.53695,302.87356C995,305 1000,320 1000,320c0.9665,10.74215 -7.59082,4.81741 -14.58954,1.6203M986.50943,343.51691C987.82742,380.0735 1055,405 1055,450c0,65.46215 -46.1014,41.89624 -47.5924,37.52085M987.82742,380.0735C990,392.8644 1040,425 1040,455c0,39.867 -32.4013,35.79795 -35,30M985.82102,400.82102C985.82102,410.82102 1025,435 1025,455c0,27.27078 -27.45621,24.28564 -32.418,23.5209M982.87356,420.20525C985,430 1010,440 1010,457.51232 1010,485.1208 975.0731,466.20615 975,465M980,435c4.2713,6.66436 12.85512,10 12.81609,20 -0.0752,19.26492 -16.07761,5.53435 -16.99507,1.10016M715,295c0,0 45,-35 65,-35 20,0 55,10 60,10 10,0 10,-10 10,-10l5,5c0,0 -7.92282,10 -15,10 -7.07718,0 -45,-10 -60,-10 -12.79967,0 -65,30 -65,30v0M980,275c0,0 -25,-15 -35,-15 -10,0 -30.01545,12.76546 -35,12.37274C904.08588,271.90678 900,270 895,260l-5,5c0,0 10,10 20,10 10,0 30,-10 35,-10 5,0 35,10 35,10v0M890,265v20c0,5.27046 -5,10 -5,15 0,5 30,100 30,105 0,5 -15,20 -20,20 -10,0 -15.54187,-13.76847 -23.48933,-13.76847 -7.94745,0 -21.51139,8.6835 -26.51067,8.76847 -16.49594,0.28039 -15.94241,-24.73311 0,-25 4.9993,-0.0837 10,5 10,5M860,435c-55,2.5394 -60.54383,24.92155 -100,32.15928 -25.56127,4.68889 -26.81159,-35.18361 -10,-37.15928 9.93165,-1.16715 10,17.33169 10,17.33169 0.28807,0.0457 10,-24.66338 -10,-24.04762 -24.98816,0.76934 -25.07198,52.42234 6.02627,51.30542C783.4132,473.60587 815,445 860,445v-10 0M890,435v10c20,0 35.73379,19.84064 50,20 23.39858,0.26137 41.79478,-42.49561 14.58949,-41.7734C944.59301,423.49197 940,435 940,435c0,0 7.22867,-7.70667 15.04926,-7.94745C970.93549,426.56343 953.64759,459.80541 940,460c-9.90011,0.14116 -30,-25 -50,-25v0M810,485v7.20033l5,-4.31035L810,485v0M920,480v7.68473L915,485l5,-5v0M815,487.88998c10,2.11002 22.11002,-13.16913 34.58949,-13.16913 12.47947,0 9.5156,5.27915 19.5156,5.27915 10,0 10,-7.91461 20,-7.91461C899.10509,472.08539 905,485 915,485M840,515c30.38806,15.82158 50,-10 50,-20M725,325c25,0 41.55745,-28.35796 67.05255,-28.35796C822.05255,296.64204 830,320 840,320 830,320 803.12887,332.03533 789.58949,331.71593 774.59366,331.36217 740,325 725,325v0M891.43678,316.7734c25,0 21.79984,-17.22968 47.2933,-17.51823 25.6459,-0.29027 32.7067,17.51823 42.7067,17.51823 -10,0 -28.87704,15.8346 -42.41642,15.5152 -14.99583,-0.35376 -32.58358,-15.5152 -47.58358,-15.5152v0M696.98259,586.67324c-11.23672,24.87917 -21.41316,49.77304 -30.57307,74.64475M666.52134,661.16843C656.1773,612.10598 644.10758,564.28769 631.25085,517.67825"></path></symbol><symbol id="SK4" preserveAspectRatio="none" viewBox="0 0 1300 2000"><path fill="black" d="M781.38477,206.54297c-93.46697,0.28887 -192.01127,7.45316 -301.32227,23.60351l12.88477,28.43555C678.62712,231.797 832.01064,231.41751 983.87305,246.58789l9.06445,-29.23633C923.70598,210.25295 854.08129,206.31829 781.38477,206.54297Zm237.76173,309.50391c0.087,1.90101 0.4936,4.25988 0.8535,6.73632 6.8826,47.35998 -5.7167,66.84404 -22.04883,67.00196l-45.11328,0.75976c-85.71786,144.04483 -119.18721,282.98724 -122.84766,420.25388 -3.94116,147.7935 27.57149,294.0566 69.33204,440.0821 13.35764,2.252 23.03259,11.2934 24.28711,27.539 14.60274,-0.9374 29.37706,-2.6912 44.41796,-5.0664 -46.249,-157.1398 -82.07736,-310.2509 -78.05859,-460.9551 4.16543,-156.20374 47.70528,-311.39964 173.90425,-480.35348 -14.8057,-5.45059 -29.5367,-10.60564 -44.7265,-15.99804zm160.7207,111.54492c-80.898,108.46598 -117.4977,201.14666 -132.0313,295.88476l28.4024,12.22071c11.4577,-83.15438 40.0394,-163.45542 103.6797,-256.68946zm-692.23243,170.79492 4.91601,37.81836c47.64103,26.91874 92.03991,41.45926 139,43.9375 57.06108,3.0113 115.22687,-10.98965 187.9961,-35.68555l8.32226,-34.61328c-150.02497,52.62563 -227.012,59.6784 -340.23437,-11.45703zm569.83403,129.51562 -1.1309,5.76954c-5.4755,52.03863 2.977,106.47262 19.6152,160.69532l50.6914,75.8086c10.3656,33.1712 21.5509,66.6147 25.6328,97.6914 24.4289,44.7171 50.3515,87.0511 73.8165,125.207 0.831,1.3515 19.5195,-6.4375 19.5195,-6.4375 -39.1666,-63.6763 -84.7793,-139.1623 -119.0235,-216.7734 -34.9687,-79.2535 -58.0819,-160.7237 -50.3613,-234.09963zM1000,992a3.0003,3.0003 0 1 0 0,6h46.1406c-0.1776,-2.00145 -0.3386,-4.00105 -0.4844,-6zm-5,12a6.0006,6.0006 0 0 0 -6.00781,6.916c3.09192,1.646 6.15565,3.3378 9.18554,5.084h49.97267c-0.5374,-4.0036 -1.0268,-8.0039 -1.4434,-12zm11.5508,17c8.9992,5.5659 17.6975,11.5799 26.082,18h19.2344c-1.13,-6.0041 -2.1403,-12.0054 -3.0176,-18zm33.6797,24c5.3912,4.3906 10.6464,8.9482 15.748,13.6758 -1.053,-4.5589 -2.0265,-9.1179 -2.9453,-13.6758zm234.7558,64c-0.071,4.1731 -0.7419,8.1951 -1.9316,12H1300v-12zm-8.5898,25c-3.5387,4.7661 -8.0207,8.8394 -13.168,12H1300v-12zm-8.6445,25c2.0274,3.9001 4.1285,7.8876 6.3418,12H1300v-12zm13.4433,25c2.1945,3.9714 4.42,7.9705 6.6875,12H1300v-12zm14.0781,25c2.3126,4.0483 4.5894,8.0174 6.8887,12H1300v-12z"></path></symbol><symbol id="SK3" preserveAspectRatio="none" viewBox="0 0 1300 2000"><path fill="#44F" d="M799.32812,293.69531a11.451369,19.016715 0 0 0 -11.45312,19.01563 11.451369,19.016715 0 0 0 11.45312,19.01758 11.451369,19.016715 0 0 0 11.45118,-19.01758 11.451369,19.016715 0 0 0 -11.45118,-19.01563zm141.41993,3.89844a11.451369,19.016715 0 0 0 -11.45117,19.01758 11.451369,19.016715 0 0 0 11.45117,19.01562 11.451369,19.016715 0 0 0 11.45117,-19.01562 11.451369,19.016715 0 0 0 -11.45117,-19.01758zm15.08398,125.63086c-0.40297,-0.01 -0.8171,-0.009 -1.24219,0.002C944.59336,423.49193 940,435 940,435c0,0 7.22824,-7.70649 15.04883,-7.94727C970.93506,426.56361 953.64759,459.80541 940,460c-9.90011,0.14116 -30,-25 -50,-25v10c20,0 35.73379,19.84064 50,20 23.03298,0.25729 41.21922,-41.16961 15.83203,-41.77539zM750,423.2832c-24.98816,0.76934 -25.07286,52.42356 6.02539,51.30664C783.41232,473.60622 815,445 860,445v-10c-55,2.5394 -60.54383,24.92243 -100,32.16016 -25.56127,4.68889 -26.81159,-35.18449 -10,-37.16016 9.93165,-1.16715 10,17.33203 10,17.33203 0.28807,0.0457 10,-24.66459 -10,-24.04883zm-171.35547,91.93555 -39.81836,6.30078c1.75726,6.23361 3.50057,12.48048 5.22656,18.74219l19.26954,-5.21875c1.29989,-0.37191 2.64409,-0.56638 3.99609,-0.57813 7.58584,-0.0661 14.02636,5.54184 15.00586,13.06446 0.9795,7.52263 -3.81033,14.59206 -11.16016,16.4707l-19.28711,5.22266c0.32282,1.21928 0.6416,2.44176 0.96289,3.66211l19.31836,-4.97657c1.30414,-0.35527 2.65031,-0.53265 4.00196,-0.52734 7.58554,0.0284 13.95537,5.71443 14.84179,13.24805 0.88643,7.53361 -3.98952,14.54377 -11.36133,16.33203l-19.33007,4.97851c0.31692,1.26381 0.63615,2.52607 0.95117,3.79102L580.75,601.00586c1.30864,-0.33669 2.65677,-0.49502 4.00781,-0.4707 7.58514,0.13496 13.87476,5.91085 14.6543,13.45703 0.77954,7.54618 -4.19638,14.48722 -11.59375,16.16992l-19.49414,4.72461c0.26733,1.13781 0.5274,2.27923 0.79297,3.41797l19.42969,-4.38672c1.31403,-0.31634 2.6648,-0.45365 4.01562,-0.4082 7.58215,0.25522 13.7798,6.13173 14.43945,13.68945 0.65966,7.55771 -4.42632,14.41748 -11.84961,15.98242l-19.4375,4.38867c0.25706,1.18116 0.51264,2.36278 0.76758,3.54492l19.68946,-4.08007c0.82934,-0.18448 1.67288,-0.29817 2.52148,-0.33985 7.86524,-0.38533 14.69001,5.37682 15.62891,13.19531 0.9389,7.8185 -4.3277,15.03175 -12.06055,16.51954l-19.69141,4.08203c0.24044,1.21048 0.49052,2.41738 0.72852,3.6289l19.73828,-3.69726c0.83339,-0.16785 1.67953,-0.26455 2.5293,-0.28906 7.86901,-0.23026 14.57762,5.66127 15.36523,13.49414 0.7876,7.83288 -4.61377,14.94222 -12.37109,16.2832l-19.74024,3.69727c0.34666,1.94721 0.67783,3.89972 1.01758,5.8496l19.82422,-3.25586c0.83689,-0.14981 1.68499,-0.22823 2.53516,-0.23437 7.87511,-0.0584 14.45379,5.98252 15.0664,13.83398 0.61262,7.85147 -4.94941,14.84015 -12.73828,16.00391l-19.82227,3.25586c0.25852,1.67421 0.52632,3.34531 0.7793,5.02148l19.90039,-2.78906c0.8399,-0.12976 1.6893,-0.18791 2.53907,-0.17383 7.87526,0.12575 14.31258,6.32091 14.74023,14.18555 0.42764,7.86464 -5.30006,14.7203 -13.11523,15.69922l-19.88672,2.78711c0.17132,1.32021 0.32648,2.64537 0.49414,3.9668l20.00195,-2.3086c0.84292,-0.10974 1.69363,-0.14763 2.54297,-0.11328 7.86575,0.3227 14.14309,6.67023 14.3789,14.53906 0.23582,7.86883 -5.65011,14.58186 -13.48242,15.375l-19.99609,2.3086c0.31913,3.05384 0.64717,6.10567 0.94531,9.16601l40.55469,3.54688C634.39595,733.1586 608.54101,621.6473 578.64453,515.21875Zm228.22461,50.75977c-2.60805,1.16892 -6.11956,0.48872 -9.4082,2.45117 -5.4892,3.27561 -10.72773,8.7833 -12.8086,4.95117 -5.70385,10.45865 -13.44619,8.30103 -17.0039,5.83594 -6.33889,5.02283 -7.06235,5.09225 -13.25,2.41797 -43.38817,89.80345 -71.91875,179.65913 -88.08203,268.02343l27.84375,-3.66406 -6.57032,-1.36523c-7.64501,-1.47549 -12.89014,-8.55541 -12.07617,-16.29883 0.81397,-7.74342 7.41646,-13.57614 15.20117,-13.42969 1.00026,0.0191 1.99611,0.13815 2.97266,0.35547l19.42773,4.0332c0.12162,-0.54673 0.24457,-1.0938 0.36719,-1.64062l-19.28711,-4.65625c-7.31637,-1.65581 -12.28436,-8.46055 -11.63281,-15.9336 0.65154,-7.47305 6.72231,-13.31696 14.21484,-13.68164 1.50128,-0.0733 3.00506,0.0795 4.46094,0.45313l19.25586,4.65039c0.28553,-1.11239 0.56959,-2.22515 0.85938,-3.33789l-19.09766,-5.30274c-7.25427,-1.90419 -11.98824,-8.87305 -11.08398,-16.31836 0.90422,-7.4453 7.16878,-13.07903 14.66796,-13.1914 1.50299,-0.0226 3.00084,0.18086 4.44336,0.60351l19.07422,5.29688c0.34462,-1.17515 0.69154,-2.3499 1.04102,-3.52539l-18.90039,-5.94336c-7.18468,-2.14923 -11.6789,-9.27387 -10.52344,-16.6836 1.15545,-7.4097 7.60558,-12.82783 15.10351,-12.6875 1.50276,0.0285 2.99271,0.28261 4.41993,0.75391l18.8789,5.93555c0.33257,-1.0062 0.67552,-2.01312 1.01172,-3.01953L721.69922,714.5c-6.84113,-2.29417 -11.0797,-9.13391 -10.08984,-16.28125 0.98985,-7.14735 6.92763,-12.57718 14.13476,-12.92578 2.00465,-0.0971 4.00839,0.20911 5.89258,0.90039l18.67969,6.55664c0.45499,-1.23759 0.91635,-2.47504 1.37695,-3.71289l-18.46484,-7.17969c-6.7617,-2.52028 -10.77043,-9.49841 -9.54297,-16.60937 1.22746,-7.11096 7.34327,-12.33963 14.55859,-12.44727 2.0061,-0.0301 3.99786,0.34245 5.85742,1.0957l18.4668,7.18164c0.46674,-1.14953 0.93457,-2.2995 1.40625,-3.44921l-18.22266,-7.7793c-6.67466,-2.73993 -10.45427,-9.84391 -8.99609,-16.91016 1.45818,-7.06626 7.74104,-12.0929 14.95508,-11.96679 2.00667,0.0354 3.98584,0.47306 5.82031,1.28711l18.23437,7.7832c0.39504,-0.8886 0.7895,-1.77734 1.1875,-2.66602l-17.96874,-8.34375c-6.58759,-2.94632 -10.14358,-10.16512 -8.46485,-17.18359 1.67873,-7.01847 8.11643,-11.8475 15.32422,-11.49414 2.00398,0.0984 3.96785,0.59787 5.77539,1.46875l17.98633,8.35351c5.49817,-11.39619 11.2526,-22.79722 17.26367,-34.19921zM1280,635l-0.4141,244.90039c1.7218,-0.36733 3.6726,-0.94205 5.4141,-1.63867 7.8938,15.35001 -0.209,24.19553 0,35 0,0 -16.3805,8.87019 -31.8594,12.9668 -4.6123,1.22067 -9.146,2.02237 -13.1406,2.0332 -29.5333,0.0798 -55.4995,-26.39368 -85,-25 0,0 5.6739,7.09189 10.8398,15.61328 26.6036,3.6385 36.9768,19.38672 59.1602,19.38672 2.3705,0 4.6717,0.49255 6.8184,1.35937l19.9238,-7.47851 -0.1152,0.64258c52.27,-12.88559 60.4036,14.79968 13.373,30.47656 -2.9808,0.99361 -5.8255,1.85099 -8.041,2.5 45.3088,0.32288 44.3858,24.24188 -5.6406,32.68164 -4.8602,0.81994 -9.3892,1.41835 -13.5938,1.81834l0.1055,3.1504c60.3576,-2.4568 63.6232,25.9893 7.9219,32.5059l-2.7266,2.3476c48.493,-0.3626 49.5411,26.3619 1.6426,32.6524l-3.3555,4.7949c13.8749,5.1336 23.6875,17.7716 23.6875,32.5488 0,15.6398 -10.9901,28.8842 -26.6328,33.2852 13.9831,31.0502 41.1116,77.8067 61.6328,112.8301V648.30859l-0.012,-0.49414C1293.4065,643.45108 1286.7427,639.18138 1280,635Zm-100.041,43.83984c-63.681,93.40061 -92.2631,173.70212 -104.2207,256.6836 16.8042,7.05563 35.3706,14.39722 53.7754,20.05078C1117.8549,949.11217 1110,939.46864 1110,923.26172c0,-21.34375 15,-50 40,-50 8.72,0 18.5535,0.64488 29.4434,1.6582zm-676.13869,177.0293 -9.63867,19.03711 13.62109,6.09961 -3.66796,8.01172 -5,-2.61914c-3.58019,-1.97693 -6.44721,3.49755 -2.78321,5.31445l10.60547,5.55664 8.82031,-19.26758 -13.40039,-6 4.11133,-8.11914c3.41986,1.69759 6.83718,3.37681 10.24024,4.93946 4.10162,1.88343 8.19384,3.61893 12.28515,5.32617l-4.46094,10.9375 -6.79101,16.67383 2.76758,1.13671c6.01611,2.47117 12.03558,4.75662 18.0625,6.8711 6.28704,2.20574 12.58989,4.22918 18.92187,6.01367l2.86719,0.80664 5.8418,-20.16211 -2.90821,-0.82031c-4.97711,-1.4028 -9.95352,-3.05812 -14.93164,-4.77735l2.91797,-8.32617c4.84057,1.68239 9.67799,3.28741 14.51172,4.67188 4.6131,1.32127 9.25343,2.44096 13.90234,3.49609l-2.63086,11.66406 -3.9414,17.56836 2.88867,0.67969c6.4526,1.52003 12.92598,2.79376 19.41992,3.85938 6.84647,1.12345 13.72909,2.01791 20.66016,2.64648l2.97265,0.26953 2,-20.90234 -3.0039,-0.27149c-5.46292,-0.49519 -10.89,-1.26182 -16.31055,-2.10547l1.42969,-8.88281c5.23376,0.82999 10.47546,1.57154 15.74414,2.06641 3.87149,0.36364 7.75733,0.64961 11.6582,0.85547 0.91651,0.0484 1.87346,0.0515 2.8086,0.084l-0.40235,11.9336 -0.5957,18.01562 2.95898,0.13672c6.12267,0.27953 12.20231,0.32399 18.25977,0.2207 6.50637,0.21857 14.43324,-0.84974 20.16211,-0.94922l3.16992,-0.0547 -1.5293,-21.09766 -3,0.22852c-5.25783,0.3983 -10.50101,0.58089 -15.74414,0.69921v-9.00195c5.01679,-0.14499 10.0368,-0.34061 15.08399,-0.71484 5.64688,-0.4187 11.35292,-1.06658 17.08789,-1.80664l1.5625,12.09765 2.26172,17.86328 2.96679,-0.36523c6.58214,-0.81001 13.18261,-1.80657 19.8086,-2.95117 6.2319,-1.07654 12.49338,-2.28505 18.80664,-3.64453l2.92383,-0.62891 -4.35157,-20.54297 -2.94336,0.63477c-5.07001,1.09229 -10.0751,2.0228 -15.07031,2.91601l-1.58984,-9.04687c4.87677,-0.83274 9.77258,-1.72584 14.72461,-2.77344 4.76971,-1.00902 9.60822,-2.14785 14.4707,-3.32226l2.88672,11.75781 4.23828,17.51758 2.90625,-0.69141c6.11925,-1.45521 12.29959,-3.06564 18.53125,-4.77344 5.7663,-1.58028 11.5874,-3.24688 17.50586,-5.04101l2.85742,-0.86719 -5.99414,-20.125 -2.88476,0.875c-4.80261,1.45545 -9.47916,2.76427 -14.12891,4.0332l-2.41602,-8.78125c4.5878,-1.23946 9.2031,-2.52022 13.89844,-3.9082 4.88877,-1.44516 9.86575,-2.98531 14.86914,-4.55274l9.58985,30.2461L810,900l-1.83008,-5.88281 -9.55469,-30.13086 -2.85742,0.90429c-5.96248,1.88734 -11.83187,3.68594 -17.625,5.39844 -5.64507,1.66873 -11.20841,3.25358 -16.64453,4.68164l-2.93555,0.76953 5.60547,20.3711 2.87305,-0.76367c4.68079,-1.24527 9.47047,-2.64489 14.28906,-4.07813l2.57227,8.63086c-4.86817,1.44981 -9.70846,2.86301 -14.48438,4.17188 -5.20674,1.42691 -10.33442,2.72545 -15.4375,3.97461l-2.82226,-11.66211 -4.31055,-17.55665 -2.91992,0.72266c-5.80427,1.43856 -11.52884,2.74967 -17.19922,3.94922 -5.89154,1.24635 -11.70862,2.3704 -17.42383,3.2832l-3.00781,0.48047 3.67578,20.91406 2.94531,-0.50585c5.05862,-0.86906 10.16768,-1.89255 15.29688,-2.96094l1.86328,8.80273c-5.23252,1.09044 -10.44889,2.13447 -15.62891,3.0293 -5.55085,0.95888 -11.06099,1.74425 -16.56054,2.4668l-1.50196,-11.86329 -2.33007,-18.01757 -3.00196,0.41992c-6.62633,0.92784 -13.18413,1.59975 -19.71484,2.08398 -5.92907,0.43962 -11.82413,0.72464 -17.69922,0.83985l-2.94141,0.0566v20.97461l3.03516,-0.0352c5.38688,-0.0628 10.76915,-0.362 16.1543,-0.71875l0.65039,8.99219c-5.69554,0.29194 -11.96463,0.93358 -16.73242,0.76953l-0.0781,-0.002 -0.0781,0.002c-5.00648,0.0869 -10.01667,-0.0149 -15.0332,-0.1836l0.39649,-11.99414 0.60937,-18.0625 -3.12305,0.0215c-1.82036,0.012 -3.67575,-0.0679 -5.57226,-0.16797 -3.81931,-0.20156 -7.62222,-0.47996 -11.41211,-0.83594 -6.14431,-0.57712 -12.24219,-1.35591 -18.29492,-2.40234l-2.99219,-0.51758 -3.33594,20.75195 2.94141,0.49219c5.54771,0.92732 11.12912,1.58488 16.72461,2.1582l-0.85742,8.9629c-5.77552,-0.58939 -11.53716,-1.27421 -17.26953,-2.21485 -5.39392,-0.88511 -10.75183,-2.0022 -16.10157,-3.19922l2.61914,-11.66992 3.94141,-17.47851 -2.97266,-0.63086c-5.48251,-1.16239 -10.95986,-2.5642 -16.44336,-4.13477 -5.68267,-1.62762 -11.34774,-3.42912 -17.00781,-5.47656l-2.84961,-1.03125 -6.89258,19.66992 2.8086,1.00391c5.08944,1.81693 10.18415,3.38896 15.2832,4.88867l-2.50391,8.64258c-5.24433,-1.5391 -10.48532,-3.15795 -15.72461,-4.9961 -4.99622,-1.75288 -9.98508,-3.6969 -14.97265,-5.69726l4.50391,-11.0586 5.28124,-12.94726c0.50942,-0.67894 0.70742,-1.54189 0.54493,-2.375 -0.18168,-1.40864 -1.32619,-2.49692 -2.74219,-2.60742 -4.64545,-1.90792 -9.29621,-3.91073 -13.96094,-6.05274 -4.23686,-1.94553 -8.47877,-3.98431 -12.73437,-6.14258zm310.93164,4.38477 -8.54687,2.84961 4.3164,12.94921zm105.05078,165.31249c-0.40019,26.8092 0.57394,53.8866 2.66602,80.9199C997.67574,1139.3381 1050,1218.98 1050,1310c0,57.2272 -20.6833,109.9554 -54.73438,149.4375l2.18165,8.9004c10.68823,-2.0586 21.49003,-4.3557 32.33983,-6.8652 6.2205,-1.4388 12.4561,-2.9467 18.6973,-4.5196 15.3511,-3.8688 30.7965,-7.9093 45.6601,-12.6269C1113.8221,1403.6361 1125,1357.755 1125,1310c0,-131.7061 -85.022,-249.1586 -205.19727,-284.4336zM965,1050a35,35 0 0 1 35,35 35,35 0 0 1 -35,35 35,35 0 0 1 -35,-35 35,35 0 0 1 35,-35zm66.5312,59.3535a35,35 0 0 1 35,35 35,35 0 0 1 -35,35 35,35 0 0 1 -34.99995,-35 35,35 0 0 1 34.99995,-35zm-82.50776,66.8184c-5.45538,0.07 -10.71908,2.1233 -14.78711,5.7949l-2.91602,2.5566 3.51172,16.8731 9.375,-8.2227a7.50075,7.50075 0 0 0 0.0801,-0.07c1.44919,-1.3079 3.34401,-1.9976 5.29492,-1.9277 3.76635,0.1348 5.83479,2.2158 6.81445,5.0293 0.97967,2.8135 0.65128,5.7308 -2.21679,8.1758a7.50075,7.50075 0 0 0 -0.0801,0.068l-15.75586,13.8184 6.1543,29.5644 28.98047,-12.2656a7.50075,7.50075 0 0 0 0.0977,-0.041c0.84913,-0.3737 1.75876,-0.5875 2.68555,-0.6289 3.69768,-0.165 6.87088,2.2748 7.66211,5.8906 0.79123,3.6158 -1.07333,7.1581 -4.50195,8.5527a7.50075,7.50075 0 0 0 -0.0977,0.041l-31.71094,13.4199 4.95313,23.793 35.40234,-3.9864a7.50075,7.50075 0 0 0 0.10547,-0.016c0.2108,-0.027 0.42267,-0.044 0.63476,-0.053 0.2121,-0.01 0.42442,-0.01 0.63672,0a7.50075,7.50075 0 0 0 0.004,0c4.00603,0.1723 7.06667,3.2827 7.17578,7.291 0.10912,4.0082 -2.77881,7.2799 -6.76953,7.6699a7.50075,7.50075 0 0 0 -0.10938,0.012l-34.00976,3.8321 5.85351,28.123 26.88477,4.9121a7.50075,7.50075 0 0 0 0.0977,0.02c4.21486,0.7123 6.89727,4.5411 6.1289,8.7461 -0.76836,4.205 -4.63177,6.8361 -8.82617,6.0117a7.50075,7.50075 0 0 0 -0.0977,-0.019l-20.88867,-3.8164 3.30078,15.8555 14.79493,2.7031h0.002c12.21746,2.3999 24.23253,-5.7869 26.47063,-18.0351 2.2382,-12.2491 -6.1071,-24.1556 -18.38469,-26.2305l-24.20704,-4.4238 24.45118,-2.754c11.68785,-1.1423 20.62235,-11.2685 20.30265,-23.0078 -0.3194,-11.738 -9.7905,-21.3605 -21.5214,-21.8672h-0.004c-1.27233,-0.055 -2.54718,-10e-5 -3.81055,0.1583l0.10547,-0.014 -16.04101,1.8066 14.82617,-6.2754c10.09763,-4.1067 15.83422,-15.0055 13.5039,-25.6543 -2.33023,-10.6488 -12.09442,-18.1538 -22.98437,-17.6679 -2.77829,0.1242 -5.51099,0.761 -8.05664,1.8808 -10e-4,6e-4 -0.003,0 -0.004,0l-20.21679,8.5567 16.67382,-14.625 -0.0801,0.068c7.545,-6.4319 9.45498,-16.4744 6.65234,-24.5234 -2.80264,-8.049 -10.53721,-14.7332 -20.44531,-15.0879 -0.3651,-0.013 -0.73006,-0.016 -1.09375,-0.012zm15.76562,169.1484 -3.29883,-15.8535 -1.28711,-0.2344 3.80665,15.9453zm-9.15234,-43.9765 -3.07031,-14.75 -2.3125,0.2597 3.34765,14.7188zm-8.02344,-38.543 -3.11523,-14.9688 -2.125,0.8985 2.95312,15.039zm-9.26953,-44.5332 -3.51172,-16.8711 -0.79297,0.6953 2.9336,17.3789zm133.09965,-33.4414a35,35 0 0 1 35,35 35,35 0 0 1 -35,35 35,35 0 0 1 -35,-35 35,35 0 0 1 35,-35zm16.6914,87.8066a35,35 0 0 1 35,35 35,35 0 0 1 -35,35 35,35 0 0 1 -35,-35 35,35 0 0 1 35,-35zm-10.8848,82.002a35,35 0 0 1 35,35 35,35 0 0 1 -35,35 35,35 0 0 1 -35,-35 35,35 0 0 1 35,-35zm-35.5586,75.4726a35,35 0 0 1 31.7031,20.1699l-66.6757,16.211a35,35 0 0 1 -0.027,-1.3809 35,35 0 0 1 35,-35z"></path></symbol><symbol id="SK2" preserveAspectRatio="none" viewBox="0 0 1300 2000"><path fill="red" d="M1063.8555 74.140625C1047.0591 83.326383 1025.0446 92.267131 995.53906 99.277344C994.13105 125.60114 986.32479 148.42548 971.64648 165.92969C970.44361 167.36414 969.20741 168.75213 969.05078 170.02344C902.64826 163.86861 834.25676 160.83872 763.21484 161.78906C753.15731 146.35188 745.58548 127.9861 742.10742 107.0957C731.53568 101.99827 722.35691 95.048985 715 87.033203C707.64309 95.048985 698.46432 101.99827 687.89258 107.0957C684.12716 129.71211 675.56359 149.37076 663.91211 165.52539C606.57285 168.98046 546.69505 175.09884 483.55859 184.21484C476.54733 177.69238 470.79305 170.57975 466.38867 163.25977C457.50309 148.49214 453.0119 134.98538 449.00195 123.4707C433.86072 120.51136 420.05485 113.73152 407.40625 105.63867C447.12643 164.72839 471.64946 209.17039 493.02734 258.62891C678.62729 231.79565 832.01097 231.41777 983.83984 246.67773C998.00329 197.93442 1012.7603 155.46442 1063.8555 74.140625zM631.25 517.67773C644.10673 564.28717 656.17671 612.10691 666.46484 661.24414C675.56884 636.44721 685.74629 611.55332 696.95117 586.79297C692.25444 591.91196 686.67212 595 680 595C645 595 645 540 675 540C676.10382 540 677.15338 540.04741 678.15039 540.13867L678.18164 535.97266C675.08464 535.97266 671.43512 534.52873 667.40625 531.04688C660.37276 533.35474 650.45497 530.87912 637.42578 520.05078L631.25 517.67773zM518.94727 524.91406C515.54609 526.35689 511.83934 526.23913 508.50195 525.52148C503.34767 528.29741 497.36125 529.3363 491.19531 528.6543C484.09408 531.95767 476.43648 533.46871 469.81055 533.63086C463.68484 537.57374 456.12537 539.10559 449.16211 538.82812C444.20027 540.95287 438.82686 542.13775 433.61133 542.4043L430.53516 543.13086C454.39676 627.37042 475.11407 712.25473 487.64258 798.21094C522.00038 819.97823 553.02688 834.36659 583.875 842.37695C572.72127 732.61106 547.75061 626.70028 518.94727 524.91406zM882.59375 540C882.92646 541.55393 883.2518 543.1323 883.57812 544.70508C883.46366 543.11546 883.14551 541.54072 882.59375 540zM883.57812 544.70508C885.22476 567.57187 844.02996 593.55074 829.02344 566.60352C779.60438 658.3541 747.45568 749.71593 729.08398 839.7832C758.67421 832.91538 791.0762 822.75069 827.89648 809.90625C847.4303 735.21639 878.02052 659.56555 922.67578 582.86914L920 580C915.58961 579.54015 912.11046 578.17308 909.14648 576.00586C892.50623 589.08502 888.12737 566.63035 883.57812 544.70508zM937.93359 863.04883C928.18156 906.56554 922.78485 950.16849 920.73242 994.36328C982.01846 1010.9776 1035.2885 1046.2825 1075.7207 1093.9336C1059.315 1040.1454 1050.8624 985.7105 1056.3379 933.67188L1057.4766 927.8418C1005.7584 905.26572 966.38877 883.86069 937.93359 863.04883zM499.98633 940.1582C500.95855 978.82084 499.71182 1017.3198 495.6543 1056.0742C517.48296 1049.4309 539.11635 1043.7111 560.17578 1038.9316C544.74159 1020.5952 545.10605 976.91243 560.88672 960.19727C540.28918 955.11425 519.96214 948.24498 499.98633 940.1582zM1119.3418 952.88477C1119.8097 964.72273 1120.7514 976.65778 1122.1328 988.66602C1101.7593 1006.0881 1087.1405 1030.0172 1105 1081.668C1120.1501 1068.3627 1127.607 1054.0745 1130.4121 1039.1953C1132.2726 1048.0212 1134.3451 1056.866 1136.6211 1065.7227C1118.6927 1086.9854 1106.9294 1113.3507 1135 1162.5957C1147.0739 1147.197 1151.8501 1132.2218 1152.1387 1117.5117C1155.7336 1128.0503 1159.5805 1138.578 1163.6699 1149.0781C1148.6426 1170.5697 1141.0744 1197.1041 1170 1242.082C1180.628 1226.9251 1184.7514 1212.4966 1184.7461 1198.5332C1189.1408 1208.0398 1193.711 1217.502 1198.4434 1226.9082C1185.5879 1250.236 1180.4988 1277.6776 1215 1319.6152C1223.5689 1303.7278 1226.0782 1289.2483 1224.6836 1275.6797C1229.3323 1283.7918 1234.0855 1291.8444 1238.9395 1299.8262C1228.721 1321.3549 1225.7684 1346.2252 1253.1484 1381.0859L1265.8164 1374.5762C1268.8451 1364.2467 1269.4172 1354.5801 1268.1953 1345.3984C1272.7407 1352.1166 1277.3462 1358.7685 1282.0059 1365.3496L1292.8281 1359.8613C1282.071 1344.7092 1271.6082 1329.1676 1261.5156 1313.3164C1275.1249 1324.0804 1287.8685 1328.221 1300 1328.6836L1300 1297.4648C1284.7699 1287.4939 1267.1909 1282.2671 1244.959 1286.4668C1236.5071 1272.3007 1228.3773 1257.929 1220.6191 1243.4004C1246.0302 1267.4929 1269.3067 1266.0553 1291.2949 1260C1270.0788 1234.5062 1246.4946 1213.2413 1208.0254 1219.0078C1200.0159 1202.9507 1192.4904 1186.7423 1185.5156 1170.4473C1212.7447 1199.6985 1237.5891 1198.5465 1260.9941 1192.1777C1239.7864 1166.5355 1216.1804 1145.1443 1177.4688 1150.9902C1168.5838 1128.7231 1160.7748 1106.3475 1154.2188 1084.0293C1166.3193 1097.4222 1177.949 1104.7667 1189.1895 1108.2539L1194.0977 1092.9648L1202.293 1082.3984C1182.5096 1079.7402 1166.5169 1074.0256 1154.3496 1065.2285C1152.6367 1065.3502 1150.9029 1065.5089 1149.127 1065.7441C1148.5908 1063.7055 1148.0768 1061.6696 1147.5625 1059.6328C1125.4011 1038.7639 1119.9085 1004.4572 1131.5234 956.36328L1119.3418 952.88477zM650 980A25 20 0 0 0 625 1000A25 20 0 0 0 650 1020A25 20 0 0 0 675 1000A25 20 0 0 0 650 980zM965.07812 1055C961.62011 1054.9904 958.13883 1055.6147 954.78125 1056.9414C939.43236 1063.0064 932.24997 1081.5536 938.82422 1098.1914A10.001 10.001 0 1 0 957.42578 1090.8418C954.33913 1083.0301 957.68266 1077.2995 962.13281 1075.541C966.58274 1073.7828 972.9388 1075.6805 976.02539 1083.4922A10.001 10.001 0 0 0 995.21875 1081.7344A10.001 10.001 0 0 0 994.62695 1076.1426C989.49083 1063.1442 977.42819 1055.0342 965.07812 1055zM1217.9434 1080.875A10.001 10.001 0 0 0 1212.5 1082.2812C1197.0071 1091.2261 1191.1017 1110.219 1199.3535 1124.5117C1207.6054 1138.8043 1227.0072 1143.187 1242.5 1134.2422A10.001 10.001 0 1 0 1232.5 1116.9219C1225.2258 1121.1216 1219.0663 1118.6556 1216.6738 1114.5117C1214.2815 1110.368 1215.2259 1103.8012 1222.5 1099.6016A10.001 10.001 0 0 0 1217.9434 1080.875zM1031.457 1114.1934C1027.999 1114.1838 1024.5177 1114.8081 1021.1602 1116.1348C1005.8113 1122.1998 998.62891 1140.7489 1005.2031 1157.3867A10.001 10.001 0 1 0 1023.8027 1150.0352C1020.7161 1142.2235 1024.0596 1136.4929 1028.5098 1134.7344C1032.9597 1132.9762 1039.3157 1134.8738 1042.4023 1142.6855A10.001 10.001 0 0 0 1061.5957 1140.9277A10.001 10.001 0 0 0 1061.0039 1135.3359C1055.8678 1122.3376 1043.8071 1114.2275 1031.457 1114.1934zM925.74609 1141.1035C935.67318 1232.4435 957.43226 1326.019 984.77734 1422.793C1007.0522 1392.0319 1020 1352.6578 1020 1310C1020 1236.7301 981.80004 1173.1467 925.74609 1141.1035zM1070.5859 1190.0645C1067.1279 1190.0549 1063.6466 1190.6792 1060.2891 1192.0059C1044.9402 1198.0709 1037.7577 1216.6181 1044.332 1233.2559A10.001 10.001 0 1 0 1062.9316 1225.9062C1059.845 1218.0947 1063.1885 1212.364 1067.6387 1210.6055C1072.0886 1208.8473 1078.4466 1210.7449 1081.5332 1218.5566A10.001 10.001 0 0 0 1100.7246 1216.7988A10.001 10.001 0 0 0 1100.1328 1211.207C1094.9967 1198.2087 1082.936 1190.0986 1070.5859 1190.0645zM1152.2988 1267.8301C1154.0894 1281.6717 1155 1295.7651 1155 1310C1155 1352.7007 1146.7987 1394.1365 1131.6738 1432.3633C1166.0061 1420.725 1198.8854 1407.7036 1228.2832 1395.7012C1204.4674 1357.9141 1177.5732 1314.17 1152.2988 1267.8301zM1087.6836 1277.7422C1084.2256 1277.7326 1080.7443 1278.3569 1077.3867 1279.6836C1062.0378 1285.7486 1054.8554 1304.2977 1061.4297 1320.9355A10.001 10.001 0 1 0 1080.0293 1313.584C1076.9427 1305.7723 1080.2861 1300.0417 1084.7363 1298.2832C1089.1862 1296.525 1095.5423 1298.4227 1098.6289 1306.2344A10.001 10.001 0 0 0 1117.8223 1304.4766A10.001 10.001 0 0 0 1117.2305 1298.8848C1112.0944 1285.8864 1100.0336 1277.7764 1087.6836 1277.7422zM1076.7461 1360.0645C1073.2881 1360.0549 1069.8087 1360.6792 1066.4512 1362.0059C1051.1023 1368.0709 1043.9179 1386.6181 1050.4922 1403.2559A10.001 10.001 0 1 0 1069.0938 1395.9062C1066.007 1388.0947 1069.3506 1382.364 1073.8008 1380.6055C1078.2507 1378.8473 1084.6068 1380.7449 1087.6934 1388.5566A10.001 10.001 0 0 0 1106.8867 1386.7988A10.001 10.001 0 0 0 1106.2949 1381.207C1101.1588 1368.2087 1089.0961 1360.0986 1076.7461 1360.0645zM1040.9707 1435.3555C1037.4815 1435.3341 1033.9683 1435.9561 1030.5801 1437.2949C1019.4341 1441.6991 1012.5937 1452.6881 1012.2012 1464.7461L1067.6719 1450.998C1061.6859 1441.2814 1051.4382 1435.4195 1040.9707 1435.3555z"></path></symbol><symbol id="SK1" preserveAspectRatio="none" viewBox="0 0 1300 2000"><path fill="#FC4" d="M332.37109,0c88.22014,119.61564 128.095,183.37218 160.65625,258.62891 185.59995,-26.83328 338.98363,-27.21116 490.8125,-11.95118C1001.8441,184.72403 1020.823,132.9125 1113.0391,0Zm267.26758,515.95117 -80.88281,8.14453c28.99422,102.60499 53.96487,208.51525 65.23047,318.31055 45.7272,12.11138 90.8382,10.19851 145.25781,-2.66016 18.21169,-90.02971 50.36011,-181.39175 99.77539,-273.03906L825,555l-5,10c-6.31475,3.14896 -12.96247,3.44188 -20.09766,5.69141 -9.12691,2.87747 -18.92147,7.5203 -28.44336,10.0332 -12.14985,3.20644 -24.48793,9.02143 -34.22656,5.26562 -2.95629,-1.14012 -6.43472,5.09875 -9.55859,5.68555 -30.6263,66.52888 -53.39498,133.0981 -69.19727,198.9082 -12.67541,-95.58405 -34.37512,-186.99181 -58.83789,-274.63281zm464.43163,16.25C937.67475,700.99836 894.13418,856.19466 889.96875,1012.3984c-4.01877,150.7042 31.80906,303.8144 77.96484,460.8907l29.75586,-5.1797C951.40324,1310.8696 916.04917,1159.744 919.95703,1013.1992 924.03644,860.22164 966.19148,710.07193 1093.4082,543.10742Zm40.959,22.57617c-6.3309,12.10934 -12.9392,24.24247 -2.1191,34.82813l-0.6055,0.92773c-7.8113,-2.06436 -16.0838,-3.57712 -24.5938,-4.80468 4.9069,6.63062 9.9115,13.0325 15.1387,18.9082 0.049,0.0551 0.099,0.1071 0.1484,0.16211L1092.8652,605c-13.847,-2.9112 -25.3171,-1.30775 -31.5234,16.49805 36.5158,-9.69243 77.4077,41.57781 93.6582,13.66211 19.0896,-26.05672 -44.2542,-43.03754 -49.9707,-80.38282zm-182.35352,28.0918c-52.25016,89.74082 -85.23816,178.04842 -103.7539,265.16211l0.625,-3.57422c-72.76923,24.6959 -130.93502,38.69685 -187.9961,35.68555 -46.96009,-2.47824 -91.35897,-17.01876 -139,-43.9375l6.04492,70.26562c42.38304,19.49069 85.21557,31.23735 129.79297,33.58985 59.63185,3.14697 116.43514,-8.73986 179.43164,-28.57813l0.36524,-2.08594c-25.80265,186.76122 10.54528,368.22632 61.08789,546.79302l29.70117,-5.3028c-41.41348,-146.0307 -72.92554,-292.2944 -68.98438,-440.0879 3.66045,-137.26664 37.1298,-276.20905 122.84766,-420.25388zm135.97262,48.18945c-5.8387,12.3541 -11.9537,24.74273 -0.7168,34.88477l0.7461,1.24414c-8.2731,-1.91395 -17.053,-3.17005 -26.08,-4.10352 5.1427,6.39457 10.372,12.559 15.6777,18.42579 -14.076,-2.12217 -25.1102,-0.0683 -30.5957,17.97265 36.0964,-11.1528 79.0179,38.43129 94.1328,9.88477 18.0265,-26.8032 -45.9508,-41.22336 -53.1641,-78.3086zm-45.416,78.00196c-3.7085,13.15151 -7.6835,26.38404 5.0801,34.52148l-1.4941,0.97461c-7.7329,-0.34233 -15.7704,-0.11368 -23.96293,0.4082 6.23205,5.54167 12.51423,10.83191 18.84573,15.68164 -14.21302,0.12915 -25.10304,3.98463 -27.51956,22.68555 33.74616,-16.98624 84.29886,24.79315 94.46876,-5.86523 13.3304,-29.42222 -52.1524,-33.03148 -65.418,-68.40625zm-33.43943,80.63867c-3.11937,13.30358 -6.5,26.70058 6.61328,34.26172L984.81055,825c-7.69606,0.009 -15.66464,0.59399 -23.77539,1.47461 6.79742,5.52263 13.63736,10.76706 20.57617,15.35351l-0.75586,0.48633c-14.13594,0.62507 -25.19578,4.087 -26.77735,22.87696 32.95651,-18.47179 85.31838,21.01434 94.11328,-10.06641 12.0073,-29.98651 -53.57114,-30.67666 -68.39843,-65.42578zM1150,873.26172c-25,0 -40,28.65625 -40,50 0,45 60.5577,39.40432 63.4609,16.92187C1175.0003,928.26241 1155,903.26172 1155,903.26172c29.5005,-1.39368 55.4667,25.07982 85,25 17.4004,-0.047 45,-15 45,-15 -0.209,-10.80447 7.8938,-19.64999 0,-35 -25,10 -92.9506,-5 -135,-5zm-74.1777,62.33203c-14.8743,145.40095 90.6295,322.34235 169.9043,450.61325 20.9042,-10.5695 39.2908,-21.058 54.2734,-31.1777v-100.6328c-20.325,-34.6375 -47.2135,-80.7356 -61.9238,-111.625 2.5232,-0.8451 5.0006,-1.9427 7.3886,-3.3184 7.6991,-4.3274 10.4386,-14.2914 6.0196,-21.9453 -4.4276,-7.6687 -14.4581,-10.2767 -22.0606,-5.7363l0.076,-0.045c-5.1233,2.9579 -6.9526,0.9599 -7.6309,-0.2149 -0.678,-1.1744 -1.4924,-3.7569 3.6309,-6.7148l-0.074,0.043c6.7232,-3.7562 9.2807,-11.4368 7.7441,-17.7519 -1.5366,-6.3152 -7.3358,-11.9616 -15.0332,-12.209 -3.045,-0.098 -6.0538,0.6786 -8.6738,2.2324 -10.1061,5.8498 -16.8219,15.49 -19.0332,25.8848 1.2855,-7.9141 5.431,-14.9873 11.5996,-20.3965 -64.9593,-8.9663 -89.0679,-50.8681 -70.6426,-126.29882 -20.2107,-6.35361 -38.7175,-13.67209 -55.5644,-20.70703zm-426.51371,5.6582c-23.72383,0.18179 -47.17627,9.73184 -42.45703,28.64844L605,970c-75,-75 -75,135 0,60l1.92578,-0.1875c-10.12036,38.447 95.55551,38.582 86.25195,0.4063L695,1030c75,75 75,-135 0,-60l-1.60938,-1.19141c3.6363,-18.55302 -20.35819,-27.73843 -44.08203,-27.55664zM965.02148,1048.998c-4.16193,-0.01 -8.36533,0.752 -12.44336,2.3633 -18.62756,7.3606 -26.99932,29.555 -19.34765,48.9883 3.14695,8.2574 12.60535,12.4348 20.82812,9.1856 8.23522,-3.2542 12.28908,-12.7941 8.91407,-20.9805l0.0332,0.082c-2.17319,-5.4999 0.0682,-7.0165 1.33008,-7.5156 1.26124,-0.4983 3.9354,-0.9258 6.10937,4.5762l-0.0312,-0.078c2.7289,7.2017 9.95154,10.8569 16.42383,10.2637 6.47229,-0.5932 12.90887,-5.5004 14.28316,-13.0781 0.5444,-3.0018 0.2149,-6.0972 -0.9414,-8.9199 -5.77457,-14.5516 -19.17873,-24.0822 -33.37692,-24.8379 -0.59235,-0.032 -1.18668,-0.048 -1.78125,-0.049zm0.11329,12.004c0.39343,0 0.78673,0.015 1.17968,0.037 9.43091,0.5396 18.63148,6.9349 22.73047,17.3086a6.0006,6.0006 0 0 0 0.0332,0.078c0.29139,0.708 0.37295,1.483 0.23633,2.2363 -0.43464,2.3965 -1.7985,3.1089 -3.57226,3.2715 -1.77376,0.1626 -3.24246,-0.2889 -4.10547,-2.5664a6.0006,6.0006 0 0 0 -0.0312,-0.08c-3.99921,-10.1214 -14.03912,-14.3442 -21.67774,-11.3262 -7.63863,3.0185 -12.08139,12.9644 -8.08203,23.086a6.0006,6.0006 0 0 0 0.0332,0.082c0.87936,2.133 -0.0828,4.3982 -2.22852,5.2461 -2.14568,0.8479 -4.3967,-0.1468 -5.21289,-2.3047a6.0006,6.0006 0 0 0 -0.0332,-0.084c-5.46527,-13.8312 0.52661,-28.7012 12.58203,-33.4648 2.63714,-1.0421 5.39437,-1.5336 8.14844,-1.5195zm252.61523,25.8691c2.4343,0.078 3.3386,1.324 3.7598,3.0547 0.4211,1.7307 0.1906,3.2496 -1.9356,4.4375a6.0006,6.0006 0 0 0 -0.074,0.043c-9.4249,5.4415 -12.1281,15.9925 -8.0215,23.1055 4.1068,7.113 14.5964,10.047 24.0215,4.6055a6.0006,6.0006 0 0 0 0.076,-0.045c1.9808,-1.183 4.3637,-0.5626 5.5176,1.4355 1.1535,1.9981 0.4973,4.3702 -1.5176,5.4942a6.0006,6.0006 0 0 0 -0.076,0.045c-12.8794,7.4359 -28.4699,3.6906 -34.9512,-7.5352 -6.4812,-11.2259 -1.9284,-26.5991 10.9512,-34.0351a6.0006,6.0006 0 0 0 0.072,-0.043c0.6575,-0.3921 1.4125,-0.5871 2.1777,-0.5625zm-186.3496,21.3203c-4.1623,0 -8.3673,0.7519 -12.4453,2.3633 -18.6289,7.361 -26.9982,29.5598 -19.34377,48.9941 3.14897,8.2538 12.60507,12.4302 20.82617,9.1817 8.2357,-3.2544 12.2881,-12.7958 8.9121,-20.9825l0.033,0.084c-2.1739,-5.5018 0.07,-7.019 1.332,-7.5175 1.2612,-0.4984 3.9335,-0.9259 6.1075,4.5761l-0.029,-0.078c2.7289,7.2015 9.9496,10.8569 16.4218,10.2637 6.4723,-0.5932 12.9108,-5.5005 14.2852,-13.0782 0.5439,-2.9991 0.2143,-6.0913 -0.9395,-8.9121 -5.7728,-14.5561 -19.178,-24.0898 -33.3789,-24.8457 -0.5923,-0.032 -1.1866,-0.048 -1.7812,-0.049zm0.1113,12.0039c0.3934,0 0.7868,0.015 1.1797,0.037 9.4309,0.5396 18.6335,6.935 22.7324,17.3086a6.0006,6.0006 0 0 0 0.031,0.078c0.2914,0.708 0.3729,1.485 0.2363,2.2383 -0.4347,2.3964 -1.7966,3.107 -3.5703,3.2696 -1.7737,0.1625 -3.2444,-0.289 -4.1074,-2.5665a6.0006,6.0006 0 0 0 -0.029,-0.078c-3.9992,-10.1214 -14.0411,-14.3462 -21.6797,-11.3281 -7.6387,3.0184 -12.0813,12.9644 -8.082,23.0859a6.0006,6.0006 0 0 0 0.033,0.084c0.8796,2.1331 -0.083,4.3982 -2.2286,5.2461 -2.1458,0.8479 -4.3968,-0.1485 -5.2128,-2.3066a6.0006,6.0006 0 0 0 -0.031,-0.082c-5.4652,-13.8312 0.5266,-28.7031 12.582,-33.4668 2.6372,-1.0419 5.3928,-1.5335 8.1465,-1.5195zm39.0176,63.8672c-4.1623,-0.01 -8.3673,0.7519 -12.4453,2.3633 -18.6306,7.3617 -27.0019,29.5624 -19.3438,48.998 3.1502,8.2516 12.6062,12.4259 20.8262,9.1778 8.2358,-3.2544 12.2881,-12.7958 8.9121,-20.9825l0.033,0.082c-2.1739,-5.5019 0.07,-7.0171 1.3321,-7.5157 1.2609,-0.4983 3.9353,-0.9258 6.1093,4.5762l-0.031,-0.078c2.7289,7.2015 9.9516,10.8568 16.4238,10.2637 6.4722,-0.5932 12.9088,-5.5005 14.2832,-13.0782 0.5439,-2.9991 0.2143,-6.0913 -0.9394,-8.9121 -5.7729,-14.5562 -19.1781,-24.0898 -33.379,-24.8457 -0.5923,-0.032 -1.1866,-0.048 -1.7812,-0.049zm0.1113,12.0039c0.3934,0 0.7868,0.015 1.1797,0.037 9.4309,0.5396 18.6335,6.935 22.7324,17.3086a6.0006,6.0006 0 0 0 0.031,0.078c0.2914,0.708 0.3749,1.485 0.2383,2.2383 -0.4351,2.3947 -1.7991,3.107 -3.5723,3.2695 -1.7737,0.1626 -3.2444,-0.2889 -4.1074,-2.5664a6.0006,6.0006 0 0 0 -0.029,-0.08c-3.9992,-10.1214 -14.0411,-14.3443 -21.6797,-11.3262 -7.6387,3.0184 -12.0813,12.9644 -8.082,23.0859a6.0006,6.0006 0 0 0 0.033,0.082c0.8796,2.133 -0.083,4.4001 -2.2286,5.248 -2.1458,0.8479 -4.3968,-0.1485 -5.2128,-2.3066a6.0006,6.0006 0 0 0 -0.031,-0.082c-5.4653,-13.8312 0.5266,-28.7032 12.582,-33.4668 2.6372,-1.0419 5.3928,-1.5335 8.1465,-1.5195zm16.9864,75.6738c-4.1623,0 -8.3673,0.752 -12.4454,2.3633 -18.6305,7.3617 -27.0019,29.5625 -19.3437,48.9981 3.1502,8.2515 12.6062,12.4258 20.8262,9.1777 8.2357,-3.2544 12.2881,-12.7958 8.9121,-20.9824l0.033,0.082c-2.1739,-5.5018 0.07,-7.0171 1.332,-7.5156 1.2612,-0.4983 3.9334,-0.9259 6.1074,4.5762l-0.029,-0.078c2.729,7.2016 9.9497,10.8569 16.4219,10.2637 6.4722,-0.5932 12.9107,-5.5005 14.2852,-13.0781 0.5439,-2.9992 0.2143,-6.0914 -0.9395,-8.9121 -5.7728,-14.5562 -19.178,-24.0899 -33.3789,-24.8457 -0.5923,-0.032 -1.1866,-0.048 -1.7812,-0.049zm0.1113,12.0039c0.3934,0 0.7867,0.015 1.1797,0.037 9.4309,0.5399 18.6334,6.935 22.7324,17.3086a6.0006,6.0006 0 0 0 0.031,0.078c0.2914,0.708 0.373,1.485 0.2364,2.2382 -0.4351,2.395 -1.7971,3.1071 -3.5703,3.2696 -1.7738,0.1625 -3.2444,-0.289 -4.1075,-2.5664a6.0006,6.0006 0 0 0 -0.029,-0.08c-3.9992,-10.1214 -14.041,-14.3443 -21.6797,-11.3262 -7.6384,3.0185 -12.0813,12.9644 -8.082,23.086a6.0006,6.0006 0 0 0 0.033,0.084c0.8796,2.1331 -0.083,4.3982 -2.2285,5.2461 -2.1458,0.848 -4.3968,-0.1484 -5.2129,-2.3066a6.0006,6.0006 0 0 0 -0.031,-0.082c-5.4653,-13.8313 0.5266,-28.7032 12.582,-33.4668 2.6372,-1.0421 5.3928,-1.5335 8.1465,-1.5196zm-11.0488,70.3184c-4.162,-0.01 -8.3654,0.7519 -12.4434,2.3633 -18.6276,7.3605 -26.9994,29.5549 -19.3477,48.9883 3.1464,8.2582 12.6068,12.4369 20.8301,9.1875 8.2358,-3.2544 12.2881,-12.7958 8.9121,-20.9825l0.033,0.082c-2.1731,-5.4999 0.068,-7.0166 1.3301,-7.5157 1.2612,-0.4983 3.9354,-0.9258 6.1094,4.5762l-0.031,-0.078c2.729,7.2015 9.9516,10.8568 16.4239,10.2637 6.4722,-0.5932 12.9087,-5.5005 14.2832,-13.0782 0.5443,-3.0018 0.2148,-6.0971 -0.9414,-8.9199 -5.7746,-14.5515 -19.1788,-24.0822 -33.377,-24.8379 -0.5923,-0.032 -1.1867,-0.048 -1.7812,-0.049zm0.1132,12.0039c0.3935,0 0.7868,0.015 1.1797,0.037 9.4309,0.5396 18.6315,6.935 22.7305,17.3086a6.0006,6.0006 0 0 0 0.033,0.078c0.2914,0.708 0.3729,1.485 0.2363,2.2383 -0.4351,2.3947 -1.799,3.107 -3.5722,3.2695 -1.7738,0.1626 -3.2425,-0.2889 -4.1055,-2.5664a6.0006,6.0006 0 0 0 -0.031,-0.08c-3.9992,-10.1214 -14.0391,-14.3443 -21.6777,-11.3262 -7.6387,3.0184 -12.0813,12.9644 -8.082,23.0859a6.0006,6.0006 0 0 0 0.033,0.082c0.8796,2.133 -0.083,4.4001 -2.2285,5.248 -2.1459,0.8479 -4.3969,-0.1485 -5.2129,-2.3066a6.0006,6.0006 0 0 0 -0.033,-0.082c-5.4653,-13.8312 0.5266,-28.7032 12.582,-33.4668 2.6372,-1.0419 5.3944,-1.5335 8.1484,-1.5195zm-35.8632,63.2891c-4.203,-0.02 -8.4492,0.7332 -12.5645,2.3593 -13.5377,5.3493 -21.7075,18.6311 -22.1699,32.836 -0.038,0.7035 0.047,1.3849 0.2363,2.0234l11.7559,-1.6347c0.3226,-9.9112 5.8335,-18.6053 14.5879,-22.0645 10.6449,-4.2062 23.1831,0.5624 29.7793,11.2695l11.1367,-3.4863c-0.064,-0.9668 -0.3645,-1.9317 -0.92,-2.8086 -7.0246,-11.4029 -19.233,-18.4344 -31.8417,-18.4941z"></path></symbol><rect id="XSK" width="164.8" height="260.8" x="-82.4" y="-130.4"></rect></defs><rect width="239" height="335" x="-119.5" y="-167.5" rx="12" ry="12" fill="white" stroke="black"></rect><use width="164.8" height="260.8" x="-82.4" y="-130.4" xlink:href="#SK1"></use><use transform="rotate(180)" width="164.8" height="260.8" x="-82.4" y="-130.4" xlink:href="#SK1"></use><use width="164.8" height="260.8" x="-82.4" y="-130.4" xlink:href="#SK2"></use><use transform="rotate(180)" width="164.8" height="260.8" x="-82.4" y="-130.4" xlink:href="#SK2"></use><use width="164.8" height="260.8" x="-82.4" y="-130.4" xlink:href="#SK3"></use><use transform="rotate(180)" width="164.8" height="260.8" x="-82.4" y="-130.4" xlink:href="#SK3"></use><use width="164.8" height="260.8" x="-82.4" y="-130.4" xlink:href="#SK4"></use><use transform="rotate(180)" width="164.8" height="260.8" x="-82.4" y="-130.4" xlink:href="#SK4"></use><use width="164.8" height="260.8" x="-82.4" y="-130.4" xlink:href="#SK5"></use><use transform="rotate(180)" width="164.8" height="260.8" x="-82.4" y="-130.4" xlink:href="#SK5"></use><use width="164.8" height="260.8" x="-82.4" y="-130.4" xlink:href="#SK6"></use><use transform="rotate(180)" width="164.8" height="260.8" x="-82.4" y="-130.4" xlink:href="#SK6"></use><use xlink:href="#VSK" height="32" width="32" x="-114.4" y="-156"></use><use xlink:href="#SSK" height="26.769" width="26.769" x="-111.784" y="-119"></use><use xlink:href="#SSK" height="55.68" width="55.68" x="-91.768" y="-132.16"></use><g transform="rotate(180)"><use xlink:href="#VSK" height="32" width="32" x="-114.4" y="-156"></use><use xlink:href="#SSK" height="26.769" width="26.769" x="-111.784" y="-119"></use><use xlink:href="#SSK" height="55.68" width="55.68" x="-91.768" y="-132.16"></use></g><use xlink:href="#XSK" stroke="#44F" fill="none"></use></svg>