<?xml version="1.0" encoding="UTF-8" standalone="no"?>
<svg xmlns="http://www.w3.org/2000/svg" xmlns:xlink="http://www.w3.org/1999/xlink" class="card" face="QD" height="3.5in" preserveAspectRatio="none" viewBox="-120 -168 240 336" width="2.5in"><defs><symbol id="VDQ" viewBox="-500 -500 1000 1000" preserveAspectRatio="xMinYMid"><path d="M-260 100C40 100 -40 460 260 460M-175 0L-175 -285A175 175 0 0 1 175 -285L175 285A175 175 0 0 1 -175 285Z" stroke="red" stroke-width="80" stroke-linecap="square" stroke-miterlimit="1.5" fill="none"></path></symbol><symbol id="SDQ" viewBox="-600 -600 1200 1200" preserveAspectRatio="xMinYMid"><path d="M-400 0C-350 0 0 -450 0 -500C0 -450 350 0 400 0C350 0 0 450 0 500C0 450 -350 0 -400 0Z" fill="red"></path></symbol><symbol id="DQ6" preserveAspectRatio="none" viewBox="0 0 1300 2000"><path stroke="#44F" stroke-linecap="round" stroke-linejoin="round" stroke-width="3" fill="none" d="M1200,695c4.4115,6.18328 6.9487,12.69664 5,20M1204.3354,719.98234c4.4115,6.18328 6.9487,12.69664 5,20M1216.1672,742.96331c4.4115,6.18328 6.9487,12.69664 5,20M1195,650c1.0298,15.05623 40.2085,0.0599 35,-5M550,455c15.3233,-7.55931 30.58277,-14.28434 45,-10M545,270c-8.28172,10.54753 -23.95381,12.97919 -40,15M645,275c16.67724,2.19986 19.87524,-1.84649 25,-5M445,225c25,0 48.60183,-42.3991 90,0M603.00603,228.10284C615,225 647.5,177.5 685,220M527.51556,224.23824c1.58324,3.94455 2.48442,8.48077 2.48442,13.30688 0,15.21274 -8.95431,27.54511 -20,27.54511 -11.04569,0 -20,-12.33237 -20,-27.54511 0,-4.51509 0.78877,-8.77645 2.18688,-12.53697M673.63563,219.98026C674.51651,223.08558 675,226.46503 675,230c0,15.21274 -8.95431,27.54511 -20,27.54511 -11.04569,0 -20,-12.33237 -20,-27.54511 0,-1.30414 0.0658,-2.5871 0.19309,-3.84295M774.11289,588.9439c16.8774,-3.38935 33.95469,-7.24736 51.24581,-11.59432M602.93142,608.19495c14.44484,-0.31868 29.01838,-0.97612 43.7316,-1.98827M519.10865,606.26534c14.07372,0.95839 28.25601,1.60536 42.55807,1.92461M433.29641,596.50094c14.1116,2.24365 28.31431,4.1914 42.62039,5.82532M342.9985,577.99935c15.54242,3.87955 31.16702,7.43166 46.89144,10.63061M256.40004,552.91842c13.96978,4.58099 27.98051,8.92908 42.04566,13.02466M768.67771,579.8407c16.28431,-3.21757 32.76049,-6.87567 49.44233,-10.99284M600.77837,598.30467c14.05521,-0.28412 28.23425,-0.89302 42.54823,-1.84167M518.82059,596.30008c13.77471,0.95236 27.65376,1.60234 41.64868,1.93439M434.15883,586.57914c13.92527,2.22803 27.93746,4.16398 42.04952,5.79038M345.41753,568.33172c15.25621,3.81439 30.58657,7.30906 46.00933,10.45939M259.74688,543.49657c13.79064,4.52293 27.61465,8.8161 41.48611,12.86056M355.09602,529.667c-14.27835,-3.59446 -28.51118,-7.4848 -42.71929,-11.64993M437.17719,546.81627c-13.26383,-2.18511 -26.45674,-4.65029 -39.59455,-7.37951M517.67203,556.43269c-13.5364,-0.99615 -26.97135,-2.30105 -40.32041,-3.89892M592.19219,558.71449c-12.26614,0.15129 -24.43212,0.042 -36.50851,-0.3173M746.96087,543.32039c-13.38623,2.46455 -26.6265,4.61882 -39.73172,6.47387M735.91609,525.16458c12.72739,-2.26024 25.58958,-4.80872 38.5967,-7.6554M587.82577,539.09958c11.71725,-0.0963 23.52704,-0.43703 35.43927,-1.0319M517.05721,536.71043c11.97911,0.90742 24.0383,1.56608 36.18912,1.96464M438.60999,527.15972c13.02212,2.17644 26.11198,4.07498 39.28558,5.67988M359.87078,510.56625c13.53775,3.42507 27.11477,6.57562 40.74994,9.43308M279.73708,487.12524c12.70446,4.19177 25.41058,8.17161 38.13425,11.92389M369.55414,471.87415c-13.51922,-3.44451 -27.02347,-7.17991 -40.53876,-11.18718M441.77579,487.3507c-11.70261,-2.01647 -23.36032,-4.27142 -34.9895,-6.75286M515.89655,496.76017c-12.36015,-0.99942 -24.63579,-2.28018 -36.84499,-3.82908M572.02114,499.3125c-7.90822,-0.0798 -15.77287,-0.27716 -23.59835,-0.58895M713.86063,488.36631c-11.19006,1.80777 -22.26213,3.38259 -33.22607,4.73167M763.25184,570.72702c15.69275,-3.04925 31.56916,-6.5117 47.64274,-10.40422M598.62849,588.41326c13.66608,-0.2504 27.45106,-0.81178 41.36618,-1.69816M518.53277,586.33584c13.47529,0.94604 27.05068,1.59872 40.73802,1.94323M435.00173,576.65552c13.74425,2.21347 27.57128,4.13849 41.49474,5.758M347.83877,558.66704c14.97024,3.74912 30.00684,7.18621 45.12861,10.28774M263.09065,534.07633c13.61133,4.46483 27.2486,8.70308 40.92649,12.6964M352.67692,539.33266c-14.40711,-3.62048 -28.76265,-7.53802 -43.08636,-11.73119M396.04457,549.27568c-14.52055,-3.00341 -28.96986,-6.32488 -43.36765,-9.94302M436.45065,556.76264c-13.53973,-2.21348 -27.00325,-4.71473 -40.40608,-7.48696M517.95894,566.40031c-13.72861,-0.99435 -27.35295,-2.3018 -40.88794,-3.90616M594.33631,568.61632c-12.5867,0.18106 -25.06945,0.0914 -37.45874,-0.25776M752.42117,552.45998c-13.75529,2.58054 -27.36088,4.83699 -40.8276,6.78111M730.3879,515.98962c12.11256,-2.10363 24.35117,-4.47109 36.7254,-7.11111M585.65493,529.16985c11.32337,-0.0678 22.73446,-0.36692 34.24311,-0.90642M516.76802,526.72535c11.67738,0.89879 23.43081,1.55768 35.27202,1.96601M439.32725,517.19738c12.88334,2.17037 25.83029,4.06468 38.8578,5.66748M362.29209,500.89381c13.25171,3.35842 26.5356,6.44985 39.87093,9.25675M283.07873,477.70114c12.52598,4.13303 25.04623,8.05721 37.57723,11.75755M273.1306,505.81428c-12.656,-4.15361 -25.30759,-8.51062 -37.96957,-13.05607M293.10804,449.42858c-9.3097,-3.07228 -18.63548,-6.26486 -27.98576,-9.57156M269.78319,515.23376c-13.53447,-4.44109 -27.05683,-9.1119 -40.58389,-13.99418M289.76537,458.85415c-9.65104,-3.18472 -19.31459,-6.49692 -28.9994,-9.92973M367.13285,481.54829c-13.64864,-3.47116 -27.27548,-7.23427 -40.90527,-11.26991M440.93243,497.29697c-11.94034,-2.04205 -23.83114,-4.32854 -35.68841,-6.8469M516.1859,506.75012c-12.5562,-0.99843 -25.02485,-2.28275 -37.42335,-3.83931M581.32356,509.29605c-10.64217,0.0142 -21.20462,-0.18194 -31.6971,-0.58063M684.44091,602.85238c14.72213,-1.60024 29.58856,-3.55723 44.60975,-5.8862M680.72191,593.23528c14.50482,-1.54131 29.1532,-3.43288 43.95613,-5.68953M665.81627,554.71517c-12.03465,1.15413 -23.96068,2.05533 -35.7871,2.71273M658.42165,535.59279c13.16818,-1.19487 26.46866,-2.70087 39.91416,-4.53051M643.43385,496.85119c-11.30713,0.88764 -22.50671,1.53375 -33.61029,1.94679M676.99872,583.61477c14.29078,-1.48294 28.72432,-3.30984 43.31218,-5.49514M669.54677,564.35289c-12.17183,1.20005 -24.2351,2.14454 -36.19835,2.84274M654.67954,525.91912c12.93861,-1.13602 26.00821,-2.57617 39.22204,-4.3325M647.18539,506.54788c-11.44006,0.93456 -22.77257,1.62517 -34.00852,2.08043M719.35794,497.59003c-11.5551,1.91422 -22.98813,3.58294 -34.30905,5.01397M818.66481,527.46475c-9.88172,2.54285 -19.68039,4.91985 -29.39989,7.13493M760.66571,479.5797c-5.24149,1.11863 -10.45582,2.1871 -15.64389,3.20609M828.33787,535.27451c-10.71072,2.83073 -21.32687,5.46856 -31.85297,7.91839M770.58155,487.65574c-6.10737,1.35386 -12.17896,2.64041 -18.2161,3.8607M200.16604,536.38428c4.74975,1.49675 9.50476,2.9659 14.26557,4.40666M207.81371,528.31007c3.22526,1.00427 6.45269,1.99555 9.68248,2.97361M214.82351,520.02586c1.91132,0.58894 3.82332,1.17323 5.73603,1.75282M5.1947289e-4,686.13306C54.879979,608.03329 109.76086,529.93451 164.64128,451.83541M5.969578e-4,651.34603C48.333408,582.56379 96.666815,513.78198 145,445M5.762702e-4,616.55897C41.869828,556.97481 83.74002,497.39132 125.60981,437.80755M821.62285,399.99397c10.74963,42.96206 18.64104,91.65732 23.21247,148.62876M812.74414,520.17578l-3.92969,-29.74023c-5.16298,-39.08508 -12.28322,-73.74277 -21.14881,-105.16932M892.51255,587.95112l-0.81724,-13.95503c-3.35388,-57.2471 -9.98798,-107.30414 -19.37404,-151.9985M838.65839,407.36381c10.5127,44.62034 18.07679,95.13468 22.16781,153.98272M795.9082,507.26953l-1.96484,-14.87109C788.19465,448.87925 780.07638,411.18555 769.8262,377.44079M733.19504,361.53703c12.1347,34.0143 21.74037,72.39113 28.67174,118.27174M804.39192,392.45411c10.97508,41.17075 19.186,87.85869 24.23713,142.69571"></path><use xlink:href="#SDQ" height="100" width="100" transform="translate(650,1000)scale(1,0.972)rotate(0)translate(-50,-50)" stroke="#44F" stroke-width="72" stroke-linejoin="round" stroke-linecap="round"></use><use xlink:href="#SDQ" height="100" width="100" transform="translate(580,1005)scale(1,0.972)rotate(0)translate(-50,-50)" stroke="#44F" stroke-width="72" stroke-linejoin="round" stroke-linecap="round"></use><use xlink:href="#SDQ" height="100" width="100" transform="translate(510,1010)scale(1,0.972)rotate(0)translate(-50,-50)" stroke="#44F" stroke-width="72" stroke-linejoin="round" stroke-linecap="round"></use></symbol><symbol id="DQ5" preserveAspectRatio="none" viewBox="0 0 1300 2000"><path stroke="#44F" stroke-linecap="round" stroke-linejoin="round" stroke-width="6" fill="none" d="M485.03158,934.42498c143.122,31.82189 266.35778,13.76468 371.35552,-21.99406M484.70648,903.61557c157.12304,36.79926 286.77525,11.0833 397.60697,-32.62204M507.8709,679.88731 594.94776,860.2608M755.58856,847.99301 674.04692,679.08532M892.3716,857.6194C872.05375,824.92318 860,784.17717 860,740.00001c0,-54.58897 18.40502,-103.93886 48.06483,-139.33534M1097.6624,1262.6913C1073.7319,1017.7899 986.60455,985.39506 892.34918,857.56527l132.97212,-159.9126M1300,923.52939 660.36646,396.77238M321.45731,618.5427 0.7881782,939.21182M321.11444,618.5687C419.81972,682.9473 485.00001,793.9098 485,920c0,83.9443 -28.88925,161.1837 -77.3271,222.4363M166.038,568.34901c222.81109,85.35138 455.93513,122.60795 741.86439,32.31538M674.01345,678.6497c66.7823,-5.85221 136.09872,-18.43056 208.50319,-39.04281M374.79393,661.28174c43.55367,8.76621 87.97745,15.08862 133.48146,18.47118M137.30591,589.35253c41.73357,16.4725 83.9593,31.37992 126.89836,44.20017M880.08828,577.82622C615.67717,656.77021 400.5566,624.01524 191.24175,545.83173M837.91966,543.06264C603.55429,606.59044 413.04972,578.62896 222.99457,509.62891M809.31425,519.551C593.8867,573.65203 418.53077,547.90808 240.76659,484.20024M780.34719,495.70415C583.1255,540.99159 422.04886,516.86708 256.15981,457.9M541.11444,488.58728C447.65313,483.96092 359.64688,462.80771 269.29997,430.79794M750.93582,471.47843c-52.35787,10.78978 -101.99097,16.48181 -149.86263,17.77681M527.39665,651.33153l101.5475,210.34839M725.31516,854.2858 627.6954,652.07344M561.45266,652.86818 662.10227,861.35667M694.06632,858.56401 594.75335,652.84428M475.9067,839.52614c160.52552,43.72061 283.21622,17.46565 395.16135,-28.66323M481.999,872.11521c160.35182,40.14495 287.86269,12.70114 399.98701,-33.31236M-1.4116988e-4,715.76944 502.97284,1.9287502e-4M307.83585,277.85707C288.6818,469.58426 186.99268,581.9841 63.685101,625.48128M482.25706,964.52998c58.99882,12.80161 114.94462,17.45078 167.74985,16.06718M484.15768,944.47291c58.49244,12.89853 113.77543,17.57368 165.89044,16.17753M483.37448,954.53712c58.68418,12.82399 114.24447,17.47795 166.65653,16.09139M480.8968,974.46569c59.41682,12.8315 115.83945,17.49819 169.11944,16.12003M649.99301,1019.4028c-68.59965,1.7975 -131.89902,13.7763 -189.70618,31.2892M479.19114,984.3272c59.96512,12.91581 116.97404,17.6217 170.82327,16.2467M649.98559,999.42612c-65.25657,1.66638 -125.87293,12.26298 -181.48692,28.00128M649.95184,1039.3496c-72.95114,1.9543 -139.69471,15.8052 -200.3445,35.6497M649.96895,1029.3715c-70.62493,1.8684 -135.53349,14.7048 -194.66613,33.299M649.98372,1009.4143c-66.82646,1.7285 -128.70906,12.9665 -185.35488,29.531M477.2745,994.14411c16.69905,3.59241 33.17656,6.55709 49.42678,8.93839M527.25966,1003.0491c-18.98768,3.7396 -37.47323,8.138 -55.44302,13.0716M980.55984,751.45048C980.19511,747.74401 980,743.9216 980,740c0,-27.61646 9.95229,-50.2213 20.043,-62.26367M933.78327,807.73717C925.19681,788.13084 920,765.00536 920,740c0,-41.10271 14.17944,-77.0794 34.05469,-100.79883M912.76128,833.01148C898.55613,806.77026 890,774.74556 890,740c0,-47.84584 16.29107,-90.51041 41.05859,-120.06836M1124.8273,1235.2417c-13.6147,-111.338 -41.9586,-181.004 -78.5089,-235.68701 -35.0498,-52.43804 -75.12401,-89.99155 -115.57426,-141.24414L1029.582,739.4505M1029.6962,739.78941 1300,962.39258M1065.4062,1294.5938l-20.9648,-13.6739C978.33595,1237.8039 934.99999,1164.7355 935,1080c0,-47.1817 13.33289,-90.31613 36.64777,-127.13443M1043.7279,1316.2724l-15.6752,-10.2236C953.79732,1257.6172 904.99999,1175.0742 905,1080c0,-56.1874 16.95622,-107.635 46.22992,-150.684M1000.3726,1359.6277l-5.09721,-3.325C904.72007,1297.2398 844.99999,1195.7515 845,1080c0,-74.3601 24.61207,-142.69129 66.25403,-197.86726M1081.423,1159.8939A65,70.000002 0 0 1 1020,1090a65,70.000002 0 0 1 17.2914,-47.5421M1095.8912,754.94825C1098.8365,739.39043 1109.2716,692.50071 1130,680c25.8422,-15.58472 34.7227,-11.66816 62.0363,-30.6826 31.5804,-21.98475 61.1325,0.18596 20,25C1177.5471,695.12376 1180,690 1165,695c15,35 10,60 -10,70M1230,682.57609c44.0224,-16.04252 67.8996,3.1383 10,22.42391 -82.8831,27.60727 -70.7182,-0.29718 -10,-22.42391v0M1231.7243,654.37934c39.5361,-13.04311 58.9983,5.44577 5.1115,24.03198 -28.2551,9.74552 -45.0721,12.57356 -52.426,11.18018M1236.6676,705.98741c42.5132,-16.04252 65.5718,3.1383 9.6572,22.42391 -80.0415,27.60727 -68.2937,-0.29718 -9.6572,-22.42391v0M1246.6215,729.78853c38.2905,-14.16582 57.6795,5.99876 7.4085,22.8183 -71.9628,24.07711 -60.2208,-3.28001 -7.4085,-22.8183v0M1242.7975,776.10416c9.1591,-9.43695 15.7422,-18.44975 17.2025,-25.6478M1180.2389,824.90174c14.7069,-9.09632 34.5296,-23.21383 50.7715,-37.60398M1218.076,761.71682c13.8007,28.30906 34.2697,51.29962 14.5596,106.33602M1245.0493,877.70623c12.6916,-33.1171 12.7242,-58.55482 6.7671,-78.83709 -4.6665,-15.88828 -12.0275,-28.08515 -17.9714,-39.34747M1160,520c-15,-55 -85,15 -30,30 -55,15 15,85 30,30 15,55 85,-15 30,-30 55,-15 -15,-85 -30,-30v0M1176.1584,550A16.15836,16.335621 0 0 1 1160.0001,566.33562 16.15836,16.335621 0 0 1 1143.8417,550 16.15836,16.335621 0 0 1 1160.0001,533.66438 16.15836,16.335621 0 0 1 1176.1584,550v0M1132.5331,500.3245c-36.2897,-73.766 91.2235,-73.766 54.9338,0M1209.6755,522.53305c73.766,-36.2896 73.766,91.2235 0,54.9339M1187.4669,599.6755c36.2897,73.766 -91.2235,73.766 -54.9338,0M1110.3245,577.46695c-73.766,36.2896 -73.766,-91.2235 0,-54.9339M1130,550h-45M1090,550a5,5 0 0 1 -5,5 5,5 0 0 1 -5,-5 5,5 0 0 1 5,-5 5,5 0 0 1 5,5v0M1160,520V475M1160,480a5,5 0 0 1 -5,-5 5,5 0 0 1 5,-5 5,5 0 0 1 5,5 5,5 0 0 1 -5,5v0M1190,550h45M1230,550a5,5 0 0 1 5,-5 5,5 0 0 1 5,5 5,5 0 0 1 -5,5 5,5 0 0 1 -5,-5v0M1160,580v45M1160,620a5,5 0 0 1 5,5 5,5 0 0 1 -5,5 5,5 0 0 1 -5,-5 5,5 0 0 1 5,-5v0M1171.4824,538.51758 1185,525M1190,525a5,5 0 0 1 -5,5 5,5 0 0 1 -5,-5 5,5 0 0 1 5,-5 5,5 0 0 1 5,5v0M1171.4785,561.4785 1185,575M1185,580a5,5 0 0 1 -5,-5 5,5 0 0 1 5,-5 5,5 0 0 1 5,5 5,5 0 0 1 -5,5v0M1148.5214,538.52147 1135,525M1130,525a5,5 0 0 0 5,5 5,5 0 0 0 5,-5 5,5 0 0 0 -5,-5 5,5 0 0 0 -5,5v0M1148.5176,561.48242 1135,575M1135,580a5,5 0 0 0 5,-5 5,5 0 0 0 -5,-5 5,5 0 0 0 -5,5 5,5 0 0 0 5,5v0M1170.154,653.59002l3.9163,6.52717M1185.9545,644.92415l3.6027,6.00443M1139.5056,674.71385C1107.7774,656.41489 1072.8728,648.40163 1035,650M1139.6173,674.66345C1093.7666,634.37463 1047.6798,605.65095 1000,655c39.672,4.95901 54.7524,44.34643 137.9233,20.60187M1220,640c16.7012,-23.16996 35.5056,-41.46768 65,-35 -3.6652,22.35187 -25.7158,34.30744 -50,45M660.96204,0.18069302C784.15661,169.41306 895.37403,279.50213 908.01794,600.72065M642.28928,25.465998C760.63234,186.74827 859.7994,286.03061 876.72152,574.87324M682.77731,231.15871c47.13328,70.39385 80.46535,143.36467 96.29575,263.20486M679.48569,282.29359c3.5673,6.09029 7.01164,12.23267 10.33072,18.45641 24.30689,45.57873 42.87813,96.27209 54.71898,165.254M4.3799013e-4,586.15323 411.89187,3.0476709e-5M633.51937,0.03539599C646.36823,36.810264 690,162.94484 690,180c0,20 -10,60 -10,70 0,10 0,80 -10,120 -10,40 -60,130 -90,130 -30,0 -70.35359,-34.5924 -100,-30 -70.89083,10.98139 -142.66891,-126.59772 -130,-130 0,0 -5.34683,10.75511 -10,10 -17.89028,-2.90319 -28.81136,-31.8408 -34.62511,-54.08689M164.15701,352.54534C130.48424,313.77184 71.375583,310.31228 10,310c24.698102,-11.30176 55.317996,-13.78843 70,-40 19.510248,12.83927 44.29527,11.37142 70.35785,6.43837M117.89468,322.61142C193.46144,215.0741 269.0282,107.53678 344.59497,-5.3651708e-4M117.89468,322.61142v0M50.196901,311.19506c1.458803,-0.57067 2.924804,-1.16416 4.394896,-1.7849 10.374595,-4.38067 21.251125,-10.63365 30.03125,-20.34571 17.086673,6.83797 35.606153,6.88537 53.746263,4.51384M90,90c50,50 -6.775854,124.44424 29.75223,149.3558 50.52173,34.455 76.10175,-27.91411 47.6115,-46.77899C141.35725,175.35656 119.22825,211.72145 140,220c13.52517,5.39043 20,0 20,-10M89.999997,90c56.221693,42.37427 109.508833,-27.46879 141.654873,5.026798 36.77881,37.178712 -11.95773,74.011842 -32.40868,52.479702 -22.33086,-23.51142 11.17071,-52.63389 23.49932,-31.0373 8.02755,14.06227 -0.29378,19.99093 -9.89974,16.87473M190,220c17.04059,-28.96533 -18.4979,-48.18134 -40,-70 27.14758,10.56768 55.14236,33.87982 80,10M270.12198,106.09444C265.7281,66.425982 239.23534,33.854639 216.5735,0.05298579M282.34482,88.619452C274.24207,54.850105 253.20133,26.540884 234.71036,-0.08114848M318.66654,132.66592 310,85l45,-5 -5,-50 44.26751,-4.918612M274.19141,195.95703 265,150l47.56263,-8.64775M234.44788,252.51548 225,210l45.75383,-9.15077M199.36178,302.44714 190,265l42.27725,-9.39494M164.15701,352.54534 150,310l47.38281,-4.73828M164.15701,352.54534v0M413.88666,126.9619C495.08169,106.91785 535.72552,55.283395 571.73409,0.03794877M517.57044,0.06782864C501.2008,23.392359 484.40659,43.050629 462.13336,58.11878M535.71618,0.08269833C510.9162,36.527828 484.96258,66.79404 442.98578,85.599363M553.76479,0.07233782C522.67182,46.862826 489.10179,87.394369 427.44253,107.52824M670.71634,110.48095C628.16362,83.296392 600.62172,42.847217 575.75937,0.030202M628.46582,0.07241271C631.92828,5.5412852 635.42385,10.816889 639.00286,15.888793M610.81165,0.12494178C623.60344,21.076901 636.86303,40.05933 652.73515,56.208033M593.29254,0.18004176C612.8601,33.123416 633.7393,63.00243 662.61764,85.62946M340,265c10,55 -15,45 0,25M425,200c32.57023,-21.83347 65.33389,-43.27456 130,0 -2.10123,-1.04787 2.38751,5.29878 0.44706,3.98575C520,180 475.76995,168.20552 425,200v0M605,195c31.43942,-37.47882 60,-20 85,-10 -25,-5 -60,-20 -85,15v-5 0M605,195c-10,90 20.91232,95.60816 20,150 0,10 -30,5 -30,20M560,320c-21.32172,0.13819 -52.19824,34.45012 -10,35 7.17243,0.0935 17.26144,-10.36646 22.04093,-10.04518C610.65882,347.55068 571.16424,350.23401 560,350M525,390v10l5,-5 -5,-5v0M630,390v10l-5,-5 5,-5v0M625,395c-5,0 -25,-5 -30,-5 -5,0 -10,5 -15,5 -5,0 -15,-5 -20,-5 0,0 5,0 0,0 -5,0 -20,5 -30,5M560,415c5,15 40,15 40,0M435,245c28.54448,10.01655 49.29749,-25 75,-25 30,0 44.73189,33.14076 50,30M465,240c22.44363,55 85,0 95,10M685,225c-32.58064,-22.58411 -65,15 -80,20 15,0 65,35 77.77731,-13.84129M349.17899,341.51571c-0.0904,-0.0285 -0.18069,-0.0571 -0.27105,-0.0857M350.70338,352.46218c-2.86788,-0.89247 -5.74221,-1.79918 -8.62352,-2.71994M410.74736,440.70314c-43.19884,-9.51292 -86.25868,-22.3457 -130.31914,-37.86168M319.01151,331.56236c-5.28878,-1.81429 -10.60792,-3.67332 -15.96073,-5.57603M331.74899,346.39107c-10.57285,-3.47971 -21.24694,-7.14358 -32.04782,-10.98287M355.53891,364.39325C336.35536,358.58246 316.92959,352.1332 297.11206,345.10019M361.82596,376.6839C339.80669,370.23466 317.5308,362.94086 294.78448,354.88632M369.16888,389.17387C343.91802,382.06545 318.411,373.84158 292.34412,364.62982M377.51065,401.81192C348.60634,394.042 319.47021,384.80435 289.67513,374.29132M386.93812,414.58157C353.9155,406.17117 320.72173,395.83728 286.7624,383.86723M397.92049,427.54994C360.19033,418.54773 322.40401,407.0239 283.7386,393.40582M720.67084,446.67155c-32.20545,5.73775 -63.26597,9.4751 -93.49145,11.38516M669.04179,404.06512c-4.15804,0.5256 -8.29465,1.0148 -12.41092,1.46804M679.66581,412.72349c-9.52249,1.31267 -18.93452,2.43817 -28.24793,3.38148M689.95675,421.33341c-14.8728,2.2081 -29.48172,3.96795 -43.86771,5.298M700.47054,429.81816c-20.59349,3.27432 -40.69267,5.70423 -60.39608,7.33737M710.48722,438.29784c-26.24967,4.42618 -51.71709,7.50266 -76.58735,9.32557M210.56015,552.76354l15.02011,-46.5623M296.4433,440.02341 251.46205,566.78876M331.76509,451.14242l-37.41589,128.877M371.92428,462.30284 339.45014,592.19945M408.31054,470.8125 387.63003,603.16784M432.00976,611.35503c4.3371,-43.8719 6.40699,-90.011 10.62017,-134.00682M475.51279,617.05272 479.34381,482.9668M519.58755,620.97658 515.63994,486.75783M563.53785,622.93739 547.57008,491.20315M606.24875,622.85141 579.36558,499.95695M651.78077,620.63495 606.52583,488.98423M690.02902,617.15831 639.73058,487.22066M735.78169,610.96075 676.36556,483.64048M782.47432,602.4572 708.48437,479.14062M836.41814,589.92564 737.61062,473.9342M245.96003,365.75143c1.54975,37.59103 -1.76681,78.67292 -6.76412,120.9605M261.09004,344.2518c1.2114,36.59137 -2.04373,76.38684 -6.8769,117.31429M276.04559,322.9662c1.17666,32.63688 -1.24171,67.85269 -5.1928,104.16801M229.5475,389.12216c1.68233,37.378 -1.51647,78.25761 -6.44048,120.37447M214.60196,410.37424c1.53279,36.48035 -1.53138,76.25834 -6.27616,117.24195M199.65419,431.66396c1.35386,34.73352 -1.41091,72.42157 -5.79317,111.26993M184.70253,452.95382c1.16759,32.44986 -1.21776,67.44845 -5.1293,103.54186M169.74955,474.3204c0.97587,29.7057 -0.98897,61.52094 -4.34988,94.33766M154.62104,495.83425c1.07928,26.37005 -0.2334,54.45597 -2.83905,83.46942M139.46533,517.37853c1.11201,22.5837 0.41353,46.46616 -1.39304,71.14352M124.52397,538.60677c0.86943,18.79858 0.49838,38.48702 -0.71056,58.77653M106.10809,564.80757c0.4388,13.77958 0.24738,28.01124 -0.42041,42.58464M91.147659,586.1102c0.266216,9.20636 0.254421,18.61216 0.01022,28.18467M290.9993,301.73134c0.94371,24.24581 -0.11906,49.93097 -2.33766,76.44526M1097.6624,1262.6913C1073.7319,1017.7899 986.60455,985.39506 892.34918,857.56527l132.97212,-159.9126M1033.9743,1133.3638l-58.09149,42.5678c-8.06399,7.6989 -8.27681,20.5048 -0.47312,28.4675 7.80369,7.9626 20.61125,8.008 28.47121,0.1009l48.1684,-54.1611M1016.6928,1009.3498l-31.07561,-22.70918c-3.22059,-2.42382 -7.09834,-3.81807 -11.125,-4 -8.86586,-0.4018 -16.9363,5.08651 -19.82127,13.47947 -2.88497,8.39301 0.1055,17.68331 7.3447,22.81741l64.79098,39.8776M1026.8066,1058.8151l-59.60152,-27.5397c-1.91289,-0.5963 -3.90452,-0.9018 -5.9082,-0.9063 -9.99821,-0.022 -18.47691,7.3422 -19.85499,17.245 -1.37809,9.9028 4.76778,19.3022 14.39209,22.0109l64.38182,14.6752M1020.2158,1084.3002l-61.16892,-4.6403c-11.11403,0.6676 -19.54365,10.2821 -18.75212,21.388 0.79153,11.1059 10.49949,19.4277 21.59586,18.5123l60.53068,-10.6327M1022.4213,1108.9275l-61.28458,15.9827c-10.33199,4.2161 -15.21595,16.0712 -10.85201,26.3416 4.36393,10.2704 16.28787,14.9837 26.49459,10.4728l57.195,-28.3608M1052.0493,1150.3389l-46.8208,73.9267c-4.8138,10.0679 -0.458,22.1278 9.6783,26.796 10.1363,4.6682 22.1321,0.1389 26.6537,-10.0636l29.2862,-82.6776M1070.8467,1158.3204l-25.1729,104.7753c-1.4688,11.0677 6.4073,21.1951 17.4958,22.497 11.0886,1.3018 21.0962,-6.726 22.2308,-17.8329l6.3245,-53.8874M1145,955c10,35 -35,60 -45,-10 -10,70 -55,45 -45,10 -35,10 -60,-35 10,-45 -70,-10 -45,-55 -10,-45 -10,-35 35,-60 45,10 10,-70 55,-45 45,-10 35,-10 60,35 -10,45 70,10 45,55 10,45v0M1270.0102,1091.4402c-10,-70 -55,-45 -45,-10 -35,-10 -60,35 10,45M1190.4963,1098.9959c-19.8621,-6.9528 -37.3326,-16.2931 -51.4143,-29.1111 -25.365,-23.0888 -41.3725,-57.8826 -41.0704,-114.58192M1079.875,987.43659c5.2044,43.73331 21.51,75.17981 45.7441,97.23921 27.6905,25.2056 64.3174,37.7916 104.2446,45.1588M1283.638,1076.5355c-6.9037,-37.4041 -17.9269,-72.7094 -39.0931,-101.52378 -17.3971,-23.68336 -41.7632,-42.33819 -75.1124,-53.48035M1177.1324,945.54217c22.292,9.90447 38.6564,24.1035 51.2953,41.30939 14.5321,19.78314 24.032,44.13144 30.6785,71.04864M936.39492,865.38804c2.93009,3.26584 6.0073,6.3595 9.22422,9.28774 24.94198,22.70376 57.13436,35.16872 92.45836,42.80357M1024.7681,893.4841c-25.80202,-7.27415 -48.32085,-17.79241 -65.68607,-33.59933 -5.6113,-5.10776 -10.76466,-10.78836 -15.3848,-17.15223M1021.2651,749.4701c10.7027,7.86656 19.5996,17.08568 27.1626,27.38146 11.3212,15.412 19.5883,33.5947 25.8314,53.60423M1102.7198,861.70042c-6.3141,-32.31797 -15.9312,-62.90998 -32.7963,-88.89958M1030,825a15,15 0 0 1 -15,15 15,15 0 0 1 -15,-15 15,15 0 0 1 15,-15 15,15 0 0 1 15,15v0M1190,1020a15,15 0 0 1 -15,15 15,15 0 0 1 -15,-15 15,15 0 0 1 15,-15 15,15 0 0 1 15,15v0M1160,1150a15,15 0 0 1 -15,15 15,15 0 0 1 -15,-15 15,15 0 0 1 15,-15 15,15 0 0 1 15,15v0M1230.8592,1125.6586l-3.2617,3.7129M1268.4062,1082.9183l-37.547,42.7403M1281.8477,1067.6176l-13.4415,15.3007M1300.0005,1046.9539l-18.1528,20.6637M1210.8105,1125.7527l-87.4292,99.5221M1299.9993,1024.2276l-22.2579,25.3365M1194.668,1121.4002l-74.1171,84.3689M1257.0016,1050.445l-2.1246,2.4184M1299.9994,1001.4998l-27.2209,30.986M1137.9523,1163.2332l-20.608,23.4584M1179.2576,1116.2146l-22.0502,25.1001M1224.3363,1064.9009l-13.6078,15.4898M1251.8439,1033.5883l-11.8403,13.4781M1299.9998,978.77181l-33.032,37.60079M1130.0226,1149.5317l-16.3141,18.5708M1164.6634,1110.0997l-22.0504,25.1002M1245.8263,1017.7106l-67.2783,76.5841M1296.7638,959.72759l-36.4903,41.53751M1150.9563,1102.975l-41.3048,47.018M1238.7113,1003.0822l-74.2211,84.487M1285.1795,950.18661l-32.5353,37.03544M1138.2073,1094.7597l-33.0092,37.5749M1230.431,989.77993l-78.9384,89.85687M1273.5944,940.64639l-29.5904,33.68319M1126.4784,1085.3833l-26.2691,29.9026M1171.1881,1034.4896l-31.513,35.8718M1220.9551,977.83889l-32.0719,36.50801M1262.0093,931.10622l-27.7361,31.57237M1115.8854,1074.7137l-20.9513,23.8493M1160.5219,1023.9033l-31.3393,35.674M1210.4771,967.03866l-33.4814,38.11224M1250.425,921.56524l-26.8573,30.57211M1106.5117,1062.6564l-17.5491,19.9764M1198.7188,957.69533l-78.614,89.48777M1238.8397,912.0251l-27.031,30.76981M1098.3416,1049.2288l-15.566,17.7191M1185.7335,949.74918l-73.2506,83.38242M1227.2546,902.48501l-28.2988,32.213M1091.4267,1034.3726l-15.5277,17.6754M1131.3272,988.95324l-24.9228,28.37006M1160.3959,955.8639l-14.9441,17.011M1215.6705,892.94383l-30.5492,34.77474M1085.8248,1018.0216l-17.1334,19.5033M1115.6306,984.09323l-13.6854,15.57825M1170.3044,921.85709l-0.1909,0.21729M1204.0852,883.40376l-33.7808,38.45333M1081.81,999.86404l-20.7405,23.60926M1107.0527,971.12991l-7.8872,8.97815M1192.5,873.8638 1156.3359,915.03M1071.0453,989.39011l-18.1546,20.66559M1098.1154,958.57576l-1.266,1.44111M1101.7717,954.41372l-3.6563,4.16204M1141.9352,908.69491l-1.9665,2.23852M1180.9159,864.3225l-6.1599,7.0119M1058.3069,981.1626l-13.8416,15.75616M1169.3305,854.78261l-8.3082,9.45745M1053.7124,963.66496l-18.1208,20.62724M1157.7463,845.24145l-11.4905,13.07987M1040.4728,956.00814l-14.0627,16.0078M1146.1604,835.70228l-3.7641,4.28478M1026.1775,949.55302l-9.1504,10.41609M1061.5024,909.34219l-1.3848,1.57621M1102.2738,862.93146l-3.7423,4.25979M1134.5761,826.16119l-4.0637,4.62575M1021.6322,931.99926l-14.2498,16.22089M1030.9608,921.38048l-9.3286,10.61878M1035.0244,916.75477l-4.0636,4.62571M1122.9917,816.62017l-24.2406,27.59349M1018.7088,912.59945l-21.13873,24.06253M1111.4065,807.0801l-17.2504,19.63641M1003.0863,907.65529l-15.40972,17.541M1021.3146,886.90562l-3.7247,4.24M1054.1489,849.52978l-12.5381,14.27228M1073.3107,827.71757l-2.5438,2.89567M1099.8216,797.5398l-11.2711,12.83009M988.22908,901.83969l-10.51407,11.96835M1067.422,811.69313l-65.1541,74.16594M1088.2363,787.99977l-6.1307,6.97865M974.34116,894.92082l-6.58735,7.49849M1060.5352,796.80467l-72.59638,82.63771M1076.652,778.45869l-1.972,2.24472M961.38907,886.93678l-3.55398,4.04555M1005.5664,836.64898l-30.88277,35.15439M1052.567,783.14743l-27.2357,31.00282M949.42029,877.83327l-1.41028,1.60535M1001.4496,818.6074l-38.85733,44.23199M1006.9491,812.34727l-5.4995,6.26013M1043.5568,770.67612l-36.6077,41.67115M938.51378,867.52071l-0.14794,0.1684M1033.2666,759.6619l-81.5451,92.82423M264.2633,633.31092 7.6860364e-4,897.57345"></path></symbol><symbol id="DQ4" preserveAspectRatio="none" viewBox="0 0 1300 2000"><path fill="black" d="M1025.5147,697.64728l-25.2799,-20.36817C989.95229,689.7787 980,712.38354 980,740c0,3.9216 0.19511,7.74401 0.68552,11.31555zM933.78327,807.73717C925.19681,788.13084 920,765.00536 920,740c0,-41.10271 14.17944,-77.0794 34.05469,-100.79883l-22.9961,-19.26953C906.29107,649.48959 890,692.15416 890,740c0,34.74556 8.55613,66.77026 22.76128,93.01148M882.51664,639.60689c-72.40447,20.61225 -141.72089,33.1906 -208.48646,39.26062l81.55838,169.1255 -30.2734,6.29279 -97.43746,-202.30827c88.30614,-4.06982 180.99855,-20.04203 280.02469,-51.31314M594.8892,860.32312 508.07314,679.82011c-45.30176,-3.44975 -89.72554,-9.77216 -133.16697,-18.41743 -16.41096,-15.82699 -34.45824,-30.22409 -53.42716,-42.80855 66.75224,17.08229 134.81586,28.60075 205.74881,32.70122l102.10372,210.46884c-11.04049,-0.0306 -22.66475,-0.50875 -34.44234,-1.44107zM882.31345,870.99353c-110.83172,43.70534 -240.48393,69.4213 -397.60697,32.62204L481.999,872.11521c160.35182,40.14495 287.86269,12.70114 399.98701,-33.31236l10.34109,18.76083zM-0.64860342,940.6486 321.26546,618.48208C268.5163,604.88149 217.00732,587.87363 166.13787,568.28291c-8.86925,7.21776 -18.12763,13.97721 -28.23467,20.64417 41.13628,16.89795 83.36201,31.80537 126.33058,44.50473L-0.30976998,897.88399M318.66654,132.66592 310,85l45,-5 -5,-50 44.26751,-4.918612M274.19141,195.95703 265,150l47.56263,-8.64775M234.44788,252.51548 225,210l45.75383,-9.15077M199.36178,302.44714 190,265l42.27725,-9.39494M164.15701,352.54534 150,310l47.38281,-4.73828M660.56353,396.56531C664.95023,386.4568 668.15553,377.37788 670,370c6.01015,-24.04061 8.40811,-58.91781 9.42528,-86.39957 3.62771,4.78345 7.07205,10.92583 10.39113,17.14957 24.30689,45.57873 42.87813,96.27209 53.03429,163.90859z"></path></symbol><symbol id="DQ3" preserveAspectRatio="none" viewBox="0 0 1300 2000"><path fill="#44F" d="M664.82422,217.74805l-17.84961,3.0039c-1.75242,4.06968 -2.80274,9.26192 -2.80273,14.91993 0,13.0583 5.59644,23.64453 12.5,23.64453 6.90354,0 12.5,-10.58623 12.5,-23.64453 0,-7.16665 -1.68539,-13.58779 -4.34766,-17.92383zM512.5,218.17773A12.5,23.644157 0 0 0 500,241.82227 12.5,23.644157 0 0 0 512.5,265.4668 12.5,23.644157 0 0 0 525,241.82227 12.5,23.644157 0 0 0 512.5,218.17773Zm-228.76172,175.22852 -3.31055,9.43555c44.06046,15.51598 87.12148,28.34841 130.32032,37.86132l-12.82813,-13.15234c-37.73016,-9.00221 -75.51623,-20.52645 -114.18164,-34.14453zm426.74805,44.89063c-26.24967,4.42617 -51.71568,7.50326 -76.58594,9.32617l-6.7207,10.43359c30.22548,-1.91006 61.28478,-5.64702 93.49023,-11.38476zM137.4707,589.20898C114.30172,604.27982 89.466268,616.3877 63.728516,625.25L0,715.79297V897.58789L264.23438,633.43164C221.26581,620.73228 179.039,605.82432 137.4707,589.20898Zm770.64649,11.54493C878.40565,636.06049 860,685.41103 860,740c0,44.17716 12.05469,84.92264 32.36133,117.5918L1025.2363,697.41797Zm-346.16016,52.00781 99.92383,208.52734c11.20467,-0.63165 22.4379,-1.55344 32.83984,-2.76367L594.76758,652.83203c-10.82499,0.1113 -21.59728,0.0542 -32.81055,-0.0703zm-187.16406,8.51953c43.55367,8.76621 87.97841,15.08814 133.48242,18.4707zM595,677.27539a10,10 0 0 1 10,10 10,10 0 0 1 -10,10 10,10 0 0 1 -10,-10 10,10 0 0 1 10,-10zm22.43359,46.68359a10,10 0 0 1 10,10 10,10 0 0 1 -10,10 10,10 0 0 1 -10,-10 10,10 0 0 1 10,-10zm22.43164,46.6836a10,10 0 0 1 10,10 10,10 0 0 1 -10,10 10,10 0 0 1 -10,-10 10,10 0 0 1 10,-10zm22.4336,46.68554a10,10 0 0 1 10,10 10,10 0 0 1 -10,10 10,10 0 0 1 -10,-10 10,10 0 0 1 10,-10zm255.71094,73.76368a7.5,7.4999982 0 0 0 -7.5,7.5 7.5,7.4999982 0 0 0 7.5,7.5 7.5,7.4999982 0 0 0 7.5,-7.5 7.5,7.4999982 0 0 0 -7.5,-7.5zm17.14843,19.90039 -37.38476,9.44726 -5.10352,10.11524 12.47461,30.42773 -33.97851,17.59961 -3.07422,10.35742 18.10937,31.94335 -29.54687,24.0332 -0.97266,10.6856 24.9375,29.2304 -23.72656,34.4864 1.57812,10.1738 31.50391,24.4707 -15.38477,37.4726 3.91602,9.7129 36.08594,15.8868 -5.52539,41.4179 6.09765,8.3711 38.59571,6.9844 3.01367,40.1621 6.78125,6.9063 47.52731,4.4453 -2.6582,25.4375 16.752,-15.9746 1.6133,-15.4434 -6.7618,-8.2461 -48.76949,-4.5625 -2.97461,-39.6328 -6.14258,-6.8184 -37.25976,-6.7422 5.32422,-39.9062 -4.41211,-7.8555 -34.54883,-15.2109 14.77148,-35.9805 -2.33789,-8.7715 -30.41601,-23.6269 22.97656,-33.3965 -0.47461,-9.1172 -23.6875,-27.7676 28.50781,-23.1875 1.79297,-9.5175 -17.39453,-30.68364 33.1543,-17.17188 3.48828,-9.5039 -11.79688,-28.7793 33.36524,-8.43164c1.21493,-0.28955 2.29559,-0.86349 3.18359,-1.63672zm-49.99023,36.95508a7.5,7.4999982 0 0 0 -7.5,7.5 7.5,7.4999982 0 0 0 7.5,7.5 7.5,7.4999982 0 0 0 7.5,-7.5 7.5,7.4999982 0 0 0 -7.5,-7.5zM865.875,1010.1387a7.5,7.4999982 0 0 0 -7.5,7.5 7.5,7.4999982 0 0 0 7.5,7.5 7.5,7.4999982 0 0 0 7.5,-7.5 7.5,7.4999982 0 0 0 -7.5,-7.5zm-5.54297,67.3242a7.5,7.4999982 0 0 0 -7.5,7.5 7.5,7.4999982 0 0 0 7.5,7.5 7.5,7.4999982 0 0 0 7.5,-7.5 7.5,7.4999982 0 0 0 -7.5,-7.5zm9.85352,73.8926a7.5,7.4999982 0 0 0 -7.5,7.5 7.5,7.4999982 0 0 0 7.5,7.5 7.5,7.4999982 0 0 0 7.5,-7.5 7.5,7.4999982 0 0 0 -7.5,-7.5zm27.09375,69.7851a7.5,7.4999982 0 0 0 -7.5,7.5 7.5,7.4999982 0 0 0 7.5,7.5 7.5,7.4999982 0 0 0 7.5,-7.5 7.5,7.4999982 0 0 0 -7.5,-7.5zm41.66601,58.9082a7.5,7.4999982 0 0 0 -7.5,7.5 7.5,7.4999982 0 0 0 7.5,7.5 7.5,7.4999982 0 0 0 7.5,-7.5 7.5,7.4999982 0 0 0 -7.5,-7.5zm58.08594,52.1348a7.5,7.4999982 0 0 0 -7.5,7.5 7.5,7.4999982 0 0 0 7.5,7.5 7.5,7.4999982 0 0 0 7.49995,-7.5 7.5,7.4999982 0 0 0 -7.49995,-7.5z"></path></symbol><symbol id="DQ2" preserveAspectRatio="none" viewBox="0 0 1300 2000"><path fill="red" d="M411.89258,0 0,586.15234V715.76953L502.97266,0ZM642.42383,25.779297C660.14953,77.159552 690,165.89311 690,180c0,13.04885 -4.25628,34.61204 -7.21875,50.98047 47.12978,70.57281 80.46062,143.54262 96.29102,263.38281l97.64843,80.50977C859.79858,286.03042 760.6325,186.74817 642.42383,25.779297ZM1160,445c-22.7883,0 -45.5736,18.41409 -27.5059,55.24023 10.8008,-3.24044 22.3731,0.93962 27.5059,19.75977 5.1328,-18.82015 16.7051,-23.00021 27.5059,-19.75977C1205.5736,463.41409 1182.7883,445 1160,445Zm-73.8809,70.96289c-48.3876,-0.40036 -40.3459,93.17196 24.1211,61.54297 -3.2404,-10.80073 0.9397,-22.37309 19.7598,-27.50586 -18.8201,-5.13277 -23.0002,-16.70513 -19.7598,-27.50586 -9.1852,-4.50648 -17.2268,-6.47421 -24.1211,-6.53125zm147.7618,0c-6.8943,0.057 -14.9359,2.02477 -24.1211,6.53125 3.2404,10.80073 -0.9397,22.37309 -19.7598,27.50586 18.8201,5.13277 23.0002,16.70513 19.7598,27.50586 64.467,31.62899 72.5087,-61.94333 24.1211,-61.54297zM1160,533.66406A16.15836,16.335621 0 0 0 1143.8418,550 16.15836,16.335621 0 0 0 1160,566.33594 16.15836,16.335621 0 0 0 1176.1582,550 16.15836,16.335621 0 0 0 1160,533.66406ZM1160,580c-5.1328,18.82015 -16.7051,23.00021 -27.5059,19.75977 -36.1355,73.65228 91.1473,73.65228 55.0118,0C1176.7051,603.00021 1165.1328,598.82015 1160,580Zm-277.83203,60.61914c-72.05602,19.59985 -141.37311,32.17803 -208.13867,38.24805l81.15429,169.35742c40.21215,-8.86984 78.64233,-22.01475 115.6875,-37.70313C863.7798,788.40318 860,764.73918 860,740c0,-35.87701 7.94963,-69.49119 22.16797,-99.38086zm-507.36328,20.68555c49.6261,47.83604 85.52831,109.61963 101.19726,178.60547 41.47695,10.93791 80.51216,17.56878 118.21289,20.36328L508.07227,679.82031c-45.30176,-3.44975 -89.72371,-9.77155 -133.26758,-18.51562zM1100,885a25,25 0 0 0 -25,25 25,25 0 0 0 25,25 25,25 0 0 0 25,-25 25,25 0 0 0 -25,-25zm-62.4473,157.7441C1026.1754,1055.3961 1020,1072.3733 1020,1090c0,37.1632 26.9666,67.8498 61.4277,69.7891 -11.1748,-48.2711 -26.0468,-85.329 -43.875,-117.045z"></path></symbol><symbol id="DQ1" preserveAspectRatio="none" viewBox="0 0 1300 2000"><path fill="#FC4" d="M216.55469 0C239.22634 33.814818 265.75891 66.355164 270.49414 105.50781L245.13086 141.54297L241.14453 137.44141C247.46534 126.24315 247.12455 110.66581 231.6543 95.027344C199.50825 62.531765 146.22169 132.37427 90 90C140 140 83.223872 214.44391 119.75195 239.35547C145.10981 256.64912 164.18509 249.55171 173.29297 235.80469L176.70312 238.92383C167.75743 251.65423 158.81084 264.38499 150.11133 276.77734C124.29492 281.37234 99.510248 282.83927 80 270C65.317996 296.21157 34.698102 298.69824 10 310C71.375583 310.31228 130.48347 313.77189 164.33789 352.28711L411.89258 0L216.55469 0zM633.47266 0L642.28906 25.466797C760.63212 186.74907 859.79858 286.03042 876.7207 574.87305L908.01758 600.7207C895.36954 279.39746 784.08041 169.32614 660.83789 0L633.47266 0zM682.77734 231.1582L679.48633 282.29297C683.05363 288.38326 686.49733 294.52626 689.81641 300.75C714.1233 346.32873 732.69431 397.022 744.53516 466.00391L779.07227 494.36328C763.24187 374.52309 729.91062 301.55205 682.77734 231.1582zM280.42773 402.8418L269.30078 430.79883C359.64769 462.8086 447.6522 483.96189 540.50977 488.24609C519.1051 478.42724 497.65451 467.26522 480 470C455.71079 473.76254 431.31761 460.08503 410.5 440.52148C367.54871 431.19032 324.48819 418.35778 280.42773 402.8418zM269.26172 430.875C243.9434 488.29961 208.57727 533.64908 166.48633 568C282.61512 612.75704 401.68448 644.28584 529.67188 651.34961L527.39648 651.33203L628.94336 861.67969L724.92578 854.31445C651.29975 866.73399 570.12159 865.18581 475.90625 839.52539L481.99805 872.11523C642.34987 912.26018 769.86201 884.81623 881.98633 838.80273L871.06836 810.86328C824.93677 829.87258 776.97575 845.49875 725.29883 854.25195L627.69531 652.07422L623.53516 652.04297C712.99816 648.43545 807.17001 632.47396 907.90234 600.66406L750.93555 471.47852L720.66992 446.67188C688.46447 452.40962 657.4048 456.14666 627.53516 457.54688C619.65913 469.23924 611.03502 480.05882 601.91211 488.52148C642.64503 488.03506 685.33398 483.69265 730.04883 475.53125C685.32469 483.70089 642.57319 488.10345 601.36523 489.02539C593.90739 495.7938 586.48603 500 580 500C568.2459 500 554.90284 494.68967 541.17578 488.54688C447.65355 483.96089 359.64783 462.80674 269.26172 430.875zM1138.2969 499.25195C1115.5131 500.02405 1090.4688 539.21875 1130 550C1075 565 1145 635 1160 580C1175 635 1245 565 1190 550C1245 535 1175 465 1160 520C1155.7812 504.53125 1147.2123 498.94983 1138.2969 499.25195zM1274.4238 603.69727C1250.8373 603.1835 1234.6136 619.72629 1220 640L1235 650C1259.2842 639.30744 1281.3348 627.35187 1285 605C1281.3132 604.19154 1277.7933 603.77066 1274.4238 603.69727zM1053.0391 628.91211C1035.5356 628.96728 1017.8799 636.49411 1000 655C1039.672 659.95901 1054.7529 699.34612 1137.9238 675.60156L1139.6172 674.66406C1110.9605 649.48355 1082.2115 628.82015 1053.0391 628.91211zM1025.1484 697.3457L892.34961 857.56445C912.38606 884.73803 932.04658 907.51878 950.90234 929.02148C921.95226 972.37657 905 1023.8192 905 1080C904.99999 1175.0742 953.79738 1257.6172 1028.0527 1306.0488L1043.7285 1316.2715L1097.6621 1262.6914C1095.7685 1243.3124 1093.4803 1225.2647 1090.6973 1208.8164C1086.6581 1209.9044 1082.6001 1210.1116 1078.4609 1209.8066C1016.0156 1206.1003 970.00002 1151.3507 970 1090C970 1060.696 980.12419 1032.2685 999.36719 1009.873C1002.587 1006.0169 1006.3292 1002.7177 1009.9004 999.82227C1052.124 1057.2081 1084.5714 1127.5286 1097.8828 1262.293L1268.6133 1091.4277L1283.6387 1076.5352C1283.6312 1076.4946 1283.6227 1076.4546 1283.6152 1076.4141L1300 1060.0156L1300 1060.0078L1283.6133 1076.4004C1276.708 1039.0464 1265.6856 1003.7914 1244.5449 975.01172C1227.1478 951.32836 1202.7821 932.67415 1169.8613 921.81641C1163.9378 917.37317 1154.1462 913.32842 1139.9609 910.80078A40 40 0 0 1 1100.8047 949.9707C1112.1831 1013.7499 1154.7544 989.14042 1145 955C1159.4847 959.13849 1172.256 953.85756 1177.2109 945.53906C1199.4234 955.44712 1215.7888 969.64567 1228.4277 986.85156C1242.9598 1006.6347 1252.4592 1030.9831 1258.6523 1057.2227C1241.7679 1033.8531 1217.38 1054.7352 1225.0098 1081.4395C1206.294 1076.0921 1190.4378 1086.4722 1190.4668 1098.9062C1170.6337 1092.0428 1153.1637 1082.7028 1139.082 1069.8848C1113.717 1046.796 1097.7094 1012.0022 1097.8887 956.10742C1098.3322 954.42275 1098.7752 952.29684 1099.1953 949.95898A40 40 0 0 1 1060 910A40 40 0 0 1 1100 870A40 40 0 0 1 1139.9707 909.19531C1203.7499 897.81693 1179.1404 855.24559 1145 865C1154.1389 833.01372 1117.3415 809.37888 1103.0117 860.33789C1096.4075 829.39181 1086.7945 798.81039 1069.9395 772.82617L1300 962.39258L1300 923.54102L1025.1484 697.3457zM1021.3672 749.54688C1032.0242 757.39691 1040.8889 766.58868 1048.4277 776.85156C1059.7489 792.26356 1068.0151 810.44694 1073.6289 830.44922C1060.3842 829.89698 1049.5629 845.97003 1055 865C1030.8676 858.10504 1011.4897 877.35652 1024.748 893.36914C998.96663 886.20911 976.44725 875.69169 959.08203 859.88477C953.47577 854.78159 948.32593 849.10694 943.70898 842.75L1021.3672 749.54688zM1233.8457 759.52148L1218.0762 761.7168C1231.8769 790.02586 1252.3449 813.01633 1232.6348 868.05273L1245.0488 877.70703C1257.7404 844.58993 1257.7735 819.15141 1251.8164 798.86914C1247.1499 782.98086 1239.7896 770.7838 1233.8457 759.52148zM1015 810C1006.7157 810 1000 816.71573 1000 825C1000 833.28427 1006.7157 840 1015 840C1023.2843 840 1030 833.28427 1030 825C1030 816.71573 1023.2843 810 1015 810zM936.56055 865.57031C939.44119 868.76866 942.46245 871.80237 945.61914 874.67578C970.56112 897.37954 1002.7544 909.84477 1037.6484 917.5625C1003.7463 933.65252 1025.9214 963.30816 1055 955C1048.5065 977.72736 1065.2036 996.23809 1080.1621 987.34766C1085.0785 1031.1699 1101.385 1062.6164 1125.6191 1084.6758C1153.3096 1109.8814 1189.9361 1122.4668 1229.8633 1129.834L1266.2109 1093.8086L1124.8281 1235.2422C1111.2134 1123.9042 1082.8687 1054.2377 1046.3184 999.55469C1012.9501 949.63238 975.02564 913.1753 936.56055 865.57031zM882.3125 870.99414C771.48078 914.69948 641.83007 940.41449 484.70703 903.61523L485.03125 934.42578C628.15325 966.24767 751.38898 948.19038 856.38672 912.43164L882.3125 870.99414zM1175 1005A15 15 0 0 0 1160 1020A15 15 0 0 0 1175 1035A15 15 0 0 0 1190 1020A15 15 0 0 0 1175 1005zM1145 1135C1136.7157 1135 1130 1141.7157 1130 1150C1130 1158.2843 1136.7157 1165 1145 1165C1153.2843 1165 1160 1158.2843 1160 1150C1160 1141.7157 1153.2843 1135 1145 1135z"></path></symbol><rect id="XDQ" width="164.8" height="260.8" x="-82.4" y="-130.4"></rect></defs><rect width="239" height="335" x="-119.5" y="-167.5" rx="12" ry="12" fill="white" stroke="black"></rect><use width="164.8" height="260.8" x="-82.4" y="-130.4" xlink:href="#DQ1"></use><use transform="rotate(180)" width="164.8" height="260.8" x="-82.4" y="-130.4" xlink:href="#DQ1"></use><use width="164.8" height="260.8" x="-82.4" y="-130.4" xlink:href="#DQ2"></use><use transform="rotate(180)" width="164.8" height="260.8" x="-82.4" y="-130.4" xlink:href="#DQ2"></use><use width="164.8" height="260.8" x="-82.4" y="-130.4" xlink:href="#DQ3"></use><use transform="rotate(180)" width="164.8" height="260.8" x="-82.4" y="-130.4" xlink:href="#DQ3"></use><use width="164.8" height="260.8" x="-82.4" y="-130.4" xlink:href="#DQ4"></use><use transform="rotate(180)" width="164.8" height="260.8" x="-82.4" y="-130.4" xlink:href="#DQ4"></use><use width="164.8" height="260.8" x="-82.4" y="-130.4" xlink:href="#DQ5"></use><use transform="rotate(180)" width="164.8" height="260.8" x="-82.4" y="-130.4" xlink:href="#DQ5"></use><use width="164.8" height="260.8" x="-82.4" y="-130.4" xlink:href="#DQ6"></use><use transform="rotate(180)" width="164.8" height="260.8" x="-82.4" y="-130.4" xlink:href="#DQ6"></use><use xlink:href="#VDQ" height="32" width="32" x="-114.4" y="-156"></use><use xlink:href="#SDQ" height="26.769" width="26.769" x="-111.784" y="-119"></use><use xlink:href="#SDQ" height="55.68" width="55.68" x="34" y="-132.16"></use><g transform="rotate(180)"><use xlink:href="#VDQ" height="32" width="32" x="-114.4" y="-156"></use><use xlink:href="#SDQ" height="26.769" width="26.769" x="-111.784" y="-119"></use><use xlink:href="#SDQ" height="55.68" width="55.68" x="34" y="-132.16"></use></g><use xlink:href="#XDQ" stroke="#44F" fill="none"></use></svg>