<?xml version="1.0" encoding="UTF-8" standalone="no"?>
<svg xmlns="http://www.w3.org/2000/svg" xmlns:xlink="http://www.w3.org/1999/xlink" class="card" face="QH" height="3.5in" preserveAspectRatio="none" viewBox="-120 -168 240 336" width="2.5in"><defs><symbol id="VHQ" viewBox="-500 -500 1000 1000" preserveAspectRatio="xMinYMid"><path d="M-260 100C40 100 -40 460 260 460M-175 0L-175 -285A175 175 0 0 1 175 -285L175 285A175 175 0 0 1 -175 285Z" stroke="red" stroke-width="80" stroke-linecap="square" stroke-miterlimit="1.5" fill="none"></path></symbol><symbol id="SHQ" viewBox="-600 -600 1200 1200" preserveAspectRatio="xMinYMid"><path d="M0 -300C0 -400 100 -500 200 -500C300 -500 400 -400 400 -250C400 0 0 400 0 500C0 400 -400 0 -400 -250C-400 -400 -300 -500 -200 -500C-100 -500 0 -400 -0 -300Z" fill="red"></path></symbol><symbol id="HQ6" preserveAspectRatio="none" viewBox="0 0 1300 2000"><path stroke="#44F" stroke-linecap="round" stroke-linejoin="round" stroke-width="3" fill="none" d="M1197.8654,650c10.0574,2.91461 25.5081,-8.83844 25.5081,-8.83844M1217.1593,665C1230,670 1230,685 1230,685M1218.8221,693.40806c10.346,9.10185 5.1999,23.19148 5.1999,23.19148M1220,730c9.3763,10.09794 2.8368,23.59737 2.8368,23.59737M1215.4023,758.60873c9.2828,10.18402 2.619,23.62255 2.619,23.62255M1240,645c5.0425,2.35668 8.7799,5.45909 10,10M1242.9375,685.7889c4.2582,3.58444 7.0625,7.55041 7.0625,12.25237M1242.8859,721.91692c3.69,4.16703 5.8861,8.49951 5.2005,13.15122M1241.1782,759.37225c1.8977,5.23256 2.3453,10.06917 0,14.14213M595,405c12.68307,-6.06073 25.88877,-7.25029 40,0M495,165c20,-20 45,-20 60,-5M520,230c20,5 40,-15 40,-15M650,165c30,-15 60,0 75,15v0M670,230c35,0 55,-20 55,-20M541.52659,172.33481c1.53321,3.50623 2.41275,7.59372 2.41275,11.95808 0,13.02607 -7.83502,23.58578 -17.5,23.58578 -9.66498,0 -17.5,-10.55971 -17.5,-23.58578 0,-4.90159 1.10939,-9.45395 3.00823,-13.22587M692.86048,171.1425c3.01903,4.23816 4.87459,9.99321 4.87459,16.33237 0,13.02607 -7.83502,23.58578 -17.5,23.58578 -9.66498,0 -17.5,-10.55971 -17.5,-23.58578 0,-5.63733 1.46744,-10.81272 3.91557,-14.87019"></path><use xlink:href="#SHQ" height="75" width="75" transform="translate(967,1188)scale(1,0.972)rotate(30)translate(-37,-37)"></use><use xlink:href="#SHQ" height="75" width="75" transform="translate(1013,1067)scale(1,0.972)rotate(15)translate(-37,-37)"></use><use xlink:href="#SHQ" height="75" width="75" transform="translate(1041,942)scale(1,0.972)rotate(3)translate(-37,-37)"></use><use xlink:href="#SHQ" height="75" width="75" transform="translate(1054,816)scale(1,0.972)rotate(5)translate(-37,-37)"></use><use xlink:href="#SHQ" height="75" width="75" transform="translate(1068,699)scale(1,0.972)rotate(10)translate(-37,-37)"></use></symbol><symbol id="HQ5" preserveAspectRatio="none" viewBox="0 0 1300 2000"><path stroke="#44F" stroke-linecap="round" stroke-linejoin="round" stroke-width="6" fill="none" d="M545.838,382.40958 -3.4457612e-4,698.42125M210.00357,967.03374 -5.0318125e-4,1161.4819M911.89621,1155.5408C1011.2833,961.37512 982.65289,699.95957 1031.8887,603.38151M388.45726,843.9485c63.51674,17.7062 102.74371,91.7518 88.73456,171.8223 -14.84223,84.832 -83.81994,144.3026 -154.06608,132.8312 -3.54332,-0.5786 -7.02218,-1.3267 -10.43217,-2.2366M909.97951,1211.57l24.17088,-44.6384c54.85632,-107.1689 71.63021,-230.66947 83.09571,-336.74019 5.7327,-53.03537 10.0816,-101.7918 16.5391,-141.34571 5.8736,-22.70053 8.5174,-47.90974 17.8715,-69.00695M1119.4978,665.14526c-9.9478,28.19624 -15.0782,61.66045 -19.8806,99.15357 -7.3221,57.16385 -12.255,123.78509 -22.1875,192.23437 -19.164,132.0677 -56.7571,268.6324 -159.93025,356.3608M378.07661,657.7054c9.90456,58.4667 14.51989,126.9043 10.30043,186.2208M157.95317,1322.2327c46.14203,-142.959 3.6278,-495.27188 220.77976,-664.28425l10.91438,-8.68776M1255.7259,741.83044c14.7981,7.71629 29.5968,15.31204 44.3521,22.86187M750.69391,123.08944c68.41761,306.46514 221.93186,452.11195 390.96519,555.148M283.37737,534.5969c211.008,146.18047 473.964,157.35655 717.79923,40.63511M259.47184,548.32638c98.8689,70.84286 209.42649,112.56949 324.30152,126.00234M805.85788,665.91921C878.55054,652.19962 951.10459,627.83002 1021.7695,593.0057M981.7226,556.7953C750.98009,664.2957 506.25009,653.84093 306.81994,520.3306M1101.021,972.75833l198.9794,-184.2402M895.21063,669.95954l4.16258,196.82083M824.96318,687.4077c56.65536,-11.71079 113.08494,-29.65743 168.47343,-53.74053M235.44462,561.75161c100.21065,74.15489 212.68115,118.8803 329.73182,135.11225M994.23175,632.3254c-15.80219,55.54873 -19.41083,127.91388 -28.37628,207.75077 -0.36978,3.29288 -0.74635,6.5965 -1.1305,9.90986M714.80257,652.83302l-4.69876,290.7436M680.66676,654.00196l13.98498,283.92763M814.67063,639.25533c-34.63744,96.21422 -44.88224,214.13029 -49.25917,315.81626M574.85438,648.25878c29.43746,82.45626 45.93283,177.7386 53.64308,263.69146M790.76251,949.58752c3.53303,-90.01922 10.5011,-178.04405 34.7401,-262.50585M786.48628,644.17676C754.46359,739.43329 744.55723,854.7006 740.33382,952.05978M654.33438,920.97579c-6.80715,-88.54273 -22.2265,-182.80873 -51.9444,-269.70385M564.82763,697.75811c19.19296,63.62374 32.13126,139.95511 38.75326,206.92703M676.06582,3.6843121e-4 1040,600 1090,570 746.03466,2.9921532e-4M952.25828,341.3086C1000.9234,315.8944 1039.4134,283.383 1095,305 1065.2527,211.36107 1028.734,119.33488 1106.6398,0.05624388M996.58881,316.58215 798.13446,2.0549057e-4M988.51081,303.78536l-43.7224,25.50474M979.18821,288.39021l-43.23744,25.22184M969.45724,273.23328l-43.08431,25.13251M959.82287,258.01999l-43.35958,25.29309M950.43065,242.66545 920.20891,260.2948M940.71097,227.50193l-22.52482,13.13948M1040,145c-45,15 -83.58957,-37.43579 -115,-15 -35.00012,24.99983 5.62074,69.68963 25,60 20,-10 15,-40 -5,-40 -20,0 -10,15 -10,15M1040,145c-35.2326,31.75948 -8.6313,91.18201 -43.63494,107.45231 -39.00402,18.12969 -57.86454,-39.24199 -39.88137,-51.32717 18.55919,-12.47226 42.19678,6.66577 32.33833,24.06726 -9.85844,17.40146 -17.98032,1.30689 -17.98032,1.30689M927.36298,206.53507C954.12808,198.30236 979.12831,182.21092 1005,170M955,195c22.59425,-17.66394 26.08007,-20.22888 30,-35M955,195c17.82252,-3.50586 40,-2.73029 50,5M963.24011,263.59543C990.16075,274.2978 1020,270 1045,255c10.1624,20.30608 32.0159,34.07048 50,50M973.91565,280.46103C994.78288,284.72347 1024.7035,283.82414 1040,280c8.9362,8.87536 24.5981,14.37237 40,20M821.03144,36.679301C833.48241,39.397449 843.90831,43.314112 875,35c7.85164,4.168923 17.68616,7.037284 35,5 -2.71386,8.217855 -7.13718,13.526488 -5,30 -11.75247,19.815616 -19.0289,39.2889 -25.98055,58.73733M897.72434,159.35085C902.36369,135.62079 899.74143,111.16316 930,90 931.61548,60.668738 936.91125,30.522559 943.84668,0.01331693M421.08044,454.25091c169.14032,93.56156 326.46568,63.02065 482.20961,15.86864M870.23269,422.62583C735.25943,462.56504 612.30696,484.39837 477.56166,421.40052M1141.8435,678.40033c0,0 16.2001,-16.44391 18.1565,-18.40033 5,-5 27.7553,2.1466 39.3842,-13.48933 16.8462,-22.65095 34.8291,-5.69455 17.537,13.28408 -14.2871,15.68051 -36.9212,27.39737 -36.9212,27.39737 10.5216,34.89336 5.9503,67.2913 -10,97.80788M1230,645c40,-50 60.4702,-13.56217 25,20 -39.8629,37.71853 -63.642,28.30244 -25,-20v0M1235.5241,680.0038c52.1811,-37.10984 61.8709,3.54544 18.555,26.09052 -48.6803,25.33706 -68.9644,9.75938 -18.555,-26.09052v0M1235.7412,715.44385c54.2425,-29.75136 58.1949,11.838 14.2311,28.34987 -49.4084,18.55666 -66.6318,0.39139 -14.2311,-28.34987v0M1235.2926,752.53461c55.0738,-12.59586 48.8229,25.65318 5.9684,29.05788 -48.1618,3.82627 -59.1723,-16.88964 -5.9684,-29.05788v0M1240.1545,781.85093C1236.832,801.15856 1218.6766,824.64547 1205,830c-18.5269,7.25347 -62.3179,13.87163 -86.9522,-6.55084M586.59556,977.68232c6.93102,1.79604 14.16001,3.93691 21.72999,6.44742M479.82734,978.75568c5.08742,-1.64369 10.20248,-3.08348 15.39388,-4.29133M841.13338,930.56833c-31.00701,15.35093 -48.64245,22.53823 -66.10213,24.13089 -18.43533,1.68166 -44.48021,-1.33735 -95.48633,-23.41797 -56.2134,-24.33485 -104.64639,-36.50918 -149.625,-36.09375 -6.42551,0.0593 -12.77902,0.37675 -19.07617,0.95117 -17.57292,1.60299 -33.74548,5.02947 -48.86909,9.56858M496.60574,958.80371c-6.12253,1.25438 -12.10187,2.80299 -17.99533,4.60054M615.29164,970.65406c-11.60245,-3.91703 -22.52901,-7.03736 -32.90161,-9.42145M647.24196,982.74831c-2.43795,-1.01347 -4.84784,-1.99646 -7.2305,-2.94941M745.96941,1013.7479c-21.42451,-2.6444 -46.39131,-9.4416 -77.45704,-22.03561M820.45595,1005.3462c-13.17737,4.6655 -26.13542,7.8425 -39.97548,9.105 -2.44817,0.2233 -4.93354,0.3886 -7.46237,0.4919M524.4573,940.32392c-3.20712,0.13076 -6.38077,0.34038 -9.52566,0.62725 -13.54724,1.23577 -26.21255,3.83475 -38.37884,7.40082M649.78057,967.57102c-36.13853,-14.77335 -66.92763,-23.19001 -94.67663,-26.1672M739.9604,997.73712c-16.3138,-2.72466 -35.18035,-8.01435 -57.93523,-16.80423M822.10091,988.71254c-14.68669,5.731 -28.38425,9.46761 -42.98177,10.79918M520.04436,925.52763c-2.17001,0.12805 -4.32833,0.29013 -6.476,0.48604 -14.27719,1.30236 -27.58866,3.99904 -40.26705,7.65265M825.50985,971.07305c-17.40101,7.5008 -32.15396,12.07815 -47.75399,13.50117 -24.8237,2.2644 -56.47524,-2.53498 -110.12891,-25.76172 -40.94616,-17.72565 -76.09352,-28.15158 -107.97941,-31.97119M922.41009,1133.4638c-1.31568,-0.6092 -2.703,-1.112 -4.15423,-1.495 -48.7151,-13.5801 -83.01509,-73.7426 -70.82227,-143.43169 12.9179,-73.83331 71.29896,-121.30364 125.41211,-112.4668 2.72949,0.44573 5.39977,1.02079 8.01563,1.71875 1.84733,0.52403 3.70446,0.82603 5.5431,0.92205M955,1040c-19.32997,0 -35,-17.9086 -35,-40 0,-22.09139 15.67004,-39.99999 35,-39.99999 6.60938,0 12.79087,2.09373 18.06437,5.73251M962.50453,1014.8465c-2.20733,1.4604 -4.77051,2.2964 -7.50453,2.2964 -8.28431,0 -15.00005,-7.6752 -15,-17.14297 3e-5,-9.46771 6.71575,-17.14279 15,-17.14279 5.25511,0 9.87904,3.08844 12.55792,7.76377M940.83932,963.36692 920,915 887.2981,910 890,950l-35,15 15,40 -23.18198,30 33.18198,20 -10,40h40l5,35M920,915l20,-35 35,20 -12.61978,60.65789M975,900l10.25547,-10.25547M910,1095l29.33944,-59.5217M880,1055l46.21737,-32.3537M870,1005l50.10954,-2.7875M890,950l36.29267,26.48652M905,935l27.70571,34.18927M950,910l2.87052,49.48981M880,980l41.19777,10.37107M875,1030l46.85607,-16.6873M900,1070l32.52274,-39.4533M915,1130l11.12069,-4.4483M935,1090l11.82482,-50.9246M217.58969,729.12504a13.75,15 45 0 1 -20.32931,0.88388 13.75,15 45 0 1 0.88387,-20.32932 13.75,15 45 0 1 20.32932,-0.88388 13.75,15 45 0 1 -0.88388,20.32932v0M219.80648,745.41865c4.25225,3.00471 7.23595,8.20188 6.68988,19.49941M233.67161,731.01332c3.39348,3.89696 8.95626,6.41454 20.55501,5.09409M180.92647,706.91176c-3.00471,-4.25226 -8.20188,-7.23594 -19.49941,-6.68987M195.3318,693.04662c-3.89696,-3.39347 -6.41455,-8.95626 -5.09408,-20.55499M200.20665,740.02627c-6.35453,5.55159 -11.80322,13.41168 -14.7314,27.69501M187.24303,727.06265c-5.5516,6.35453 -13.4117,11.80322 -27.69502,14.73139M228.49092,711.742c5.5516,-6.35454 13.4117,-11.80322 27.69501,-14.73139M215.52729,698.77837c6.35455,-5.55159 11.80323,-13.41169 14.73139,-27.695M213.17027,752.98989c0.45476,28.00908 7.07107,7.07107 31.81981,45.96194 7.07107,-7.07106 17.67767,-24.74873 10.6066,-31.8198 7.07107,7.07107 24.74874,-3.53554 31.8198,-10.6066 -38.89087,-24.74874 -17.95286,-31.36505 -45.96194,-31.81981M174.2794,714.09902c-28.00907,-0.45476 -7.07107,-7.07107 -45.96193,-31.81981 7.07106,-7.07106 24.74873,-17.67766 31.81979,-10.6066 -7.07106,-7.07106 3.53554,-24.74874 10.60661,-31.8198 24.74873,38.89087 31.36505,17.95286 31.8198,45.96194M206.68847,746.50809c-15.83478,41.09289 -14.14215,14.14213 -71.29994,84.26355 -6.48182,-6.48182 -12.37437,-26.51651 1.76776,-40.65864 -14.14213,14.14213 -34.17682,8.24958 -40.65864,1.76777 70.12142,-57.15779 43.17066,-55.46517 84.26356,-71.29994M234.97274,718.22381c41.09289,-15.83477 14.14214,-14.14215 84.26356,-71.29994 -6.48182,-6.48181 -26.51651,-12.37436 -40.65864,1.76777 14.14213,-14.14213 8.24957,-34.17682 1.76776,-40.65864 -57.15778,70.12141 -55.46517,43.17066 -71.29993,84.26356M-0.00965108,908.0902a13.75,15 45 0 1 18.48323308,0.70551 13.75,15 45 0 1 -0.883883,20.32932 13.75,15 45 0 1 -17.59665127,2.95817M19.8065,945.41859c4.252222,3.0048 7.235887,8.202 6.68988,19.4994M33.671605,931.01332c3.39349,3.89695 8.956285,6.41457 20.555,5.09411M0.2066594,940.02629c-0.07192,0.0628 -0.14372387,0.12596 -0.21540942,0.18939M28.490931,911.74199c5.55158,-6.35453 13.411687,-11.80322 27.694996,-14.73138M15.527302,898.77836c6.354528,-5.55158 11.803224,-13.41168 14.731381,-27.69499M13.170281,952.98989c0.454719,28.0091 7.071068,7.0711 31.819813,45.9619 7.07106,-7.071 17.677669,-24.7487 10.606594,-31.8198 7.071075,7.0711 24.748738,-3.5355 31.819798,-10.6066C48.52562,931.77668 69.463625,925.16037 41.454553,924.70561M0,870.62562c1.6873505,2.5151 2.4224871,6.49298 2.5636796,15.18912M6.688474,946.50809c-2.5351192,6.57888 -4.6209859,11.41372 -6.57101846,15.18206M34.972745,918.22381C76.065633,902.38904 49.114874,904.08166 119.2363,846.92387 112.75448,840.44206 92.71978,834.54951 78.577652,848.69164 92.71978,834.54951 86.827233,814.51482 80.345426,808.03299 23.18763,878.15442 24.880252,851.20366 9.045494,892.29655M22.082613,867.58792c0.644139,-3.51959 1.579047,-7.27656 2.836686,-11.26339 6.776141,-21.48092 22.539707,-47.22491 45.552172,-70.23739 23.012458,-23.01245 48.756449,-38.776 70.237359,-45.55215 3.78182,-1.19296 7.3568,-2.09554 10.71853,-2.73501M189.45596,775.91195c-0.63865,3.34135 -1.53696,6.89295 -2.72165,10.64852 -6.77615,21.48091 -22.5397,47.22489 -45.55216,70.23735 -23.01247,23.01247 -48.756456,38.77604 -70.237377,45.55218 -3.455906,1.09017 -6.739102,1.93782 -9.844687,2.56381M62.811235,934.67591c5.963109,-0.90155 11.997636,-2.3444 17.991894,-4.23529 27.120211,-8.55506 55.825951,-26.66332 81.592221,-52.42959 25.76626,-25.76626 43.87452,-54.472 52.42959,-81.59221 2.56524,-8.13203 4.30589,-16.33817 4.98909,-24.33954M155.48118,707.43087c-8.09338,0.66548 -16.4,2.41712 -24.6307,5.01349 -27.12021,8.55507 -55.825955,26.66332 -81.592212,52.42958 -22.968935,22.96893 -39.8523899,48.27374 -49.30785724,72.70897M263.38749,736.26207c5.118,-0.90346 10.2765,-2.19337 15.40552,-3.81132 14.98052,-4.72561 30.44482,-12.36606 45.63025,-22.60196M245.45053,568.69908c-24.81157,25.29489 -42.27726,53.29212 -50.63198,79.77721 -1.66482,5.27762 -2.98233,10.58643 -3.88887,15.85024M220,670c0.64573,-3.6351 1.60353,-7.52636 2.90918,-11.66535 6.77614,-21.48092 22.53969,-47.2249 45.55217,-70.23738 0.64983,-0.64983 1.30184,-1.29388 1.95586,-1.93211M359.30944,635.66973c-5.90169,7.84149 -12.63424,15.63504 -20.13741,23.13821 -23.01248,23.01248 -48.75646,38.77604 -70.23738,45.55218 -3.50661,1.10616 -6.8354,1.96264 -9.98126,2.59122M0.09745825,1030.8391c7.32997495,-12.193 12.96340575,-24.466 16.73755275,-36.43031 2.129258,-6.7499 3.690411,-13.5509 4.550246,-20.2434M52.888835,1066.4529l27.170113,20.9001M2.1342197,1027.4109l29.0038533,22.3107M38.550051,1076.9616l28.803026,22.1562M-5.4222262e-4,1047.3073 24.265974,1065.9738M-2.2562456e-4,1068.846 54.646916,1110.8822M-8.6287061e-4,1090.384 41.941045,1122.647M3.6951622e-4,1111.9233 29.234883,1134.4114M-2.9326029e-4,1133.4613 15,1145M16.484917,995.37298 105.471,1063.8238M9.9716305,1011.9013l82.7922585,63.6863M74.432797,932.25601 169.00001,1005M83.245878,960.57376l73.048242,56.19094M66.275847,969.05835l77.312103,59.47085M56.089064,982.76079l74.793966,57.53381M47.132454,997.40958l71.043466,54.64882M21.041791,977.33984l19.760218,15.20017M178.03337,861.17951l49.28101,37.90847M136.36007,829.12313l17.62444,13.55726M75.319541,782.16887l56.358909,43.35301M-7.5124534e-5,724.23071 50.741008,763.26231M166.64199,873.95538l55.7336,42.872M62.860269,794.12329 142.5675,855.43654M2.4050016e-4,745.76944 38.78578,775.60445M154.18272,885.90979l63.57885,48.9068M111.80889,853.31453l18.10285,13.92527M86.555448,833.88881l8.380792,6.44677M51.972933,807.28688l17.65861,13.58354M-4.8733763e-4,767.3073 28.069306,788.89947M140.89692,897.2284l72.57176,55.82443M98.452593,864.57892l17.573177,13.51783M42.008254,821.1602l16.368602,12.59123M-2.9633138e-4,788.84593 18.155887,802.81222M179.42933,948.40718l27.68858,21.29891M126.65853,907.81426c10.47101,8.05462 20.94202,16.10924 31.41302,24.16386M85.967693,876.51361c5.117324,3.93641 10.234648,7.87281 15.351967,11.80921M33.530074,836.17698l12.780495,9.83115M1.5424456e-5,810.38463 9.1736625,817.44128M165.48357,959.21812l28.92724,22.25173M111.26044,917.50803l37.34194,28.72457M74.097903,888.92146l10.875381,8.36568M26.256477,852.12036c2.392071,1.84006 4.784143,3.68011 7.176214,5.52017M93.589879,925.45373l88.116271,67.78176M63.014084,901.93389l2.998632,2.30664M217.90405,784.15696l40.25944,30.9688M60.735892,663.25837 126.6209,713.93915M213.28735,802.14412l37.8553,29.11946M184.08699,779.68231l3.89566,2.99666M135.40834,742.2372l7.90238,6.07875M44.759912,672.50764l63.771798,49.05523M206.18462,818.21894l38.4032,29.54092M171.01263,791.16356l10.76432,8.28024M118.1564,750.50492l13.36997,10.28459M28.782985,681.75614l63.479239,48.83018M197.70644,833.23572l40.69749,31.30576M159.00614,803.46626l14.51475,11.16519M102.16882,759.74525l16.81422,12.93402M12.808231,691.00635l64.278008,49.44461M188.52772,847.71363l44.06545,33.8965M147.70019,816.30784l16.66761,12.82124M123.65133,797.80872l6.19376,4.76443M88.026555,770.40505l17.914905,13.7807M4.9861673e-4,702.69269 63.507823,751.54449M276.40897,764.54536l5.75958,4.43045M108.66356,635.51044l44.53665,34.25896M258.46502,772.28079l15.28866,11.76051M92.687573,644.75969l41.927947,32.25227M252.47289,789.20991l13.27869,10.21438M76.711591,654.00893 147.3499,708.34608M280.47205,681.51697l14.68561,11.29662M229.40987,642.23837l11.40505,8.77312M172.56814,598.51396l32.54512,25.03471M304.56022,721.58477l6.37722,4.90556M269.27717,694.44397l8.60291,6.61762M222.64032,658.56947l4.87812,3.7524M156.59216,607.7632l41.46962,31.89971M287.45349,729.96423l13.42955,10.33042M140.61523,617.01171l51.85595,39.88919M266.80992,735.62302l24.46923,18.82248M124.64048,626.2619l36.20069,27.84668M286.62478,621.63446l50.61793,38.93687M257.92847,599.56037l17.90636,13.77412M220.49581,570.76602l13.46923,10.36094M305.8092,657.93016l18.75213,14.42471M247.15219,612.80939l17.68424,13.60326M204.51983,580.01526l18.95086,14.57758M292.79463,669.45741c5.83779,4.49061 11.67559,8.98122 17.51338,13.47183M237.5207,626.939c5.22269,4.01745 10.44538,8.0349 15.66806,12.05236M188.54289,589.26376l25.18524,19.37326M269.79826,587.15252l79.33988,61.03067M236.47056,561.51582l8.92003,6.86156M633.53553,514.55315v84.33594c0,30 40,40 40,0v-84.25M638.87662,514.83235c19.60182,54.51348 14.65891,94.05674 14.65891,94.05674M670.49323,514.75169c-16.9577,35.90857 -16.9577,94.1374 -16.9577,94.1374M675.66625,514.53317l7.10273,83.53219c2.54172,29.89214 43.24514,36.46722 39.85618,-3.38895l-7.06217,-83.05531M681.17374,514.30527c23.93653,52.43496 22.37057,92.02966 22.37057,92.02966M712.15188,511.95368c-13.46605,37.24268 -8.60757,94.38125 -8.60757,94.38125M720.64578,511.11315l6.25682,82.71295c2.26289,29.91454 42.90323,36.86887 39.88605,-3.01717l-6.45564,-85.34137M726.33618,510.61275c23.18518,52.37725 21.26374,91.67628 21.26374,91.67628M757.91752,505.84071c-14.81371,37.01121 -10.3176,96.44832 -10.3176,96.44832M761.38991,506.18309l13.26933,83.95788c4.68329,29.63219 45.75398,33.26519 39.50959,-6.2444l-13.65693,-86.4103M766.32861,505.40254c28.34083,51.20349 29.64652,91.49363 29.64652,91.49363M799.14882,497.70795c-12.84818,37.97565 -3.17369,99.18822 -3.17369,99.18822M801.99262,499.12207l18.16509,83.03631c6.4112,29.30694 47.62419,30.52764 39.07591,-8.54827L840.48239,487.8944M806.87711,498.05353c31.29184,49.45525 34.95562,89.59969 34.95562,89.59969M839.28105,488.12066c-10.76755,38.64765 2.55168,99.53256 2.55168,99.53256M845,488.42986l25.44858,81.10098c8.98186,28.62388 50.14098,26.18937 38.16517,-11.9758l-25.5629,-81.4653M849.77065,486.93288c35.54931,46.48921 42.75447,86.15135 42.75447,86.15135M880.73822,476.70007c-6.09126,39.40902 11.7869,96.38416 11.7869,96.38416M893.12159,473.23882C927.34709,517.47234 935,555 935,555M886.87589,474.96131l25.97639,76.95996c9.59415,28.4245 50.69154,25.10713 37.89933,-12.79221l-6.72151,-19.91375M921.38423,493.34009C924.85538,524.94465 935,555 935,555M589.48423,510.78215l-7.95211,82.32496c-2.8844,29.86101 35.96882,43.66055 39.81468,3.84586l7.98572,-82.67291M595.3425,511.59628c13.68761,55.25976 5.1355,93.38742 5.1355,93.38742M625.74645,514.04029C605.95473,548.28522 600.478,604.9837 600.478,604.9837M544.56685,502.50221l-8.10504,83.19519c-2.90889,29.85864 35.933,43.69004 39.81152,3.87852l7.75397,-79.59158M550.24906,503.83442c13.76992,55.46728 5.14888,93.75512 5.14888,93.75512M579.30103,509.23823c-18.64883,34.41829 -23.90309,88.35131 -23.90309,88.35131M503.44848,490.70714l-21.02722,80.12864c-7.61471,29.01751 28.53706,48.84298 38.69002,10.15296l20.77353,-79.162M509.07184,492.62515c4.67718,56.70761 -9.84381,92.95961 -9.84381,92.95961M537.92499,500.79311c-24.53379,30.81984 -38.69696,84.79165 -38.69696,84.79165M468.591,477.48093l-30.27977,74.35613c-11.31459,27.78452 21.95992,52.13216 37.04604,15.08612l30.69157,-75.36733M474.75764,480.13444c-3.12865,55.39876 -21.69492,88.50718 -21.69492,88.50718M501.86815,490.13548c-28.03946,27.51248 -48.80543,78.50614 -48.80543,78.50614M433.12535,460.71564l-40.0219,74.98832c-14.12537,26.46646 16.4548,54.12245 35.28863,18.83383l40.96167,-76.74916M437.53642,463.06987c-8.2522,57.93877 -31.49711,90.87315 -31.49711,90.87315M467.84919,477.06589c-32.93074,22.76679 -61.80988,76.87713 -61.80988,76.87713M355.00236,492.89329l-8.57291,10.17942c-19.32507,22.94649 4.82857,56.36208 30.59533,25.76676l57.01447,-67.69868M391.54776,472.03371c-17.7162,34.41437 -36.26232,51.5712 -36.26232,51.5712M433.27379,460.65698c-37.37906,14.72867 -77.98835,62.94793 -77.98835,62.94793M285.82652,532.33131C357.76546,315.36014 427.81129,148.12599 494.89021,58.840442M322.97505,510.91708C381.61409,336.46517 438.96711,195.80008 494.44949,104.28184M384.89743,475.8662C423.15504,364.75193 460.84493,268.55316 497.80327,191.57445M422.77226,453.18375c27.39717,-78.25083 54.4962,-148.66867 81.23655,-209.66286M294.41022,507.17159l25.68931,5.92829M299.51778,492.19642l40.53127,9.35335M304.62675,477.22156l55.37324,12.77843M309.73431,462.24639l70.21478,16.2034M314.84971,447.27301l85.05074,19.62709M320.26565,432.36899l99.58389,22.9809M325.68346,417.46541l101.51585,23.42674M331.09942,402.56141l101.47476,23.41725M336.51579,387.65749 437.9472,411.06474M355,375l88.57819,20.44112M375,365l73.45693,16.9516M405,355l49.42401,11.40555M495,0v160c0,15 15,135 20,155 5,20 55,140 110,140 55,0 105,-55 105,-55M818.68813,355.39964c-18.70244,34.49992 -48.63822,66.04618 -74.20644,97.59545M759.03169,399.18848c-15.63326,19.88187 -32.92052,39.14131 -48.28444,58.45629M789.57954,378.20844c-18.43571,26.75956 -41.85813,52.04221 -62.18857,77.37903M705.17554,428.17043c-9.07594,10.75807 -18.11924,21.42764 -26.523,32.12373M689.63697,433.19158c43.90875,-10.77137 110.28052,-61.0549 137.78778,-85.22159M832.70334,357.19498c-18.10187,32.62108 -46.06263,62.63198 -70.57659,92.55442M839.7284,370.48376c-16.89613,26.26181 -39.21879,50.99411 -59.5803,75.59704M846.34929,382.81314c-14.48896,20.29883 -31.61226,39.78858 -47.77761,59.15004M852.9219,394.18063c-11.22745,14.63986 -23.50259,28.91546 -35.42042,43.09307M859.30544,405.12292c-7.28052,9.03424 -14.83203,17.95256 -22.31288,26.81971M729.82967,416.6708c-11.94059,14.33972 -24.20147,28.4529 -35.37594,42.60614M657.80064,448.92785c-3.27851,3.992 -6.49784,7.98201 -9.62642,11.97602M682.11813,437.72985c-6.46203,7.69125 -12.81445,15.3545 -18.83283,23.03227M610.141,452.18272c-1.59275,1.95969 -3.16916,3.91928 -4.72551,5.87951M622.96824,454.86908c-1.21917,1.51504 -2.42757,3.03022 -3.62345,4.54588M638.88417,453.73337c-1.77645,2.19796 -3.53111,4.39605 -5.25871,6.59526M581.7172,432.26904c-5.38247,6.38054 -10.72616,12.73499 -15.90375,19.08748M590.20168,440.01417c-3.9391,4.70268 -7.82885,9.39645 -11.61784,14.09105M599.61636,446.72383c-2.61027,3.15912 -5.18713,6.31629 -7.71495,9.47451M559.4262,404.97303c-9.95799,12.36351 -20.42689,24.50931 -30.53143,36.60331M566.48258,414.68166c-8.48024,10.22731 -17.15589,20.33349 -25.51887,30.41481M573.85898,423.7995c-6.97613,8.29118 -13.9815,16.52086 -20.74028,24.7413M520.42166,397.4134c-8.27427,10.61176 -17.04813,21.04115 -25.78073,31.39067M545.9205,383.41257c-12.25087,17.08909 -26.34664,33.6086 -40.13884,49.96571M552.65017,394.53461c-11.21622,14.59751 -23.46362,28.83471 -35.34773,42.97589M951.83537,341.06683c0.34096,0.003 0.68155,0.005 1.02175,0.005M819.09649,329.8511c20.8936,12.03069 50.76833,29.65148 82.54355,42.2414M808.10408,305.24517c19.39203,11.12475 47.3371,27.79868 77.54912,40.59262M798.4718,281.42294c17.87385,10.22982 43.35865,25.48396 71.2829,38.00519M789.67948,258.08231c16.21671,9.27629 38.76054,22.74424 63.72809,34.54877M781.6294,235.16636c14.45142,8.27693 33.81252,19.77925 55.38856,30.46483M774.28014,212.65302c12.51922,7.18826 28.53366,16.62681 46.38676,25.83079M767.61029,190.53228c10.19434,5.86961 22.53171,13.07445 36.18769,20.37791M761.09171,168.501c7.69789,4.43963 16.52374,9.55619 26.15033,14.85885M831.30345,355.16167c22.31331,12.87513 53.54313,30.93436 86.1883,42.92596M845.25791,381.47943c23.50907,13.52927 55.24385,31.31011 87.84512,42.3037M861.68314,409.18829c24.23485,13.7717 55.35058,30.3804 86.79514,39.99805M879.72418,437.72062c24.44448,13.54389 54.2983,28.51644 84.03005,36.62054M901.19573,467.92092c23.594,12.45491 50.83412,24.92535 77.64486,31.29809M926.9934,499.85916c21.15869,10.22532 44.22837,19.43726 66.7635,23.96752M956.14293,532.35782c17.16795,7.15255 35.02079,12.99596 52.41567,15.81593M986.25347,562.65613c12.58168,4.83013 25.42253,8.82246 38.08783,11.32495M1226.7677,430.4038C1236.7061,426.6519 1255,405 1275,405c-20,0 -38.2939,-21.6519 -48.2323,-25.4038C1215.8632,375.4796 1200,380 1185,390c10,-15 14.5204,-30.86328 10.4038,-41.76777C1191.6519,338.2939 1170,320 1170,300c0,20 -21.6519,38.2939 -25.4038,48.23223C1140.4796,359.13672 1145,375 1155,390 1140,380 1124.1368,375.4796 1113.2323,379.5962 1103.2939,383.3481 1085,405 1065,405c20,0 38.2939,21.6519 48.2323,25.4038C1124.1368,434.5204 1140,430 1155,420c-10,15 -14.5204,30.86328 -10.4038,41.76777C1148.3481,471.7061 1170,490 1170,510c0,-20 21.6519,-38.2939 25.4038,-48.23223C1199.5204,450.86328 1195,435 1185,420c15,10 30.8632,14.5204 41.7677,10.4038v0M1102.2944,385.1098c-20.4756,-25.94348 19.6216,-68.22313 47.576,-46.85197M1239.9402,388.15199c27.6137,-26.57534 -19.4668,-76.1485 -48.4601,-46.65991M1103.2959,423.6897c-22.9405,26.05054 18.9495,70.57393 47.3617,47.4311M1239.807,421.72056c27.9147,26.56009 -19.3449,76.38398 -48.3801,46.73314M1155,390l-35,-35M1185,390l35,-35M1155,420l-35,35M1185,420l35,35M1160.3777,486.42052c3.8088,80.77311 35.1376,104.71144 35.0547,161.94598M1175.6055,490.65673c4.3238,71.49985 30.4518,97.50883 34.3427,145.38456M1195,645c-10.1872,-37.43261 -63.0235,-86.31451 -115,-60 46.0391,-3.5732 39.6973,80.55961 115,60v0M1195.4326,648.13982C1177.9271,620.66283 1156.5148,610.1093 1135,600M1210,630c-9.6941,-63.40796 2.6966,-107.0578 55,-115 -35.6108,31.84211 6.9504,101.1648 -55,115v0M1210,630c4.9203,-31.94665 12.7832,-59.34103 25,-80M622.94327,0.04565899C641.19762,56.951358 678.422,84.549843 730.45252,89.273975M640.65863,0c16.18977,35.089124 41.58049,55.9635 74.70578,64.888556M663.88096,0.35915873C673.24957,15.491809 684.79555,27.260595 698.3436,35.936324M495.30432,102.08255C564.83808,63.139913 569.95875,31.777277 578.60239,6.5266414e-5M495.0485,78.346058C541.17425,49.330111 552.45353,24.414826 559.52081,-0.00479966M494.85919,48.322237C518.36785,31.111235 530.15353,15.27977 537.25102,0M605,330c0,0 -5,-20 -15,-20 -10,0 -20.05025,-3.93934 -20.05025,-18.93934 0,-10 23.76024,-81.56698 15.05025,-141.06066 -27.23969,-19.33581 -56.03661,-29.64381 -90,-10 1.71052,-0.37051 3.46873,0.15895 5.12877,-0.37589C530,130 558.25901,130.43652 585,150M620,150c35.93792,-42.8397 75.41308,-22.41924 115,0 -37.61142,-16.4876 -75,-35 -109.47384,0.18444C624.37724,151.35705 621.25075,148.82377 620,150v0M630,270c30.36676,-1.00978 25,35 10,35 -6.5502,0 -13.36325,-8.16819 -18.66415,-8.61698C605,295 605,305 625,300M575,350v10l5,-5 -5,-5v0M670,345v10l-5,-5 5,-5M580,355c11.94693,6.2699 14.48458,-4.75282 20,-5 5,0 10.65685,4.6967 15.65685,4.6967 5,0 12.82843,-6.16116 17.82843,-6.16116C651.30037,359.48712 652.81888,350.43393 665,350M595,375c13.06107,15.59169 28.64499,10.89619 45,0 -13.50934,8.03148 -29.04097,5.16713 -45,0v0M500,185c3.60493,-9.01233 14.37536,-17.16598 25.37113,-17.0953C544.87736,168.03008 560,190 575,190M497.80327,191.57445C501.09798,201.20636 512.48451,204.66444 525,205c21.48756,1.0473 35,-10 50,-15M630,190c21.96964,-0.78554 30.60857,-17.60143 45,-20 30,-5 50,20 65,20M650,185c-5,15 16.98324,24.90799 30,25 19.15313,0.13539 45,-20 60,-20M283.37737,534.5969c211.008,146.18047 473.964,157.35655 717.79923,40.63511M180,945a15,15 0 0 1 -15,15 15,15 0 0 1 -15,-15 15,15 0 0 1 15,-15 15,15 0 0 1 15,15v0M180,945a15,15 0 0 1 -15,15 15,15 0 0 1 -15,-15 15,15 0 0 1 15,-15 15,15 0 0 1 15,15v0M53.427887,1062.3798a15,15 0 0 1 -15,15 15,15 0 0 1 -15,-15 15,15 0 0 1 15,-15 15,15 0 0 1 15,15v0M1096.021,1002.7583 1300.0001,813.88882M540,1005c-36.78985,22.2324 -13.09636,-13.8056 -10,-30 -16.19445,3.09636 -52.23247,26.7898 -30,-10 -1.38148,-2.28605 -2.53798,-4.33857 -3.48822,-6.17701C482.16958,931.07511 514.81184,952.09604 530,955c-3.09636,-16.19445 -26.78985,-52.23247 10,-30 36.78985,-22.23247 13.09636,13.80555 10,30 15.56552,-2.97611 49.46325,-24.98059 32.33118,5.9826 -0.69222,1.25108 -1.46776,2.58863 -2.33118,4.0174 22.23247,36.7899 -13.80555,13.09636 -30,10 3.09636,16.1944 26.78985,52.2324 -10,30v0M629.99999,1034.641c-42.97714,0.8589 -4.43898,-18.5042 6.33975,-30.9807 -15.57301,-5.4157 -58.62955,-2.9156 -20.98076,-23.66029 -0.85894,-42.97723 18.50413,-4.43901 30.98076,6.33974 5.4157,-15.57298 2.91554,-58.62957 23.66025,-20.98076 42.97718,-0.85896 4.43901,18.50414 -6.33974,30.98076 15.57298,5.41565 58.62957,2.91555 20.98076,23.66025 0.85893,42.9772 -18.50416,4.439 -30.98076,-6.3397 -5.41568,15.5729 -2.91551,58.6295 -23.66026,20.9807v0M1170,387.5c9.3096,0 17.5,8.19036 17.5,17.5 0,9.30964 -8.1904,17.5 -17.5,17.5 -9.3096,0 -17.5,-8.19036 -17.5,-17.5 0,-9.30964 8.1904,-17.5 17.5,-17.5v0"></path></symbol><symbol id="HQ4" preserveAspectRatio="none" viewBox="0 0 1300 2000"><path fill="black" d="M676.06641,0 1040,600 1090,570 746.03516,0ZM504.14062,244.02539C477.26937,304.51512 450.16919,374.93353 423.2168,453.16406L545.43555,382.19531C528.42841,352.77379 517.23165,323.9266 515,315c-2.28406,-9.13626 -6.654,-39.14028 -10.85938,-70.97461zm-244.66796,304.30078 -24.02735,13.42578c100.21065,74.15489 212.68038,118.87952 329.55664,135.5586 19.01856,64.07086 31.95755,140.40246 38.45703,207.35742 7.82282,1.98583 15.91382,4.30428 24.60352,7.10937C621.58348,834.8652 607.60286,750.2777 583.66602,674.24805 468.89909,660.89656 358.34156,619.16903 259.47266,548.32617Zm762.29684,44.67969c-70.66485,34.82432 -143.21898,59.19339 -215.76364,72.40039 -27.71471,90.50343 -36.59816,196.84663 -41.05469,289.66602 3.35201,0.074 6.83355,-0.0769 10.08008,-0.37305 4.95761,-0.45223 9.92965,-1.35478 15.47461,-3.93945 3.78994,-91.19072 10.75727,-179.21685 34.72656,-263.51563 56.38564,-11.54778 112.8155,-29.49407 168.60156,-54.24805 -15.40462,54.87784 -19.01306,127.24319 -27.97851,207.08008 -0.36978,3.29288 -0.74645,6.5965 -1.51563,9.95508 3.90847,0.22506 8.21984,0.66249 12.53516,1.36719 3.54332,0.57863 7.0211,1.3263 11.54297,1.97851 13.37813,-106.16949 18.02873,-200.09048 43.47073,-249.99609z"></path></symbol><symbol id="HQ3" preserveAspectRatio="none" viewBox="0 0 1300 2000"><path fill="#44F" d="M526.43945,166.69922a12.5,20.068552 0 0 0 -12.5,20.06836 12.5,20.068552 0 0 0 12.5,20.06836 12.5,20.068552 0 0 0 12.5,-20.06836 12.5,20.068552 0 0 0 -12.5,-20.06836zm152.38086,2.47461a12.5,20.068552 0 0 0 -12.5,20.06836 12.5,20.068552 0 0 0 12.5,20.06836 12.5,20.068552 0 0 0 12.5,-20.06836 12.5,20.068552 0 0 0 -12.5,-20.06836zm-200.18164,254.76367 -9.70117,2.42383 1.21094,4.85156 11.53711,46.14844 36.53515,-19.01563 14.37891,33.78516 35.80664,-20.46094 22.60156,34.31446L624,478.78125l26.43164,31.55469 29.7832,-30.64258 30.43555,27.65234 23.95508,-31.07812 29.28515,26.37695 25.16993,-38.99414 37.71289,23.32422 20.20898,-35.36719 38.17969,19.32227 6.5918,-15.51172 -6.64649,-9.92383 -4.9668,11.68555 -37.12304,-18.78711 -19.79102,34.63086 -37.24804,-23.03711 -24.1211,37.36914 -28.58203,-25.74414 -23.92578,31.04101 -29.56445,-26.86132 -28.80274,29.63086 -25.68945,-30.66797 -32.05664,26.43359 -21.64258,-32.85742 -34.19336,19.53906 -14.20898,-33.38476 -34.87696,18.15429 -8.46289,-33.85156zm-57.34179,30.38086 -114.50391,66.25781c199.45786,133.26536 444.18766,143.72045 674.12891,36.00977 -27.70592,-26.00195 -53.37955,-54.40238 -77.5293,-86.27344 -5.42499,1.63467 -10.85226,3.24169 -16.28125,4.83203l56.91797,44.07031 6.72265,19.91407c12.79221,37.89934 -28.30624,41.21745 -37.90039,12.79297l-25.89844,-76.73047c-1.27818,0.37431 -2.55749,0.73783 -3.83593,1.10937l25.49609,81.25391c11.97581,38.16517 -29.1822,40.60044 -38.16406,11.97656L845,488.42969 876.38086,478.25391c-11.94025,3.42062 -23.89434,6.69533 -35.86328,9.80273l18.7168,85.55274c8.54827,39.07591 -32.66498,37.85576 -39.07618,8.54882l-18.16601,-83.03711 33.52539,-9.77734c-11.64041,2.97109 -23.2955,5.7849 -34.97266,8.35742l13.62305,86.19531c6.24439,39.50959 -34.82452,35.87636 -39.50781,6.24414l-13.26954,-83.95703 21.43555,-4.76562c-7.48456,1.49541 -14.9783,2.88959 -22.48242,4.17383l6.44531,85.21679c3.01718,39.88604 -37.62383,32.93212 -39.88672,3.01758l-6.24414,-82.55273c-1.69197,0.19213 -3.3849,0.37203 -5.07812,0.55078l7.04492,82.85156c3.38896,39.85617 -37.31375,33.28081 -39.85547,3.38867l-7.08789,-83.34179c-0.71528,0.0272 -1.43095,0.0517 -2.14648,0.0762v84.08984c0,40 -40,30 -40,0v-84.22461c-1.4073,-0.0589 -2.81424,-0.11266 -4.22266,-0.18359l-7.96484,82.47265c-3.84586,39.81471 -42.70081,26.01531 -39.81641,-3.8457l7.94922,-82.28906c-1.81997,-0.24421 -3.6389,-0.48946 -5.46094,-0.75586l-7.74609,79.51367c-3.87852,39.81152 -42.72139,25.97974 -39.8125,-3.8789l8.10351,-83.17579c-0.89679,-0.21219 -1.79407,-0.43429 -2.6914,-0.65234l-20.76172,79.11914c-10.15296,38.69002 -46.30419,18.86517 -38.68945,-10.15234l15.68945,-59.78711 -22.75391,55.875c-15.08612,37.04604 -48.36146,12.69858 -37.04687,-15.08594l27.29883,-67.03125 -37.2168,69.73047c-18.83383,35.28862 -49.41443,7.63248 -35.28906,-18.83399l37.82031,-70.86328 -53.89844,64c-25.76676,30.59532 -49.92077,-2.82108 -30.5957,-25.76757l8.57226,-10.17969 77.58399,-31.16797 0.53906,-1.00977 0.9082,0.42774 0.006,-0.002 -0.004,0.004 0.33984,0.16016c-4.35238,-2.2534 -8.71043,-4.56895 -13.07812,-6.98633zm572.5371,178.67773c-32.99272,14.84336 -65.94871,26.89166 -98.86132,36.87891l4.71093,196.86328c20.17285,-11.65399 42.26345,-17.69551 64.92579,-16.69531 0.49896,-3.37058 0.87631,-6.67392 1.24609,-9.9668 8.96545,-79.83689 12.57389,-152.20224 27.97851,-207.08008zm-207.22656,11.19532c-23.74309,4.06133 -47.59438,6.91352 -71.58789,8.60351 47.18437,3.22563 63.19132,22.5391 7.04492,27.49024C760.78633,685.21121 766.16472,699.83477 715,705c39.99949,4.04007 53.54843,23.37746 -1.51953,32.61719 34.78608,4.84217 43.16516,22.43333 -0.62695,27.38281v7.21875c32.00156,6.4503 40.40255,19.46742 -0.40821,22.53516l-0.14843,8.13281c30.46298,5.04349 37.38878,16.29741 -0.38672,21.33008l-0.082,4.49609c25.3503,5.12276 30.48355,14.81855 -0.35937,19.83594l-0.0918,5.07617c25.8672,5.12444 31.1915,14.98029 -0.36328,20.00391l-0.0879,4.9082c26.37966,5.12263 31.87557,15.13222 -0.36523,20.16211l-0.0156,0.83008c21.08411,5.04767 24.91227,13.46952 -0.33398,18.36328l-0.0274,1.55273c21.49299,5.06023 25.43089,13.60081 -0.33593,18.51172l-0.0977,5.38477c11.78027,4.05356 22.05764,6.94407 30.75586,8.76367 4.05205,-97.40548 13.95685,-212.67202 46.10156,-307.91406zm-184.51562,7.1582c30.0166,86.81703 45.43556,181.08389 51.96875,269.5293 8.13377,3.10564 16.71432,6.60577 25.48437,10.40234 5.16803,2.23725 10.0794,4.27936 14.92969,6.39453l-0.82813,-16.97266c-41.0223,-2.56281 -48.05473,-16.72297 -1.10937,-22.7246l-0.16406,-3.33985c-42.02184,-2.43082 -49.2894,-16.89508 -1.11719,-22.87695l-0.043,-0.89844c-44.05097,-2.14926 -51.82079,-17.25165 -1.13281,-23.18164l-0.14258,-2.9082c-45.02802,-2.00994 -53.08341,-17.41468 -1.13672,-23.31055l-0.0625,-1.26758c-47.39134,-1.83613 -56.19316,-19.83867 -1.28516,-26.31445l-0.0762,-1.54883c-51.16279,-1.13481 -61.00056,-20.48283 -1.30664,-26.76367l-0.11523,-2.37891C635.97376,761.82878 626.48183,742.9 684.6543,736.55078l-0.0762,-1.56055c-56.12783,-0.11938 -67.56174,-22.89909 -1.42968,-29.28906l-0.0215,-0.4082c-63.898,1.84831 -77.87835,-24.12737 -1.45312,-29.77539l-0.0391,-0.78516c-56.39787,2.38257 -77.67165,-12.67231 -39.22657,-20.72656 -13.54401,-0.45894 -27.00034,-1.3419 -40.3164,-2.65625zm653.6348,90.48047c6.2064,3.23624 12.4119,6.45101 18.6152,9.65039 8.5624,4.41612 17.1161,8.7971 25.6582,13.16797v-0.0664zm18.6152,9.65039c-0.7477,-0.38573 -1.4943,-0.77014 -2.2422,-1.15625l-2.8808,2.41601c13.9611,7.23997 1.8654,26.48229 -27.9571,28.85157 -0.6666,0.053 -1.3267,0.10269 -1.5429,0.20312C1236.832,801.15934 1218.6766,824.64547 1205,830c-18.5269,7.25347 -62.3175,13.8707 -86.9004,-6.99219 -4.8223,45.97573 -9.7283,97.03125 -17.4101,149.50391L1300,788.1875v-23.31641c-8.496,-4.53016 -17.0663,-8.95826 -25.6582,-13.39062z"></path></symbol><symbol id="HQ2" preserveAspectRatio="none" viewBox="0 0 1300 2000"><path fill="red" d="M746.03906,0l206.08789,341.30664c15.25792,-7.89742 29.39971,-16.48114 43.91993,-24.31836L798.12109,0ZM875,35c-31.09169,8.314112 -41.51778,4.397835 -53.96875,1.679688l57.98828,92.058592C885.97118,109.28985 893.24753,89.815616 905,70c-2.13718,-16.473512 2.28614,-21.782145 5,-30 -17.31384,2.037284 -27.14836,-0.831077 -35,-5zm165,245c-15.2965,3.82414 -45.21675,4.72338 -66.08398,0.46094l23.33203,36.01172C1023.387,302.74869 1049.0711,293.33052 1079.834,300.13477 1064.599,294.37327 1048.9362,288.87536 1040,280Zm130,20c0,14.47623 -11.3428,28.05907 -19.5801,38.24219 -28.5032,-21.35508 -68.6004,20.92457 -47.7363,47.35547C1092.9221,393.77124 1079.4031,405 1065,405c14.2873,0 27.7035,11.04888 38.0605,18.70898 -22.7056,26.03072 19.1841,70.55521 47.3907,47.25977C1157.9234,481.07968 1170,495.06379 1170,510c0,-16.16559 14.145,-31.21637 21.4883,-41.59375 28.9733,29.69847 76.233,-20.1259 48.3535,-46.71289C1249.6269,414.21748 1261.9505,405 1275,405c-12.8189,0 -24.9374,-8.8943 -34.832,-16.55859 27.3854,-26.86428 -19.6947,-76.4382 -48.8457,-47.14453C1183.6654,330.70075 1170,315.88891 1170,300Zm-0.045,36.95703A3.0003,3.0003 0 0 1 1173,340v22.62305c20.7754,1.51644 37.8605,18.60163 39.377,39.37695H1240a3.0003,3.0003 0 1 1 0,6h-27.623c-1.5165,20.77532 -18.6016,37.86051 -39.377,39.37695V475a3.0003,3.0003 0 1 1 -6,0V447.37695C1146.2246,445.86051 1129.1395,428.77532 1127.623,408H1100a3.0003,3.0003 0 1 1 0,-6h27.623c1.5165,-20.77532 18.6016,-37.86051 39.377,-39.37695V340a3.0003,3.0003 0 0 1 2.9551,-3.04297zm-692.10549,84.54492 -56.74023,32.92578c169.11103,93.38515 326.43729,62.84457 482.07226,15.60547 -11.29795,-14.85685 -22.13508,-30.33863 -32.57812,-46.59961l-0.3711,-0.80859c-134.97326,39.93921 -257.92619,61.7732 -392.38281,-1.12305zm-87.25977,228.13282 -12.51367,8.07031c9.90456,58.4667 14.52116,126.90477 10.3418,186.23242 31.25135,8.71173 56.59628,31.0153 73.09961,61.36133 15.58022,-4.13129 31.75325,-7.55717 49.32617,-9.16016 6.29715,-0.57442 12.65066,-0.89187 19.07617,-0.95117 23.49424,-0.217 47.9301,3.00069 73.79297,9.54492C596.958,837.71289 584.02051,761.38141 565.00195,697.31055 505.44841,688.58067 446.91225,672.88012 390.58984,649.63477Zm504.78711,20.11914 -70.14453,17.49023c-23.96928,84.29878 -30.93715,172.324 -34.75976,263.52344 13.061,-2.37876 28.42119,-9.18917 50.66015,-20.19922L841.14062,930c14.21407,-27.10399 34.59535,-48.9267 58.19532,-63.05664zm-686.67578,35.26562a13.75,15 45 0 0 -10.55664,4.66016 13.75,15 45 0 0 -0.88476,20.33008 13.75,15 45 0 0 20.33007,-0.88477 13.75,15 45 0 0 0.88282,-20.33008 13.75,15 45 0 0 -9.77149,-3.77539zm1047.02543,36.81055c14.7777,7.70563 29.5386,15.28067 44.2734,22.82031v-0.0684zM8.7011719,905.01953A13.75,15 45 0 0 0,908.10352v23.96484A13.75,15 45 0 0 17.589844,929.125 13.75,15 45 0 0 18.472656,908.79492 13.75,15 45 0 0 8.7011719,905.01953ZM540,955a10,10 0 0 0 -10,10 10,10 0 0 0 10,10 10,10 0 0 0 10,-10 10,10 0 0 0 -10,-10zm110,35a10,10 0 0 0 -10,10 10,10 0 0 0 10,10 10,10 0 0 0 10,-10 10,10 0 0 0 -10,-10z"></path></symbol><symbol id="HQ1" preserveAspectRatio="none" viewBox="0 0 1300 2000"><path fill="#FC4" d="M798.125,0 996.15039,316.93359C1026.6354,300.86653 1056.7752,290.13482 1095,305 1065.2482,211.34698 1028.7317,119.30478 1106.6836,0ZM494.94531,58.916016C427.8115,148.12585 357.76552,315.36093 285.76758,532.67188l15.62109,-9.03711 -18.01172,10.96289c89.61039,62.07958 188.59313,99.79514 291.49805,113.72265 29.42358,82.44201 45.91452,177.69944 53.13477,263.44141 16.14274,5.11028 33.43539,11.68412 51.53515,19.51953 42.50299,18.3996 67.67346,23.56276 85.70899,23.79492 4.53443,-101.69108 14.77857,-219.60609 49.41601,-315.82031l-2.07226,0.0781C875.91474,626.31078 939.16307,604.91724 1001.1758,575.2324L981.72266,556.7949C751.03129,664.27149 506.35916,653.84417 306.95312,520.41797L423.39453,453.06055C450.1694,374.93279 477.26833,304.51484 504.12109,243.88281 499.40314,207.0768 495,168.12706 495,160ZM1265,515c-52.3034,7.9422 -64.6941,51.59204 -55,115 61.9504,-13.8352 19.3892,-83.15789 55,-115zM245.45117,568.69922c-24.81157,25.29489 -42.27809,53.29225 -50.63281,79.77734 -1.66482,5.27762 -2.98241,10.5867 -3.87891,15.50977 -4.75548,-3.91279 -11.30529,-10.16277 -20.19531,-24.13281 -7.07107,7.07106 -17.67848,24.74727 -10.60742,31.81836 -7.07106,-7.07106 -24.7473,3.53636 -31.81836,10.60742 18.90181,12.02843 23.66975,19.77367 26.97852,24.88086 -7.90943,0.93628 -16.21657,2.68878 -24.44727,5.28515 -27.12021,8.55507 -55.825538,26.66148 -81.591798,52.42774C26.312948,787.81791 9.4611255,813.0922 0,837.50391v38.625c2.5485798,-0.53117 5.1396251,-0.85186 7.7421875,-0.94532 11.4085125,-0.40965 23.0071145,3.46024 31.9453125,12.39844 17.8764,17.8764 15.482192,46.3889 -0.884766,62.75586C28.706862,960.43376 13.991085,965.20185 0,963.18359v67.80861c7.3753039,-12.2436 13.045898,-24.5693 16.835938,-36.584 2.129258,-6.7499 3.688798,-13.55111 4.884765,-20.70312 5.22493,2.77528 12.545278,8.39373 23.269531,25.24609 7.07106,-7.071 17.678497,-24.74726 10.607422,-31.81836 7.071075,7.0711 24.7473,-3.53632 31.81836,-10.60742 -15.692863,-9.98636 -21.643949,-17.0205 -24.802735,-21.86914 6.161002,-0.882 12.195195,-2.32395 18.189453,-4.21484 27.120216,-8.55506 55.825526,-26.66342 81.591796,-52.42969 25.76626,-25.76626 43.87462,-54.47354 52.42969,-81.59375 2.56524,-8.13203 4.30604,-16.3365 4.97266,-24.49414 4.77035,2.97905 12.6553,7.32469 25.19335,27.02734 7.07107,-7.07106 17.6785,-24.74729 10.60743,-31.81836 7.07107,7.07107 24.7473,-3.53636 31.81836,-10.60742 -14.14046,-8.99848 -20.37077,-15.60067 -23.97461,-20.32227 5.06439,-0.84537 10.22254,-2.134 15.35156,-3.75195 14.91762,-4.70577 30.31546,-12.3034 45.43945,-22.47461 -155.46071,181.18498 -124.46187,482.69554 -166.2793,612.25584 0,0 17.15695,27.7673 22.3418,13.2071 10.08391,-28.3179 15.25224,-61.9857 20.08789,-99.7383 7.3221,-57.1639 12.255,-123.7851 22.1875,-192.2344C241.73431,911.3991 279.32685,774.83387 382.5,687.10547l-3.76758,-29.15625 10.91406,-8.68945 -30.33789,-13.58985c-5.90169,7.84149 -12.63357,15.6355 -20.13671,23.13867 -23.01248,23.01248 -48.75541,38.77461 -70.23633,45.55079 -3.50661,1.10616 -6.83677,1.96253 -9.86524,1.95507 9.73945,-9.07723 12.90453,-20.86655 60.16602,-59.39062 -6.48182,-6.48181 -26.51605,-12.37455 -40.65821,1.76758 14.14214,-14.14213 8.24939,-34.17639 1.76758,-40.65821 -39.74603,48.76059 -51.03516,50.5831 -59.94726,61.47657 0.24766,-3.14402 1.20607,-7.0368 2.51172,-11.17579 6.77614,-21.48092 22.5383,-47.22384 45.55078,-70.23632 0.64983,-0.64983 1.30301,-1.29341 1.95703,-1.93164zm865.96293,8.84766C1101.15,577.413 1090.5577,579.65487 1080,585c46.0391,-3.5732 39.6973,80.55961 115,60 -8.1179,-29.82911 -43.3193,-66.92794 -83.5859,-67.45312zm-79.5254,25.83398c-25.4836,49.98699 -30.1284,144.16541 -42.43948,250.28906l-2.14258,-0.0352c-3.40999,-0.90985 -6.88832,-1.6577 -10.43164,-2.23633 -70.24614,-11.47141 -139.22418,47.99805 -154.06641,132.83008 -14.00915,80.07053 25.21668,154.11753 88.91016,171.56843 24.05883,-46.9573 40.6276,-97.7625 52.61523,-149.1914 -11.9649,51.3853 -28.47239,102.1165 -52.4375,148.9355l-1.91601,56.0293 24.16992,-44.6387c54.85632,-107.1689 71.63021,-230.66952 83.09571,-336.74024 5.7327,-53.03537 10.0816,-101.7918 16.5391,-141.34571 5.8736,-22.70053 8.5169,-47.9106 17.871,-69.00781zm-822.00589,71.77539c10.70732,0.12035 21.42513,4.04622 29.80469,12.42578 17.8764,17.8764 15.48219,46.3889 -0.88477,62.75586 -16.36695,16.36694 -44.87947,18.76115 -62.75585,0.88477 -17.87643,-17.87639 -15.48219,-46.38889 0.88476,-62.75586 8.18348,-8.18348 19.40204,-12.87356 30.81055,-13.28321 0.71303,-0.0256 1.4268,-0.0354 2.14062,-0.0273zm-58.31054,62.79687c-7.18806,8.68188 -16.25911,22.28853 -55.074223,53.92774 6.481823,6.48181 26.516073,12.37455 40.658203,-1.76758 -14.14213,14.14213 -8.2494,34.17638 -1.76758,40.6582 31.75558,-38.95788 45.34645,-47.95293 53.96875,-55.08007 -0.53953,3.56165 -1.43837,7.11357 -2.62304,10.86914 -6.77617,21.48091 -22.54028,47.22385 -45.55274,70.23633 -23.01247,23.01247 -48.755405,38.77659 -70.236328,45.55273 -3.455905,1.09017 -6.739301,1.93878 -9.943359,2.14648 8.365167,-8.80995 13.881561,-21.41914 58.234377,-57.57226 -6.48182,-6.48181 -26.516077,-12.37455 -40.658205,1.76758 14.142128,-14.14213 8.249385,-34.17638 1.767578,-40.65821 -37.615827,46.14726 -49.742805,50.25284 -58.207031,59.4668 0.588967,-3.43097 1.523611,-7.18895 2.78125,-11.17578 6.776141,-21.48092 22.538316,-47.22385 45.550781,-70.23633 23.012458,-23.01245 48.757367,-38.77658 70.238277,-45.55273 3.78182,-1.19296 7.35669,-2.0953 10.86329,-2.58204zM1300,788.51758l-198.9785,184.24023 -5,29.99999L1300,813.88867ZM165,930a15,15 0 0 0 -15,15 15,15 0 0 0 15,15 15,15 0 0 0 15,-15 15,15 0 0 0 -15,-15zM38.427734,1047.3789a15,15 0 0 0 -15,15 15,15 0 0 0 15,15 15,15 0 0 0 15,-15 15,15 0 0 0 -15,-15z"></path></symbol><rect id="XHQ" width="164.8" height="260.8" x="-82.4" y="-130.4"></rect></defs><rect width="239" height="335" x="-119.5" y="-167.5" rx="12" ry="12" fill="white" stroke="black"></rect><use width="164.8" height="260.8" x="-82.4" y="-130.4" xlink:href="#HQ1"></use><use transform="rotate(180)" width="164.8" height="260.8" x="-82.4" y="-130.4" xlink:href="#HQ1"></use><use width="164.8" height="260.8" x="-82.4" y="-130.4" xlink:href="#HQ2"></use><use transform="rotate(180)" width="164.8" height="260.8" x="-82.4" y="-130.4" xlink:href="#HQ2"></use><use width="164.8" height="260.8" x="-82.4" y="-130.4" xlink:href="#HQ3"></use><use transform="rotate(180)" width="164.8" height="260.8" x="-82.4" y="-130.4" xlink:href="#HQ3"></use><use width="164.8" height="260.8" x="-82.4" y="-130.4" xlink:href="#HQ4"></use><use transform="rotate(180)" width="164.8" height="260.8" x="-82.4" y="-130.4" xlink:href="#HQ4"></use><use width="164.8" height="260.8" x="-82.4" y="-130.4" xlink:href="#HQ5"></use><use transform="rotate(180)" width="164.8" height="260.8" x="-82.4" y="-130.4" xlink:href="#HQ5"></use><use width="164.8" height="260.8" x="-82.4" y="-130.4" xlink:href="#HQ6"></use><use transform="rotate(180)" width="164.8" height="260.8" x="-82.4" y="-130.4" xlink:href="#HQ6"></use><use xlink:href="#VHQ" height="32" width="32" x="-114.4" y="-156"></use><use xlink:href="#SHQ" height="26.769" width="26.769" x="-111.784" y="-119"></use><use xlink:href="#SHQ" height="55.68" width="55.68" x="-89.68" y="-132.16"></use><g transform="rotate(180)"><use xlink:href="#VHQ" height="32" width="32" x="-114.4" y="-156"></use><use xlink:href="#SHQ" height="26.769" width="26.769" x="-111.784" y="-119"></use><use xlink:href="#SHQ" height="55.68" width="55.68" x="-89.68" y="-132.16"></use></g><use xlink:href="#XHQ" stroke="#44F" fill="none"></use></svg>