<svg width="17" height="17" viewBox="0 0 17 17" fill="none" xmlns="http://www.w3.org/2000/svg">
<path d="M9.59366 7.40634C9.01346 6.82638 8.22669 6.50058 7.40633 6.50058C6.58597 6.50058 5.7992 6.82638 5.219 7.40634L3.03096 9.59367C2.45075 10.1739 2.12479 10.9608 2.12479 11.7814C2.12479 12.6019 2.45075 13.3888 3.03096 13.969C3.61117 14.5493 4.3981 14.8752 5.21864 14.8752C6.03919 14.8752 6.82612 14.5493 7.40633 13.969L8.5 12.8754" stroke="#260D61" stroke-width="2" stroke-linecap="round" stroke-linejoin="round"/>
<path d="M7.40633 9.59366C7.98653 10.1736 8.7733 10.4994 9.59366 10.4994C10.414 10.4994 11.2008 10.1736 11.781 9.59366L13.969 7.40633C14.5492 6.82612 14.8752 6.03919 14.8752 5.21864C14.8752 4.3981 14.5492 3.61117 13.969 3.03096C13.3888 2.45075 12.6019 2.12479 11.7813 2.12479C10.9608 2.12479 10.1739 2.45075 9.59366 3.03096L8.49999 4.12462" stroke="#260D61" stroke-width="2" stroke-linecap="round" stroke-linejoin="round"/>
</svg>
