<svg width="17" height="17" viewBox="0 0 17 17" fill="none" xmlns="http://www.w3.org/2000/svg">
<path d="M9.59363 7.40634C9.01343 6.82638 8.22666 6.50058 7.4063 6.50058C6.58594 6.50058 5.79917 6.82638 5.21897 7.40634L3.03093 9.59367C2.45071 10.1739 2.12476 10.9608 2.12476 11.7814C2.12476 12.6019 2.45071 13.3888 3.03093 13.969C3.61114 14.5493 4.39807 14.8752 5.21861 14.8752C6.03915 14.8752 6.82609 14.5493 7.4063 13.969L8.49997 12.8754" stroke="#FDFDFD" stroke-width="2" stroke-linecap="round" stroke-linejoin="round"/>
<path d="M7.40625 9.59366C7.98645 10.1736 8.77323 10.4994 9.59358 10.4994C10.4139 10.4994 11.2007 10.1736 11.7809 9.59366L13.969 7.40633C14.5492 6.82612 14.8751 6.03919 14.8751 5.21864C14.8751 4.3981 14.5492 3.61117 13.969 3.03096C13.3887 2.45075 12.6018 2.12479 11.7813 2.12479C10.9607 2.12479 10.1738 2.45075 9.59358 3.03096L8.49992 4.12462" stroke="#FDFDFD" stroke-width="2" stroke-linecap="round" stroke-linejoin="round"/>
</svg>
