<svg width="10" height="14" viewBox="0 0 10 14" fill="none" xmlns="http://www.w3.org/2000/svg">
<g clip-path="url(#clip0_8_282)">
<path d="M0.494794 7.45035L1.55287 7.94418C1.65457 7.99164 1.76431 8.01724 1.87559 8.01944C1.98687 8.02165 2.09744 8.00043 2.20078 7.95703L2.5336 7.81703C2.64992 7.76817 2.75426 7.69239 2.83884 7.59535C2.92342 7.4983 2.98607 7.38247 3.02214 7.25648L3.26224 6.4184C3.28409 6.32654 3.32462 6.24073 3.38103 6.16686C3.43744 6.09299 3.50841 6.03282 3.58906 5.99047L4.16511 5.6875V7.06371C4.16515 7.30748 4.10054 7.54645 3.97851 7.75383C3.85649 7.96121 3.68186 8.12881 3.47422 8.23785L1.98412 9.02125C1.6382 9.20307 1.34732 9.48242 1.14407 9.82801C0.940825 10.1736 0.833227 10.5718 0.833335 10.978V11.375H9.16302V6.125C9.16302 3.22656 6.92552 0.875 4.16511 0.875H0.312502C0.229622 0.875 0.150136 0.90957 0.091531 0.971106C0.0329259 1.03264 1.87935e-06 1.1161 1.87935e-06 1.20312C-4.052e-05 1.27508 0.0159215 1.34606 0.0466165 1.41039L0.416669 2.1875L0.182294 2.43359C0.124304 2.49469 0.0783555 2.5672 0.0470762 2.64696C0.0157969 2.72672 -0.000199575 2.81218 1.87935e-06 2.89844V6.65027C-9.69681e-05 6.8196 0.0465984 6.98532 0.134425 7.12734C0.222251 7.26935 0.347435 7.38156 0.494794 7.45035ZM1.35417 3.5C1.45718 3.5 1.55788 3.53207 1.64353 3.59216C1.72918 3.65226 1.79594 3.73767 1.83536 3.83759C1.87478 3.93752 1.88509 4.04748 1.86499 4.15357C1.8449 4.25965 1.79529 4.35709 1.72245 4.43357C1.64961 4.51006 1.55681 4.56214 1.45578 4.58324C1.35475 4.60434 1.25002 4.59351 1.15485 4.55212C1.05968 4.51073 0.978341 4.44064 0.921112 4.3507C0.863882 4.26077 0.833335 4.15504 0.833335 4.04688C0.833335 3.90183 0.888209 3.76273 0.985884 3.66018C1.08356 3.55762 1.21604 3.5 1.35417 3.5ZM9.58333 12.25H0.416669C0.306162 12.25 0.200181 12.2961 0.122041 12.3781C0.0439006 12.4602 1.87935e-06 12.5715 1.87935e-06 12.6875V13.5625C1.87935e-06 13.6785 0.0439006 13.7898 0.122041 13.8719C0.200181 13.9539 0.306162 14 0.416669 14H9.58333C9.69384 14 9.79982 13.9539 9.87796 13.8719C9.9561 13.7898 10 13.6785 10 13.5625V12.6875C10 12.5715 9.9561 12.4602 9.87796 12.3781C9.79982 12.2961 9.69384 12.25 9.58333 12.25Z" fill="white"/>
</g>
<defs>
<clipPath id="clip0_8_282">
<rect width="10" height="14" fill="white"/>
</clipPath>
</defs>
</svg>
