<svg width="38" height="38" viewBox="0 0 38 38" fill="none" xmlns="http://www.w3.org/2000/svg">
<path d="M33.1835 24.2646C33.5065 23.4951 32.5834 22.8396 31.8092 23.1816C30.2616 23.8609 28.5894 24.2103 26.8992 24.2076C20.273 24.2076 14.9023 18.9446 14.9023 12.4513C14.8999 10.259 15.5228 8.11137 16.6978 6.2605C17.1475 5.55117 16.6076 4.5695 15.7842 4.7785C9.43667 6.39825 4.75 12.0539 4.75 18.7815C4.75 26.7726 11.3604 33.25 19.5162 33.25C25.6912 33.25 30.9795 29.5371 33.1835 24.2646Z" fill="#260D61"/>
<path d="M24.7174 4.91309C23.8783 4.35259 22.8776 5.35326 23.4365 6.19243L24.434 7.68868C24.8387 8.29535 25.0546 9.00827 25.0546 9.73751C25.0546 10.4668 24.8387 11.1797 24.434 11.7863L23.4365 13.2826C22.8776 14.1218 23.8798 15.1224 24.719 14.5619L26.2137 13.5644C26.8204 13.1598 27.5333 12.9438 28.2625 12.9438C28.9918 12.9438 29.7047 13.1598 30.3113 13.5644L31.8076 14.5619C32.6468 15.1224 33.6474 14.1218 33.0869 13.2826L32.0894 11.7863C31.6848 11.1797 31.4688 10.4668 31.4688 9.73751C31.4688 9.00827 31.6848 8.29535 32.0894 7.68868L33.0869 6.19243C33.6474 5.35326 32.6468 4.35259 31.806 4.91309L30.3113 5.91059C29.7047 6.31524 28.9918 6.53118 28.2625 6.53118C27.5333 6.53118 26.8204 6.31524 26.2137 5.91059L24.7174 4.91309V4.91309Z" fill="#260D61"/>
</svg>
