<svg width="101" height="101" viewBox="0 0 101 101" fill="none" xmlns="http://www.w3.org/2000/svg">
<path d="M62.0016 10.8028L39.0613 26.0002C39.0613 26.0002 39.841 27.1074 40.3713 27.6143C41.4785 28.6748 42.1959 29.0256 42.1959 29.0256L41.7436 30.5851L36.028 33.8991C36.028 33.8991 35.8253 36.5191 38.7416 38.0318C41.1588 39.2872 43.5682 39.295 43.5682 39.295V43.0612C43.5682 43.0612 45.9699 47.7397 50.8511 47.7397C55.7324 47.7397 58.0639 42.414 58.0639 42.414L58.1263 39.1624C58.1263 39.1624 60.3252 38.9441 62.4227 37.7199C64.0134 36.7842 64.5748 35.2559 64.5904 33.9537C64.606 32.8464 64.5046 32.6281 64.5046 32.6281L57.8611 29.1582C57.8611 29.1582 60.8164 27.3648 62.4071 23.31C65.4014 15.7074 62.0016 10.8028 62.0016 10.8028ZM49.7361 60.0287L33.1975 63.9664C33.1975 63.9664 32.7609 64.5746 32.7686 65.2296C32.7842 66.3291 33.2521 66.5864 33.2521 66.5864L26.6476 74.5945C26.6476 74.5945 25.8756 76.1774 25.9146 78.1813C25.9536 80.0995 26.7489 81.2769 26.8581 81.2224L24.7138 84.0841L23.3492 84.6689C23.3492 84.6689 22.6085 85.8697 22.702 87.3356C22.819 89.1447 23.9886 91.0707 28.5502 93.1838C33.2677 95.3749 38.3673 97.3399 50.1962 97.3399C62.025 97.3399 70.9922 95.0006 74.696 92.404C78.3999 89.8074 78.6962 87.5462 78.7586 86.5715C78.8061 85.8465 78.658 85.1221 78.3297 84.4739C78.2985 84.4194 78.2283 84.3102 78.2283 84.3102L75.3042 81.1522C75.3042 81.1522 76.006 79.4133 75.9202 77.5653C75.8111 75.2339 74.6337 73.5496 74.6337 73.5496L67.7406 67.5689L67.803 66.0094C67.803 66.0094 67.92 65.5103 67.6938 64.676C67.4989 63.9586 67.343 63.5609 67.1792 63.3114C66.6958 62.5707 66.1031 62.6486 66.1031 62.6486L49.7361 60.0287Z" fill="#260D61"/>
<path d="M39.0379 26.0002C39.0379 26.0002 35.3808 21.4854 36.9403 14.3351C38.4998 7.18474 44.925 2.57639 52.2079 3.61346C59.4908 4.65054 62.4149 11.5436 62.4149 11.5436C62.4149 11.5436 62.2043 20.1364 54.3366 24.3003C46.4689 28.4642 39.0379 26.0002 39.0379 26.0002Z" fill="#ED2D54"/>
<path d="M49.2214 5.89033C50.9447 6.87282 50.009 7.97228 47.4046 9.65654C44.9874 11.2238 42.0789 15.8322 41.2913 17.0018C40.5038 18.1715 39.9892 18.304 39.5993 18.0389C39.2094 17.7738 37.9774 17.1266 39.0768 13.4228C40.1763 9.71892 43.1082 7.37966 44.5351 6.52973C45.9699 5.69539 47.8569 5.11058 49.2214 5.89033Z" fill="#FFFFFE"/>
<path d="M42.1959 29.0256C42.1959 29.0256 45.8685 31.4741 49.8297 31.5208C55.4205 31.5754 57.8611 29.1582 57.8611 29.1582C57.8611 29.1582 60.5045 28.8853 62.3915 29.8678C64.0446 30.7255 64.5046 32.6437 64.5046 32.6437C64.5046 32.6437 62.758 37.1897 50.0324 36.8466C37.299 36.5035 36.028 33.9069 36.028 33.9069C36.028 33.9069 35.6927 31.2323 37.9618 29.9223C39.8644 28.8151 42.1959 29.0256 42.1959 29.0256Z" fill="#ED2D54"/>
<path d="M39.841 30.3746C38.6246 30.2577 36.761 31.0062 36.9871 32.6593C37.2133 34.3124 40.9873 35.061 42.8119 35.1701C44.6365 35.2793 47.5528 35.5132 47.4904 33.7978C47.4358 32.0823 43.038 32.94 41.3226 32.0277C39.6071 31.1154 41.6111 30.5462 39.841 30.3746Z" fill="#FDFDFD"/>
<path d="M43.5604 43.069C43.5604 43.069 45.8919 44.0827 50.742 44.0827C55.592 44.0827 58.0561 42.4218 58.0561 42.4218C58.0561 42.4218 58.0483 47.9113 60.333 53.4475C62.6176 58.9838 64.2707 61.6662 64.2707 61.6662C64.2707 61.6662 65.76 61.5648 66.3293 62.0248C66.8985 62.4849 67.4521 63.8806 67.4521 63.8806C67.265 64.138 63.2025 67.9042 50.9993 67.6391C37.9852 67.3584 33.1975 63.9586 33.1975 63.9586C33.1975 63.9586 33.9617 62.6876 34.835 62.3991C35.8877 62.0482 36.566 62.1418 36.566 62.1418C36.566 62.1418 40.4726 57.4399 42.0711 52.8159C43.6618 48.192 43.5604 43.069 43.5604 43.069Z" fill="#ED2D54"/>
<path d="M50.4613 64.06C55.2568 64.06 59.4284 63.0931 61.1985 62.5784C62.9685 62.0638 64.3097 61.1983 65.6821 61.6583C66.454 61.9157 66.7503 62.5005 66.7503 62.5005C66.7503 62.5005 61.6507 66.7891 50.4067 66.3525C38.4219 65.8924 33.8369 63.1477 33.8369 63.1477C33.8369 63.1477 34.6167 62.0326 36.3711 62.1418C36.839 62.173 37.2756 62.3055 39.958 62.9293C42.6403 63.5531 45.7749 64.06 50.4613 64.06Z" fill="#F178B6"/>
<path d="M33.2521 66.5786C33.2521 66.5786 41.151 69.7054 50.4613 69.8302C62.9139 69.9939 67.8108 66.0094 67.8108 66.0094C67.8108 66.0094 70.7349 68.6918 71.9279 69.9472C73.1209 71.2026 74.6336 73.5496 74.6336 73.5496C74.6336 73.5496 69.4171 82.1659 50.3521 81.9944C31.2793 81.8228 26.6476 74.5945 26.6476 74.5945C26.6476 74.5945 27.6535 71.9589 29.7354 69.7756C31.0142 68.4266 33.2521 66.5786 33.2521 66.5786Z" fill="#ED2D54"/>
<path d="M33.1039 70.1109C31.6848 69.7288 28.8777 72.5671 29.2208 74.3372C29.3923 75.2417 29.8991 76.2475 32.6439 77.2456C35.1547 78.1579 39.0379 78.1112 39.0379 76.614C39.0379 74.6724 35.6693 74.8518 34.8116 73.1285C34.1332 71.7718 34.5855 70.5164 33.1039 70.1109Z" fill="#F178B6"/>
<path d="M26.8581 81.2145C26.8581 81.2145 25.7352 81.9787 24.8619 82.8364C23.7625 83.9203 23.3492 84.6611 23.3492 84.6611C23.3492 84.6611 25.8678 93.7218 50.0714 93.9167C73.7681 94.1117 78.2283 84.3024 78.2283 84.3024C78.2283 84.3024 77.4563 83.1873 76.6454 82.3764C75.8344 81.5654 75.2964 81.1522 75.2964 81.1522C75.2964 81.1522 68.4268 88.9107 49.9076 88.708C32.254 88.5286 26.8581 81.2145 26.8581 81.2145Z" fill="#ED2D54"/>
<path d="M25.6417 83.7098C24.9945 84.435 25.0179 85.9399 26.9283 87.1953C28.9712 88.5365 32.2618 90.4469 36.9793 91.328C41.7826 92.2247 46.7886 91.9518 46.4767 90.3455C46.2661 89.246 42.1023 90.4781 34.718 87.554C30.3826 85.8385 29.0414 84.895 28.1603 84.2712C27.591 83.858 26.5774 82.6649 25.6417 83.7098ZM31.2325 75.4366C32.7374 75.4366 32.7374 73.0974 31.2325 73.0974C29.7276 73.0974 29.7276 75.4366 31.2325 75.4366Z" fill="#F178B6"/>
</svg>
