<svg width="38" height="38" viewBox="0 0 38 38" fill="none" xmlns="http://www.w3.org/2000/svg">
<path d="M19 11.0833C16.9003 11.0833 14.8867 11.9174 13.4021 13.4021C11.9174 14.8867 11.0833 16.9004 11.0833 19C11.0833 21.0996 11.9174 23.1133 13.4021 24.5979C14.8867 26.0826 16.9003 26.9167 19 26.9167C21.0996 26.9167 23.1132 26.0826 24.5979 24.5979C26.0826 23.1133 26.9166 21.0996 26.9166 19C26.9166 16.9004 26.0826 14.8867 24.5979 13.4021C23.1132 11.9174 21.0996 11.0833 19 11.0833Z" fill="#260D61"/>
<path fill-rule="evenodd" clip-rule="evenodd" d="M19 1.58334C19.4199 1.58334 19.8226 1.75016 20.1196 2.04709C20.4165 2.34402 20.5833 2.74675 20.5833 3.16668V4.75001C20.5833 5.16994 20.4165 5.57266 20.1196 5.8696C19.8226 6.16653 19.4199 6.33334 19 6.33334C18.5801 6.33334 18.1773 6.16653 17.8804 5.8696C17.5835 5.57266 17.4166 5.16994 17.4166 4.75001V3.16668C17.4166 2.74675 17.5835 2.34402 17.8804 2.04709C18.1773 1.75016 18.5801 1.58334 19 1.58334ZM5.2139 5.21393C5.51081 4.9171 5.91347 4.75035 6.33331 4.75035C6.75316 4.75035 7.15581 4.9171 7.45273 5.21393L9.82773 7.58893C10.1161 7.88755 10.2757 8.2875 10.2721 8.70265C10.2685 9.11779 10.102 9.51491 9.80844 9.80847C9.51488 10.102 9.11776 10.2686 8.70261 10.2722C8.28747 10.2758 7.88752 10.1162 7.5889 9.82776L5.2139 7.45276C4.91707 7.15584 4.75032 6.75319 4.75032 6.33334C4.75032 5.9135 4.91707 5.51085 5.2139 5.21393ZM32.7861 5.21393C33.0829 5.51085 33.2496 5.9135 33.2496 6.33334C33.2496 6.75319 33.0829 7.15584 32.7861 7.45276L30.4111 9.82776C30.265 9.97898 30.0903 10.0996 29.8971 10.1826C29.7039 10.2656 29.4962 10.3092 29.2859 10.3111C29.0757 10.3129 28.8672 10.2728 28.6726 10.1932C28.4781 10.1136 28.3013 9.99605 28.1526 9.84739C28.0039 9.69872 27.8864 9.52194 27.8068 9.32735C27.7271 9.13277 27.6871 8.92427 27.6889 8.71404C27.6907 8.50381 27.7344 8.29604 27.8174 8.10287C27.9004 7.9097 28.021 7.73498 28.1722 7.58893L30.5472 5.21393C30.8441 4.9171 31.2468 4.75035 31.6666 4.75035C32.0865 4.75035 32.4891 4.9171 32.7861 5.21393ZM1.58331 19C1.58331 18.5801 1.75013 18.1774 2.04706 17.8804C2.34399 17.5835 2.74672 17.4167 3.16665 17.4167H4.74998C5.16991 17.4167 5.57263 17.5835 5.86957 17.8804C6.1665 18.1774 6.33331 18.5801 6.33331 19C6.33331 19.4199 6.1665 19.8227 5.86957 20.1196C5.57263 20.4165 5.16991 20.5833 4.74998 20.5833H3.16665C2.74672 20.5833 2.34399 20.4165 2.04706 20.1196C1.75013 19.8227 1.58331 19.4199 1.58331 19ZM31.6666 19C31.6666 18.5801 31.8335 18.1774 32.1304 17.8804C32.4273 17.5835 32.8301 17.4167 33.25 17.4167H34.8333C35.2532 17.4167 35.656 17.5835 35.9529 17.8804C36.2498 18.1774 36.4166 18.5801 36.4166 19C36.4166 19.4199 36.2498 19.8227 35.9529 20.1196C35.656 20.4165 35.2532 20.5833 34.8333 20.5833H33.25C32.8301 20.5833 32.4273 20.4165 32.1304 20.1196C31.8335 19.8227 31.6666 19.4199 31.6666 19ZM9.82773 28.1723C10.1246 28.4692 10.2913 28.8718 10.2913 29.2917C10.2913 29.7115 10.1246 30.1142 9.82773 30.4111L7.45273 32.7861C7.15411 33.0745 6.75416 33.2341 6.33901 33.2305C5.92387 33.2269 5.52675 33.0604 5.23318 32.7668C4.93962 32.4732 4.7731 32.0761 4.7695 31.661C4.76589 31.2458 4.92548 30.8459 5.2139 30.5473L7.5889 28.1723C7.88582 27.8754 8.28847 27.7087 8.70831 27.7087C9.12816 27.7087 9.53081 27.8754 9.82773 28.1723ZM28.1722 28.1723C28.4691 27.8754 28.8718 27.7087 29.2916 27.7087C29.7115 27.7087 30.1141 27.8754 30.4111 28.1723L32.7861 30.5473C33.0745 30.8459 33.2341 31.2458 33.2305 31.661C33.2269 32.0761 33.0603 32.4732 32.7668 32.7668C32.4732 33.0604 32.0761 33.2269 31.6609 33.2305C31.2458 33.2341 30.8458 33.0745 30.5472 32.7861L28.1722 30.4111C27.8754 30.1142 27.7087 29.7115 27.7087 29.2917C27.7087 28.8718 27.8754 28.4692 28.1722 28.1723ZM19 31.6667C19.4199 31.6667 19.8226 31.8335 20.1196 32.1304C20.4165 32.4274 20.5833 32.8301 20.5833 33.25V34.8333C20.5833 35.2533 20.4165 35.656 20.1196 35.9529C19.8226 36.2499 19.4199 36.4167 19 36.4167C18.5801 36.4167 18.1773 36.2499 17.8804 35.9529C17.5835 35.656 17.4166 35.2533 17.4166 34.8333V33.25C17.4166 32.8301 17.5835 32.4274 17.8804 32.1304C18.1773 31.8335 18.5801 31.6667 19 31.6667Z" fill="#260D61"/>
</svg>
