<svg width="38" height="38" viewBox="0 0 38 38" fill="none" xmlns="http://www.w3.org/2000/svg">
<path d="M18.9999 11.0833C16.9003 11.0833 14.8867 11.9174 13.402 13.4021C11.9173 14.8867 11.0833 16.9004 11.0833 19C11.0833 21.0996 11.9173 23.1133 13.402 24.5979C14.8867 26.0826 16.9003 26.9167 18.9999 26.9167C21.0995 26.9167 23.1132 26.0826 24.5978 24.5979C26.0825 23.1133 26.9166 21.0996 26.9166 19C26.9166 16.9004 26.0825 14.8867 24.5978 13.4021C23.1132 11.9174 21.0995 11.0833 18.9999 11.0833Z" fill="#ED2D54"/>
<path fill-rule="evenodd" clip-rule="evenodd" d="M18.9999 1.58334C19.4198 1.58334 19.8226 1.75016 20.1195 2.04709C20.4164 2.34402 20.5833 2.74675 20.5833 3.16668V4.75001C20.5833 5.16994 20.4164 5.57266 20.1195 5.8696C19.8226 6.16653 19.4198 6.33334 18.9999 6.33334C18.58 6.33334 18.1773 6.16653 17.8803 5.8696C17.5834 5.57266 17.4166 5.16994 17.4166 4.75001V3.16668C17.4166 2.74675 17.5834 2.34402 17.8803 2.04709C18.1773 1.75016 18.58 1.58334 18.9999 1.58334ZM5.21384 5.21393C5.51075 4.9171 5.91341 4.75035 6.33325 4.75035C6.7531 4.75035 7.15575 4.9171 7.45267 5.21393L9.82767 7.58893C10.1161 7.88755 10.2757 8.2875 10.2721 8.70265C10.2685 9.11779 10.1019 9.51491 9.80838 9.80847C9.51482 10.102 9.1177 10.2686 8.70255 10.2722C8.28741 10.2758 7.88746 10.1162 7.58884 9.82776L5.21384 7.45276C4.91701 7.15584 4.75026 6.75319 4.75026 6.33334C4.75026 5.9135 4.91701 5.51085 5.21384 5.21393ZM32.786 5.21393C33.0828 5.51085 33.2496 5.9135 33.2496 6.33334C33.2496 6.75319 33.0828 7.15584 32.786 7.45276L30.411 9.82776C30.2649 9.97898 30.0902 10.0996 29.8971 10.1826C29.7039 10.2656 29.4961 10.3092 29.2859 10.3111C29.0757 10.3129 28.8672 10.2728 28.6726 10.1932C28.478 10.1136 28.3012 9.99605 28.1525 9.84739C28.0039 9.69872 27.8863 9.52194 27.8067 9.32735C27.7271 9.13277 27.687 8.92427 27.6889 8.71404C27.6907 8.50381 27.7344 8.29604 27.8173 8.10287C27.9003 7.9097 28.0209 7.73498 28.1722 7.58893L30.5472 5.21393C30.8441 4.9171 31.2467 4.75035 31.6666 4.75035C32.0864 4.75035 32.4891 4.9171 32.786 5.21393ZM1.58325 19C1.58325 18.5801 1.75007 18.1774 2.047 17.8804C2.34393 17.5835 2.74666 17.4167 3.16659 17.4167H4.74992C5.16984 17.4167 5.57257 17.5835 5.8695 17.8804C6.16644 18.1774 6.33325 18.5801 6.33325 19C6.33325 19.4199 6.16644 19.8227 5.8695 20.1196C5.57257 20.4165 5.16984 20.5833 4.74992 20.5833H3.16659C2.74666 20.5833 2.34393 20.4165 2.047 20.1196C1.75007 19.8227 1.58325 19.4199 1.58325 19ZM31.6666 19C31.6666 18.5801 31.8334 18.1774 32.1303 17.8804C32.4273 17.5835 32.83 17.4167 33.2499 17.4167H34.8333C35.2532 17.4167 35.6559 17.5835 35.9528 17.8804C36.2498 18.1774 36.4166 18.5801 36.4166 19C36.4166 19.4199 36.2498 19.8227 35.9528 20.1196C35.6559 20.4165 35.2532 20.5833 34.8333 20.5833H33.2499C32.83 20.5833 32.4273 20.4165 32.1303 20.1196C31.8334 19.8227 31.6666 19.4199 31.6666 19ZM9.82767 28.1723C10.1245 28.4692 10.2912 28.8718 10.2912 29.2917C10.2912 29.7115 10.1245 30.1142 9.82767 30.4111L7.45267 32.7861C7.15405 33.0745 6.75409 33.2341 6.33895 33.2305C5.9238 33.2269 5.52669 33.0604 5.23312 32.7668C4.93956 32.4732 4.77304 32.0761 4.76943 31.661C4.76583 31.2458 4.92542 30.8459 5.21384 30.5473L7.58884 28.1723C7.88575 27.8754 8.28841 27.7087 8.70825 27.7087C9.12809 27.7087 9.53075 27.8754 9.82767 28.1723ZM28.1722 28.1723C28.4691 27.8754 28.8717 27.7087 29.2916 27.7087C29.7114 27.7087 30.1141 27.8754 30.411 28.1723L32.786 30.5473C33.0744 30.8459 33.234 31.2458 33.2304 31.661C33.2268 32.0761 33.0603 32.4732 32.7667 32.7668C32.4732 33.0604 32.076 33.2269 31.6609 33.2305C31.2457 33.2341 30.8458 33.0745 30.5472 32.7861L28.1722 30.4111C27.8753 30.1142 27.7086 29.7115 27.7086 29.2917C27.7086 28.8718 27.8753 28.4692 28.1722 28.1723ZM18.9999 31.6667C19.4198 31.6667 19.8226 31.8335 20.1195 32.1304C20.4164 32.4274 20.5833 32.8301 20.5833 33.25V34.8333C20.5833 35.2533 20.4164 35.656 20.1195 35.9529C19.8226 36.2499 19.4198 36.4167 18.9999 36.4167C18.58 36.4167 18.1773 36.2499 17.8803 35.9529C17.5834 35.656 17.4166 35.2533 17.4166 34.8333V33.25C17.4166 32.8301 17.5834 32.4274 17.8803 32.1304C18.1773 31.8335 18.58 31.6667 18.9999 31.6667Z" fill="#ED2D54"/>
</svg>
